<?xml version="1.0" encoding="UTF-8" standalone="no"?><svg xmlns="http://www.w3.org/2000/svg" xmlns:xlink="http://www.w3.org/1999/xlink" clip-rule="evenodd" stroke-miterlimit="4.00" viewBox="0 0 726 23"><desc>SVG generated by Keynote</desc><defs></defs><g transform="matrix(1.00, 0.00, -0.00, -1.00, 0.0, 23.0)"><text xml:space="preserve" font-family="Monaco" font-size="18.0" fill="#000000" transform="matrix(1.00, 0.00, -0.00, -1.00, 0.0, 7.0)">h</text><text xml:space="preserve" font-family="Monaco" font-size="18.0" fill="#000000" transform="matrix(1.00, 0.00, -0.00, -1.00, 10.8, 7.0)">t</text><text xml:space="preserve" font-family="Monaco" font-size="18.0" fill="#000000" transform="matrix(1.00, 0.00, -0.00, -1.00, 21.6, 7.0)">t</text><text xml:space="preserve" font-family="Monaco" font-size="18.0" fill="#000000" transform="matrix(1.00, 0.00, -0.00, -1.00, 32.4, 7.0)">p</text><text xml:space="preserve" font-family="Monaco" font-size="18.0" fill="#000000" transform="matrix(1.00, 0.00, -0.00, -1.00, 43.2, 7.0)">s</text><text xml:space="preserve" font-family="Monaco" font-size="18.0" fill="#000000" transform="matrix(1.00, 0.00, -0.00, -1.00, 54.0, 7.0)">:</text><text xml:space="preserve" font-family="Monaco" font-size="18.0" fill="#000000" transform="matrix(1.00, 0.00, -0.00, -1.00, 64.8, 7.0)">/</text><text xml:space="preserve" font-family="Monaco" font-size="18.0" fill="#000000" transform="matrix(1.00, 0.00, -0.00, -1.00, 75.6, 7.0)">/</text><text xml:space="preserve" font-family="Monaco" font-size="18.0" fill="#000000" transform="matrix(1.00, 0.00, -0.00, -1.00, 86.4, 7.0)">f</text><text xml:space="preserve" font-family="Monaco" font-size="18.0" fill="#000000" transform="matrix(1.00, 0.00, -0.00, -1.00, 97.2, 7.0)">a</text><text xml:space="preserve" font-family="Monaco" font-size="18.0" fill="#000000" transform="matrix(1.00, 0.00, -0.00, -1.00, 108.0, 7.0)">c</text><text xml:space="preserve" font-family="Monaco" font-size="18.0" fill="#000000" transform="matrix(1.00, 0.00, -0.00, -1.00, 118.8, 7.0)">e</text><text xml:space="preserve" font-family="Monaco" font-size="18.0" fill="#000000" transform="matrix(1.00, 0.00, -0.00, -1.00, 129.6, 7.0)">b</text><text xml:space="preserve" font-family="Monaco" font-size="18.0" fill="#000000" transform="matrix(1.00, 0.00, -0.00, -1.00, 140.4, 7.0)">o</text><text xml:space="preserve" font-family="Monaco" font-size="18.0" fill="#000000" transform="matrix(1.00, 0.00, -0.00, -1.00, 151.2, 7.0)">o</text><text xml:space="preserve" font-family="Monaco" font-size="18.0" fill="#000000" transform="matrix(1.00, 0.00, -0.00, -1.00, 162.1, 7.0)">k</text><text xml:space="preserve" font-family="Monaco" font-size="18.0" fill="#000000" transform="matrix(1.00, 0.00, -0.00, -1.00, 172.9, 7.0)">.</text><text xml:space="preserve" font-family="Monaco" font-size="18.0" fill="#000000" transform="matrix(1.00, 0.00, -0.00, -1.00, 183.7, 7.0)">g</text><text xml:space="preserve" font-family="Monaco" font-size="18.0" fill="#000000" transform="matrix(1.00, 0.00, -0.00, -1.00, 194.5, 7.0)">i</text><text xml:space="preserve" font-family="Monaco" font-size="18.0" fill="#000000" transform="matrix(1.00, 0.00, -0.00, -1.00, 205.3, 7.0)">t</text><text xml:space="preserve" font-family="Monaco" font-size="18.0" fill="#000000" transform="matrix(1.00, 0.00, -0.00, -1.00, 216.1, 7.0)">h</text><text xml:space="preserve" font-family="Monaco" font-size="18.0" fill="#000000" transform="matrix(1.00, 0.00, -0.00, -1.00, 226.9, 7.0)">u</text><text xml:space="preserve" font-family="Monaco" font-size="18.0" fill="#000000" transform="matrix(1.00, 0.00, -0.00, -1.00, 237.7, 7.0)">b</text><text xml:space="preserve" font-family="Monaco" font-size="18.0" fill="#000000" transform="matrix(1.00, 0.00, -0.00, -1.00, 248.5, 7.0)">.</text><text xml:space="preserve" font-family="Monaco" font-size="18.0" fill="#000000" transform="matrix(1.00, 0.00, -0.00, -1.00, 259.3, 7.0)">i</text><text xml:space="preserve" font-family="Monaco" font-size="18.0" fill="#000000" transform="matrix(1.00, 0.00, -0.00, -1.00, 270.1, 7.0)">o</text><text xml:space="preserve" font-family="Monaco" font-size="18.0" fill="#000000" transform="matrix(1.00, 0.00, -0.00, -1.00, 280.9, 7.0)">/</text><text xml:space="preserve" font-family="Monaco" font-size="18.0" fill="#000000" transform="matrix(1.00, 0.00, -0.00, -1.00, 291.7, 7.0)">f</text><text xml:space="preserve" font-family="Monaco" font-size="18.0" fill="#000000" transform="matrix(1.00, 0.00, -0.00, -1.00, 302.5, 7.0)">l</text><text xml:space="preserve" font-family="Monaco" font-size="18.0" fill="#000000" transform="matrix(1.00, 0.00, -0.00, -1.00, 313.3, 7.0)">u</text><text xml:space="preserve" font-family="Monaco" font-size="18.0" fill="#000000" transform="matrix(1.00, 0.00, -0.00, -1.00, 324.1, 7.0)">x</text><text xml:space="preserve" font-family="Monaco" font-size="18.0" fill="#000000" transform="matrix(1.00, 0.00, -0.00, -1.00, 334.9, 7.0)">/</text><text xml:space="preserve" font-family="Monaco" font-size="18.0" fill="#000000" transform="matrix(1.00, 0.00, -0.00, -1.00, 345.7, 7.0)">d</text><text xml:space="preserve" font-family="Monaco" font-size="18.0" fill="#000000" transform="matrix(1.00, 0.00, -0.00, -1.00, 356.5, 7.0)">o</text><text xml:space="preserve" font-family="Monaco" font-size="18.0" fill="#000000" transform="matrix(1.00, 0.00, -0.00, -1.00, 367.3, 7.0)">c</text><text xml:space="preserve" font-family="Monaco" font-size="18.0" fill="#000000" transform="matrix(1.00, 0.00, -0.00, -1.00, 378.1, 7.0)">s</text><text xml:space="preserve" font-family="Monaco" font-size="18.0" fill="#000000" transform="matrix(1.00, 0.00, -0.00, -1.00, 388.9, 7.0)">/</text><text xml:space="preserve" font-family="Monaco" font-size="18.0" fill="#000000" transform="matrix(1.00, 0.00, -0.00, -1.00, 399.7, 7.0)">i</text><text xml:space="preserve" font-family="Monaco" font-size="18.0" fill="#000000" transform="matrix(1.00, 0.00, -0.00, -1.00, 410.5, 7.0)">n</text><text xml:space="preserve" font-family="Monaco" font-size="18.0" fill="#000000" transform="matrix(1.00, 0.00, -0.00, -1.00, 421.3, 7.0)">-</text><text xml:space="preserve" font-family="Monaco" font-size="18.0" fill="#000000" transform="matrix(1.00, 0.00, -0.00, -1.00, 432.1, 7.0)">d</text><text xml:space="preserve" font-family="Monaco" font-size="18.0" fill="#000000" transform="matrix(1.00, 0.00, -0.00, -1.00, 442.9, 7.0)">e</text><text xml:space="preserve" font-family="Monaco" font-size="18.0" fill="#000000" transform="matrix(1.00, 0.00, -0.00, -1.00, 453.7, 7.0)">p</text><text xml:space="preserve" font-family="Monaco" font-size="18.0" fill="#000000" transform="matrix(1.00, 0.00, -0.00, -1.00, 464.6, 7.0)">t</text><text xml:space="preserve" font-family="Monaco" font-size="18.0" fill="#000000" transform="matrix(1.00, 0.00, -0.00, -1.00, 475.4, 7.0)">h</text><text xml:space="preserve" font-family="Monaco" font-size="18.0" fill="#000000" transform="matrix(1.00, 0.00, -0.00, -1.00, 486.2, 7.0)">-</text><text xml:space="preserve" font-family="Monaco" font-size="18.0" fill="#000000" transform="matrix(1.00, 0.00, -0.00, -1.00, 497.0, 7.0)">o</text><text xml:space="preserve" font-family="Monaco" font-size="18.0" fill="#000000" transform="matrix(1.00, 0.00, -0.00, -1.00, 507.8, 7.0)">v</text><text xml:space="preserve" font-family="Monaco" font-size="18.0" fill="#000000" transform="matrix(1.00, 0.00, -0.00, -1.00, 518.6, 7.0)">e</text><text xml:space="preserve" font-family="Monaco" font-size="18.0" fill="#000000" transform="matrix(1.00, 0.00, -0.00, -1.00, 529.4, 7.0)">r</text><text xml:space="preserve" font-family="Monaco" font-size="18.0" fill="#000000" transform="matrix(1.00, 0.00, -0.00, -1.00, 540.2, 7.0)">v</text><text xml:space="preserve" font-family="Monaco" font-size="18.0" fill="#000000" transform="matrix(1.00, 0.00, -0.00, -1.00, 551.0, 7.0)">i</text><text xml:space="preserve" font-family="Monaco" font-size="18.0" fill="#000000" transform="matrix(1.00, 0.00, -0.00, -1.00, 561.8, 7.0)">e</text><text xml:space="preserve" font-family="Monaco" font-size="18.0" fill="#000000" transform="matrix(1.00, 0.00, -0.00, -1.00, 572.6, 7.0)">w</text><text xml:space="preserve" font-family="Monaco" font-size="18.0" fill="#000000" transform="matrix(1.00, 0.00, -0.00, -1.00, 583.4, 7.0)">.</text><text xml:space="preserve" font-family="Monaco" font-size="18.0" fill="#000000" transform="matrix(1.00, 0.00, -0.00, -1.00, 594.2, 7.0)">h</text><text xml:space="preserve" font-family="Monaco" font-size="18.0" fill="#000000" transform="matrix(1.00, 0.00, -0.00, -1.00, 605.0, 7.0)">t</text><text xml:space="preserve" font-family="Monaco" font-size="18.0" fill="#000000" transform="matrix(1.00, 0.00, -0.00, -1.00, 615.8, 7.0)">m</text><text xml:space="preserve" font-family="Monaco" font-size="18.0" fill="#000000" transform="matrix(1.00, 0.00, -0.00, -1.00, 626.6, 7.0)">l</text><text xml:space="preserve" font-family="Monaco" font-size="18.0" fill="#000000" transform="matrix(1.00, 0.00, -0.00, -1.00, 637.4, 7.0)">#</text><text xml:space="preserve" font-family="Monaco" font-size="18.0" fill="#000000" transform="matrix(1.00, 0.00, -0.00, -1.00, 648.2, 7.0)">c</text><text xml:space="preserve" font-family="Monaco" font-size="18.0" fill="#000000" transform="matrix(1.00, 0.00, -0.00, -1.00, 659.0, 7.0)">o</text><text xml:space="preserve" font-family="Monaco" font-size="18.0" fill="#000000" transform="matrix(1.00, 0.00, -0.00, -1.00, 669.8, 7.0)">n</text><text xml:space="preserve" font-family="Monaco" font-size="18.0" fill="#000000" transform="matrix(1.00, 0.00, -0.00, -1.00, 680.6, 7.0)">t</text><text xml:space="preserve" font-family="Monaco" font-size="18.0" fill="#000000" transform="matrix(1.00, 0.00, -0.00, -1.00, 691.4, 7.0)">e</text><text xml:space="preserve" font-family="Monaco" font-size="18.0" fill="#000000" transform="matrix(1.00, 0.00, -0.00, -1.00, 702.2, 7.0)">n</text><text xml:space="preserve" font-family="Monaco" font-size="18.0" fill="#000000" transform="matrix(1.00, 0.00, -0.00, -1.00, 713.0, 7.0)">t</text></g></svg>