<?xml version="1.0" encoding="UTF-8" standalone="no"?><svg xmlns="http://www.w3.org/2000/svg" xmlns:xlink="http://www.w3.org/1999/xlink" clip-rule="evenodd" stroke-miterlimit="4.00" viewBox="0 0 142 87"><desc>SVG generated by Keynote</desc><defs></defs><g transform="matrix(1.00, 0.00, -0.00, -1.00, 0.0, 87.0)"><image xlink:href="3145889C54769811A70CB73A79B539FA.png" width="136.00" height="81.00" transform="matrix(1.00, 0.00, -0.00, -1.00, 4.7, 82.6)" opacity="0.79"></image><g><clipPath id="clip-45"><path d="M 5.2 81.9 L 137.0 81.9 L 137.0 4.9 L 5.2 4.9 Z M 5.2 81.9 "></path></clipPath><g clip-path="url(#clip-45)"><image xlink:href="D5BAA0E7A80E113D25EB92D00157B4C8.jpeg" width="300.00" height="300.00" transform="matrix(1.00, 0.00, -0.00, -1.00, 5.2, 81.9)"></image><path d="M 5.2 81.9 L 137.0 81.9 L 137.0 4.9 L 5.2 4.9 Z M 5.2 81.9 " fill="#8336BB" fill-opacity="0.50"></path></g></g><g><clipPath id="clip-46"><path d="M 0.9 4.9 L 141.3 4.9 L 141.3 81.9 L 0.9 81.9 Z M 0.9 4.9 "></path></clipPath><g clip-path="url(#clip-46)"><text xml:space="preserve" font-family="Helvetica-Bold" font-weight="bold" font-size="33.0" fill="#FEFFFE" transform="matrix(1.00, 0.00, -0.00, -1.00, 14.0, 30.0)">G</text><text xml:space="preserve" font-family="Helvetica-Bold" font-weight="bold" font-size="33.0" fill="#FEFFFE" transform="matrix(1.00, 0.00, -0.00, -1.00, 39.7, 30.0)">a</text><text xml:space="preserve" font-family="Helvetica-Bold" font-weight="bold" font-size="33.0" fill="#FEFFFE" transform="matrix(1.00, 0.00, -0.00, -1.00, 58.0, 30.0)">d</text><text xml:space="preserve" font-family="Helvetica-Bold" font-weight="bold" font-size="33.0" fill="#FEFFFE" transform="matrix(1.00, 0.00, -0.00, -1.00, 78.2, 30.0)">g</text><text xml:space="preserve" font-family="Helvetica-Bold" font-weight="bold" font-size="33.0" fill="#FEFFFE" transform="matrix(1.00, 0.00, -0.00, -1.00, 98.3, 30.0)">e</text><text xml:space="preserve" font-family="Helvetica-Bold" font-weight="bold" font-size="33.0" fill="#FEFFFE" transform="matrix(1.00, 0.00, -0.00, -1.00, 116.7, 30.0)">t</text></g></g></g></svg>