<?xml version="1.0" encoding="UTF-8" standalone="no"?><svg xmlns="http://www.w3.org/2000/svg" xmlns:xlink="http://www.w3.org/1999/xlink" clip-rule="evenodd" stroke-miterlimit="4.00" viewBox="0 0 1024 768"><desc>SVG generated by Keynote</desc><defs></defs><g transform="matrix(1.00, 0.00, -0.00, -1.00, 0.0, 768.0)"><path d="M 0.0 768.0 L 1024.0 768.0 L 1024.0 0.0 L 0.0 0.0 Z M 0.0 768.0 " fill="#FEFFFE"></path><text xml:space="preserve" font-family="Helvetica-Light" font-size="80.0" fill="#000000" transform="matrix(1.00, 0.00, -0.00, -1.00, 395.0, 618.0)">W</text><text xml:space="preserve" font-family="Helvetica-Light" font-size="80.0" fill="#000000" transform="matrix(1.00, 0.00, -0.00, -1.00, 466.1, 618.0)">i</text><text xml:space="preserve" font-family="Helvetica-Light" font-size="80.0" fill="#000000" transform="matrix(1.00, 0.00, -0.00, -1.00, 483.9, 618.0)">r</text><text xml:space="preserve" font-family="Helvetica-Light" font-size="80.0" fill="#000000" transform="matrix(1.00, 0.00, -0.00, -1.00, 510.5, 618.0)">i</text><text xml:space="preserve" font-family="Helvetica-Light" font-size="80.0" fill="#000000" transform="matrix(1.00, 0.00, -0.00, -1.00, 528.3, 618.0)">n</text><text xml:space="preserve" font-family="Helvetica-Light" font-size="80.0" fill="#000000" transform="matrix(1.00, 0.00, -0.00, -1.00, 572.8, 618.0)">g</text><text xml:space="preserve" font-family="Helvetica-Light" font-size="14.8" fill="#000000" transform="matrix(1.00, 0.00, -0.00, -1.00, 36.6, 561.9)">•</text><text xml:space="preserve" font-family="Helvetica-Light" font-size="19.7" fill="#000000" transform="matrix(1.00, 0.00, -0.00, -1.00, 56.0, 560.0)">P</text><text xml:space="preserve" font-family="Helvetica-Light" font-size="19.7" fill="#000000" transform="matrix(1.00, 0.00, -0.00, -1.00, 68.0, 560.0)">i</text><text xml:space="preserve" font-family="Helvetica-Light" font-size="19.7" fill="#000000" transform="matrix(1.00, 0.00, -0.00, -1.00, 72.4, 560.0)">p</text><text xml:space="preserve" font-family="Helvetica-Light" font-size="19.7" fill="#000000" transform="matrix(1.00, 0.00, -0.00, -1.00, 84.5, 560.0)">e</text><text xml:space="preserve" font-family="Helvetica-Light" font-size="19.7" fill="#000000" transform="matrix(1.00, 0.00, -0.00, -1.00, 95.4, 560.0)">.</text><text xml:space="preserve" font-family="Helvetica-Light" font-size="19.7" fill="#000000" transform="matrix(1.00, 0.00, -0.00, -1.00, 100.9, 560.0)">C</text><text xml:space="preserve" font-family="Helvetica-Light" font-size="19.7" fill="#000000" transform="matrix(1.00, 0.00, -0.00, -1.00, 115.2, 560.0)">o</text><text xml:space="preserve" font-family="Helvetica-Light" font-size="19.7" fill="#000000" transform="matrix(1.00, 0.00, -0.00, -1.00, 126.1, 560.0)">n</text><text xml:space="preserve" font-family="Helvetica-Light" font-size="19.7" fill="#000000" transform="matrix(1.00, 0.00, -0.00, -1.00, 137.1, 560.0)">c</text><text xml:space="preserve" font-family="Helvetica-Light" font-size="19.7" fill="#000000" transform="matrix(1.00, 0.00, -0.00, -1.00, 148.1, 560.0)">u</text><text xml:space="preserve" font-family="Helvetica-Light" font-size="19.7" fill="#000000" transform="matrix(1.00, 0.00, -0.00, -1.00, 159.0, 560.0)">r</text><text xml:space="preserve" font-family="Helvetica-Light" font-size="19.7" fill="#000000" transform="matrix(1.00, 0.00, -0.00, -1.00, 165.6, 560.0)">r</text><text xml:space="preserve" font-family="Helvetica-Light" font-size="19.7" fill="#000000" transform="matrix(1.00, 0.00, -0.00, -1.00, 171.8, 560.0)">e</text><text xml:space="preserve" font-family="Helvetica-Light" font-size="19.7" fill="#000000" transform="matrix(1.00, 0.00, -0.00, -1.00, 182.8, 560.0)">n</text><text xml:space="preserve" font-family="Helvetica-Light" font-size="19.7" fill="#000000" transform="matrix(1.00, 0.00, -0.00, -1.00, 193.7, 560.0)">t</text><text xml:space="preserve" font-family="Helvetica-Light" font-size="19.7" fill="#000000" transform="matrix(1.00, 0.00, -0.00, -1.00, 199.2, 560.0)">.</text><text xml:space="preserve" font-family="Helvetica-Light" font-size="19.7" fill="#000000" transform="matrix(1.00, 0.00, -0.00, -1.00, 204.7, 560.0)">I</text><text xml:space="preserve" font-family="Helvetica-Light" font-size="19.7" fill="#000000" transform="matrix(1.00, 0.00, -0.00, -1.00, 210.2, 560.0)">n</text><text xml:space="preserve" font-family="Helvetica-Light" font-size="19.7" fill="#000000" transform="matrix(1.00, 0.00, -0.00, -1.00, 221.1, 560.0)">p</text><text xml:space="preserve" font-family="Helvetica-Light" font-size="19.7" fill="#000000" transform="matrix(1.00, 0.00, -0.00, -1.00, 233.2, 560.0)">u</text><text xml:space="preserve" font-family="Helvetica-Light" font-size="19.7" fill="#000000" transform="matrix(1.00, 0.00, -0.00, -1.00, 244.1, 560.0)">t</text><text xml:space="preserve" font-family="Helvetica-Light" font-size="19.7" fill="#000000" transform="matrix(1.00, 0.00, -0.00, -1.00, 249.6, 560.0)"> </text><text xml:space="preserve" font-family="Helvetica-Light" font-size="19.7" fill="#000000" transform="matrix(1.00, 0.00, -0.00, -1.00, 255.1, 560.0)">i</text><text xml:space="preserve" font-family="Helvetica-Light" font-size="19.7" fill="#000000" transform="matrix(1.00, 0.00, -0.00, -1.00, 259.5, 560.0)">s</text><text xml:space="preserve" font-family="Helvetica-Light" font-size="19.7" fill="#000000" transform="matrix(1.00, 0.00, -0.00, -1.00, 269.4, 560.0)"> </text><text xml:space="preserve" font-family="Helvetica-Light" font-size="19.7" fill="#000000" transform="matrix(1.00, 0.00, -0.00, -1.00, 274.8, 560.0)">a</text><text xml:space="preserve" font-family="Helvetica-Light" font-size="19.7" fill="#000000" transform="matrix(1.00, 0.00, -0.00, -1.00, 285.8, 560.0)">n</text><text xml:space="preserve" font-family="Helvetica-Light" font-size="19.7" fill="#000000" transform="matrix(1.00, 0.00, -0.00, -1.00, 296.8, 560.0)"> </text><text xml:space="preserve" font-family="Helvetica-Light" font-size="19.7" fill="#000000" transform="matrix(1.00, 0.00, -0.00, -1.00, 302.2, 560.0)">E</text><text xml:space="preserve" font-family="Helvetica-Light" font-size="19.7" fill="#000000" transform="matrix(1.00, 0.00, -0.00, -1.00, 314.3, 560.0)">l</text><text xml:space="preserve" font-family="Helvetica-Light" font-size="19.7" fill="#000000" transform="matrix(1.00, 0.00, -0.00, -1.00, 318.7, 560.0)">m</text><text xml:space="preserve" font-family="Helvetica-Light" font-size="19.7" fill="#000000" transform="matrix(1.00, 0.00, -0.00, -1.00, 335.1, 560.0)">-</text><text xml:space="preserve" font-family="Helvetica-Light" font-size="19.7" fill="#000000" transform="matrix(1.00, 0.00, -0.00, -1.00, 341.7, 560.0)">l</text><text xml:space="preserve" font-family="Helvetica-Light" font-size="19.7" fill="#000000" transform="matrix(1.00, 0.00, -0.00, -1.00, 346.0, 560.0)">i</text><text xml:space="preserve" font-family="Helvetica-Light" font-size="19.7" fill="#000000" transform="matrix(1.00, 0.00, -0.00, -1.00, 350.4, 560.0)">k</text><text xml:space="preserve" font-family="Helvetica-Light" font-size="19.7" fill="#000000" transform="matrix(1.00, 0.00, -0.00, -1.00, 360.3, 560.0)">e</text><text xml:space="preserve" font-family="Helvetica-Light" font-size="19.7" fill="#000000" transform="matrix(1.00, 0.00, -0.00, -1.00, 371.2, 560.0)"> </text><text xml:space="preserve" font-family="Helvetica-Light" font-size="19.7" fill="#000000" transform="matrix(1.00, 0.00, -0.00, -1.00, 376.7, 560.0)">m</text><text xml:space="preserve" font-family="Helvetica-Light" font-size="19.7" fill="#000000" transform="matrix(1.00, 0.00, -0.00, -1.00, 393.2, 560.0)">a</text><text xml:space="preserve" font-family="Helvetica-Light" font-size="19.7" fill="#000000" transform="matrix(1.00, 0.00, -0.00, -1.00, 404.1, 560.0)">i</text><text xml:space="preserve" font-family="Helvetica-Light" font-size="19.7" fill="#000000" transform="matrix(1.00, 0.00, -0.00, -1.00, 408.5, 560.0)">l</text><text xml:space="preserve" font-family="Helvetica-Light" font-size="19.7" fill="#000000" transform="matrix(1.00, 0.00, -0.00, -1.00, 412.9, 560.0)">b</text><text xml:space="preserve" font-family="Helvetica-Light" font-size="19.7" fill="#000000" transform="matrix(1.00, 0.00, -0.00, -1.00, 424.9, 560.0)">o</text><text xml:space="preserve" font-family="Helvetica-Light" font-size="19.7" fill="#000000" transform="matrix(1.00, 0.00, -0.00, -1.00, 435.9, 560.0)">x</text><text xml:space="preserve" font-family="Helvetica-Light" font-size="19.7" fill="#000000" transform="matrix(1.00, 0.00, -0.00, -1.00, 445.7, 560.0)"> </text><text xml:space="preserve" font-family="Helvetica-Light" font-size="19.7" fill="#000000" transform="matrix(1.00, 0.00, -0.00, -1.00, 451.2, 560.0)">o</text><text xml:space="preserve" font-family="Helvetica-Light" font-size="19.7" fill="#000000" transform="matrix(1.00, 0.00, -0.00, -1.00, 462.2, 560.0)">f</text><text xml:space="preserve" font-family="Helvetica-Light" font-size="19.7" fill="#000000" transform="matrix(1.00, 0.00, -0.00, -1.00, 467.7, 560.0)"> </text><text xml:space="preserve" font-family="Helvetica-Light" font-size="19.7" fill="#000000" transform="matrix(1.00, 0.00, -0.00, -1.00, 473.2, 560.0)">m</text><text xml:space="preserve" font-family="Helvetica-Light" font-size="19.7" fill="#000000" transform="matrix(1.00, 0.00, -0.00, -1.00, 489.6, 560.0)">e</text><text xml:space="preserve" font-family="Helvetica-Light" font-size="19.7" fill="#000000" transform="matrix(1.00, 0.00, -0.00, -1.00, 500.5, 560.0)">s</text><text xml:space="preserve" font-family="Helvetica-Light" font-size="19.7" fill="#000000" transform="matrix(1.00, 0.00, -0.00, -1.00, 510.4, 560.0)">s</text><text xml:space="preserve" font-family="Helvetica-Light" font-size="19.7" fill="#000000" transform="matrix(1.00, 0.00, -0.00, -1.00, 520.3, 560.0)">a</text><text xml:space="preserve" font-family="Helvetica-Light" font-size="19.7" fill="#000000" transform="matrix(1.00, 0.00, -0.00, -1.00, 531.2, 560.0)">g</text><text xml:space="preserve" font-family="Helvetica-Light" font-size="19.7" fill="#000000" transform="matrix(1.00, 0.00, -0.00, -1.00, 543.3, 560.0)">e</text><text xml:space="preserve" font-family="Helvetica-Light" font-size="19.7" fill="#000000" transform="matrix(1.00, 0.00, -0.00, -1.00, 554.2, 560.0)">s</text><text xml:space="preserve" font-family="Helvetica-Light" font-size="19.7" fill="#000000" transform="matrix(1.00, 0.00, -0.00, -1.00, 564.1, 560.0)">:</text><text xml:space="preserve" font-family="Helvetica-Light" font-size="18.0" fill="#000000" transform="matrix(1.00, 0.00, -0.00, -1.00, 501.0, 18.0)">1</text><text xml:space="preserve" font-family="Helvetica-Light" font-size="18.0" fill="#000000" transform="matrix(1.00, 0.00, -0.00, -1.00, 511.0, 18.0)">7</text></g></svg>