<?xml version="1.0" encoding="UTF-8" standalone="no"?><svg xmlns="http://www.w3.org/2000/svg" xmlns:xlink="http://www.w3.org/1999/xlink" clip-rule="evenodd" stroke-miterlimit="4.00" viewBox="0 0 1024 768"><desc>SVG generated by Keynote</desc><defs></defs><g transform="matrix(1.00, 0.00, -0.00, -1.00, 0.0, 768.0)"><path d="M 0.0 768.0 L 1024.0 768.0 L 1024.0 0.0 L 0.0 0.0 Z M 0.0 768.0 " fill="#FEFFFF"></path><text xml:space="preserve" font-family="Helvetica-Light" font-size="67.2" fill="#000000" transform="matrix(1.00, 0.00, -0.00, -1.00, 137.0, 663.0)">M</text><text xml:space="preserve" font-family="Helvetica-Light" font-size="67.2" fill="#000000" transform="matrix(1.00, 0.00, -0.00, -1.00, 193.0, 663.0)">a</text><text xml:space="preserve" font-family="Helvetica-Light" font-size="67.2" fill="#000000" transform="matrix(1.00, 0.00, -0.00, -1.00, 230.3, 663.0)">g</text><text xml:space="preserve" font-family="Helvetica-Light" font-size="67.2" fill="#000000" transform="matrix(1.00, 0.00, -0.00, -1.00, 271.4, 663.0)">n</text><text xml:space="preserve" font-family="Helvetica-Light" font-size="67.2" fill="#000000" transform="matrix(1.00, 0.00, -0.00, -1.00, 308.8, 663.0)">i</text><text xml:space="preserve" font-family="Helvetica-Light" font-size="67.2" fill="#000000" transform="matrix(1.00, 0.00, -0.00, -1.00, 323.7, 663.0)">f</text><text xml:space="preserve" font-family="Helvetica-Light" font-size="67.2" fill="#000000" transform="matrix(1.00, 0.00, -0.00, -1.00, 342.4, 663.0)">y</text><text xml:space="preserve" font-family="Helvetica-Light" font-size="67.2" fill="#000000" transform="matrix(1.00, 0.00, -0.00, -1.00, 376.0, 663.0)">i</text><text xml:space="preserve" font-family="Helvetica-Light" font-size="67.2" fill="#000000" transform="matrix(1.00, 0.00, -0.00, -1.00, 390.9, 663.0)">n</text><text xml:space="preserve" font-family="Helvetica-Light" font-size="67.2" fill="#000000" transform="matrix(1.00, 0.00, -0.00, -1.00, 428.2, 663.0)">g</text><text xml:space="preserve" font-family="Helvetica-Light" font-size="67.2" fill="#000000" transform="matrix(1.00, 0.00, -0.00, -1.00, 469.3, 663.0)"> </text><text xml:space="preserve" font-family="Helvetica-Light" font-size="67.2" fill="#000000" transform="matrix(1.00, 0.00, -0.00, -1.00, 488.0, 663.0)">a</text><text xml:space="preserve" font-family="Helvetica-Light" font-size="67.2" fill="#000000" transform="matrix(1.00, 0.00, -0.00, -1.00, 525.3, 663.0)">n</text><text xml:space="preserve" font-family="Helvetica-Light" font-size="67.2" fill="#000000" transform="matrix(1.00, 0.00, -0.00, -1.00, 562.7, 663.0)">d</text><text xml:space="preserve" font-family="Helvetica-Light" font-size="67.2" fill="#000000" transform="matrix(1.00, 0.00, -0.00, -1.00, 603.8, 663.0)"> </text><text xml:space="preserve" font-family="Helvetica-Light" font-size="67.2" fill="#000000" transform="matrix(1.00, 0.00, -0.00, -1.00, 622.5, 663.0)">Z</text><text xml:space="preserve" font-family="Helvetica-Light" font-size="67.2" fill="#000000" transform="matrix(1.00, 0.00, -0.00, -1.00, 663.5, 663.0)">o</text><text xml:space="preserve" font-family="Helvetica-Light" font-size="67.2" fill="#000000" transform="matrix(1.00, 0.00, -0.00, -1.00, 700.9, 663.0)">o</text><text xml:space="preserve" font-family="Helvetica-Light" font-size="67.2" fill="#000000" transform="matrix(1.00, 0.00, -0.00, -1.00, 738.2, 663.0)">m</text><text xml:space="preserve" font-family="Helvetica-Light" font-size="67.2" fill="#000000" transform="matrix(1.00, 0.00, -0.00, -1.00, 794.2, 663.0)">i</text><text xml:space="preserve" font-family="Helvetica-Light" font-size="67.2" fill="#000000" transform="matrix(1.00, 0.00, -0.00, -1.00, 809.1, 663.0)">n</text><text xml:space="preserve" font-family="Helvetica-Light" font-size="67.2" fill="#000000" transform="matrix(1.00, 0.00, -0.00, -1.00, 846.5, 663.0)">g</text><text xml:space="preserve" font-family="Helvetica-Light" font-size="67.2" fill="#000000" transform="matrix(1.00, 0.00, -0.00, -1.00, 887.6, 663.0)"> </text><text xml:space="preserve" font-family="Helvetica-Light" font-size="67.2" fill="#000000" transform="matrix(1.00, 0.00, -0.00, -1.00, 381.0, 583.0)">G</text><text xml:space="preserve" font-family="Helvetica-Light" font-size="67.2" fill="#000000" transform="matrix(1.00, 0.00, -0.00, -1.00, 433.3, 583.0)">a</text><text xml:space="preserve" font-family="Helvetica-Light" font-size="67.2" fill="#000000" transform="matrix(1.00, 0.00, -0.00, -1.00, 470.6, 583.0)">d</text><text xml:space="preserve" font-family="Helvetica-Light" font-size="67.2" fill="#000000" transform="matrix(1.00, 0.00, -0.00, -1.00, 511.7, 583.0)">g</text><text xml:space="preserve" font-family="Helvetica-Light" font-size="67.2" fill="#000000" transform="matrix(1.00, 0.00, -0.00, -1.00, 552.8, 583.0)">e</text><text xml:space="preserve" font-family="Helvetica-Light" font-size="67.2" fill="#000000" transform="matrix(1.00, 0.00, -0.00, -1.00, 590.1, 583.0)">t</text><text xml:space="preserve" font-family="Helvetica-Light" font-size="67.2" fill="#000000" transform="matrix(1.00, 0.00, -0.00, -1.00, 608.8, 583.0)">s</text><text xml:space="preserve" font-family="Helvetica-Light" font-size="25.5" fill="#000000" transform="matrix(1.00, 0.00, -0.00, -1.00, 114.0, 495.4)">•</text><text xml:space="preserve" font-family="Helvetica-Light" font-size="34.0" fill="#000000" transform="matrix(1.00, 0.00, -0.00, -1.00, 147.0, 492.0)">M</text><text xml:space="preserve" font-family="Helvetica-Light" font-size="34.0" fill="#000000" transform="matrix(1.00, 0.00, -0.00, -1.00, 175.3, 492.0)">a</text><text xml:space="preserve" font-family="Helvetica-Light" font-size="34.0" fill="#000000" transform="matrix(1.00, 0.00, -0.00, -1.00, 194.2, 492.0)">g</text><text xml:space="preserve" font-family="Helvetica-Light" font-size="34.0" fill="#000000" transform="matrix(1.00, 0.00, -0.00, -1.00, 215.0, 492.0)">n</text><text xml:space="preserve" font-family="Helvetica-Light" font-size="34.0" fill="#000000" transform="matrix(1.00, 0.00, -0.00, -1.00, 233.9, 492.0)">i</text><text xml:space="preserve" font-family="Helvetica-Light" font-size="34.0" fill="#000000" transform="matrix(1.00, 0.00, -0.00, -1.00, 241.5, 492.0)">f</text><text xml:space="preserve" font-family="Helvetica-Light" font-size="34.0" fill="#000000" transform="matrix(1.00, 0.00, -0.00, -1.00, 250.9, 492.0)">y</text><text xml:space="preserve" font-family="Helvetica-Light" font-size="34.0" fill="#000000" transform="matrix(1.00, 0.00, -0.00, -1.00, 267.9, 492.0)"> </text><text xml:space="preserve" font-family="Helvetica-Light" font-size="34.0" fill="#000000" transform="matrix(1.00, 0.00, -0.00, -1.00, 277.4, 492.0)">a</text><text xml:space="preserve" font-family="Helvetica-Light" font-size="34.0" fill="#000000" transform="matrix(1.00, 0.00, -0.00, -1.00, 296.3, 492.0)">l</text><text xml:space="preserve" font-family="Helvetica-Light" font-size="34.0" fill="#000000" transform="matrix(1.00, 0.00, -0.00, -1.00, 303.8, 492.0)">l</text><text xml:space="preserve" font-family="Helvetica-Light" font-size="34.0" fill="#000000" transform="matrix(1.00, 0.00, -0.00, -1.00, 311.4, 492.0)">o</text><text xml:space="preserve" font-family="Helvetica-Light" font-size="34.0" fill="#000000" transform="matrix(1.00, 0.00, -0.00, -1.00, 330.3, 492.0)">w</text><text xml:space="preserve" font-family="Helvetica-Light" font-size="34.0" fill="#000000" transform="matrix(1.00, 0.00, -0.00, -1.00, 354.8, 492.0)">s</text><text xml:space="preserve" font-family="Helvetica-Light" font-size="34.0" fill="#000000" transform="matrix(1.00, 0.00, -0.00, -1.00, 371.8, 492.0)"> </text><text xml:space="preserve" font-family="Helvetica-Light" font-size="34.0" fill="#000000" transform="matrix(1.00, 0.00, -0.00, -1.00, 381.3, 492.0)">m</text><text xml:space="preserve" font-family="Helvetica-Light" font-size="34.0" fill="#000000" transform="matrix(1.00, 0.00, -0.00, -1.00, 409.6, 492.0)">o</text><text xml:space="preserve" font-family="Helvetica-Light" font-size="34.0" fill="#000000" transform="matrix(1.00, 0.00, -0.00, -1.00, 428.5, 492.0)">d</text><text xml:space="preserve" font-family="Helvetica-Light" font-size="34.0" fill="#000000" transform="matrix(1.00, 0.00, -0.00, -1.00, 449.3, 492.0)">i</text><text xml:space="preserve" font-family="Helvetica-Light" font-size="34.0" fill="#000000" transform="matrix(1.00, 0.00, -0.00, -1.00, 456.8, 492.0)">f</text><text xml:space="preserve" font-family="Helvetica-Light" font-size="34.0" fill="#000000" transform="matrix(1.00, 0.00, -0.00, -1.00, 466.3, 492.0)">y</text><text xml:space="preserve" font-family="Helvetica-Light" font-size="34.0" fill="#000000" transform="matrix(1.00, 0.00, -0.00, -1.00, 483.3, 492.0)">i</text><text xml:space="preserve" font-family="Helvetica-Light" font-size="34.0" fill="#000000" transform="matrix(1.00, 0.00, -0.00, -1.00, 490.8, 492.0)">n</text><text xml:space="preserve" font-family="Helvetica-Light" font-size="34.0" fill="#000000" transform="matrix(1.00, 0.00, -0.00, -1.00, 509.7, 492.0)">g</text><text xml:space="preserve" font-family="Helvetica-Light" font-size="34.0" fill="#000000" transform="matrix(1.00, 0.00, -0.00, -1.00, 530.5, 492.0)"> </text><text xml:space="preserve" font-family="Helvetica-Light" font-size="34.0" fill="#000000" transform="matrix(1.00, 0.00, -0.00, -1.00, 539.9, 492.0)">t</text><text xml:space="preserve" font-family="Helvetica-Light" font-size="34.0" fill="#000000" transform="matrix(1.00, 0.00, -0.00, -1.00, 549.4, 492.0)">h</text><text xml:space="preserve" font-family="Helvetica-Light" font-size="34.0" fill="#000000" transform="matrix(1.00, 0.00, -0.00, -1.00, 568.3, 492.0)">e</text><text xml:space="preserve" font-family="Helvetica-Light" font-size="34.0" fill="#000000" transform="matrix(1.00, 0.00, -0.00, -1.00, 587.2, 492.0)"> </text><text xml:space="preserve" font-family="Helvetica-Light" font-size="34.0" fill="#000000" transform="matrix(1.00, 0.00, -0.00, -1.00, 596.6, 492.0)">A</text><text xml:space="preserve" font-family="Helvetica-Light" font-size="34.0" fill="#000000" transform="matrix(1.00, 0.00, -0.00, -1.00, 619.3, 492.0)">c</text><text xml:space="preserve" font-family="Helvetica-Light" font-size="34.0" fill="#000000" transform="matrix(1.00, 0.00, -0.00, -1.00, 638.2, 492.0)">t</text><text xml:space="preserve" font-family="Helvetica-Light" font-size="34.0" fill="#000000" transform="matrix(1.00, 0.00, -0.00, -1.00, 647.7, 492.0)">i</text><text xml:space="preserve" font-family="Helvetica-Light" font-size="34.0" fill="#000000" transform="matrix(1.00, 0.00, -0.00, -1.00, 655.2, 492.0)">o</text><text xml:space="preserve" font-family="Helvetica-Light" font-size="34.0" fill="#000000" transform="matrix(1.00, 0.00, -0.00, -1.00, 674.1, 492.0)">n</text><text xml:space="preserve" font-family="Helvetica-Light" font-size="34.0" fill="#000000" transform="matrix(1.00, 0.00, -0.00, -1.00, 693.0, 492.0)"> </text><text xml:space="preserve" font-family="Helvetica-Light" font-size="34.0" fill="#000000" transform="matrix(1.00, 0.00, -0.00, -1.00, 702.5, 492.0)">f</text><text xml:space="preserve" font-family="Helvetica-Light" font-size="34.0" fill="#000000" transform="matrix(1.00, 0.00, -0.00, -1.00, 711.9, 492.0)">o</text><text xml:space="preserve" font-family="Helvetica-Light" font-size="34.0" fill="#000000" transform="matrix(1.00, 0.00, -0.00, -1.00, 730.8, 492.0)">r</text><text xml:space="preserve" font-family="Helvetica-Light" font-size="34.0" fill="#000000" transform="matrix(1.00, 0.00, -0.00, -1.00, 742.2, 492.0)"> </text><text xml:space="preserve" font-family="Helvetica-Light" font-size="34.0" fill="#000000" transform="matrix(1.00, 0.00, -0.00, -1.00, 751.6, 492.0)">G</text><text xml:space="preserve" font-family="Helvetica-Light" font-size="34.0" fill="#000000" transform="matrix(1.00, 0.00, -0.00, -1.00, 778.1, 492.0)">a</text><text xml:space="preserve" font-family="Helvetica-Light" font-size="34.0" fill="#000000" transform="matrix(1.00, 0.00, -0.00, -1.00, 797.0, 492.0)">d</text><text xml:space="preserve" font-family="Helvetica-Light" font-size="34.0" fill="#000000" transform="matrix(1.00, 0.00, -0.00, -1.00, 817.8, 492.0)">g</text><text xml:space="preserve" font-family="Helvetica-Light" font-size="34.0" fill="#000000" transform="matrix(1.00, 0.00, -0.00, -1.00, 838.5, 492.0)">e</text><text xml:space="preserve" font-family="Helvetica-Light" font-size="34.0" fill="#000000" transform="matrix(1.00, 0.00, -0.00, -1.00, 857.4, 492.0)">t</text><text xml:space="preserve" font-family="Helvetica-Light" font-size="34.0" fill="#000000" transform="matrix(1.00, 0.00, -0.00, -1.00, 866.9, 492.0)"> </text><text xml:space="preserve" font-family="Monaco" font-size="26.0" fill="#000000" transform="matrix(1.00, 0.00, -0.00, -1.00, 115.0, 443.0)">m</text><text xml:space="preserve" font-family="Monaco" font-size="26.0" fill="#000000" transform="matrix(1.00, 0.00, -0.00, -1.00, 130.6, 443.0)">a</text><text xml:space="preserve" font-family="Monaco" font-size="26.0" fill="#000000" transform="matrix(1.00, 0.00, -0.00, -1.00, 146.2, 443.0)">g</text><text xml:space="preserve" font-family="Monaco" font-size="26.0" fill="#000000" transform="matrix(1.00, 0.00, -0.00, -1.00, 161.8, 443.0)">n</text><text xml:space="preserve" font-family="Monaco" font-size="26.0" fill="#000000" transform="matrix(1.00, 0.00, -0.00, -1.00, 177.4, 443.0)">i</text><text xml:space="preserve" font-family="Monaco" font-size="26.0" fill="#000000" transform="matrix(1.00, 0.00, -0.00, -1.00, 193.0, 443.0)">f</text><text xml:space="preserve" font-family="Monaco" font-size="26.0" fill="#000000" transform="matrix(1.00, 0.00, -0.00, -1.00, 208.6, 443.0)">y</text><text xml:space="preserve" font-family="Monaco" font-size="26.0" fill="#000000" transform="matrix(1.00, 0.00, -0.00, -1.00, 224.2, 443.0)"> </text><text xml:space="preserve" font-family="Monaco" font-size="26.0" fill="#000000" transform="matrix(1.00, 0.00, -0.00, -1.00, 239.8, 443.0)">:</text><text xml:space="preserve" font-family="Monaco" font-size="26.0" fill="#000000" transform="matrix(1.00, 0.00, -0.00, -1.00, 255.4, 443.0)">:</text><text xml:space="preserve" font-family="Monaco" font-size="26.0" fill="#000000" transform="matrix(1.00, 0.00, -0.00, -1.00, 271.1, 443.0)"> </text><text xml:space="preserve" font-family="Monaco" font-size="26.0" fill="#000000" transform="matrix(1.00, 0.00, -0.00, -1.00, 286.7, 443.0)">P</text><text xml:space="preserve" font-family="Monaco" font-size="26.0" fill="#000000" transform="matrix(1.00, 0.00, -0.00, -1.00, 302.3, 443.0)">r</text><text xml:space="preserve" font-family="Monaco" font-size="26.0" fill="#000000" transform="matrix(1.00, 0.00, -0.00, -1.00, 317.9, 443.0)">i</text><text xml:space="preserve" font-family="Monaco" font-size="26.0" fill="#000000" transform="matrix(1.00, 0.00, -0.00, -1.00, 333.5, 443.0)">s</text><text xml:space="preserve" font-family="Monaco" font-size="26.0" fill="#000000" transform="matrix(1.00, 0.00, -0.00, -1.00, 349.1, 443.0)">m</text><text xml:space="preserve" font-family="Monaco" font-size="26.0" fill="#000000" transform="matrix(1.00, 0.00, -0.00, -1.00, 364.7, 443.0)">’</text><text xml:space="preserve" font-family="Monaco" font-size="26.0" fill="#000000" transform="matrix(1.00, 0.00, -0.00, -1.00, 380.3, 443.0)"> </text><text xml:space="preserve" font-family="Monaco" font-size="26.0" fill="#C82505" transform="matrix(1.00, 0.00, -0.00, -1.00, 395.8, 443.0)">b</text><text xml:space="preserve" font-family="Monaco" font-size="26.0" fill="#C82505" transform="matrix(1.00, 0.00, -0.00, -1.00, 411.5, 443.0)"> </text><text xml:space="preserve" font-family="Monaco" font-size="26.0" fill="#00872A" transform="matrix(1.00, 0.00, -0.00, -1.00, 427.1, 443.0)">a</text><text xml:space="preserve" font-family="Monaco" font-size="26.0" fill="#C82505" transform="matrix(1.00, 0.00, -0.00, -1.00, 115.0, 393.0)"> </text><text xml:space="preserve" font-family="Monaco" font-size="26.0" fill="#C82505" transform="matrix(1.00, 0.00, -0.00, -1.00, 130.6, 393.0)"> </text><text xml:space="preserve" font-family="Monaco" font-size="26.0" fill="#C82505" transform="matrix(1.00, 0.00, -0.00, -1.00, 146.2, 393.0)"> </text><text xml:space="preserve" font-family="Monaco" font-size="26.0" fill="#C82505" transform="matrix(1.00, 0.00, -0.00, -1.00, 161.8, 393.0)"> </text><text xml:space="preserve" font-family="Monaco" font-size="26.0" fill="#C82505" transform="matrix(1.00, 0.00, -0.00, -1.00, 177.4, 393.0)"> </text><text xml:space="preserve" font-family="Monaco" font-size="26.0" fill="#C82505" transform="matrix(1.00, 0.00, -0.00, -1.00, 193.0, 393.0)"> </text><text xml:space="preserve" font-family="Monaco" font-size="26.0" fill="#C82505" transform="matrix(1.00, 0.00, -0.00, -1.00, 208.6, 393.0)"> </text><text xml:space="preserve" font-family="Monaco" font-size="26.0" fill="#C82505" transform="matrix(1.00, 0.00, -0.00, -1.00, 224.2, 393.0)"> </text><text xml:space="preserve" font-family="Monaco" font-size="26.0" fill="#000000" transform="matrix(1.00, 0.00, -0.00, -1.00, 239.8, 393.0)">-</text><text xml:space="preserve" font-family="Monaco" font-size="26.0" fill="#000000" transform="matrix(1.00, 0.00, -0.00, -1.00, 255.4, 393.0)">&gt;</text><text xml:space="preserve" font-family="Monaco" font-size="26.0" fill="#000000" transform="matrix(1.00, 0.00, -0.00, -1.00, 271.0, 393.0)"> </text><text xml:space="preserve" font-family="Monaco" font-size="26.0" fill="#000000" transform="matrix(1.00, 0.00, -0.00, -1.00, 286.6, 393.0)">R</text><text xml:space="preserve" font-family="Monaco" font-size="26.0" fill="#000000" transform="matrix(1.00, 0.00, -0.00, -1.00, 302.2, 393.0)">e</text><text xml:space="preserve" font-family="Monaco" font-size="26.0" fill="#000000" transform="matrix(1.00, 0.00, -0.00, -1.00, 317.8, 393.0)">a</text><text xml:space="preserve" font-family="Monaco" font-size="26.0" fill="#000000" transform="matrix(1.00, 0.00, -0.00, -1.00, 333.5, 393.0)">d</text><text xml:space="preserve" font-family="Monaco" font-size="26.0" fill="#000000" transform="matrix(1.00, 0.00, -0.00, -1.00, 349.1, 393.0)">e</text><text xml:space="preserve" font-family="Monaco" font-size="26.0" fill="#000000" transform="matrix(1.00, 0.00, -0.00, -1.00, 364.7, 393.0)">r</text><text xml:space="preserve" font-family="Monaco" font-size="26.0" fill="#000000" transform="matrix(1.00, 0.00, -0.00, -1.00, 380.3, 393.0)">T</text><text xml:space="preserve" font-family="Monaco" font-size="26.0" fill="#000000" transform="matrix(1.00, 0.00, -0.00, -1.00, 395.9, 393.0)"> </text><text xml:space="preserve" font-family="Monaco" font-size="26.0" fill="#00872A" transform="matrix(1.00, 0.00, -0.00, -1.00, 411.4, 393.0)">a</text><text xml:space="preserve" font-family="Monaco" font-size="26.0" fill="#000000" transform="matrix(1.00, 0.00, -0.00, -1.00, 427.1, 393.0)"> </text><text xml:space="preserve" font-family="Monaco" font-size="26.0" fill="#000000" transform="matrix(1.00, 0.00, -0.00, -1.00, 442.7, 393.0)">(</text><text xml:space="preserve" font-family="Monaco" font-size="26.0" fill="#000000" transform="matrix(1.00, 0.00, -0.00, -1.00, 458.3, 393.0)">S</text><text xml:space="preserve" font-family="Monaco" font-size="26.0" fill="#000000" transform="matrix(1.00, 0.00, -0.00, -1.00, 473.9, 393.0)">t</text><text xml:space="preserve" font-family="Monaco" font-size="26.0" fill="#000000" transform="matrix(1.00, 0.00, -0.00, -1.00, 489.5, 393.0)">a</text><text xml:space="preserve" font-family="Monaco" font-size="26.0" fill="#000000" transform="matrix(1.00, 0.00, -0.00, -1.00, 505.1, 393.0)">t</text><text xml:space="preserve" font-family="Monaco" font-size="26.0" fill="#000000" transform="matrix(1.00, 0.00, -0.00, -1.00, 520.7, 393.0)">e</text><text xml:space="preserve" font-family="Monaco" font-size="26.0" fill="#000000" transform="matrix(1.00, 0.00, -0.00, -1.00, 536.3, 393.0)">T</text><text xml:space="preserve" font-family="Monaco" font-size="26.0" fill="#000000" transform="matrix(1.00, 0.00, -0.00, -1.00, 551.9, 393.0)"> </text><text xml:space="preserve" font-family="Monaco" font-size="26.0" fill="#000000" transform="matrix(1.00, 0.00, -0.00, -1.00, 567.5, 393.0)">s</text><text xml:space="preserve" font-family="Monaco" font-size="26.0" fill="#000000" transform="matrix(1.00, 0.00, -0.00, -1.00, 583.1, 393.0)"> </text><text xml:space="preserve" font-family="Monaco" font-size="26.0" fill="#000000" transform="matrix(1.00, 0.00, -0.00, -1.00, 598.7, 393.0)">m</text><text xml:space="preserve" font-family="Monaco" font-size="26.0" fill="#000000" transform="matrix(1.00, 0.00, -0.00, -1.00, 614.3, 393.0)">)</text><text xml:space="preserve" font-family="Monaco" font-size="26.0" fill="#000000" transform="matrix(1.00, 0.00, -0.00, -1.00, 629.9, 393.0)"> </text><text xml:space="preserve" font-family="Monaco" font-size="26.0" fill="#000000" transform="matrix(1.00, 0.00, -0.00, -1.00, 645.5, 393.0)">c</text><text xml:space="preserve" font-family="Monaco" font-size="26.0" fill="#000000" transform="matrix(1.00, 0.00, -0.00, -1.00, 115.0, 343.0)"> </text><text xml:space="preserve" font-family="Monaco" font-size="26.0" fill="#000000" transform="matrix(1.00, 0.00, -0.00, -1.00, 130.6, 343.0)"> </text><text xml:space="preserve" font-family="Monaco" font-size="26.0" fill="#000000" transform="matrix(1.00, 0.00, -0.00, -1.00, 146.2, 343.0)"> </text><text xml:space="preserve" font-family="Monaco" font-size="26.0" fill="#000000" transform="matrix(1.00, 0.00, -0.00, -1.00, 161.8, 343.0)"> </text><text xml:space="preserve" font-family="Monaco" font-size="26.0" fill="#000000" transform="matrix(1.00, 0.00, -0.00, -1.00, 177.4, 343.0)"> </text><text xml:space="preserve" font-family="Monaco" font-size="26.0" fill="#000000" transform="matrix(1.00, 0.00, -0.00, -1.00, 193.0, 343.0)"> </text><text xml:space="preserve" font-family="Monaco" font-size="26.0" fill="#000000" transform="matrix(1.00, 0.00, -0.00, -1.00, 208.6, 343.0)"> </text><text xml:space="preserve" font-family="Monaco" font-size="26.0" fill="#000000" transform="matrix(1.00, 0.00, -0.00, -1.00, 224.2, 343.0)"> </text><text xml:space="preserve" font-family="Monaco" font-size="26.0" fill="#000000" transform="matrix(1.00, 0.00, -0.00, -1.00, 239.8, 343.0)">-</text><text xml:space="preserve" font-family="Monaco" font-size="26.0" fill="#000000" transform="matrix(1.00, 0.00, -0.00, -1.00, 255.4, 343.0)">&gt;</text><text xml:space="preserve" font-family="Monaco" font-size="26.0" fill="#000000" transform="matrix(1.00, 0.00, -0.00, -1.00, 271.1, 343.0)"> </text><text xml:space="preserve" font-family="Monaco" font-size="26.0" fill="#000000" transform="matrix(1.00, 0.00, -0.00, -1.00, 286.7, 343.0)">R</text><text xml:space="preserve" font-family="Monaco" font-size="26.0" fill="#000000" transform="matrix(1.00, 0.00, -0.00, -1.00, 302.3, 343.0)">e</text><text xml:space="preserve" font-family="Monaco" font-size="26.0" fill="#000000" transform="matrix(1.00, 0.00, -0.00, -1.00, 317.9, 343.0)">a</text><text xml:space="preserve" font-family="Monaco" font-size="26.0" fill="#000000" transform="matrix(1.00, 0.00, -0.00, -1.00, 333.5, 343.0)">d</text><text xml:space="preserve" font-family="Monaco" font-size="26.0" fill="#000000" transform="matrix(1.00, 0.00, -0.00, -1.00, 349.1, 343.0)">e</text><text xml:space="preserve" font-family="Monaco" font-size="26.0" fill="#000000" transform="matrix(1.00, 0.00, -0.00, -1.00, 364.7, 343.0)">r</text><text xml:space="preserve" font-family="Monaco" font-size="26.0" fill="#000000" transform="matrix(1.00, 0.00, -0.00, -1.00, 380.3, 343.0)">T</text><text xml:space="preserve" font-family="Monaco" font-size="26.0" fill="#000000" transform="matrix(1.00, 0.00, -0.00, -1.00, 395.9, 343.0)"> </text><text xml:space="preserve" font-family="Monaco" font-size="26.0" fill="#C82505" transform="matrix(1.00, 0.00, -0.00, -1.00, 411.4, 343.0)">b</text><text xml:space="preserve" font-family="Monaco" font-size="26.0" fill="#000000" transform="matrix(1.00, 0.00, -0.00, -1.00, 427.1, 343.0)"> </text><text xml:space="preserve" font-family="Monaco" font-size="26.0" fill="#000000" transform="matrix(1.00, 0.00, -0.00, -1.00, 442.7, 343.0)">(</text><text xml:space="preserve" font-family="Monaco" font-size="26.0" fill="#000000" transform="matrix(1.00, 0.00, -0.00, -1.00, 458.3, 343.0)">S</text><text xml:space="preserve" font-family="Monaco" font-size="26.0" fill="#000000" transform="matrix(1.00, 0.00, -0.00, -1.00, 473.9, 343.0)">t</text><text xml:space="preserve" font-family="Monaco" font-size="26.0" fill="#000000" transform="matrix(1.00, 0.00, -0.00, -1.00, 489.5, 343.0)">a</text><text xml:space="preserve" font-family="Monaco" font-size="26.0" fill="#000000" transform="matrix(1.00, 0.00, -0.00, -1.00, 505.1, 343.0)">t</text><text xml:space="preserve" font-family="Monaco" font-size="26.0" fill="#000000" transform="matrix(1.00, 0.00, -0.00, -1.00, 520.7, 343.0)">e</text><text xml:space="preserve" font-family="Monaco" font-size="26.0" fill="#000000" transform="matrix(1.00, 0.00, -0.00, -1.00, 536.3, 343.0)">T</text><text xml:space="preserve" font-family="Monaco" font-size="26.0" fill="#000000" transform="matrix(1.00, 0.00, -0.00, -1.00, 551.9, 343.0)"> </text><text xml:space="preserve" font-family="Monaco" font-size="26.0" fill="#000000" transform="matrix(1.00, 0.00, -0.00, -1.00, 567.5, 343.0)">s</text><text xml:space="preserve" font-family="Monaco" font-size="26.0" fill="#000000" transform="matrix(1.00, 0.00, -0.00, -1.00, 583.1, 343.0)"> </text><text xml:space="preserve" font-family="Monaco" font-size="26.0" fill="#000000" transform="matrix(1.00, 0.00, -0.00, -1.00, 598.7, 343.0)">m</text><text xml:space="preserve" font-family="Monaco" font-size="26.0" fill="#000000" transform="matrix(1.00, 0.00, -0.00, -1.00, 614.3, 343.0)">)</text><text xml:space="preserve" font-family="Monaco" font-size="26.0" fill="#000000" transform="matrix(1.00, 0.00, -0.00, -1.00, 629.9, 343.0)"> </text><text xml:space="preserve" font-family="Monaco" font-size="26.0" fill="#000000" transform="matrix(1.00, 0.00, -0.00, -1.00, 645.5, 343.0)">c</text><text xml:space="preserve" font-family="Helvetica-Light" font-size="25.5" fill="#000000" transform="matrix(1.00, 0.00, -0.00, -1.00, 114.0, 262.4)">•</text><text xml:space="preserve" font-family="Helvetica-Light" font-size="34.0" fill="#000000" transform="matrix(1.00, 0.00, -0.00, -1.00, 147.0, 259.0)">Z</text><text xml:space="preserve" font-family="Helvetica-Light" font-size="34.0" fill="#000000" transform="matrix(1.00, 0.00, -0.00, -1.00, 167.8, 259.0)">o</text><text xml:space="preserve" font-family="Helvetica-Light" font-size="34.0" fill="#000000" transform="matrix(1.00, 0.00, -0.00, -1.00, 186.7, 259.0)">o</text><text xml:space="preserve" font-family="Helvetica-Light" font-size="34.0" fill="#000000" transform="matrix(1.00, 0.00, -0.00, -1.00, 205.6, 259.0)">m</text><text xml:space="preserve" font-family="Helvetica-Light" font-size="34.0" fill="#000000" transform="matrix(1.00, 0.00, -0.00, -1.00, 233.9, 259.0)"> </text><text xml:space="preserve" font-family="Helvetica-Light" font-size="34.0" fill="#000000" transform="matrix(1.00, 0.00, -0.00, -1.00, 243.4, 259.0)">a</text><text xml:space="preserve" font-family="Helvetica-Light" font-size="34.0" fill="#000000" transform="matrix(1.00, 0.00, -0.00, -1.00, 262.3, 259.0)">l</text><text xml:space="preserve" font-family="Helvetica-Light" font-size="34.0" fill="#000000" transform="matrix(1.00, 0.00, -0.00, -1.00, 269.8, 259.0)">l</text><text xml:space="preserve" font-family="Helvetica-Light" font-size="34.0" fill="#000000" transform="matrix(1.00, 0.00, -0.00, -1.00, 277.4, 259.0)">o</text><text xml:space="preserve" font-family="Helvetica-Light" font-size="34.0" fill="#000000" transform="matrix(1.00, 0.00, -0.00, -1.00, 296.3, 259.0)">w</text><text xml:space="preserve" font-family="Helvetica-Light" font-size="34.0" fill="#000000" transform="matrix(1.00, 0.00, -0.00, -1.00, 320.8, 259.0)">s</text><text xml:space="preserve" font-family="Helvetica-Light" font-size="34.0" fill="#000000" transform="matrix(1.00, 0.00, -0.00, -1.00, 337.8, 259.0)"> </text><text xml:space="preserve" font-family="Helvetica-Light" font-size="34.0" fill="#000000" transform="matrix(1.00, 0.00, -0.00, -1.00, 347.3, 259.0)">m</text><text xml:space="preserve" font-family="Helvetica-Light" font-size="34.0" fill="#000000" transform="matrix(1.00, 0.00, -0.00, -1.00, 375.6, 259.0)">o</text><text xml:space="preserve" font-family="Helvetica-Light" font-size="34.0" fill="#000000" transform="matrix(1.00, 0.00, -0.00, -1.00, 394.5, 259.0)">d</text><text xml:space="preserve" font-family="Helvetica-Light" font-size="34.0" fill="#000000" transform="matrix(1.00, 0.00, -0.00, -1.00, 415.3, 259.0)">i</text><text xml:space="preserve" font-family="Helvetica-Light" font-size="34.0" fill="#000000" transform="matrix(1.00, 0.00, -0.00, -1.00, 422.8, 259.0)">f</text><text xml:space="preserve" font-family="Helvetica-Light" font-size="34.0" fill="#000000" transform="matrix(1.00, 0.00, -0.00, -1.00, 432.3, 259.0)">y</text><text xml:space="preserve" font-family="Helvetica-Light" font-size="34.0" fill="#000000" transform="matrix(1.00, 0.00, -0.00, -1.00, 449.3, 259.0)">i</text><text xml:space="preserve" font-family="Helvetica-Light" font-size="34.0" fill="#000000" transform="matrix(1.00, 0.00, -0.00, -1.00, 456.8, 259.0)">n</text><text xml:space="preserve" font-family="Helvetica-Light" font-size="34.0" fill="#000000" transform="matrix(1.00, 0.00, -0.00, -1.00, 475.7, 259.0)">g</text><text xml:space="preserve" font-family="Helvetica-Light" font-size="34.0" fill="#000000" transform="matrix(1.00, 0.00, -0.00, -1.00, 496.5, 259.0)"> </text><text xml:space="preserve" font-family="Helvetica-Light" font-size="34.0" fill="#000000" transform="matrix(1.00, 0.00, -0.00, -1.00, 505.9, 259.0)">t</text><text xml:space="preserve" font-family="Helvetica-Light" font-size="34.0" fill="#000000" transform="matrix(1.00, 0.00, -0.00, -1.00, 515.4, 259.0)">h</text><text xml:space="preserve" font-family="Helvetica-Light" font-size="34.0" fill="#000000" transform="matrix(1.00, 0.00, -0.00, -1.00, 534.3, 259.0)">e</text><text xml:space="preserve" font-family="Helvetica-Light" font-size="34.0" fill="#000000" transform="matrix(1.00, 0.00, -0.00, -1.00, 553.2, 259.0)"> </text><text xml:space="preserve" font-family="Helvetica-Light" font-size="34.0" fill="#000000" transform="matrix(1.00, 0.00, -0.00, -1.00, 562.6, 259.0)">S</text><text xml:space="preserve" font-family="Helvetica-Light" font-size="34.0" fill="#000000" transform="matrix(1.00, 0.00, -0.00, -1.00, 583.4, 259.0)">t</text><text xml:space="preserve" font-family="Helvetica-Light" font-size="34.0" fill="#000000" transform="matrix(1.00, 0.00, -0.00, -1.00, 592.9, 259.0)">a</text><text xml:space="preserve" font-family="Helvetica-Light" font-size="34.0" fill="#000000" transform="matrix(1.00, 0.00, -0.00, -1.00, 611.8, 259.0)">t</text><text xml:space="preserve" font-family="Helvetica-Light" font-size="34.0" fill="#000000" transform="matrix(1.00, 0.00, -0.00, -1.00, 621.2, 259.0)">e</text><text xml:space="preserve" font-family="Helvetica-Light" font-size="34.0" fill="#000000" transform="matrix(1.00, 0.00, -0.00, -1.00, 640.1, 259.0)"> </text><text xml:space="preserve" font-family="Helvetica-Light" font-size="34.0" fill="#000000" transform="matrix(1.00, 0.00, -0.00, -1.00, 649.6, 259.0)">f</text><text xml:space="preserve" font-family="Helvetica-Light" font-size="34.0" fill="#000000" transform="matrix(1.00, 0.00, -0.00, -1.00, 659.0, 259.0)">o</text><text xml:space="preserve" font-family="Helvetica-Light" font-size="34.0" fill="#000000" transform="matrix(1.00, 0.00, -0.00, -1.00, 677.9, 259.0)">r</text><text xml:space="preserve" font-family="Helvetica-Light" font-size="34.0" fill="#000000" transform="matrix(1.00, 0.00, -0.00, -1.00, 689.3, 259.0)"> </text><text xml:space="preserve" font-family="Helvetica-Light" font-size="34.0" fill="#000000" transform="matrix(1.00, 0.00, -0.00, -1.00, 698.7, 259.0)">G</text><text xml:space="preserve" font-family="Helvetica-Light" font-size="34.0" fill="#000000" transform="matrix(1.00, 0.00, -0.00, -1.00, 725.2, 259.0)">a</text><text xml:space="preserve" font-family="Helvetica-Light" font-size="34.0" fill="#000000" transform="matrix(1.00, 0.00, -0.00, -1.00, 744.1, 259.0)">d</text><text xml:space="preserve" font-family="Helvetica-Light" font-size="34.0" fill="#000000" transform="matrix(1.00, 0.00, -0.00, -1.00, 764.8, 259.0)">g</text><text xml:space="preserve" font-family="Helvetica-Light" font-size="34.0" fill="#000000" transform="matrix(1.00, 0.00, -0.00, -1.00, 785.6, 259.0)">e</text><text xml:space="preserve" font-family="Helvetica-Light" font-size="34.0" fill="#000000" transform="matrix(1.00, 0.00, -0.00, -1.00, 804.5, 259.0)">t</text><text xml:space="preserve" font-family="Helvetica-Light" font-size="34.0" fill="#000000" transform="matrix(1.00, 0.00, -0.00, -1.00, 814.0, 259.0)"> </text><text xml:space="preserve" font-family="Monaco" font-size="26.0" fill="#000000" transform="matrix(1.00, 0.00, -0.00, -1.00, 115.0, 210.0)">z</text><text xml:space="preserve" font-family="Monaco" font-size="26.0" fill="#000000" transform="matrix(1.00, 0.00, -0.00, -1.00, 130.6, 210.0)">o</text><text xml:space="preserve" font-family="Monaco" font-size="26.0" fill="#000000" transform="matrix(1.00, 0.00, -0.00, -1.00, 146.2, 210.0)">o</text><text xml:space="preserve" font-family="Monaco" font-size="26.0" fill="#000000" transform="matrix(1.00, 0.00, -0.00, -1.00, 161.8, 210.0)">m</text><text xml:space="preserve" font-family="Monaco" font-size="26.0" fill="#000000" transform="matrix(1.00, 0.00, -0.00, -1.00, 177.4, 210.0)"> </text><text xml:space="preserve" font-family="Monaco" font-size="26.0" fill="#000000" transform="matrix(1.00, 0.00, -0.00, -1.00, 193.0, 210.0)">:</text><text xml:space="preserve" font-family="Monaco" font-size="26.0" fill="#000000" transform="matrix(1.00, 0.00, -0.00, -1.00, 208.6, 210.0)">:</text><text xml:space="preserve" font-family="Monaco" font-size="26.0" fill="#000000" transform="matrix(1.00, 0.00, -0.00, -1.00, 224.2, 210.0)"> </text><text xml:space="preserve" font-family="Monaco" font-size="26.0" fill="#000000" transform="matrix(1.00, 0.00, -0.00, -1.00, 239.8, 210.0)">L</text><text xml:space="preserve" font-family="Monaco" font-size="26.0" fill="#000000" transform="matrix(1.00, 0.00, -0.00, -1.00, 255.4, 210.0)">e</text><text xml:space="preserve" font-family="Monaco" font-size="26.0" fill="#000000" transform="matrix(1.00, 0.00, -0.00, -1.00, 271.1, 210.0)">n</text><text xml:space="preserve" font-family="Monaco" font-size="26.0" fill="#000000" transform="matrix(1.00, 0.00, -0.00, -1.00, 286.7, 210.0)">s</text><text xml:space="preserve" font-family="Monaco" font-size="26.0" fill="#000000" transform="matrix(1.00, 0.00, -0.00, -1.00, 302.3, 210.0)">’</text><text xml:space="preserve" font-family="Monaco" font-size="26.0" fill="#000000" transform="matrix(1.00, 0.00, -0.00, -1.00, 317.9, 210.0)"> </text><text xml:space="preserve" font-family="Monaco" font-size="26.0" fill="#763E9B" transform="matrix(1.00, 0.00, -0.00, -1.00, 333.4, 210.0)">t</text><text xml:space="preserve" font-family="Monaco" font-size="26.0" fill="#C82505" transform="matrix(1.00, 0.00, -0.00, -1.00, 349.0, 210.0)"> </text><text xml:space="preserve" font-family="Monaco" font-size="26.0" fill="#0264C0" transform="matrix(1.00, 0.00, -0.00, -1.00, 364.6, 210.0)">s</text><text xml:space="preserve" font-family="Monaco" font-size="26.0" fill="#C82505" transform="matrix(1.00, 0.00, -0.00, -1.00, 115.0, 160.0)"> </text><text xml:space="preserve" font-family="Monaco" font-size="26.0" fill="#C82505" transform="matrix(1.00, 0.00, -0.00, -1.00, 130.6, 160.0)"> </text><text xml:space="preserve" font-family="Monaco" font-size="26.0" fill="#C82505" transform="matrix(1.00, 0.00, -0.00, -1.00, 146.2, 160.0)"> </text><text xml:space="preserve" font-family="Monaco" font-size="26.0" fill="#C82505" transform="matrix(1.00, 0.00, -0.00, -1.00, 161.8, 160.0)"> </text><text xml:space="preserve" font-family="Monaco" font-size="26.0" fill="#C82505" transform="matrix(1.00, 0.00, -0.00, -1.00, 177.4, 160.0)"> </text><text xml:space="preserve" font-family="Monaco" font-size="26.0" fill="#000000" transform="matrix(1.00, 0.00, -0.00, -1.00, 193.0, 160.0)">-</text><text xml:space="preserve" font-family="Monaco" font-size="26.0" fill="#000000" transform="matrix(1.00, 0.00, -0.00, -1.00, 208.6, 160.0)">&gt;</text><text xml:space="preserve" font-family="Monaco" font-size="26.0" fill="#000000" transform="matrix(1.00, 0.00, -0.00, -1.00, 224.2, 160.0)"> </text><text xml:space="preserve" font-family="Monaco" font-size="26.0" fill="#000000" transform="matrix(1.00, 0.00, -0.00, -1.00, 239.8, 160.0)">R</text><text xml:space="preserve" font-family="Monaco" font-size="26.0" fill="#000000" transform="matrix(1.00, 0.00, -0.00, -1.00, 255.4, 160.0)">e</text><text xml:space="preserve" font-family="Monaco" font-size="26.0" fill="#000000" transform="matrix(1.00, 0.00, -0.00, -1.00, 271.0, 160.0)">a</text><text xml:space="preserve" font-family="Monaco" font-size="26.0" fill="#000000" transform="matrix(1.00, 0.00, -0.00, -1.00, 286.6, 160.0)">d</text><text xml:space="preserve" font-family="Monaco" font-size="26.0" fill="#000000" transform="matrix(1.00, 0.00, -0.00, -1.00, 302.2, 160.0)">e</text><text xml:space="preserve" font-family="Monaco" font-size="26.0" fill="#000000" transform="matrix(1.00, 0.00, -0.00, -1.00, 317.9, 160.0)">r</text><text xml:space="preserve" font-family="Monaco" font-size="26.0" fill="#000000" transform="matrix(1.00, 0.00, -0.00, -1.00, 333.5, 160.0)">T</text><text xml:space="preserve" font-family="Monaco" font-size="26.0" fill="#000000" transform="matrix(1.00, 0.00, -0.00, -1.00, 349.1, 160.0)"> </text><text xml:space="preserve" font-family="Monaco" font-size="26.0" fill="#000000" transform="matrix(1.00, 0.00, -0.00, -1.00, 364.7, 160.0)">a</text><text xml:space="preserve" font-family="Monaco" font-size="26.0" fill="#000000" transform="matrix(1.00, 0.00, -0.00, -1.00, 380.3, 160.0)"> </text><text xml:space="preserve" font-family="Monaco" font-size="26.0" fill="#000000" transform="matrix(1.00, 0.00, -0.00, -1.00, 395.9, 160.0)">(</text><text xml:space="preserve" font-family="Monaco" font-size="26.0" fill="#000000" transform="matrix(1.00, 0.00, -0.00, -1.00, 411.5, 160.0)">S</text><text xml:space="preserve" font-family="Monaco" font-size="26.0" fill="#000000" transform="matrix(1.00, 0.00, -0.00, -1.00, 427.1, 160.0)">t</text><text xml:space="preserve" font-family="Monaco" font-size="26.0" fill="#000000" transform="matrix(1.00, 0.00, -0.00, -1.00, 442.7, 160.0)">a</text><text xml:space="preserve" font-family="Monaco" font-size="26.0" fill="#000000" transform="matrix(1.00, 0.00, -0.00, -1.00, 458.3, 160.0)">t</text><text xml:space="preserve" font-family="Monaco" font-size="26.0" fill="#000000" transform="matrix(1.00, 0.00, -0.00, -1.00, 473.9, 160.0)">e</text><text xml:space="preserve" font-family="Monaco" font-size="26.0" fill="#000000" transform="matrix(1.00, 0.00, -0.00, -1.00, 489.5, 160.0)">T</text><text xml:space="preserve" font-family="Monaco" font-size="26.0" fill="#000000" transform="matrix(1.00, 0.00, -0.00, -1.00, 505.1, 160.0)"> </text><text xml:space="preserve" font-family="Monaco" font-size="26.0" fill="#0264C0" transform="matrix(1.00, 0.00, -0.00, -1.00, 520.7, 160.0)">s</text><text xml:space="preserve" font-family="Monaco" font-size="26.0" fill="#000000" transform="matrix(1.00, 0.00, -0.00, -1.00, 536.3, 160.0)"> </text><text xml:space="preserve" font-family="Monaco" font-size="26.0" fill="#000000" transform="matrix(1.00, 0.00, -0.00, -1.00, 551.9, 160.0)">m</text><text xml:space="preserve" font-family="Monaco" font-size="26.0" fill="#000000" transform="matrix(1.00, 0.00, -0.00, -1.00, 567.5, 160.0)">)</text><text xml:space="preserve" font-family="Monaco" font-size="26.0" fill="#000000" transform="matrix(1.00, 0.00, -0.00, -1.00, 583.1, 160.0)"> </text><text xml:space="preserve" font-family="Monaco" font-size="26.0" fill="#000000" transform="matrix(1.00, 0.00, -0.00, -1.00, 598.7, 160.0)">c</text><text xml:space="preserve" font-family="Monaco" font-size="26.0" fill="#000000" transform="matrix(1.00, 0.00, -0.00, -1.00, 115.0, 110.0)"> </text><text xml:space="preserve" font-family="Monaco" font-size="26.0" fill="#000000" transform="matrix(1.00, 0.00, -0.00, -1.00, 130.6, 110.0)"> </text><text xml:space="preserve" font-family="Monaco" font-size="26.0" fill="#000000" transform="matrix(1.00, 0.00, -0.00, -1.00, 146.2, 110.0)"> </text><text xml:space="preserve" font-family="Monaco" font-size="26.0" fill="#000000" transform="matrix(1.00, 0.00, -0.00, -1.00, 161.8, 110.0)"> </text><text xml:space="preserve" font-family="Monaco" font-size="26.0" fill="#000000" transform="matrix(1.00, 0.00, -0.00, -1.00, 177.4, 110.0)"> </text><text xml:space="preserve" font-family="Monaco" font-size="26.0" fill="#000000" transform="matrix(1.00, 0.00, -0.00, -1.00, 193.0, 110.0)">-</text><text xml:space="preserve" font-family="Monaco" font-size="26.0" fill="#000000" transform="matrix(1.00, 0.00, -0.00, -1.00, 208.6, 110.0)">&gt;</text><text xml:space="preserve" font-family="Monaco" font-size="26.0" fill="#000000" transform="matrix(1.00, 0.00, -0.00, -1.00, 224.2, 110.0)"> </text><text xml:space="preserve" font-family="Monaco" font-size="26.0" fill="#000000" transform="matrix(1.00, 0.00, -0.00, -1.00, 239.8, 110.0)">R</text><text xml:space="preserve" font-family="Monaco" font-size="26.0" fill="#000000" transform="matrix(1.00, 0.00, -0.00, -1.00, 255.4, 110.0)">e</text><text xml:space="preserve" font-family="Monaco" font-size="26.0" fill="#000000" transform="matrix(1.00, 0.00, -0.00, -1.00, 271.1, 110.0)">a</text><text xml:space="preserve" font-family="Monaco" font-size="26.0" fill="#000000" transform="matrix(1.00, 0.00, -0.00, -1.00, 286.7, 110.0)">d</text><text xml:space="preserve" font-family="Monaco" font-size="26.0" fill="#000000" transform="matrix(1.00, 0.00, -0.00, -1.00, 302.3, 110.0)">e</text><text xml:space="preserve" font-family="Monaco" font-size="26.0" fill="#000000" transform="matrix(1.00, 0.00, -0.00, -1.00, 317.9, 110.0)">r</text><text xml:space="preserve" font-family="Monaco" font-size="26.0" fill="#000000" transform="matrix(1.00, 0.00, -0.00, -1.00, 333.5, 110.0)">T</text><text xml:space="preserve" font-family="Monaco" font-size="26.0" fill="#000000" transform="matrix(1.00, 0.00, -0.00, -1.00, 349.1, 110.0)"> </text><text xml:space="preserve" font-family="Monaco" font-size="26.0" fill="#000000" transform="matrix(1.00, 0.00, -0.00, -1.00, 364.7, 110.0)">a</text><text xml:space="preserve" font-family="Monaco" font-size="26.0" fill="#000000" transform="matrix(1.00, 0.00, -0.00, -1.00, 380.3, 110.0)"> </text><text xml:space="preserve" font-family="Monaco" font-size="26.0" fill="#000000" transform="matrix(1.00, 0.00, -0.00, -1.00, 395.9, 110.0)">(</text><text xml:space="preserve" font-family="Monaco" font-size="26.0" fill="#000000" transform="matrix(1.00, 0.00, -0.00, -1.00, 411.5, 110.0)">S</text><text xml:space="preserve" font-family="Monaco" font-size="26.0" fill="#000000" transform="matrix(1.00, 0.00, -0.00, -1.00, 427.1, 110.0)">t</text><text xml:space="preserve" font-family="Monaco" font-size="26.0" fill="#000000" transform="matrix(1.00, 0.00, -0.00, -1.00, 442.7, 110.0)">a</text><text xml:space="preserve" font-family="Monaco" font-size="26.0" fill="#000000" transform="matrix(1.00, 0.00, -0.00, -1.00, 458.3, 110.0)">t</text><text xml:space="preserve" font-family="Monaco" font-size="26.0" fill="#000000" transform="matrix(1.00, 0.00, -0.00, -1.00, 473.9, 110.0)">e</text><text xml:space="preserve" font-family="Monaco" font-size="26.0" fill="#000000" transform="matrix(1.00, 0.00, -0.00, -1.00, 489.5, 110.0)">T</text><text xml:space="preserve" font-family="Monaco" font-size="26.0" fill="#000000" transform="matrix(1.00, 0.00, -0.00, -1.00, 505.1, 110.0)"> </text><text xml:space="preserve" font-family="Monaco" font-size="26.0" fill="#763E9B" transform="matrix(1.00, 0.00, -0.00, -1.00, 520.7, 110.0)">t</text><text xml:space="preserve" font-family="Monaco" font-size="26.0" fill="#000000" transform="matrix(1.00, 0.00, -0.00, -1.00, 536.3, 110.0)"> </text><text xml:space="preserve" font-family="Monaco" font-size="26.0" fill="#000000" transform="matrix(1.00, 0.00, -0.00, -1.00, 551.9, 110.0)">m</text><text xml:space="preserve" font-family="Monaco" font-size="26.0" fill="#000000" transform="matrix(1.00, 0.00, -0.00, -1.00, 567.5, 110.0)">)</text><text xml:space="preserve" font-family="Monaco" font-size="26.0" fill="#000000" transform="matrix(1.00, 0.00, -0.00, -1.00, 583.1, 110.0)"> </text><text xml:space="preserve" font-family="Monaco" font-size="26.0" fill="#000000" transform="matrix(1.00, 0.00, -0.00, -1.00, 598.7, 110.0)">c</text><text xml:space="preserve" font-family="Helvetica-Light" font-size="18.0" fill="#000000" transform="matrix(1.00, 0.00, -0.00, -1.00, 501.0, 18.0)">1</text><text xml:space="preserve" font-family="Helvetica-Light" font-size="18.0" fill="#000000" transform="matrix(1.00, 0.00, -0.00, -1.00, 511.0, 18.0)">4</text></g></svg>