<?xml version="1.0" encoding="UTF-8" standalone="no"?><svg xmlns="http://www.w3.org/2000/svg" xmlns:xlink="http://www.w3.org/1999/xlink" clip-rule="evenodd" stroke-miterlimit="4.00" viewBox="0 0 1024 768"><desc>SVG generated by Keynote</desc><defs></defs><g transform="matrix(1.00, 0.00, -0.00, -1.00, 0.0, 768.0)"><path d="M 0.0 768.0 L 1024.0 768.0 L 1024.0 0.0 L 0.0 0.0 Z M 0.0 768.0 " fill="#FEFFFE"></path><text xml:space="preserve" font-family="Helvetica-Light" font-size="80.0" fill="#000000" transform="matrix(1.00, 0.00, -0.00, -1.00, 135.0, 618.0)">S</text><text xml:space="preserve" font-family="Helvetica-Light" font-size="80.0" fill="#000000" transform="matrix(1.00, 0.00, -0.00, -1.00, 183.9, 618.0)">i</text><text xml:space="preserve" font-family="Helvetica-Light" font-size="80.0" fill="#000000" transform="matrix(1.00, 0.00, -0.00, -1.00, 201.6, 618.0)">m</text><text xml:space="preserve" font-family="Helvetica-Light" font-size="80.0" fill="#000000" transform="matrix(1.00, 0.00, -0.00, -1.00, 268.3, 618.0)">p</text><text xml:space="preserve" font-family="Helvetica-Light" font-size="80.0" fill="#000000" transform="matrix(1.00, 0.00, -0.00, -1.00, 317.2, 618.0)">l</text><text xml:space="preserve" font-family="Helvetica-Light" font-size="80.0" fill="#000000" transform="matrix(1.00, 0.00, -0.00, -1.00, 334.9, 618.0)">e</text><text xml:space="preserve" font-family="Helvetica-Light" font-size="80.0" fill="#000000" transform="matrix(1.00, 0.00, -0.00, -1.00, 379.4, 618.0)"> </text><text xml:space="preserve" font-family="Helvetica-Light" font-size="80.0" fill="#000000" transform="matrix(1.00, 0.00, -0.00, -1.00, 401.6, 618.0)">t</text><text xml:space="preserve" font-family="Helvetica-Light" font-size="80.0" fill="#000000" transform="matrix(1.00, 0.00, -0.00, -1.00, 423.9, 618.0)">o</text><text xml:space="preserve" font-family="Helvetica-Light" font-size="80.0" fill="#000000" transform="matrix(1.00, 0.00, -0.00, -1.00, 468.4, 618.0)"> </text><text xml:space="preserve" font-family="Helvetica-Light" font-size="80.0" fill="#000000" transform="matrix(1.00, 0.00, -0.00, -1.00, 490.6, 618.0)">u</text><text xml:space="preserve" font-family="Helvetica-Light" font-size="80.0" fill="#000000" transform="matrix(1.00, 0.00, -0.00, -1.00, 535.1, 618.0)">n</text><text xml:space="preserve" font-family="Helvetica-Light" font-size="80.0" fill="#000000" transform="matrix(1.00, 0.00, -0.00, -1.00, 579.6, 618.0)">d</text><text xml:space="preserve" font-family="Helvetica-Light" font-size="80.0" fill="#000000" transform="matrix(1.00, 0.00, -0.00, -1.00, 628.4, 618.0)">e</text><text xml:space="preserve" font-family="Helvetica-Light" font-size="80.0" fill="#000000" transform="matrix(1.00, 0.00, -0.00, -1.00, 672.9, 618.0)">r</text><text xml:space="preserve" font-family="Helvetica-Light" font-size="80.0" fill="#000000" transform="matrix(1.00, 0.00, -0.00, -1.00, 699.6, 618.0)">s</text><text xml:space="preserve" font-family="Helvetica-Light" font-size="80.0" fill="#000000" transform="matrix(1.00, 0.00, -0.00, -1.00, 739.6, 618.0)">t</text><text xml:space="preserve" font-family="Helvetica-Light" font-size="80.0" fill="#000000" transform="matrix(1.00, 0.00, -0.00, -1.00, 761.8, 618.0)">a</text><text xml:space="preserve" font-family="Helvetica-Light" font-size="80.0" fill="#000000" transform="matrix(1.00, 0.00, -0.00, -1.00, 806.3, 618.0)">n</text><text xml:space="preserve" font-family="Helvetica-Light" font-size="80.0" fill="#000000" transform="matrix(1.00, 0.00, -0.00, -1.00, 850.8, 618.0)">d</text><text xml:space="preserve" font-family="Helvetica-Light" font-size="25.5" fill="#000000" transform="matrix(1.00, 0.00, -0.00, -1.00, 36.6, 547.9)">•</text><text xml:space="preserve" font-family="Helvetica-Light" font-size="34.0" fill="#000000" transform="matrix(1.00, 0.00, -0.00, -1.00, 69.0, 545.0)">W</text><text xml:space="preserve" font-family="Helvetica-Light" font-size="34.0" fill="#000000" transform="matrix(1.00, 0.00, -0.00, -1.00, 99.2, 545.0)">i</text><text xml:space="preserve" font-family="Helvetica-Light" font-size="34.0" fill="#000000" transform="matrix(1.00, 0.00, -0.00, -1.00, 106.8, 545.0)">n</text><text xml:space="preserve" font-family="Helvetica-Light" font-size="34.0" fill="#000000" transform="matrix(1.00, 0.00, -0.00, -1.00, 125.7, 545.0)">d</text><text xml:space="preserve" font-family="Helvetica-Light" font-size="34.0" fill="#000000" transform="matrix(1.00, 0.00, -0.00, -1.00, 146.5, 545.0)">o</text><text xml:space="preserve" font-family="Helvetica-Light" font-size="34.0" fill="#000000" transform="matrix(1.00, 0.00, -0.00, -1.00, 165.4, 545.0)">w</text><text xml:space="preserve" font-family="Helvetica-Light" font-size="34.0" fill="#000000" transform="matrix(1.00, 0.00, -0.00, -1.00, 189.9, 545.0)"> </text><text xml:space="preserve" font-family="Helvetica-Light" font-size="34.0" fill="#000000" transform="matrix(1.00, 0.00, -0.00, -1.00, 199.4, 545.0)">i</text><text xml:space="preserve" font-family="Helvetica-Light" font-size="34.0" fill="#000000" transform="matrix(1.00, 0.00, -0.00, -1.00, 206.9, 545.0)">s</text><text xml:space="preserve" font-family="Helvetica-Light" font-size="34.0" fill="#000000" transform="matrix(1.00, 0.00, -0.00, -1.00, 223.9, 545.0)"> </text><text xml:space="preserve" font-family="Helvetica-Light" font-size="34.0" fill="#000000" transform="matrix(1.00, 0.00, -0.00, -1.00, 233.4, 545.0)">j</text><text xml:space="preserve" font-family="Helvetica-Light" font-size="34.0" fill="#000000" transform="matrix(1.00, 0.00, -0.00, -1.00, 240.9, 545.0)">u</text><text xml:space="preserve" font-family="Helvetica-Light" font-size="34.0" fill="#000000" transform="matrix(1.00, 0.00, -0.00, -1.00, 259.8, 545.0)">s</text><text xml:space="preserve" font-family="Helvetica-Light" font-size="34.0" fill="#000000" transform="matrix(1.00, 0.00, -0.00, -1.00, 276.8, 545.0)">t</text><text xml:space="preserve" font-family="Helvetica-Light" font-size="34.0" fill="#000000" transform="matrix(1.00, 0.00, -0.00, -1.00, 286.3, 545.0)"> </text><text xml:space="preserve" font-family="Helvetica-Light" font-size="34.0" fill="#000000" transform="matrix(1.00, 0.00, -0.00, -1.00, 295.7, 545.0)">a</text><text xml:space="preserve" font-family="Helvetica-Light" font-size="34.0" fill="#000000" transform="matrix(1.00, 0.00, -0.00, -1.00, 314.6, 545.0)"> </text><text xml:space="preserve" font-family="Helvetica-Light" font-size="34.0" fill="#000000" transform="matrix(1.00, 0.00, -0.00, -1.00, 324.1, 545.0)">n</text><text xml:space="preserve" font-family="Helvetica-Light" font-size="34.0" fill="#000000" transform="matrix(1.00, 0.00, -0.00, -1.00, 343.0, 545.0)">e</text><text xml:space="preserve" font-family="Helvetica-Light" font-size="34.0" fill="#000000" transform="matrix(1.00, 0.00, -0.00, -1.00, 361.9, 545.0)">w</text><text xml:space="preserve" font-family="Helvetica-Light" font-size="34.0" fill="#000000" transform="matrix(1.00, 0.00, -0.00, -1.00, 386.4, 545.0)">t</text><text xml:space="preserve" font-family="Helvetica-Light" font-size="34.0" fill="#000000" transform="matrix(1.00, 0.00, -0.00, -1.00, 395.9, 545.0)">y</text><text xml:space="preserve" font-family="Helvetica-Light" font-size="34.0" fill="#000000" transform="matrix(1.00, 0.00, -0.00, -1.00, 412.9, 545.0)">p</text><text xml:space="preserve" font-family="Helvetica-Light" font-size="34.0" fill="#000000" transform="matrix(1.00, 0.00, -0.00, -1.00, 433.6, 545.0)">e</text><text xml:space="preserve" font-family="Helvetica-Light" font-size="34.0" fill="#000000" transform="matrix(1.00, 0.00, -0.00, -1.00, 452.6, 545.0)"> </text><text xml:space="preserve" font-family="Helvetica-Light" font-size="34.0" fill="#000000" transform="matrix(1.00, 0.00, -0.00, -1.00, 462.0, 545.0)">w</text><text xml:space="preserve" font-family="Helvetica-Light" font-size="34.0" fill="#000000" transform="matrix(1.00, 0.00, -0.00, -1.00, 486.6, 545.0)">r</text><text xml:space="preserve" font-family="Helvetica-Light" font-size="34.0" fill="#000000" transform="matrix(1.00, 0.00, -0.00, -1.00, 497.9, 545.0)">a</text><text xml:space="preserve" font-family="Helvetica-Light" font-size="34.0" fill="#000000" transform="matrix(1.00, 0.00, -0.00, -1.00, 516.8, 545.0)">p</text><text xml:space="preserve" font-family="Helvetica-Light" font-size="34.0" fill="#000000" transform="matrix(1.00, 0.00, -0.00, -1.00, 537.6, 545.0)">p</text><text xml:space="preserve" font-family="Helvetica-Light" font-size="34.0" fill="#000000" transform="matrix(1.00, 0.00, -0.00, -1.00, 558.3, 545.0)">e</text><text xml:space="preserve" font-family="Helvetica-Light" font-size="34.0" fill="#000000" transform="matrix(1.00, 0.00, -0.00, -1.00, 577.2, 545.0)">r</text><text xml:space="preserve" font-family="Helvetica-Light" font-size="34.0" fill="#000000" transform="matrix(1.00, 0.00, -0.00, -1.00, 588.6, 545.0)"> </text><text xml:space="preserve" font-family="Helvetica-Light" font-size="34.0" fill="#000000" transform="matrix(1.00, 0.00, -0.00, -1.00, 598.0, 545.0)">a</text><text xml:space="preserve" font-family="Helvetica-Light" font-size="34.0" fill="#000000" transform="matrix(1.00, 0.00, -0.00, -1.00, 616.9, 545.0)">r</text><text xml:space="preserve" font-family="Helvetica-Light" font-size="34.0" fill="#000000" transform="matrix(1.00, 0.00, -0.00, -1.00, 627.6, 545.0)">o</text><text xml:space="preserve" font-family="Helvetica-Light" font-size="34.0" fill="#000000" transform="matrix(1.00, 0.00, -0.00, -1.00, 646.5, 545.0)">u</text><text xml:space="preserve" font-family="Helvetica-Light" font-size="34.0" fill="#000000" transform="matrix(1.00, 0.00, -0.00, -1.00, 665.4, 545.0)">n</text><text xml:space="preserve" font-family="Helvetica-Light" font-size="34.0" fill="#000000" transform="matrix(1.00, 0.00, -0.00, -1.00, 684.3, 545.0)">d</text><text xml:space="preserve" font-family="Helvetica-Light" font-size="34.0" fill="#000000" transform="matrix(1.00, 0.00, -0.00, -1.00, 705.1, 545.0)"> </text><text xml:space="preserve" font-family="Helvetica-Light" font-size="34.0" fill="#000000" transform="matrix(1.00, 0.00, -0.00, -1.00, 714.6, 545.0)">R</text><text xml:space="preserve" font-family="Helvetica-Light" font-size="34.0" fill="#000000" transform="matrix(1.00, 0.00, -0.00, -1.00, 737.2, 545.0)">e</text><text xml:space="preserve" font-family="Helvetica-Light" font-size="34.0" fill="#000000" transform="matrix(1.00, 0.00, -0.00, -1.00, 756.1, 545.0)">a</text><text xml:space="preserve" font-family="Helvetica-Light" font-size="34.0" fill="#000000" transform="matrix(1.00, 0.00, -0.00, -1.00, 775.0, 545.0)">d</text><text xml:space="preserve" font-family="Helvetica-Light" font-size="34.0" fill="#000000" transform="matrix(1.00, 0.00, -0.00, -1.00, 795.8, 545.0)">e</text><text xml:space="preserve" font-family="Helvetica-Light" font-size="34.0" fill="#000000" transform="matrix(1.00, 0.00, -0.00, -1.00, 814.7, 545.0)">r</text><text xml:space="preserve" font-family="Helvetica-Light" font-size="34.0" fill="#000000" transform="matrix(1.00, 0.00, -0.00, -1.00, 826.0, 545.0)">T</text><text xml:space="preserve" font-family="Helvetica-Light" font-size="18.0" fill="#000000" transform="matrix(1.00, 0.00, -0.00, -1.00, 501.0, 18.0)">2</text><text xml:space="preserve" font-family="Helvetica-Light" font-size="18.0" fill="#000000" transform="matrix(1.00, 0.00, -0.00, -1.00, 511.0, 18.0)">3</text></g></svg>