<?xml version="1.0" encoding="UTF-8" standalone="no"?><svg xmlns="http://www.w3.org/2000/svg" xmlns:xlink="http://www.w3.org/1999/xlink" clip-rule="evenodd" stroke-miterlimit="4.00" viewBox="0 0 606 20"><desc>SVG generated by Keynote</desc><defs></defs><g transform="matrix(1.00, 0.00, -0.00, -1.00, 0.0, 20.0)"><text xml:space="preserve" font-family="Monaco" font-size="16.2" fill="#000000" transform="matrix(1.00, 0.00, -0.00, -1.00, 1.0, 5.0)">r</text><text xml:space="preserve" font-family="Monaco" font-size="16.2" fill="#000000" transform="matrix(1.00, 0.00, -0.00, -1.00, 10.7, 5.0)">u</text><text xml:space="preserve" font-family="Monaco" font-size="16.2" fill="#000000" transform="matrix(1.00, 0.00, -0.00, -1.00, 20.5, 5.0)">n</text><text xml:space="preserve" font-family="Monaco" font-size="16.2" fill="#000000" transform="matrix(1.00, 0.00, -0.00, -1.00, 30.2, 5.0)"> </text><text xml:space="preserve" font-family="Monaco" font-size="16.2" fill="#000000" transform="matrix(1.00, 0.00, -0.00, -1.00, 40.0, 5.0)">=</text><text xml:space="preserve" font-family="Monaco" font-size="16.2" fill="#000000" transform="matrix(1.00, 0.00, -0.00, -1.00, 49.7, 5.0)"> </text><text xml:space="preserve" font-family="Monaco" font-size="16.2" fill="#000000" transform="matrix(1.00, 0.00, -0.00, -1.00, 59.5, 5.0)">r</text><text xml:space="preserve" font-family="Monaco" font-size="16.2" fill="#000000" transform="matrix(1.00, 0.00, -0.00, -1.00, 69.2, 5.0)">u</text><text xml:space="preserve" font-family="Monaco" font-size="16.2" fill="#000000" transform="matrix(1.00, 0.00, -0.00, -1.00, 79.0, 5.0)">n</text><text xml:space="preserve" font-family="Monaco" font-size="16.2" fill="#000000" transform="matrix(1.00, 0.00, -0.00, -1.00, 88.7, 5.0)">E</text><text xml:space="preserve" font-family="Monaco" font-size="16.2" fill="#000000" transform="matrix(1.00, 0.00, -0.00, -1.00, 98.5, 5.0)">f</text><text xml:space="preserve" font-family="Monaco" font-size="16.2" fill="#000000" transform="matrix(1.00, 0.00, -0.00, -1.00, 108.2, 5.0)">f</text><text xml:space="preserve" font-family="Monaco" font-size="16.2" fill="#000000" transform="matrix(1.00, 0.00, -0.00, -1.00, 118.0, 5.0)">e</text><text xml:space="preserve" font-family="Monaco" font-size="16.2" fill="#000000" transform="matrix(1.00, 0.00, -0.00, -1.00, 127.7, 5.0)">c</text><text xml:space="preserve" font-family="Monaco" font-size="16.2" fill="#000000" transform="matrix(1.00, 0.00, -0.00, -1.00, 137.5, 5.0)">t</text><text xml:space="preserve" font-family="Monaco" font-size="16.2" fill="#000000" transform="matrix(1.00, 0.00, -0.00, -1.00, 147.2, 5.0)"> </text><text xml:space="preserve" font-family="Monaco" font-size="16.2" fill="#000000" transform="matrix(1.00, 0.00, -0.00, -1.00, 157.0, 5.0)">$</text><text xml:space="preserve" font-family="Monaco" font-size="16.2" fill="#000000" transform="matrix(1.00, 0.00, -0.00, -1.00, 166.7, 5.0)"> </text><text xml:space="preserve" font-family="Monaco" font-size="16.2" fill="#000000" transform="matrix(1.00, 0.00, -0.00, -1.00, 176.4, 5.0)">c</text><text xml:space="preserve" font-family="Monaco" font-size="16.2" fill="#000000" transform="matrix(1.00, 0.00, -0.00, -1.00, 186.2, 5.0)">m</text><text xml:space="preserve" font-family="Monaco" font-size="16.2" fill="#000000" transform="matrix(1.00, 0.00, -0.00, -1.00, 195.9, 5.0)">d</text><text xml:space="preserve" font-family="Monaco" font-size="16.2" fill="#000000" transform="matrix(1.00, 0.00, -0.00, -1.00, 205.7, 5.0)">s</text><text xml:space="preserve" font-family="Monaco" font-size="16.2" fill="#000000" transform="matrix(1.00, 0.00, -0.00, -1.00, 215.4, 5.0)">P</text><text xml:space="preserve" font-family="Monaco" font-size="16.2" fill="#000000" transform="matrix(1.00, 0.00, -0.00, -1.00, 225.2, 5.0)">r</text><text xml:space="preserve" font-family="Monaco" font-size="16.2" fill="#000000" transform="matrix(1.00, 0.00, -0.00, -1.00, 234.9, 5.0)">o</text><text xml:space="preserve" font-family="Monaco" font-size="16.2" fill="#000000" transform="matrix(1.00, 0.00, -0.00, -1.00, 244.7, 5.0)">d</text><text xml:space="preserve" font-family="Monaco" font-size="16.2" fill="#000000" transform="matrix(1.00, 0.00, -0.00, -1.00, 254.4, 5.0)">u</text><text xml:space="preserve" font-family="Monaco" font-size="16.2" fill="#000000" transform="matrix(1.00, 0.00, -0.00, -1.00, 264.2, 5.0)">c</text><text xml:space="preserve" font-family="Monaco" font-size="16.2" fill="#000000" transform="matrix(1.00, 0.00, -0.00, -1.00, 273.9, 5.0)">e</text><text xml:space="preserve" font-family="Monaco" font-size="16.2" fill="#000000" transform="matrix(1.00, 0.00, -0.00, -1.00, 283.7, 5.0)">r</text><text xml:space="preserve" font-family="Monaco" font-size="16.2" fill="#000000" transform="matrix(1.00, 0.00, -0.00, -1.00, 293.4, 5.0)"> </text><text xml:space="preserve" font-family="Monaco" font-size="16.2" fill="#000000" transform="matrix(1.00, 0.00, -0.00, -1.00, 303.2, 5.0)">&gt;</text><text xml:space="preserve" font-family="Monaco" font-size="16.2" fill="#000000" transform="matrix(1.00, 0.00, -0.00, -1.00, 312.9, 5.0)">-</text><text xml:space="preserve" font-family="Monaco" font-size="16.2" fill="#000000" transform="matrix(1.00, 0.00, -0.00, -1.00, 322.7, 5.0)">&gt;</text><text xml:space="preserve" font-family="Monaco" font-size="16.2" fill="#000000" transform="matrix(1.00, 0.00, -0.00, -1.00, 332.4, 5.0)"> </text><text xml:space="preserve" font-family="Monaco" font-size="16.2" fill="#000000" transform="matrix(1.00, 0.00, -0.00, -1.00, 342.2, 5.0)">i</text><text xml:space="preserve" font-family="Monaco" font-size="16.2" fill="#000000" transform="matrix(1.00, 0.00, -0.00, -1.00, 351.9, 5.0)">n</text><text xml:space="preserve" font-family="Monaco" font-size="16.2" fill="#000000" transform="matrix(1.00, 0.00, -0.00, -1.00, 361.6, 5.0)">t</text><text xml:space="preserve" font-family="Monaco" font-size="16.2" fill="#000000" transform="matrix(1.00, 0.00, -0.00, -1.00, 371.4, 5.0)">e</text><text xml:space="preserve" font-family="Monaco" font-size="16.2" fill="#000000" transform="matrix(1.00, 0.00, -0.00, -1.00, 381.1, 5.0)">r</text><text xml:space="preserve" font-family="Monaco" font-size="16.2" fill="#000000" transform="matrix(1.00, 0.00, -0.00, -1.00, 390.9, 5.0)">p</text><text xml:space="preserve" font-family="Monaco" font-size="16.2" fill="#000000" transform="matrix(1.00, 0.00, -0.00, -1.00, 400.6, 5.0)">r</text><text xml:space="preserve" font-family="Monaco" font-size="16.2" fill="#000000" transform="matrix(1.00, 0.00, -0.00, -1.00, 410.4, 5.0)">e</text><text xml:space="preserve" font-family="Monaco" font-size="16.2" fill="#000000" transform="matrix(1.00, 0.00, -0.00, -1.00, 420.1, 5.0)">t</text><text xml:space="preserve" font-family="Monaco" font-size="16.2" fill="#000000" transform="matrix(1.00, 0.00, -0.00, -1.00, 429.9, 5.0)">C</text><text xml:space="preserve" font-family="Monaco" font-size="16.2" fill="#000000" transform="matrix(1.00, 0.00, -0.00, -1.00, 439.6, 5.0)">o</text><text xml:space="preserve" font-family="Monaco" font-size="16.2" fill="#000000" transform="matrix(1.00, 0.00, -0.00, -1.00, 449.4, 5.0)">m</text><text xml:space="preserve" font-family="Monaco" font-size="16.2" fill="#000000" transform="matrix(1.00, 0.00, -0.00, -1.00, 459.1, 5.0)">m</text><text xml:space="preserve" font-family="Monaco" font-size="16.2" fill="#000000" transform="matrix(1.00, 0.00, -0.00, -1.00, 468.9, 5.0)">a</text><text xml:space="preserve" font-family="Monaco" font-size="16.2" fill="#000000" transform="matrix(1.00, 0.00, -0.00, -1.00, 478.6, 5.0)">n</text><text xml:space="preserve" font-family="Monaco" font-size="16.2" fill="#000000" transform="matrix(1.00, 0.00, -0.00, -1.00, 488.4, 5.0)">d</text><text xml:space="preserve" font-family="Monaco" font-size="16.2" fill="#000000" transform="matrix(1.00, 0.00, -0.00, -1.00, 498.1, 5.0)">s</text><text xml:space="preserve" font-family="Monaco" font-size="16.2" fill="#000000" transform="matrix(1.00, 0.00, -0.00, -1.00, 507.8, 5.0)"> </text><text xml:space="preserve" font-family="Monaco" font-size="16.2" fill="#000000" transform="matrix(1.00, 0.00, -0.00, -1.00, 517.5, 5.0)">&gt;</text><text xml:space="preserve" font-family="Monaco" font-size="16.2" fill="#000000" transform="matrix(1.00, 0.00, -0.00, -1.00, 527.3, 5.0)">-</text><text xml:space="preserve" font-family="Monaco" font-size="16.2" fill="#000000" transform="matrix(1.00, 0.00, -0.00, -1.00, 537.0, 5.0)">&gt;</text><text xml:space="preserve" font-family="Monaco" font-size="16.2" fill="#000000" transform="matrix(1.00, 0.00, -0.00, -1.00, 546.8, 5.0)"> </text><text xml:space="preserve" font-family="Monaco" font-size="16.2" fill="#000000" transform="matrix(1.00, 0.00, -0.00, -1.00, 556.5, 5.0)">d</text><text xml:space="preserve" font-family="Monaco" font-size="16.2" fill="#000000" transform="matrix(1.00, 0.00, -0.00, -1.00, 566.3, 5.0)">r</text><text xml:space="preserve" font-family="Monaco" font-size="16.2" fill="#000000" transform="matrix(1.00, 0.00, -0.00, -1.00, 576.0, 5.0)">a</text><text xml:space="preserve" font-family="Monaco" font-size="16.2" fill="#000000" transform="matrix(1.00, 0.00, -0.00, -1.00, 585.7, 5.0)">i</text><text xml:space="preserve" font-family="Monaco" font-size="16.2" fill="#000000" transform="matrix(1.00, 0.00, -0.00, -1.00, 595.5, 5.0)">n</text></g></svg>