<?xml version="1.0" encoding="UTF-8" standalone="no"?><svg xmlns="http://www.w3.org/2000/svg" xmlns:xlink="http://www.w3.org/1999/xlink" clip-rule="evenodd" stroke-miterlimit="4.00" viewBox="0 0 924 46"><desc>SVG generated by Keynote</desc><defs></defs><g transform="matrix(1.00, 0.00, -0.00, -1.00, 0.0, 46.0)"><text xml:space="preserve" font-family="Helvetica-Light" font-size="14.8" fill="#000000" transform="matrix(1.00, 0.00, -0.00, -1.00, 0.6, 32.0)">•</text><text xml:space="preserve" font-family="Helvetica-Light" font-size="19.7" fill="#000000" transform="matrix(1.00, 0.00, -0.00, -1.00, 20.0, 30.0)">A</text><text xml:space="preserve" font-family="Helvetica-Light" font-size="19.7" fill="#000000" transform="matrix(1.00, 0.00, -0.00, -1.00, 33.2, 30.0)">n</text><text xml:space="preserve" font-family="Helvetica-Light" font-size="19.7" fill="#000000" transform="matrix(1.00, 0.00, -0.00, -1.00, 44.1, 30.0)">o</text><text xml:space="preserve" font-family="Helvetica-Light" font-size="19.7" fill="#000000" transform="matrix(1.00, 0.00, -0.00, -1.00, 55.1, 30.0)">t</text><text xml:space="preserve" font-family="Helvetica-Light" font-size="19.7" fill="#000000" transform="matrix(1.00, 0.00, -0.00, -1.00, 60.6, 30.0)">h</text><text xml:space="preserve" font-family="Helvetica-Light" font-size="19.7" fill="#000000" transform="matrix(1.00, 0.00, -0.00, -1.00, 71.5, 30.0)">e</text><text xml:space="preserve" font-family="Helvetica-Light" font-size="19.7" fill="#000000" transform="matrix(1.00, 0.00, -0.00, -1.00, 82.5, 30.0)">r</text><text xml:space="preserve" font-family="Helvetica-Light" font-size="19.7" fill="#000000" transform="matrix(1.00, 0.00, -0.00, -1.00, 89.1, 30.0)"> </text><text xml:space="preserve" font-family="Helvetica-Light" font-size="19.7" fill="#000000" transform="matrix(1.00, 0.00, -0.00, -1.00, 94.5, 30.0)">P</text><text xml:space="preserve" font-family="Helvetica-Light" font-size="19.7" fill="#000000" transform="matrix(1.00, 0.00, -0.00, -1.00, 106.6, 30.0)">i</text><text xml:space="preserve" font-family="Helvetica-Light" font-size="19.7" fill="#000000" transform="matrix(1.00, 0.00, -0.00, -1.00, 111.0, 30.0)">p</text><text xml:space="preserve" font-family="Helvetica-Light" font-size="19.7" fill="#000000" transform="matrix(1.00, 0.00, -0.00, -1.00, 123.0, 30.0)">e</text><text xml:space="preserve" font-family="Helvetica-Light" font-size="19.7" fill="#000000" transform="matrix(1.00, 0.00, -0.00, -1.00, 134.0, 30.0)"> </text><text xml:space="preserve" font-family="Helvetica-Light" font-size="19.7" fill="#000000" transform="matrix(1.00, 0.00, -0.00, -1.00, 139.5, 30.0)">c</text><text xml:space="preserve" font-family="Helvetica-Light" font-size="19.7" fill="#000000" transform="matrix(1.00, 0.00, -0.00, -1.00, 150.4, 30.0)">a</text><text xml:space="preserve" font-family="Helvetica-Light" font-size="19.7" fill="#000000" transform="matrix(1.00, 0.00, -0.00, -1.00, 161.4, 30.0)">n</text><text xml:space="preserve" font-family="Helvetica-Light" font-size="19.7" fill="#000000" transform="matrix(1.00, 0.00, -0.00, -1.00, 172.4, 30.0)"> </text><text xml:space="preserve" font-family="Helvetica-Light" font-size="19.7" fill="#000000" transform="matrix(1.00, 0.00, -0.00, -1.00, 177.8, 30.0)">b</text><text xml:space="preserve" font-family="Helvetica-Light" font-size="19.7" fill="#000000" transform="matrix(1.00, 0.00, -0.00, -1.00, 189.9, 30.0)">e</text><text xml:space="preserve" font-family="Helvetica-Light" font-size="19.7" fill="#000000" transform="matrix(1.00, 0.00, -0.00, -1.00, 200.9, 30.0)"> </text><text xml:space="preserve" font-family="Helvetica-Light" font-size="19.7" fill="#000000" transform="matrix(1.00, 0.00, -0.00, -1.00, 206.3, 30.0)">u</text><text xml:space="preserve" font-family="Helvetica-Light" font-size="19.7" fill="#000000" transform="matrix(1.00, 0.00, -0.00, -1.00, 217.3, 30.0)">s</text><text xml:space="preserve" font-family="Helvetica-Light" font-size="19.7" fill="#000000" transform="matrix(1.00, 0.00, -0.00, -1.00, 227.2, 30.0)">e</text><text xml:space="preserve" font-family="Helvetica-Light" font-size="19.7" fill="#000000" transform="matrix(1.00, 0.00, -0.00, -1.00, 238.1, 30.0)">d</text><text xml:space="preserve" font-family="Helvetica-Light" font-size="19.7" fill="#000000" transform="matrix(1.00, 0.00, -0.00, -1.00, 250.2, 30.0)"> </text><text xml:space="preserve" font-family="Helvetica-Light" font-size="19.7" fill="#000000" transform="matrix(1.00, 0.00, -0.00, -1.00, 255.7, 30.0)">t</text><text xml:space="preserve" font-family="Helvetica-Light" font-size="19.7" fill="#000000" transform="matrix(1.00, 0.00, -0.00, -1.00, 261.1, 30.0)">o</text><text xml:space="preserve" font-family="Helvetica-Light" font-size="19.7" fill="#000000" transform="matrix(1.00, 0.00, -0.00, -1.00, 272.1, 30.0)"> </text><text xml:space="preserve" font-family="Helvetica-Light" font-size="19.7" fill="#000000" transform="matrix(1.00, 0.00, -0.00, -1.00, 277.6, 30.0)">i</text><text xml:space="preserve" font-family="Helvetica-Light" font-size="19.7" fill="#000000" transform="matrix(1.00, 0.00, -0.00, -1.00, 282.0, 30.0)">n</text><text xml:space="preserve" font-family="Helvetica-Light" font-size="19.7" fill="#000000" transform="matrix(1.00, 0.00, -0.00, -1.00, 292.9, 30.0)">t</text><text xml:space="preserve" font-family="Helvetica-Light" font-size="19.7" fill="#000000" transform="matrix(1.00, 0.00, -0.00, -1.00, 298.4, 30.0)">e</text><text xml:space="preserve" font-family="Helvetica-Light" font-size="19.7" fill="#000000" transform="matrix(1.00, 0.00, -0.00, -1.00, 309.4, 30.0)">r</text><text xml:space="preserve" font-family="Helvetica-Light" font-size="19.7" fill="#000000" transform="matrix(1.00, 0.00, -0.00, -1.00, 315.9, 30.0)">p</text><text xml:space="preserve" font-family="Helvetica-Light" font-size="19.7" fill="#000000" transform="matrix(1.00, 0.00, -0.00, -1.00, 328.0, 30.0)">r</text><text xml:space="preserve" font-family="Helvetica-Light" font-size="19.7" fill="#000000" transform="matrix(1.00, 0.00, -0.00, -1.00, 334.2, 30.0)">e</text><text xml:space="preserve" font-family="Helvetica-Light" font-size="19.7" fill="#000000" transform="matrix(1.00, 0.00, -0.00, -1.00, 345.2, 30.0)">t</text><text xml:space="preserve" font-family="Helvetica-Light" font-size="19.7" fill="#000000" transform="matrix(1.00, 0.00, -0.00, -1.00, 350.6, 30.0)"> </text><text xml:space="preserve" font-family="Helvetica-Light" font-size="19.7" fill="#000000" transform="matrix(1.00, 0.00, -0.00, -1.00, 356.1, 30.0)">t</text><text xml:space="preserve" font-family="Helvetica-Light" font-size="19.7" fill="#000000" transform="matrix(1.00, 0.00, -0.00, -1.00, 361.6, 30.0)">h</text><text xml:space="preserve" font-family="Helvetica-Light" font-size="19.7" fill="#000000" transform="matrix(1.00, 0.00, -0.00, -1.00, 372.6, 30.0)">e</text><text xml:space="preserve" font-family="Helvetica-Light" font-size="19.7" fill="#000000" transform="matrix(1.00, 0.00, -0.00, -1.00, 383.5, 30.0)"> </text><text xml:space="preserve" font-family="Helvetica-Light" font-size="19.7" fill="#000000" transform="matrix(1.00, 0.00, -0.00, -1.00, 389.0, 30.0)">c</text><text xml:space="preserve" font-family="Helvetica-Light" font-size="19.7" fill="#000000" transform="matrix(1.00, 0.00, -0.00, -1.00, 400.0, 30.0)">o</text><text xml:space="preserve" font-family="Helvetica-Light" font-size="19.7" fill="#000000" transform="matrix(1.00, 0.00, -0.00, -1.00, 410.9, 30.0)">m</text><text xml:space="preserve" font-family="Helvetica-Light" font-size="19.7" fill="#000000" transform="matrix(1.00, 0.00, -0.00, -1.00, 427.4, 30.0)">m</text><text xml:space="preserve" font-family="Helvetica-Light" font-size="19.7" fill="#000000" transform="matrix(1.00, 0.00, -0.00, -1.00, 443.8, 30.0)">a</text><text xml:space="preserve" font-family="Helvetica-Light" font-size="19.7" fill="#000000" transform="matrix(1.00, 0.00, -0.00, -1.00, 454.8, 30.0)">n</text><text xml:space="preserve" font-family="Helvetica-Light" font-size="19.7" fill="#000000" transform="matrix(1.00, 0.00, -0.00, -1.00, 465.7, 30.0)">d</text><text xml:space="preserve" font-family="Helvetica-Light" font-size="19.7" fill="#000000" transform="matrix(1.00, 0.00, -0.00, -1.00, 477.8, 30.0)">s</text><text xml:space="preserve" font-family="Helvetica-Light" font-size="19.7" fill="#000000" transform="matrix(1.00, 0.00, -0.00, -1.00, 487.6, 30.0)">.</text><text xml:space="preserve" font-family="Helvetica-Light" font-size="19.7" fill="#000000" transform="matrix(1.00, 0.00, -0.00, -1.00, 493.1, 30.0)"> </text><text xml:space="preserve" font-family="Helvetica-Light" font-size="19.7" fill="#000000" transform="matrix(1.00, 0.00, -0.00, -1.00, 498.6, 30.0)">T</text><text xml:space="preserve" font-family="Helvetica-Light" font-size="19.7" fill="#000000" transform="matrix(1.00, 0.00, -0.00, -1.00, 509.6, 30.0)">h</text><text xml:space="preserve" font-family="Helvetica-Light" font-size="19.7" fill="#000000" transform="matrix(1.00, 0.00, -0.00, -1.00, 520.5, 30.0)">e</text><text xml:space="preserve" font-family="Helvetica-Light" font-size="19.7" fill="#000000" transform="matrix(1.00, 0.00, -0.00, -1.00, 531.5, 30.0)"> </text><text xml:space="preserve" font-family="Helvetica-Light" font-size="19.7" fill="#000000" transform="matrix(1.00, 0.00, -0.00, -1.00, 537.0, 30.0)">i</text><text xml:space="preserve" font-family="Helvetica-Light" font-size="19.7" fill="#000000" transform="matrix(1.00, 0.00, -0.00, -1.00, 541.4, 30.0)">n</text><text xml:space="preserve" font-family="Helvetica-Light" font-size="19.7" fill="#000000" transform="matrix(1.00, 0.00, -0.00, -1.00, 552.3, 30.0)">t</text><text xml:space="preserve" font-family="Helvetica-Light" font-size="19.7" fill="#000000" transform="matrix(1.00, 0.00, -0.00, -1.00, 557.8, 30.0)">e</text><text xml:space="preserve" font-family="Helvetica-Light" font-size="19.7" fill="#000000" transform="matrix(1.00, 0.00, -0.00, -1.00, 568.8, 30.0)">r</text><text xml:space="preserve" font-family="Helvetica-Light" font-size="19.7" fill="#000000" transform="matrix(1.00, 0.00, -0.00, -1.00, 575.3, 30.0)">p</text><text xml:space="preserve" font-family="Helvetica-Light" font-size="19.7" fill="#000000" transform="matrix(1.00, 0.00, -0.00, -1.00, 587.4, 30.0)">r</text><text xml:space="preserve" font-family="Helvetica-Light" font-size="19.7" fill="#000000" transform="matrix(1.00, 0.00, -0.00, -1.00, 593.6, 30.0)">e</text><text xml:space="preserve" font-family="Helvetica-Light" font-size="19.7" fill="#000000" transform="matrix(1.00, 0.00, -0.00, -1.00, 604.6, 30.0)">t</text><text xml:space="preserve" font-family="Helvetica-Light" font-size="19.7" fill="#000000" transform="matrix(1.00, 0.00, -0.00, -1.00, 610.0, 30.0)">e</text><text xml:space="preserve" font-family="Helvetica-Light" font-size="19.7" fill="#000000" transform="matrix(1.00, 0.00, -0.00, -1.00, 621.0, 30.0)">r</text><text xml:space="preserve" font-family="Helvetica-Light" font-size="19.7" fill="#000000" transform="matrix(1.00, 0.00, -0.00, -1.00, 627.6, 30.0)"> </text><text xml:space="preserve" font-family="Helvetica-Light" font-size="19.7" fill="#000000" transform="matrix(1.00, 0.00, -0.00, -1.00, 633.1, 30.0)">s</text><text xml:space="preserve" font-family="Helvetica-Light" font-size="19.7" fill="#000000" transform="matrix(1.00, 0.00, -0.00, -1.00, 642.9, 30.0)">h</text><text xml:space="preserve" font-family="Helvetica-Light" font-size="19.7" fill="#000000" transform="matrix(1.00, 0.00, -0.00, -1.00, 653.9, 30.0)">o</text><text xml:space="preserve" font-family="Helvetica-Light" font-size="19.7" fill="#000000" transform="matrix(1.00, 0.00, -0.00, -1.00, 664.8, 30.0)">u</text><text xml:space="preserve" font-family="Helvetica-Light" font-size="19.7" fill="#000000" transform="matrix(1.00, 0.00, -0.00, -1.00, 675.8, 30.0)">l</text><text xml:space="preserve" font-family="Helvetica-Light" font-size="19.7" fill="#000000" transform="matrix(1.00, 0.00, -0.00, -1.00, 680.2, 30.0)">d</text><text xml:space="preserve" font-family="Helvetica-Light" font-size="19.7" fill="#000000" transform="matrix(1.00, 0.00, -0.00, -1.00, 692.2, 30.0)"> </text><text xml:space="preserve" font-family="Helvetica-Light" font-size="19.7" fill="#000000" transform="matrix(1.00, 0.00, -0.00, -1.00, 697.7, 30.0)">b</text><text xml:space="preserve" font-family="Helvetica-Light" font-size="19.7" fill="#000000" transform="matrix(1.00, 0.00, -0.00, -1.00, 709.8, 30.0)">e</text><text xml:space="preserve" font-family="Helvetica-Light" font-size="19.7" fill="#000000" transform="matrix(1.00, 0.00, -0.00, -1.00, 720.7, 30.0)"> </text><text xml:space="preserve" font-family="Helvetica-Light" font-size="19.7" fill="#000000" transform="matrix(1.00, 0.00, -0.00, -1.00, 726.2, 30.0)">t</text><text xml:space="preserve" font-family="Helvetica-Light" font-size="19.7" fill="#000000" transform="matrix(1.00, 0.00, -0.00, -1.00, 731.7, 30.0)">h</text><text xml:space="preserve" font-family="Helvetica-Light" font-size="19.7" fill="#000000" transform="matrix(1.00, 0.00, -0.00, -1.00, 742.7, 30.0)">e</text><text xml:space="preserve" font-family="Helvetica-Light" font-size="19.7" fill="#000000" transform="matrix(1.00, 0.00, -0.00, -1.00, 753.6, 30.0)"> </text><text xml:space="preserve" font-family="Helvetica-Light" font-size="19.7" fill="#000000" transform="matrix(1.00, 0.00, -0.00, -1.00, 759.1, 30.0)">o</text><text xml:space="preserve" font-family="Helvetica-Light" font-size="19.7" fill="#000000" transform="matrix(1.00, 0.00, -0.00, -1.00, 770.1, 30.0)">n</text><text xml:space="preserve" font-family="Helvetica-Light" font-size="19.7" fill="#000000" transform="matrix(1.00, 0.00, -0.00, -1.00, 781.0, 30.0)">l</text><text xml:space="preserve" font-family="Helvetica-Light" font-size="19.7" fill="#000000" transform="matrix(1.00, 0.00, -0.00, -1.00, 785.4, 30.0)">y</text><text xml:space="preserve" font-family="Helvetica-Light" font-size="19.7" fill="#000000" transform="matrix(1.00, 0.00, -0.00, -1.00, 795.3, 30.0)"> </text><text xml:space="preserve" font-family="Helvetica-Light" font-size="19.7" fill="#000000" transform="matrix(1.00, 0.00, -0.00, -1.00, 800.8, 30.0)">p</text><text xml:space="preserve" font-family="Helvetica-Light" font-size="19.7" fill="#000000" transform="matrix(1.00, 0.00, -0.00, -1.00, 812.8, 30.0)">l</text><text xml:space="preserve" font-family="Helvetica-Light" font-size="19.7" fill="#000000" transform="matrix(1.00, 0.00, -0.00, -1.00, 817.2, 30.0)">a</text><text xml:space="preserve" font-family="Helvetica-Light" font-size="19.7" fill="#000000" transform="matrix(1.00, 0.00, -0.00, -1.00, 828.1, 30.0)">c</text><text xml:space="preserve" font-family="Helvetica-Light" font-size="19.7" fill="#000000" transform="matrix(1.00, 0.00, -0.00, -1.00, 839.1, 30.0)">e</text><text xml:space="preserve" font-family="Helvetica-Light" font-size="19.7" fill="#000000" transform="matrix(1.00, 0.00, -0.00, -1.00, 850.1, 30.0)"> </text><text xml:space="preserve" font-family="Helvetica-Light" font-size="19.7" fill="#000000" transform="matrix(1.00, 0.00, -0.00, -1.00, 855.6, 30.0)">w</text><text xml:space="preserve" font-family="Helvetica-Light" font-size="19.7" fill="#000000" transform="matrix(1.00, 0.00, -0.00, -1.00, 869.8, 30.0)">i</text><text xml:space="preserve" font-family="Helvetica-Light" font-size="19.7" fill="#000000" transform="matrix(1.00, 0.00, -0.00, -1.00, 874.2, 30.0)">t</text><text xml:space="preserve" font-family="Helvetica-Light" font-size="19.7" fill="#000000" transform="matrix(1.00, 0.00, -0.00, -1.00, 879.7, 30.0)">h</text><text xml:space="preserve" font-family="Helvetica-Light" font-size="19.7" fill="#000000" transform="matrix(1.00, 0.00, -0.00, -1.00, 890.6, 30.0)"> </text><text xml:space="preserve" font-family="Helvetica-Light" font-size="19.7" fill="#000000" transform="matrix(1.00, 0.00, -0.00, -1.00, 896.1, 30.0)">I</text><text xml:space="preserve" font-family="Helvetica-Light" font-size="19.7" fill="#000000" transform="matrix(1.00, 0.00, -0.00, -1.00, 901.6, 30.0)">O</text><text xml:space="preserve" font-family="Helvetica-Light" font-size="19.7" fill="#000000" transform="matrix(1.00, 0.00, -0.00, -1.00, 916.9, 30.0)">.</text><text xml:space="preserve" font-family="Helvetica-Light" font-size="19.7" fill="#000000" transform="matrix(1.00, 0.00, -0.00, -1.00, 922.4, 30.0)"> </text><text xml:space="preserve" font-family="Helvetica-Light" font-size="19.7" fill="#000000" transform="matrix(1.00, 0.00, -0.00, -1.00, 20.0, 6.0)">O</text><text xml:space="preserve" font-family="Helvetica-Light" font-size="19.7" fill="#000000" transform="matrix(1.00, 0.00, -0.00, -1.00, 35.3, 6.0)">n</text><text xml:space="preserve" font-family="Helvetica-Light" font-size="19.7" fill="#000000" transform="matrix(1.00, 0.00, -0.00, -1.00, 46.3, 6.0)">e</text><text xml:space="preserve" font-family="Helvetica-Light" font-size="19.7" fill="#000000" transform="matrix(1.00, 0.00, -0.00, -1.00, 57.3, 6.0)"> </text><text xml:space="preserve" font-family="Helvetica-Light" font-size="19.7" fill="#000000" transform="matrix(1.00, 0.00, -0.00, -1.00, 62.8, 6.0)">i</text><text xml:space="preserve" font-family="Helvetica-Light" font-size="19.7" fill="#000000" transform="matrix(1.00, 0.00, -0.00, -1.00, 67.1, 6.0)">n</text><text xml:space="preserve" font-family="Helvetica-Light" font-size="19.7" fill="#000000" transform="matrix(1.00, 0.00, -0.00, -1.00, 78.1, 6.0)">t</text><text xml:space="preserve" font-family="Helvetica-Light" font-size="19.7" fill="#000000" transform="matrix(1.00, 0.00, -0.00, -1.00, 83.6, 6.0)">e</text><text xml:space="preserve" font-family="Helvetica-Light" font-size="19.7" fill="#000000" transform="matrix(1.00, 0.00, -0.00, -1.00, 94.5, 6.0)">r</text><text xml:space="preserve" font-family="Helvetica-Light" font-size="19.7" fill="#000000" transform="matrix(1.00, 0.00, -0.00, -1.00, 101.1, 6.0)">p</text><text xml:space="preserve" font-family="Helvetica-Light" font-size="19.7" fill="#000000" transform="matrix(1.00, 0.00, -0.00, -1.00, 113.2, 6.0)">r</text><text xml:space="preserve" font-family="Helvetica-Light" font-size="19.7" fill="#000000" transform="matrix(1.00, 0.00, -0.00, -1.00, 119.4, 6.0)">e</text><text xml:space="preserve" font-family="Helvetica-Light" font-size="19.7" fill="#000000" transform="matrix(1.00, 0.00, -0.00, -1.00, 130.3, 6.0)">t</text><text xml:space="preserve" font-family="Helvetica-Light" font-size="19.7" fill="#000000" transform="matrix(1.00, 0.00, -0.00, -1.00, 135.8, 6.0)">a</text><text xml:space="preserve" font-family="Helvetica-Light" font-size="19.7" fill="#000000" transform="matrix(1.00, 0.00, -0.00, -1.00, 146.8, 6.0)">t</text><text xml:space="preserve" font-family="Helvetica-Light" font-size="19.7" fill="#000000" transform="matrix(1.00, 0.00, -0.00, -1.00, 152.3, 6.0)">i</text><text xml:space="preserve" font-family="Helvetica-Light" font-size="19.7" fill="#000000" transform="matrix(1.00, 0.00, -0.00, -1.00, 156.6, 6.0)">o</text><text xml:space="preserve" font-family="Helvetica-Light" font-size="19.7" fill="#000000" transform="matrix(1.00, 0.00, -0.00, -1.00, 167.6, 6.0)">n</text><text xml:space="preserve" font-family="Helvetica-Light" font-size="19.7" fill="#000000" transform="matrix(1.00, 0.00, -0.00, -1.00, 178.6, 6.0)"> </text><text xml:space="preserve" font-family="Helvetica-Light" font-size="19.7" fill="#000000" transform="matrix(1.00, 0.00, -0.00, -1.00, 184.1, 6.0)">i</text><text xml:space="preserve" font-family="Helvetica-Light" font-size="19.7" fill="#000000" transform="matrix(1.00, 0.00, -0.00, -1.00, 188.4, 6.0)">s</text><text xml:space="preserve" font-family="Helvetica-Light" font-size="19.7" fill="#000000" transform="matrix(1.00, 0.00, -0.00, -1.00, 198.3, 6.0)"> </text><text xml:space="preserve" font-family="Helvetica-Light" font-size="19.7" fill="#000000" transform="matrix(1.00, 0.00, -0.00, -1.00, 203.8, 6.0)">s</text><text xml:space="preserve" font-family="Helvetica-Light" font-size="19.7" fill="#000000" transform="matrix(1.00, 0.00, -0.00, -1.00, 213.6, 6.0)">e</text><text xml:space="preserve" font-family="Helvetica-Light" font-size="19.7" fill="#000000" transform="matrix(1.00, 0.00, -0.00, -1.00, 224.6, 6.0)">n</text><text xml:space="preserve" font-family="Helvetica-Light" font-size="19.7" fill="#000000" transform="matrix(1.00, 0.00, -0.00, -1.00, 235.6, 6.0)">d</text><text xml:space="preserve" font-family="Helvetica-Light" font-size="19.7" fill="#000000" transform="matrix(1.00, 0.00, -0.00, -1.00, 247.6, 6.0)"> </text><text xml:space="preserve" font-family="Helvetica-Light" font-size="19.7" fill="#000000" transform="matrix(1.00, 0.00, -0.00, -1.00, 253.1, 6.0)">A</text><text xml:space="preserve" font-family="Helvetica-Light" font-size="19.7" fill="#000000" transform="matrix(1.00, 0.00, -0.00, -1.00, 266.2, 6.0)">c</text><text xml:space="preserve" font-family="Helvetica-Light" font-size="19.7" fill="#000000" transform="matrix(1.00, 0.00, -0.00, -1.00, 277.2, 6.0)">t</text><text xml:space="preserve" font-family="Helvetica-Light" font-size="19.7" fill="#000000" transform="matrix(1.00, 0.00, -0.00, -1.00, 282.7, 6.0)">i</text><text xml:space="preserve" font-family="Helvetica-Light" font-size="19.7" fill="#000000" transform="matrix(1.00, 0.00, -0.00, -1.00, 287.1, 6.0)">o</text><text xml:space="preserve" font-family="Helvetica-Light" font-size="19.7" fill="#000000" transform="matrix(1.00, 0.00, -0.00, -1.00, 298.0, 6.0)">n</text><text xml:space="preserve" font-family="Helvetica-Light" font-size="19.7" fill="#000000" transform="matrix(1.00, 0.00, -0.00, -1.00, 309.0, 6.0)">s</text><text xml:space="preserve" font-family="Helvetica-Light" font-size="19.7" fill="#000000" transform="matrix(1.00, 0.00, -0.00, -1.00, 318.9, 6.0)"> </text><text xml:space="preserve" font-family="Helvetica-Light" font-size="19.7" fill="#000000" transform="matrix(1.00, 0.00, -0.00, -1.00, 324.3, 6.0)">t</text><text xml:space="preserve" font-family="Helvetica-Light" font-size="19.7" fill="#000000" transform="matrix(1.00, 0.00, -0.00, -1.00, 329.8, 6.0)">o</text><text xml:space="preserve" font-family="Helvetica-Light" font-size="19.7" fill="#000000" transform="matrix(1.00, 0.00, -0.00, -1.00, 340.8, 6.0)"> </text><text xml:space="preserve" font-family="Helvetica-Light" font-size="19.7" fill="#000000" transform="matrix(1.00, 0.00, -0.00, -1.00, 346.3, 6.0)">t</text><text xml:space="preserve" font-family="Helvetica-Light" font-size="19.7" fill="#000000" transform="matrix(1.00, 0.00, -0.00, -1.00, 351.7, 6.0)">h</text><text xml:space="preserve" font-family="Helvetica-Light" font-size="19.7" fill="#000000" transform="matrix(1.00, 0.00, -0.00, -1.00, 362.7, 6.0)">e</text><text xml:space="preserve" font-family="Helvetica-Light" font-size="19.7" fill="#000000" transform="matrix(1.00, 0.00, -0.00, -1.00, 373.7, 6.0)"> </text><text xml:space="preserve" font-family="Helvetica-Light" font-size="19.7" fill="#000000" transform="matrix(1.00, 0.00, -0.00, -1.00, 379.2, 6.0)">m</text><text xml:space="preserve" font-family="Helvetica-Light" font-size="19.7" fill="#000000" transform="matrix(1.00, 0.00, -0.00, -1.00, 395.6, 6.0)">a</text><text xml:space="preserve" font-family="Helvetica-Light" font-size="19.7" fill="#000000" transform="matrix(1.00, 0.00, -0.00, -1.00, 406.6, 6.0)">i</text><text xml:space="preserve" font-family="Helvetica-Light" font-size="19.7" fill="#000000" transform="matrix(1.00, 0.00, -0.00, -1.00, 410.9, 6.0)">l</text><text xml:space="preserve" font-family="Helvetica-Light" font-size="19.7" fill="#000000" transform="matrix(1.00, 0.00, -0.00, -1.00, 415.3, 6.0)">b</text><text xml:space="preserve" font-family="Helvetica-Light" font-size="19.7" fill="#000000" transform="matrix(1.00, 0.00, -0.00, -1.00, 427.4, 6.0)">o</text><text xml:space="preserve" font-family="Helvetica-Light" font-size="19.7" fill="#000000" transform="matrix(1.00, 0.00, -0.00, -1.00, 438.3, 6.0)">x</text><text xml:space="preserve" font-family="Helvetica-Light" font-size="19.7" fill="#000000" transform="matrix(1.00, 0.00, -0.00, -1.00, 448.2, 6.0)"> </text><text xml:space="preserve" font-family="Helvetica-Light" font-size="19.7" fill="#000000" transform="matrix(1.00, 0.00, -0.00, -1.00, 453.7, 6.0)">“</text><text xml:space="preserve" font-family="Helvetica-Light" font-size="19.7" fill="#000000" transform="matrix(1.00, 0.00, -0.00, -1.00, 461.3, 6.0)">O</text><text xml:space="preserve" font-family="Helvetica-Light" font-size="19.7" fill="#000000" transform="matrix(1.00, 0.00, -0.00, -1.00, 476.7, 6.0)">u</text><text xml:space="preserve" font-family="Helvetica-Light" font-size="19.7" fill="#000000" transform="matrix(1.00, 0.00, -0.00, -1.00, 487.6, 6.0)">t</text><text xml:space="preserve" font-family="Helvetica-Light" font-size="19.7" fill="#000000" transform="matrix(1.00, 0.00, -0.00, -1.00, 493.1, 6.0)">p</text><text xml:space="preserve" font-family="Helvetica-Light" font-size="19.7" fill="#000000" transform="matrix(1.00, 0.00, -0.00, -1.00, 505.2, 6.0)">u</text><text xml:space="preserve" font-family="Helvetica-Light" font-size="19.7" fill="#000000" transform="matrix(1.00, 0.00, -0.00, -1.00, 516.1, 6.0)">t</text><text xml:space="preserve" font-family="Helvetica-Light" font-size="19.7" fill="#000000" transform="matrix(1.00, 0.00, -0.00, -1.00, 521.6, 6.0)"> </text><text xml:space="preserve" font-family="Helvetica-Light" font-size="19.7" fill="#000000" transform="matrix(1.00, 0.00, -0.00, -1.00, 527.1, 6.0)">a</text><text xml:space="preserve" font-family="Helvetica-Light" font-size="19.7" fill="#000000" transform="matrix(1.00, 0.00, -0.00, -1.00, 538.1, 6.0)">”</text></g></svg>