<?xml version="1.0" encoding="UTF-8" standalone="no"?><svg xmlns="http://www.w3.org/2000/svg" xmlns:xlink="http://www.w3.org/1999/xlink" clip-rule="evenodd" stroke-miterlimit="4.00" viewBox="0 0 530 22"><desc>SVG generated by Keynote</desc><defs></defs><g transform="matrix(1.00, 0.00, -0.00, -1.00, 0.0, 22.0)"><text xml:space="preserve" font-family="Helvetica-Light" font-size="14.8" fill="#000000" transform="matrix(1.00, 0.00, -0.00, -1.00, 0.6, 7.9)">•</text><text xml:space="preserve" font-family="Helvetica-Light" font-size="19.7" fill="#000000" transform="matrix(1.00, 0.00, -0.00, -1.00, 20.0, 6.0)">R</text><text xml:space="preserve" font-family="Helvetica-Light" font-size="19.7" fill="#000000" transform="matrix(1.00, 0.00, -0.00, -1.00, 33.2, 6.0)">u</text><text xml:space="preserve" font-family="Helvetica-Light" font-size="19.7" fill="#000000" transform="matrix(1.00, 0.00, -0.00, -1.00, 44.1, 6.0)">n</text><text xml:space="preserve" font-family="Helvetica-Light" font-size="19.7" fill="#000000" transform="matrix(1.00, 0.00, -0.00, -1.00, 55.1, 6.0)"> </text><text xml:space="preserve" font-family="Helvetica-Light" font-size="19.7" fill="#000000" transform="matrix(1.00, 0.00, -0.00, -1.00, 60.6, 6.0)">t</text><text xml:space="preserve" font-family="Helvetica-Light" font-size="19.7" fill="#000000" transform="matrix(1.00, 0.00, -0.00, -1.00, 66.0, 6.0)">h</text><text xml:space="preserve" font-family="Helvetica-Light" font-size="19.7" fill="#000000" transform="matrix(1.00, 0.00, -0.00, -1.00, 77.0, 6.0)">e</text><text xml:space="preserve" font-family="Helvetica-Light" font-size="19.7" fill="#000000" transform="matrix(1.00, 0.00, -0.00, -1.00, 88.0, 6.0)"> </text><text xml:space="preserve" font-family="Helvetica-Light" font-size="19.7" fill="#000000" transform="matrix(1.00, 0.00, -0.00, -1.00, 93.5, 6.0)">a</text><text xml:space="preserve" font-family="Helvetica-Light" font-size="19.7" fill="#000000" transform="matrix(1.00, 0.00, -0.00, -1.00, 104.4, 6.0)">p</text><text xml:space="preserve" font-family="Helvetica-Light" font-size="19.7" fill="#000000" transform="matrix(1.00, 0.00, -0.00, -1.00, 116.5, 6.0)">p</text><text xml:space="preserve" font-family="Helvetica-Light" font-size="19.7" fill="#000000" transform="matrix(1.00, 0.00, -0.00, -1.00, 128.5, 6.0)">l</text><text xml:space="preserve" font-family="Helvetica-Light" font-size="19.7" fill="#000000" transform="matrix(1.00, 0.00, -0.00, -1.00, 132.9, 6.0)">i</text><text xml:space="preserve" font-family="Helvetica-Light" font-size="19.7" fill="#000000" transform="matrix(1.00, 0.00, -0.00, -1.00, 137.3, 6.0)">c</text><text xml:space="preserve" font-family="Helvetica-Light" font-size="19.7" fill="#000000" transform="matrix(1.00, 0.00, -0.00, -1.00, 148.2, 6.0)">a</text><text xml:space="preserve" font-family="Helvetica-Light" font-size="19.7" fill="#000000" transform="matrix(1.00, 0.00, -0.00, -1.00, 159.2, 6.0)">t</text><text xml:space="preserve" font-family="Helvetica-Light" font-size="19.7" fill="#000000" transform="matrix(1.00, 0.00, -0.00, -1.00, 164.7, 6.0)">i</text><text xml:space="preserve" font-family="Helvetica-Light" font-size="19.7" fill="#000000" transform="matrix(1.00, 0.00, -0.00, -1.00, 169.1, 6.0)">o</text><text xml:space="preserve" font-family="Helvetica-Light" font-size="19.7" fill="#000000" transform="matrix(1.00, 0.00, -0.00, -1.00, 180.0, 6.0)">n</text><text xml:space="preserve" font-family="Helvetica-Light" font-size="19.7" fill="#000000" transform="matrix(1.00, 0.00, -0.00, -1.00, 191.0, 6.0)"> </text><text xml:space="preserve" font-family="Helvetica-Light" font-size="19.7" fill="#000000" transform="matrix(1.00, 0.00, -0.00, -1.00, 196.5, 6.0)">b</text><text xml:space="preserve" font-family="Helvetica-Light" font-size="19.7" fill="#000000" transform="matrix(1.00, 0.00, -0.00, -1.00, 208.5, 6.0)">y</text><text xml:space="preserve" font-family="Helvetica-Light" font-size="19.7" fill="#000000" transform="matrix(1.00, 0.00, -0.00, -1.00, 218.4, 6.0)"> </text><text xml:space="preserve" font-family="Helvetica-Light" font-size="19.7" fill="#000000" transform="matrix(1.00, 0.00, -0.00, -1.00, 223.9, 6.0)">p</text><text xml:space="preserve" font-family="Helvetica-Light" font-size="19.7" fill="#000000" transform="matrix(1.00, 0.00, -0.00, -1.00, 235.9, 6.0)">i</text><text xml:space="preserve" font-family="Helvetica-Light" font-size="19.7" fill="#000000" transform="matrix(1.00, 0.00, -0.00, -1.00, 240.3, 6.0)">p</text><text xml:space="preserve" font-family="Helvetica-Light" font-size="19.7" fill="#000000" transform="matrix(1.00, 0.00, -0.00, -1.00, 252.3, 6.0)">e</text><text xml:space="preserve" font-family="Helvetica-Light" font-size="19.7" fill="#000000" transform="matrix(1.00, 0.00, -0.00, -1.00, 263.3, 6.0)">l</text><text xml:space="preserve" font-family="Helvetica-Light" font-size="19.7" fill="#000000" transform="matrix(1.00, 0.00, -0.00, -1.00, 267.7, 6.0)">i</text><text xml:space="preserve" font-family="Helvetica-Light" font-size="19.7" fill="#000000" transform="matrix(1.00, 0.00, -0.00, -1.00, 272.1, 6.0)">n</text><text xml:space="preserve" font-family="Helvetica-Light" font-size="19.7" fill="#000000" transform="matrix(1.00, 0.00, -0.00, -1.00, 283.0, 6.0)">i</text><text xml:space="preserve" font-family="Helvetica-Light" font-size="19.7" fill="#000000" transform="matrix(1.00, 0.00, -0.00, -1.00, 287.4, 6.0)">n</text><text xml:space="preserve" font-family="Helvetica-Light" font-size="19.7" fill="#000000" transform="matrix(1.00, 0.00, -0.00, -1.00, 298.4, 6.0)">g</text><text xml:space="preserve" font-family="Helvetica-Light" font-size="19.7" fill="#000000" transform="matrix(1.00, 0.00, -0.00, -1.00, 310.4, 6.0)"> </text><text xml:space="preserve" font-family="Helvetica-Light" font-size="19.7" fill="#000000" transform="matrix(1.00, 0.00, -0.00, -1.00, 315.9, 6.0)">e</text><text xml:space="preserve" font-family="Helvetica-Light" font-size="19.7" fill="#000000" transform="matrix(1.00, 0.00, -0.00, -1.00, 326.9, 6.0)">v</text><text xml:space="preserve" font-family="Helvetica-Light" font-size="19.7" fill="#000000" transform="matrix(1.00, 0.00, -0.00, -1.00, 336.7, 6.0)">e</text><text xml:space="preserve" font-family="Helvetica-Light" font-size="19.7" fill="#000000" transform="matrix(1.00, 0.00, -0.00, -1.00, 347.7, 6.0)">r</text><text xml:space="preserve" font-family="Helvetica-Light" font-size="19.7" fill="#000000" transform="matrix(1.00, 0.00, -0.00, -1.00, 354.6, 6.0)">y</text><text xml:space="preserve" font-family="Helvetica-Light" font-size="19.7" fill="#000000" transform="matrix(1.00, 0.00, -0.00, -1.00, 364.5, 6.0)">t</text><text xml:space="preserve" font-family="Helvetica-Light" font-size="19.7" fill="#000000" transform="matrix(1.00, 0.00, -0.00, -1.00, 370.0, 6.0)">h</text><text xml:space="preserve" font-family="Helvetica-Light" font-size="19.7" fill="#000000" transform="matrix(1.00, 0.00, -0.00, -1.00, 380.9, 6.0)">i</text><text xml:space="preserve" font-family="Helvetica-Light" font-size="19.7" fill="#000000" transform="matrix(1.00, 0.00, -0.00, -1.00, 385.3, 6.0)">n</text><text xml:space="preserve" font-family="Helvetica-Light" font-size="19.7" fill="#000000" transform="matrix(1.00, 0.00, -0.00, -1.00, 396.3, 6.0)">g</text><text xml:space="preserve" font-family="Helvetica-Light" font-size="19.7" fill="#000000" transform="matrix(1.00, 0.00, -0.00, -1.00, 408.3, 6.0)"> </text><text xml:space="preserve" font-family="Helvetica-Light" font-size="19.7" fill="#000000" transform="matrix(1.00, 0.00, -0.00, -1.00, 413.8, 6.0)">i</text><text xml:space="preserve" font-family="Helvetica-Light" font-size="19.7" fill="#000000" transform="matrix(1.00, 0.00, -0.00, -1.00, 418.2, 6.0)">n</text><text xml:space="preserve" font-family="Helvetica-Light" font-size="19.7" fill="#000000" transform="matrix(1.00, 0.00, -0.00, -1.00, 429.1, 6.0)">t</text><text xml:space="preserve" font-family="Helvetica-Light" font-size="19.7" fill="#000000" transform="matrix(1.00, 0.00, -0.00, -1.00, 434.6, 6.0)">o</text><text xml:space="preserve" font-family="Helvetica-Light" font-size="19.7" fill="#000000" transform="matrix(1.00, 0.00, -0.00, -1.00, 445.6, 6.0)"> </text><text xml:space="preserve" font-family="Helvetica-Light" font-size="19.7" fill="#000000" transform="matrix(1.00, 0.00, -0.00, -1.00, 451.1, 6.0)">a</text><text xml:space="preserve" font-family="Helvetica-Light" font-size="19.7" fill="#000000" transform="matrix(1.00, 0.00, -0.00, -1.00, 462.0, 6.0)">n</text><text xml:space="preserve" font-family="Helvetica-Light" font-size="19.7" fill="#000000" transform="matrix(1.00, 0.00, -0.00, -1.00, 473.0, 6.0)"> </text><text xml:space="preserve" font-family="Helvetica-Light" font-size="19.7" fill="#000000" transform="matrix(1.00, 0.00, -0.00, -1.00, 478.5, 6.0)">E</text><text xml:space="preserve" font-family="Helvetica-Light" font-size="19.7" fill="#000000" transform="matrix(1.00, 0.00, -0.00, -1.00, 490.5, 6.0)">f</text><text xml:space="preserve" font-family="Helvetica-Light" font-size="19.7" fill="#000000" transform="matrix(1.00, 0.00, -0.00, -1.00, 495.6, 6.0)">f</text><text xml:space="preserve" font-family="Helvetica-Light" font-size="19.7" fill="#000000" transform="matrix(1.00, 0.00, -0.00, -1.00, 501.1, 6.0)">e</text><text xml:space="preserve" font-family="Helvetica-Light" font-size="19.7" fill="#000000" transform="matrix(1.00, 0.00, -0.00, -1.00, 512.1, 6.0)">c</text><text xml:space="preserve" font-family="Helvetica-Light" font-size="19.7" fill="#000000" transform="matrix(1.00, 0.00, -0.00, -1.00, 523.1, 6.0)">t</text></g></svg>