<?xml version="1.0" encoding="UTF-8" standalone="no"?><svg xmlns="http://www.w3.org/2000/svg" xmlns:xlink="http://www.w3.org/1999/xlink" clip-rule="evenodd" stroke-miterlimit="4.00" viewBox="0 0 413 22"><desc>SVG generated by Keynote</desc><defs></defs><g transform="matrix(1.00, 0.00, -0.00, -1.00, 0.0, 22.0)"><text xml:space="preserve" font-family="Monaco" font-size="18.6" fill="#000000" transform="matrix(1.00, 0.00, -0.00, -1.00, 1.0, 5.0)">n</text><text xml:space="preserve" font-family="Monaco" font-size="18.6" fill="#000000" transform="matrix(1.00, 0.00, -0.00, -1.00, 12.1, 5.0)">e</text><text xml:space="preserve" font-family="Monaco" font-size="18.6" fill="#000000" transform="matrix(1.00, 0.00, -0.00, -1.00, 23.3, 5.0)">w</text><text xml:space="preserve" font-family="Monaco" font-size="18.6" fill="#000000" transform="matrix(1.00, 0.00, -0.00, -1.00, 34.4, 5.0)">t</text><text xml:space="preserve" font-family="Monaco" font-size="18.6" fill="#000000" transform="matrix(1.00, 0.00, -0.00, -1.00, 45.6, 5.0)">y</text><text xml:space="preserve" font-family="Monaco" font-size="18.6" fill="#000000" transform="matrix(1.00, 0.00, -0.00, -1.00, 56.7, 5.0)">p</text><text xml:space="preserve" font-family="Monaco" font-size="18.6" fill="#000000" transform="matrix(1.00, 0.00, -0.00, -1.00, 67.8, 5.0)">e</text><text xml:space="preserve" font-family="Monaco" font-size="18.6" fill="#000000" transform="matrix(1.00, 0.00, -0.00, -1.00, 79.0, 5.0)"> </text><text xml:space="preserve" font-family="Monaco" font-size="18.6" fill="#000000" transform="matrix(1.00, 0.00, -0.00, -1.00, 90.1, 5.0)">I</text><text xml:space="preserve" font-family="Monaco" font-size="18.6" fill="#000000" transform="matrix(1.00, 0.00, -0.00, -1.00, 101.3, 5.0)">n</text><text xml:space="preserve" font-family="Monaco" font-size="18.6" fill="#000000" transform="matrix(1.00, 0.00, -0.00, -1.00, 112.4, 5.0)">p</text><text xml:space="preserve" font-family="Monaco" font-size="18.6" fill="#000000" transform="matrix(1.00, 0.00, -0.00, -1.00, 123.5, 5.0)">u</text><text xml:space="preserve" font-family="Monaco" font-size="18.6" fill="#000000" transform="matrix(1.00, 0.00, -0.00, -1.00, 134.7, 5.0)">t</text><text xml:space="preserve" font-family="Monaco" font-size="18.6" fill="#000000" transform="matrix(1.00, 0.00, -0.00, -1.00, 145.8, 5.0)"> </text><text xml:space="preserve" font-family="Monaco" font-size="18.6" fill="#000000" transform="matrix(1.00, 0.00, -0.00, -1.00, 157.0, 5.0)">a</text><text xml:space="preserve" font-family="Monaco" font-size="18.6" fill="#000000" transform="matrix(1.00, 0.00, -0.00, -1.00, 168.1, 5.0)"> </text><text xml:space="preserve" font-family="Monaco" font-size="18.6" fill="#000000" transform="matrix(1.00, 0.00, -0.00, -1.00, 179.2, 5.0)">=</text><text xml:space="preserve" font-family="Monaco" font-size="18.6" fill="#000000" transform="matrix(1.00, 0.00, -0.00, -1.00, 190.4, 5.0)"> </text><text xml:space="preserve" font-family="Monaco" font-size="18.6" fill="#000000" transform="matrix(1.00, 0.00, -0.00, -1.00, 201.5, 5.0)">I</text><text xml:space="preserve" font-family="Monaco" font-size="18.6" fill="#000000" transform="matrix(1.00, 0.00, -0.00, -1.00, 212.7, 5.0)">n</text><text xml:space="preserve" font-family="Monaco" font-size="18.6" fill="#000000" transform="matrix(1.00, 0.00, -0.00, -1.00, 223.8, 5.0)">p</text><text xml:space="preserve" font-family="Monaco" font-size="18.6" fill="#000000" transform="matrix(1.00, 0.00, -0.00, -1.00, 234.9, 5.0)">u</text><text xml:space="preserve" font-family="Monaco" font-size="18.6" fill="#000000" transform="matrix(1.00, 0.00, -0.00, -1.00, 246.1, 5.0)">t</text><text xml:space="preserve" font-family="Monaco" font-size="18.6" fill="#000000" transform="matrix(1.00, 0.00, -0.00, -1.00, 257.2, 5.0)"> </text><text xml:space="preserve" font-family="Monaco" font-size="18.6" fill="#000000" transform="matrix(1.00, 0.00, -0.00, -1.00, 268.4, 5.0)">S</text><text xml:space="preserve" font-family="Monaco" font-size="18.6" fill="#000000" transform="matrix(1.00, 0.00, -0.00, -1.00, 279.5, 5.0)">T</text><text xml:space="preserve" font-family="Monaco" font-size="18.6" fill="#000000" transform="matrix(1.00, 0.00, -0.00, -1.00, 290.6, 5.0)">M</text><text xml:space="preserve" font-family="Monaco" font-size="18.6" fill="#000000" transform="matrix(1.00, 0.00, -0.00, -1.00, 301.8, 5.0)"> </text><text xml:space="preserve" font-family="Monaco" font-size="18.6" fill="#000000" transform="matrix(1.00, 0.00, -0.00, -1.00, 312.9, 5.0)">(</text><text xml:space="preserve" font-family="Monaco" font-size="18.6" fill="#000000" transform="matrix(1.00, 0.00, -0.00, -1.00, 324.1, 5.0)">M</text><text xml:space="preserve" font-family="Monaco" font-size="18.6" fill="#000000" transform="matrix(1.00, 0.00, -0.00, -1.00, 335.2, 5.0)">a</text><text xml:space="preserve" font-family="Monaco" font-size="18.6" fill="#000000" transform="matrix(1.00, 0.00, -0.00, -1.00, 346.3, 5.0)">y</text><text xml:space="preserve" font-family="Monaco" font-size="18.6" fill="#000000" transform="matrix(1.00, 0.00, -0.00, -1.00, 357.5, 5.0)">b</text><text xml:space="preserve" font-family="Monaco" font-size="18.6" fill="#000000" transform="matrix(1.00, 0.00, -0.00, -1.00, 368.6, 5.0)">e</text><text xml:space="preserve" font-family="Monaco" font-size="18.6" fill="#000000" transform="matrix(1.00, 0.00, -0.00, -1.00, 379.7, 5.0)"> </text><text xml:space="preserve" font-family="Monaco" font-size="18.6" fill="#000000" transform="matrix(1.00, 0.00, -0.00, -1.00, 390.9, 5.0)">a</text><text xml:space="preserve" font-family="Monaco" font-size="18.6" fill="#000000" transform="matrix(1.00, 0.00, -0.00, -1.00, 402.0, 5.0)">)</text></g></svg>