<?xml version="1.0" encoding="UTF-8" standalone="no"?><svg xmlns="http://www.w3.org/2000/svg" xmlns:xlink="http://www.w3.org/1999/xlink" clip-rule="evenodd" stroke-miterlimit="4.00" viewBox="0 0 523 20"><desc>SVG generated by Keynote</desc><defs></defs><g transform="matrix(1.00, 0.00, -0.00, -1.00, 0.0, 20.0)"><text xml:space="preserve" font-family="Monaco" font-size="17.4" fill="#000000" transform="matrix(1.00, 0.00, -0.00, -1.00, 1.0, 5.0)">f</text><text xml:space="preserve" font-family="Monaco" font-size="17.4" fill="#000000" transform="matrix(1.00, 0.00, -0.00, -1.00, 11.4, 5.0)">r</text><text xml:space="preserve" font-family="Monaco" font-size="17.4" fill="#000000" transform="matrix(1.00, 0.00, -0.00, -1.00, 21.9, 5.0)">o</text><text xml:space="preserve" font-family="Monaco" font-size="17.4" fill="#000000" transform="matrix(1.00, 0.00, -0.00, -1.00, 32.3, 5.0)">m</text><text xml:space="preserve" font-family="Monaco" font-size="17.4" fill="#000000" transform="matrix(1.00, 0.00, -0.00, -1.00, 42.8, 5.0)">I</text><text xml:space="preserve" font-family="Monaco" font-size="17.4" fill="#000000" transform="matrix(1.00, 0.00, -0.00, -1.00, 53.2, 5.0)">n</text><text xml:space="preserve" font-family="Monaco" font-size="17.4" fill="#000000" transform="matrix(1.00, 0.00, -0.00, -1.00, 63.7, 5.0)">p</text><text xml:space="preserve" font-family="Monaco" font-size="17.4" fill="#000000" transform="matrix(1.00, 0.00, -0.00, -1.00, 74.1, 5.0)">u</text><text xml:space="preserve" font-family="Monaco" font-size="17.4" fill="#000000" transform="matrix(1.00, 0.00, -0.00, -1.00, 84.5, 5.0)">t</text><text xml:space="preserve" font-family="Monaco" font-size="17.4" fill="#000000" transform="matrix(1.00, 0.00, -0.00, -1.00, 95.0, 5.0)">S</text><text xml:space="preserve" font-family="Monaco" font-size="17.4" fill="#000000" transform="matrix(1.00, 0.00, -0.00, -1.00, 105.4, 5.0)">T</text><text xml:space="preserve" font-family="Monaco" font-size="17.4" fill="#000000" transform="matrix(1.00, 0.00, -0.00, -1.00, 115.9, 5.0)">M</text><text xml:space="preserve" font-family="Monaco" font-size="17.4" fill="#000000" transform="matrix(1.00, 0.00, -0.00, -1.00, 126.3, 5.0)"> </text><text xml:space="preserve" font-family="Monaco" font-size="17.4" fill="#000000" transform="matrix(1.00, 0.00, -0.00, -1.00, 136.8, 5.0)">:</text><text xml:space="preserve" font-family="Monaco" font-size="17.4" fill="#000000" transform="matrix(1.00, 0.00, -0.00, -1.00, 147.2, 5.0)">:</text><text xml:space="preserve" font-family="Monaco" font-size="17.4" fill="#000000" transform="matrix(1.00, 0.00, -0.00, -1.00, 157.7, 5.0)"> </text><text xml:space="preserve" font-family="Monaco" font-size="17.4" fill="#000000" transform="matrix(1.00, 0.00, -0.00, -1.00, 168.1, 5.0)">P</text><text xml:space="preserve" font-family="Monaco" font-size="17.4" fill="#000000" transform="matrix(1.00, 0.00, -0.00, -1.00, 178.5, 5.0)">C</text><text xml:space="preserve" font-family="Monaco" font-size="17.4" fill="#000000" transform="matrix(1.00, 0.00, -0.00, -1.00, 189.0, 5.0)">.</text><text xml:space="preserve" font-family="Monaco" font-size="17.4" fill="#000000" transform="matrix(1.00, 0.00, -0.00, -1.00, 199.4, 5.0)">I</text><text xml:space="preserve" font-family="Monaco" font-size="17.4" fill="#000000" transform="matrix(1.00, 0.00, -0.00, -1.00, 209.9, 5.0)">n</text><text xml:space="preserve" font-family="Monaco" font-size="17.4" fill="#000000" transform="matrix(1.00, 0.00, -0.00, -1.00, 220.3, 5.0)">p</text><text xml:space="preserve" font-family="Monaco" font-size="17.4" fill="#000000" transform="matrix(1.00, 0.00, -0.00, -1.00, 230.8, 5.0)">u</text><text xml:space="preserve" font-family="Monaco" font-size="17.4" fill="#000000" transform="matrix(1.00, 0.00, -0.00, -1.00, 241.2, 5.0)">t</text><text xml:space="preserve" font-family="Monaco" font-size="17.4" fill="#000000" transform="matrix(1.00, 0.00, -0.00, -1.00, 251.6, 5.0)"> </text><text xml:space="preserve" font-family="Monaco" font-size="17.4" fill="#000000" transform="matrix(1.00, 0.00, -0.00, -1.00, 262.1, 5.0)">a</text><text xml:space="preserve" font-family="Monaco" font-size="17.4" fill="#000000" transform="matrix(1.00, 0.00, -0.00, -1.00, 272.5, 5.0)"> </text><text xml:space="preserve" font-family="Monaco" font-size="17.4" fill="#000000" transform="matrix(1.00, 0.00, -0.00, -1.00, 283.0, 5.0)">-</text><text xml:space="preserve" font-family="Monaco" font-size="17.4" fill="#000000" transform="matrix(1.00, 0.00, -0.00, -1.00, 293.4, 5.0)">&gt;</text><text xml:space="preserve" font-family="Monaco" font-size="17.4" fill="#000000" transform="matrix(1.00, 0.00, -0.00, -1.00, 303.9, 5.0)"> </text><text xml:space="preserve" font-family="Monaco" font-size="17.4" fill="#000000" transform="matrix(1.00, 0.00, -0.00, -1.00, 314.3, 5.0)">P</text><text xml:space="preserve" font-family="Monaco" font-size="17.4" fill="#000000" transform="matrix(1.00, 0.00, -0.00, -1.00, 324.7, 5.0)">.</text><text xml:space="preserve" font-family="Monaco" font-size="17.4" fill="#000000" transform="matrix(1.00, 0.00, -0.00, -1.00, 335.2, 5.0)">P</text><text xml:space="preserve" font-family="Monaco" font-size="17.4" fill="#000000" transform="matrix(1.00, 0.00, -0.00, -1.00, 345.6, 5.0)">r</text><text xml:space="preserve" font-family="Monaco" font-size="17.4" fill="#000000" transform="matrix(1.00, 0.00, -0.00, -1.00, 356.1, 5.0)">o</text><text xml:space="preserve" font-family="Monaco" font-size="17.4" fill="#000000" transform="matrix(1.00, 0.00, -0.00, -1.00, 366.5, 5.0)">d</text><text xml:space="preserve" font-family="Monaco" font-size="17.4" fill="#000000" transform="matrix(1.00, 0.00, -0.00, -1.00, 377.0, 5.0)">u</text><text xml:space="preserve" font-family="Monaco" font-size="17.4" fill="#000000" transform="matrix(1.00, 0.00, -0.00, -1.00, 387.4, 5.0)">c</text><text xml:space="preserve" font-family="Monaco" font-size="17.4" fill="#000000" transform="matrix(1.00, 0.00, -0.00, -1.00, 397.9, 5.0)">e</text><text xml:space="preserve" font-family="Monaco" font-size="17.4" fill="#000000" transform="matrix(1.00, 0.00, -0.00, -1.00, 408.3, 5.0)">r</text><text xml:space="preserve" font-family="Monaco" font-size="17.4" fill="#000000" transform="matrix(1.00, 0.00, -0.00, -1.00, 418.7, 5.0)">'</text><text xml:space="preserve" font-family="Monaco" font-size="17.4" fill="#000000" transform="matrix(1.00, 0.00, -0.00, -1.00, 429.2, 5.0)"> </text><text xml:space="preserve" font-family="Monaco" font-size="17.4" fill="#000000" transform="matrix(1.00, 0.00, -0.00, -1.00, 439.6, 5.0)">a</text><text xml:space="preserve" font-family="Monaco" font-size="17.4" fill="#000000" transform="matrix(1.00, 0.00, -0.00, -1.00, 450.1, 5.0)"> </text><text xml:space="preserve" font-family="Monaco" font-size="17.4" fill="#000000" transform="matrix(1.00, 0.00, -0.00, -1.00, 460.5, 5.0)">S</text><text xml:space="preserve" font-family="Monaco" font-size="17.4" fill="#000000" transform="matrix(1.00, 0.00, -0.00, -1.00, 471.0, 5.0)">T</text><text xml:space="preserve" font-family="Monaco" font-size="17.4" fill="#000000" transform="matrix(1.00, 0.00, -0.00, -1.00, 481.4, 5.0)">M</text><text xml:space="preserve" font-family="Monaco" font-size="17.4" fill="#000000" transform="matrix(1.00, 0.00, -0.00, -1.00, 491.8, 5.0)"> </text><text xml:space="preserve" font-family="Monaco" font-size="17.4" fill="#000000" transform="matrix(1.00, 0.00, -0.00, -1.00, 502.3, 5.0)">(</text><text xml:space="preserve" font-family="Monaco" font-size="17.4" fill="#000000" transform="matrix(1.00, 0.00, -0.00, -1.00, 512.7, 5.0)">)</text></g></svg>