<?xml version="1.0" encoding="UTF-8" standalone="no"?><svg xmlns="http://www.w3.org/2000/svg" xmlns:xlink="http://www.w3.org/1999/xlink" clip-rule="evenodd" stroke-miterlimit="4.00" viewBox="0 0 725 22"><desc>SVG generated by Keynote</desc><defs></defs><g transform="matrix(1.00, 0.00, -0.00, -1.00, 0.0, 22.0)"><text xml:space="preserve" font-family="Helvetica-Light" font-size="14.8" fill="#000000" transform="matrix(1.00, 0.00, -0.00, -1.00, 0.6, 7.8)">•</text><text xml:space="preserve" font-family="Helvetica-Light" font-size="19.7" fill="#000000" transform="matrix(1.00, 0.00, -0.00, -1.00, 20.0, 5.0)">P</text><text xml:space="preserve" font-family="Helvetica-Light" font-size="19.7" fill="#000000" transform="matrix(1.00, 0.00, -0.00, -1.00, 32.0, 5.0)">i</text><text xml:space="preserve" font-family="Helvetica-Light" font-size="19.7" fill="#000000" transform="matrix(1.00, 0.00, -0.00, -1.00, 36.4, 5.0)">p</text><text xml:space="preserve" font-family="Helvetica-Light" font-size="19.7" fill="#000000" transform="matrix(1.00, 0.00, -0.00, -1.00, 48.5, 5.0)">e</text><text xml:space="preserve" font-family="Helvetica-Light" font-size="19.7" fill="#000000" transform="matrix(1.00, 0.00, -0.00, -1.00, 59.4, 5.0)">.</text><text xml:space="preserve" font-family="Helvetica-Light" font-size="19.7" fill="#000000" transform="matrix(1.00, 0.00, -0.00, -1.00, 64.9, 5.0)">C</text><text xml:space="preserve" font-family="Helvetica-Light" font-size="19.7" fill="#000000" transform="matrix(1.00, 0.00, -0.00, -1.00, 79.2, 5.0)">o</text><text xml:space="preserve" font-family="Helvetica-Light" font-size="19.7" fill="#000000" transform="matrix(1.00, 0.00, -0.00, -1.00, 90.1, 5.0)">n</text><text xml:space="preserve" font-family="Helvetica-Light" font-size="19.7" fill="#000000" transform="matrix(1.00, 0.00, -0.00, -1.00, 101.1, 5.0)">c</text><text xml:space="preserve" font-family="Helvetica-Light" font-size="19.7" fill="#000000" transform="matrix(1.00, 0.00, -0.00, -1.00, 112.1, 5.0)">u</text><text xml:space="preserve" font-family="Helvetica-Light" font-size="19.7" fill="#000000" transform="matrix(1.00, 0.00, -0.00, -1.00, 123.0, 5.0)">r</text><text xml:space="preserve" font-family="Helvetica-Light" font-size="19.7" fill="#000000" transform="matrix(1.00, 0.00, -0.00, -1.00, 129.6, 5.0)">r</text><text xml:space="preserve" font-family="Helvetica-Light" font-size="19.7" fill="#000000" transform="matrix(1.00, 0.00, -0.00, -1.00, 135.8, 5.0)">e</text><text xml:space="preserve" font-family="Helvetica-Light" font-size="19.7" fill="#000000" transform="matrix(1.00, 0.00, -0.00, -1.00, 146.8, 5.0)">n</text><text xml:space="preserve" font-family="Helvetica-Light" font-size="19.7" fill="#000000" transform="matrix(1.00, 0.00, -0.00, -1.00, 157.7, 5.0)">t</text><text xml:space="preserve" font-family="Helvetica-Light" font-size="19.7" fill="#000000" transform="matrix(1.00, 0.00, -0.00, -1.00, 163.2, 5.0)">.</text><text xml:space="preserve" font-family="Helvetica-Light" font-size="19.7" fill="#000000" transform="matrix(1.00, 0.00, -0.00, -1.00, 168.7, 5.0)">O</text><text xml:space="preserve" font-family="Helvetica-Light" font-size="19.7" fill="#000000" transform="matrix(1.00, 0.00, -0.00, -1.00, 184.0, 5.0)">u</text><text xml:space="preserve" font-family="Helvetica-Light" font-size="19.7" fill="#000000" transform="matrix(1.00, 0.00, -0.00, -1.00, 195.0, 5.0)">t</text><text xml:space="preserve" font-family="Helvetica-Light" font-size="19.7" fill="#000000" transform="matrix(1.00, 0.00, -0.00, -1.00, 200.5, 5.0)">p</text><text xml:space="preserve" font-family="Helvetica-Light" font-size="19.7" fill="#000000" transform="matrix(1.00, 0.00, -0.00, -1.00, 212.5, 5.0)">u</text><text xml:space="preserve" font-family="Helvetica-Light" font-size="19.7" fill="#000000" transform="matrix(1.00, 0.00, -0.00, -1.00, 223.5, 5.0)">t</text><text xml:space="preserve" font-family="Helvetica-Light" font-size="19.7" fill="#000000" transform="matrix(1.00, 0.00, -0.00, -1.00, 229.0, 5.0)"> </text><text xml:space="preserve" font-family="Helvetica-Light" font-size="19.7" fill="#000000" transform="matrix(1.00, 0.00, -0.00, -1.00, 234.5, 5.0)">i</text><text xml:space="preserve" font-family="Helvetica-Light" font-size="19.7" fill="#000000" transform="matrix(1.00, 0.00, -0.00, -1.00, 238.8, 5.0)">s</text><text xml:space="preserve" font-family="Helvetica-Light" font-size="19.7" fill="#000000" transform="matrix(1.00, 0.00, -0.00, -1.00, 248.7, 5.0)"> </text><text xml:space="preserve" font-family="Helvetica-Light" font-size="19.7" fill="#000000" transform="matrix(1.00, 0.00, -0.00, -1.00, 254.2, 5.0)">a</text><text xml:space="preserve" font-family="Helvetica-Light" font-size="19.7" fill="#000000" transform="matrix(1.00, 0.00, -0.00, -1.00, 265.1, 5.0)">n</text><text xml:space="preserve" font-family="Helvetica-Light" font-size="19.7" fill="#000000" transform="matrix(1.00, 0.00, -0.00, -1.00, 276.1, 5.0)"> </text><text xml:space="preserve" font-family="Helvetica-Light" font-size="19.7" fill="#000000" transform="matrix(1.00, 0.00, -0.00, -1.00, 281.6, 5.0)">E</text><text xml:space="preserve" font-family="Helvetica-Light" font-size="19.7" fill="#000000" transform="matrix(1.00, 0.00, -0.00, -1.00, 293.6, 5.0)">l</text><text xml:space="preserve" font-family="Helvetica-Light" font-size="19.7" fill="#000000" transform="matrix(1.00, 0.00, -0.00, -1.00, 298.0, 5.0)">m</text><text xml:space="preserve" font-family="Helvetica-Light" font-size="19.7" fill="#000000" transform="matrix(1.00, 0.00, -0.00, -1.00, 314.4, 5.0)">-</text><text xml:space="preserve" font-family="Helvetica-Light" font-size="19.7" fill="#000000" transform="matrix(1.00, 0.00, -0.00, -1.00, 321.0, 5.0)">l</text><text xml:space="preserve" font-family="Helvetica-Light" font-size="19.7" fill="#000000" transform="matrix(1.00, 0.00, -0.00, -1.00, 325.4, 5.0)">i</text><text xml:space="preserve" font-family="Helvetica-Light" font-size="19.7" fill="#000000" transform="matrix(1.00, 0.00, -0.00, -1.00, 329.8, 5.0)">k</text><text xml:space="preserve" font-family="Helvetica-Light" font-size="19.7" fill="#000000" transform="matrix(1.00, 0.00, -0.00, -1.00, 339.6, 5.0)">e</text><text xml:space="preserve" font-family="Helvetica-Light" font-size="19.7" fill="#000000" transform="matrix(1.00, 0.00, -0.00, -1.00, 350.6, 5.0)"> </text><text xml:space="preserve" font-family="Helvetica-Light" font-size="19.7" fill="#000000" transform="matrix(1.00, 0.00, -0.00, -1.00, 356.1, 5.0)">a</text><text xml:space="preserve" font-family="Helvetica-Light" font-size="19.7" fill="#000000" transform="matrix(1.00, 0.00, -0.00, -1.00, 367.0, 5.0)">d</text><text xml:space="preserve" font-family="Helvetica-Light" font-size="19.7" fill="#000000" transform="matrix(1.00, 0.00, -0.00, -1.00, 379.1, 5.0)">d</text><text xml:space="preserve" font-family="Helvetica-Light" font-size="19.7" fill="#000000" transform="matrix(1.00, 0.00, -0.00, -1.00, 391.1, 5.0)">r</text><text xml:space="preserve" font-family="Helvetica-Light" font-size="19.7" fill="#000000" transform="matrix(1.00, 0.00, -0.00, -1.00, 397.3, 5.0)">e</text><text xml:space="preserve" font-family="Helvetica-Light" font-size="19.7" fill="#000000" transform="matrix(1.00, 0.00, -0.00, -1.00, 408.3, 5.0)">s</text><text xml:space="preserve" font-family="Helvetica-Light" font-size="19.7" fill="#000000" transform="matrix(1.00, 0.00, -0.00, -1.00, 418.2, 5.0)">s</text><text xml:space="preserve" font-family="Helvetica-Light" font-size="19.7" fill="#000000" transform="matrix(1.00, 0.00, -0.00, -1.00, 428.0, 5.0)"> </text><text xml:space="preserve" font-family="Helvetica-Light" font-size="19.7" fill="#000000" transform="matrix(1.00, 0.00, -0.00, -1.00, 433.5, 5.0)">o</text><text xml:space="preserve" font-family="Helvetica-Light" font-size="19.7" fill="#000000" transform="matrix(1.00, 0.00, -0.00, -1.00, 444.5, 5.0)">f</text><text xml:space="preserve" font-family="Helvetica-Light" font-size="19.7" fill="#000000" transform="matrix(1.00, 0.00, -0.00, -1.00, 450.0, 5.0)"> </text><text xml:space="preserve" font-family="Helvetica-Light" font-size="19.7" fill="#000000" transform="matrix(1.00, 0.00, -0.00, -1.00, 455.4, 5.0)">t</text><text xml:space="preserve" font-family="Helvetica-Light" font-size="19.7" fill="#000000" transform="matrix(1.00, 0.00, -0.00, -1.00, 460.9, 5.0)">o</text><text xml:space="preserve" font-family="Helvetica-Light" font-size="19.7" fill="#000000" transform="matrix(1.00, 0.00, -0.00, -1.00, 471.9, 5.0)"> </text><text xml:space="preserve" font-family="Helvetica-Light" font-size="19.7" fill="#000000" transform="matrix(1.00, 0.00, -0.00, -1.00, 477.4, 5.0)">s</text><text xml:space="preserve" font-family="Helvetica-Light" font-size="19.7" fill="#000000" transform="matrix(1.00, 0.00, -0.00, -1.00, 487.2, 5.0)">e</text><text xml:space="preserve" font-family="Helvetica-Light" font-size="19.7" fill="#000000" transform="matrix(1.00, 0.00, -0.00, -1.00, 498.2, 5.0)">n</text><text xml:space="preserve" font-family="Helvetica-Light" font-size="19.7" fill="#000000" transform="matrix(1.00, 0.00, -0.00, -1.00, 509.2, 5.0)">d</text><text xml:space="preserve" font-family="Helvetica-Light" font-size="19.7" fill="#000000" transform="matrix(1.00, 0.00, -0.00, -1.00, 521.2, 5.0)"> </text><text xml:space="preserve" font-family="Helvetica-Light" font-size="19.7" fill="#000000" transform="matrix(1.00, 0.00, -0.00, -1.00, 526.7, 5.0)">t</text><text xml:space="preserve" font-family="Helvetica-Light" font-size="19.7" fill="#000000" transform="matrix(1.00, 0.00, -0.00, -1.00, 532.2, 5.0)">o</text><text xml:space="preserve" font-family="Helvetica-Light" font-size="19.7" fill="#000000" transform="matrix(1.00, 0.00, -0.00, -1.00, 543.1, 5.0)"> </text><text xml:space="preserve" font-family="Helvetica-Light" font-size="19.7" fill="#000000" transform="matrix(1.00, 0.00, -0.00, -1.00, 548.6, 5.0)">a</text><text xml:space="preserve" font-family="Helvetica-Light" font-size="19.7" fill="#000000" transform="matrix(1.00, 0.00, -0.00, -1.00, 559.6, 5.0)"> </text><text xml:space="preserve" font-family="Helvetica-Light" font-size="19.7" fill="#000000" transform="matrix(1.00, 0.00, -0.00, -1.00, 565.1, 5.0)">p</text><text xml:space="preserve" font-family="Helvetica-Light" font-size="19.7" fill="#000000" transform="matrix(1.00, 0.00, -0.00, -1.00, 577.1, 5.0)">a</text><text xml:space="preserve" font-family="Helvetica-Light" font-size="19.7" fill="#000000" transform="matrix(1.00, 0.00, -0.00, -1.00, 588.1, 5.0)">r</text><text xml:space="preserve" font-family="Helvetica-Light" font-size="19.7" fill="#000000" transform="matrix(1.00, 0.00, -0.00, -1.00, 595.0, 5.0)">t</text><text xml:space="preserve" font-family="Helvetica-Light" font-size="19.7" fill="#000000" transform="matrix(1.00, 0.00, -0.00, -1.00, 600.5, 5.0)">i</text><text xml:space="preserve" font-family="Helvetica-Light" font-size="19.7" fill="#000000" transform="matrix(1.00, 0.00, -0.00, -1.00, 604.9, 5.0)">c</text><text xml:space="preserve" font-family="Helvetica-Light" font-size="19.7" fill="#000000" transform="matrix(1.00, 0.00, -0.00, -1.00, 615.8, 5.0)">u</text><text xml:space="preserve" font-family="Helvetica-Light" font-size="19.7" fill="#000000" transform="matrix(1.00, 0.00, -0.00, -1.00, 626.8, 5.0)">l</text><text xml:space="preserve" font-family="Helvetica-Light" font-size="19.7" fill="#000000" transform="matrix(1.00, 0.00, -0.00, -1.00, 631.2, 5.0)">a</text><text xml:space="preserve" font-family="Helvetica-Light" font-size="19.7" fill="#000000" transform="matrix(1.00, 0.00, -0.00, -1.00, 642.1, 5.0)">r</text><text xml:space="preserve" font-family="Helvetica-Light" font-size="19.7" fill="#000000" transform="matrix(1.00, 0.00, -0.00, -1.00, 648.7, 5.0)"> </text><text xml:space="preserve" font-family="Helvetica-Light" font-size="19.7" fill="#000000" transform="matrix(1.00, 0.00, -0.00, -1.00, 654.2, 5.0)">m</text><text xml:space="preserve" font-family="Helvetica-Light" font-size="19.7" fill="#000000" transform="matrix(1.00, 0.00, -0.00, -1.00, 670.6, 5.0)">a</text><text xml:space="preserve" font-family="Helvetica-Light" font-size="19.7" fill="#000000" transform="matrix(1.00, 0.00, -0.00, -1.00, 681.6, 5.0)">i</text><text xml:space="preserve" font-family="Helvetica-Light" font-size="19.7" fill="#000000" transform="matrix(1.00, 0.00, -0.00, -1.00, 685.9, 5.0)">l</text><text xml:space="preserve" font-family="Helvetica-Light" font-size="19.7" fill="#000000" transform="matrix(1.00, 0.00, -0.00, -1.00, 690.3, 5.0)">b</text><text xml:space="preserve" font-family="Helvetica-Light" font-size="19.7" fill="#000000" transform="matrix(1.00, 0.00, -0.00, -1.00, 702.4, 5.0)">o</text><text xml:space="preserve" font-family="Helvetica-Light" font-size="19.7" fill="#000000" transform="matrix(1.00, 0.00, -0.00, -1.00, 713.3, 5.0)">x</text><text xml:space="preserve" font-family="Helvetica-Light" font-size="19.7" fill="#000000" transform="matrix(1.00, 0.00, -0.00, -1.00, 723.2, 5.0)"> </text></g></svg>