<?xml version="1.0" encoding="UTF-8" standalone="no"?><svg xmlns="http://www.w3.org/2000/svg" xmlns:xlink="http://www.w3.org/1999/xlink" clip-rule="evenodd" stroke-miterlimit="4.00" viewBox="0 0 1024 768"><desc>SVG generated by Keynote</desc><defs></defs><g transform="matrix(1.00, 0.00, -0.00, -1.00, 0.0, 768.0)"><path d="M 0.0 768.0 L 1024.0 768.0 L 1024.0 0.0 L 0.0 0.0 Z M 0.0 768.0 " fill="#FEFFFF"></path><text xml:space="preserve" font-family="Helvetica-Light" font-size="70.4" fill="#000000" transform="matrix(1.00, 0.00, -0.00, -1.00, 135.0, 567.0)">C</text><text xml:space="preserve" font-family="Helvetica-Light" font-size="70.4" fill="#000000" transform="matrix(1.00, 0.00, -0.00, -1.00, 185.8, 567.0)">o</text><text xml:space="preserve" font-family="Helvetica-Light" font-size="70.4" fill="#000000" transform="matrix(1.00, 0.00, -0.00, -1.00, 225.0, 567.0)">m</text><text xml:space="preserve" font-family="Helvetica-Light" font-size="70.4" fill="#000000" transform="matrix(1.00, 0.00, -0.00, -1.00, 283.6, 567.0)">p</text><text xml:space="preserve" font-family="Helvetica-Light" font-size="70.4" fill="#000000" transform="matrix(1.00, 0.00, -0.00, -1.00, 326.6, 567.0)">o</text><text xml:space="preserve" font-family="Helvetica-Light" font-size="70.4" fill="#000000" transform="matrix(1.00, 0.00, -0.00, -1.00, 365.8, 567.0)">s</text><text xml:space="preserve" font-family="Helvetica-Light" font-size="70.4" fill="#000000" transform="matrix(1.00, 0.00, -0.00, -1.00, 401.0, 567.0)">a</text><text xml:space="preserve" font-family="Helvetica-Light" font-size="70.4" fill="#000000" transform="matrix(1.00, 0.00, -0.00, -1.00, 440.1, 567.0)">b</text><text xml:space="preserve" font-family="Helvetica-Light" font-size="70.4" fill="#000000" transform="matrix(1.00, 0.00, -0.00, -1.00, 483.1, 567.0)">l</text><text xml:space="preserve" font-family="Helvetica-Light" font-size="70.4" fill="#000000" transform="matrix(1.00, 0.00, -0.00, -1.00, 498.8, 567.0)">e</text><text xml:space="preserve" font-family="Helvetica-Light" font-size="70.4" fill="#000000" transform="matrix(1.00, 0.00, -0.00, -1.00, 537.9, 567.0)"> </text><text xml:space="preserve" font-family="Helvetica-Light" font-size="70.4" fill="#000000" transform="matrix(1.00, 0.00, -0.00, -1.00, 557.5, 567.0)">W</text><text xml:space="preserve" font-family="Helvetica-Light" font-size="70.4" fill="#000000" transform="matrix(1.00, 0.00, -0.00, -1.00, 620.1, 567.0)">i</text><text xml:space="preserve" font-family="Helvetica-Light" font-size="70.4" fill="#000000" transform="matrix(1.00, 0.00, -0.00, -1.00, 635.7, 567.0)">d</text><text xml:space="preserve" font-family="Helvetica-Light" font-size="70.4" fill="#000000" transform="matrix(1.00, 0.00, -0.00, -1.00, 678.7, 567.0)">g</text><text xml:space="preserve" font-family="Helvetica-Light" font-size="70.4" fill="#000000" transform="matrix(1.00, 0.00, -0.00, -1.00, 721.7, 567.0)">e</text><text xml:space="preserve" font-family="Helvetica-Light" font-size="70.4" fill="#000000" transform="matrix(1.00, 0.00, -0.00, -1.00, 760.9, 567.0)">t</text><text xml:space="preserve" font-family="Helvetica-Light" font-size="70.4" fill="#000000" transform="matrix(1.00, 0.00, -0.00, -1.00, 780.4, 567.0)">s</text><text xml:space="preserve" font-family="Helvetica-Light" font-size="70.4" fill="#000000" transform="matrix(1.00, 0.00, -0.00, -1.00, 815.6, 567.0)"> </text><text xml:space="preserve" font-family="Helvetica-Light" font-size="70.4" fill="#000000" transform="matrix(1.00, 0.00, -0.00, -1.00, 835.2, 567.0)">i</text><text xml:space="preserve" font-family="Helvetica-Light" font-size="70.4" fill="#000000" transform="matrix(1.00, 0.00, -0.00, -1.00, 850.8, 567.0)">n</text><text xml:space="preserve" font-family="Helvetica-Light" font-size="70.4" fill="#000000" transform="matrix(1.00, 0.00, -0.00, -1.00, 890.0, 567.0)"> </text><text xml:space="preserve" font-family="Helvetica-Light" font-size="70.4" fill="#000000" transform="matrix(1.00, 0.00, -0.00, -1.00, 119.0, 483.0)">H</text><text xml:space="preserve" font-family="Helvetica-Light" font-size="70.4" fill="#000000" transform="matrix(1.00, 0.00, -0.00, -1.00, 169.8, 483.0)">a</text><text xml:space="preserve" font-family="Helvetica-Light" font-size="70.4" fill="#000000" transform="matrix(1.00, 0.00, -0.00, -1.00, 209.0, 483.0)">s</text><text xml:space="preserve" font-family="Helvetica-Light" font-size="70.4" fill="#000000" transform="matrix(1.00, 0.00, -0.00, -1.00, 244.2, 483.0)">k</text><text xml:space="preserve" font-family="Helvetica-Light" font-size="70.4" fill="#000000" transform="matrix(1.00, 0.00, -0.00, -1.00, 279.4, 483.0)">e</text><text xml:space="preserve" font-family="Helvetica-Light" font-size="70.4" fill="#000000" transform="matrix(1.00, 0.00, -0.00, -1.00, 318.5, 483.0)">l</text><text xml:space="preserve" font-family="Helvetica-Light" font-size="70.4" fill="#000000" transform="matrix(1.00, 0.00, -0.00, -1.00, 334.1, 483.0)">l</text><text xml:space="preserve" font-family="Helvetica-Light" font-size="70.4" fill="#000000" transform="matrix(1.00, 0.00, -0.00, -1.00, 349.8, 483.0)"> </text><text xml:space="preserve" font-family="Helvetica-Light" font-size="70.4" fill="#000000" transform="matrix(1.00, 0.00, -0.00, -1.00, 369.3, 483.0)">&amp;</text><text xml:space="preserve" font-family="Helvetica-Light" font-size="70.4" fill="#000000" transform="matrix(1.00, 0.00, -0.00, -1.00, 416.3, 483.0)"> </text><text xml:space="preserve" font-family="Helvetica-Light" font-size="70.4" fill="#000000" transform="matrix(1.00, 0.00, -0.00, -1.00, 435.9, 483.0)">J</text><text xml:space="preserve" font-family="Helvetica-Light" font-size="70.4" fill="#000000" transform="matrix(1.00, 0.00, -0.00, -1.00, 471.1, 483.0)">a</text><text xml:space="preserve" font-family="Helvetica-Light" font-size="70.4" fill="#000000" transform="matrix(1.00, 0.00, -0.00, -1.00, 510.2, 483.0)">v</text><text xml:space="preserve" font-family="Helvetica-Light" font-size="70.4" fill="#000000" transform="matrix(1.00, 0.00, -0.00, -1.00, 545.4, 483.0)">a</text><text xml:space="preserve" font-family="Helvetica-Light" font-size="70.4" fill="#000000" transform="matrix(1.00, 0.00, -0.00, -1.00, 584.6, 483.0)">s</text><text xml:space="preserve" font-family="Helvetica-Light" font-size="70.4" fill="#000000" transform="matrix(1.00, 0.00, -0.00, -1.00, 619.8, 483.0)">c</text><text xml:space="preserve" font-family="Helvetica-Light" font-size="70.4" fill="#000000" transform="matrix(1.00, 0.00, -0.00, -1.00, 658.9, 483.0)">r</text><text xml:space="preserve" font-family="Helvetica-Light" font-size="70.4" fill="#000000" transform="matrix(1.00, 0.00, -0.00, -1.00, 682.3, 483.0)">i</text><text xml:space="preserve" font-family="Helvetica-Light" font-size="70.4" fill="#000000" transform="matrix(1.00, 0.00, -0.00, -1.00, 698.0, 483.0)">p</text><text xml:space="preserve" font-family="Helvetica-Light" font-size="70.4" fill="#000000" transform="matrix(1.00, 0.00, -0.00, -1.00, 741.0, 483.0)">t</text><text xml:space="preserve" font-family="Helvetica-Light" font-size="70.4" fill="#000000" transform="matrix(1.00, 0.00, -0.00, -1.00, 760.6, 483.0)"> </text><text xml:space="preserve" font-family="Helvetica-Light" font-size="70.4" fill="#000000" transform="matrix(1.00, 0.00, -0.00, -1.00, 780.1, 483.0)">w</text><text xml:space="preserve" font-family="Helvetica-Light" font-size="70.4" fill="#000000" transform="matrix(1.00, 0.00, -0.00, -1.00, 831.0, 483.0)">i</text><text xml:space="preserve" font-family="Helvetica-Light" font-size="70.4" fill="#000000" transform="matrix(1.00, 0.00, -0.00, -1.00, 846.6, 483.0)">t</text><text xml:space="preserve" font-family="Helvetica-Light" font-size="70.4" fill="#000000" transform="matrix(1.00, 0.00, -0.00, -1.00, 866.2, 483.0)">h</text><text xml:space="preserve" font-family="Helvetica-Light" font-size="70.4" fill="#000000" transform="matrix(1.00, 0.00, -0.00, -1.00, 905.3, 483.0)"> </text><text xml:space="preserve" font-family="Helvetica-Light" font-size="70.4" fill="#000000" transform="matrix(1.00, 0.00, -0.00, -1.00, 299.0, 399.0)">G</text><text xml:space="preserve" font-family="Helvetica-Light" font-size="70.4" fill="#000000" transform="matrix(1.00, 0.00, -0.00, -1.00, 353.8, 399.0)">l</text><text xml:space="preserve" font-family="Helvetica-Light" font-size="70.4" fill="#000000" transform="matrix(1.00, 0.00, -0.00, -1.00, 369.4, 399.0)">a</text><text xml:space="preserve" font-family="Helvetica-Light" font-size="70.4" fill="#000000" transform="matrix(1.00, 0.00, -0.00, -1.00, 408.5, 399.0)">z</text><text xml:space="preserve" font-family="Helvetica-Light" font-size="70.4" fill="#000000" transform="matrix(1.00, 0.00, -0.00, -1.00, 443.7, 399.0)">i</text><text xml:space="preserve" font-family="Helvetica-Light" font-size="70.4" fill="#000000" transform="matrix(1.00, 0.00, -0.00, -1.00, 459.4, 399.0)">e</text><text xml:space="preserve" font-family="Helvetica-Light" font-size="70.4" fill="#000000" transform="matrix(1.00, 0.00, -0.00, -1.00, 498.5, 399.0)">r</text><text xml:space="preserve" font-family="Helvetica-Light" font-size="70.4" fill="#000000" transform="matrix(1.00, 0.00, -0.00, -1.00, 518.1, 399.0)">-</text><text xml:space="preserve" font-family="Helvetica-Light" font-size="70.4" fill="#000000" transform="matrix(1.00, 0.00, -0.00, -1.00, 541.5, 399.0)">R</text><text xml:space="preserve" font-family="Helvetica-Light" font-size="70.4" fill="#000000" transform="matrix(1.00, 0.00, -0.00, -1.00, 588.5, 399.0)">e</text><text xml:space="preserve" font-family="Helvetica-Light" font-size="70.4" fill="#000000" transform="matrix(1.00, 0.00, -0.00, -1.00, 627.6, 399.0)">a</text><text xml:space="preserve" font-family="Helvetica-Light" font-size="70.4" fill="#000000" transform="matrix(1.00, 0.00, -0.00, -1.00, 666.8, 399.0)">c</text><text xml:space="preserve" font-family="Helvetica-Light" font-size="70.4" fill="#000000" transform="matrix(1.00, 0.00, -0.00, -1.00, 705.9, 399.0)">t</text><text xml:space="preserve" font-family="Helvetica-Light" font-size="17.3" fill="#000000" transform="matrix(1.00, 0.00, -0.00, -1.00, 474.0, 352.0)">L</text><text xml:space="preserve" font-family="Helvetica-Light" font-size="17.3" fill="#000000" transform="matrix(1.00, 0.00, -0.00, -1.00, 483.6, 352.0)">o</text><text xml:space="preserve" font-family="Helvetica-Light" font-size="17.3" fill="#000000" transform="matrix(1.00, 0.00, -0.00, -1.00, 493.2, 352.0)">u</text><text xml:space="preserve" font-family="Helvetica-Light" font-size="17.3" fill="#000000" transform="matrix(1.00, 0.00, -0.00, -1.00, 502.8, 352.0)">i</text><text xml:space="preserve" font-family="Helvetica-Light" font-size="17.3" fill="#000000" transform="matrix(1.00, 0.00, -0.00, -1.00, 506.7, 352.0)">s</text><text xml:space="preserve" font-family="Helvetica-Light" font-size="17.3" fill="#000000" transform="matrix(1.00, 0.00, -0.00, -1.00, 515.3, 352.0)"> </text><text xml:space="preserve" font-family="Helvetica-Light" font-size="17.3" fill="#000000" transform="matrix(1.00, 0.00, -0.00, -1.00, 520.1, 352.0)">P</text><text xml:space="preserve" font-family="Helvetica-Light" font-size="17.3" fill="#000000" transform="matrix(1.00, 0.00, -0.00, -1.00, 530.7, 352.0)">a</text><text xml:space="preserve" font-family="Helvetica-Light" font-size="17.3" fill="#000000" transform="matrix(1.00, 0.00, -0.00, -1.00, 540.3, 352.0)">n</text><text xml:space="preserve" font-family="Helvetica-Light" font-size="17.3" fill="#000000" transform="matrix(1.00, 0.00, -0.00, -1.00, 549.9, 352.0)"> </text><text xml:space="preserve" font-family="Helvetica-Light" font-size="17.3" fill="#000000" transform="matrix(1.00, 0.00, -0.00, -1.00, 490.0, 332.0)">f</text><text xml:space="preserve" font-family="Helvetica-Light" font-size="17.3" fill="#000000" transform="matrix(1.00, 0.00, -0.00, -1.00, 494.8, 332.0)">p</text><text xml:space="preserve" font-family="Helvetica-Light" font-size="17.3" fill="#000000" transform="matrix(1.00, 0.00, -0.00, -1.00, 505.4, 332.0)">s</text><text xml:space="preserve" font-family="Helvetica-Light" font-size="17.3" fill="#000000" transform="matrix(1.00, 0.00, -0.00, -1.00, 514.0, 332.0)">y</text><text xml:space="preserve" font-family="Helvetica-Light" font-size="17.3" fill="#000000" transform="matrix(1.00, 0.00, -0.00, -1.00, 522.6, 332.0)">d</text><text xml:space="preserve" font-family="Helvetica-Light" font-size="17.3" fill="#000000" transform="matrix(1.00, 0.00, -0.00, -1.00, 533.2, 332.0)"> </text><text xml:space="preserve" font-family="Helvetica-Light" font-size="17.3" fill="#000000" transform="matrix(1.00, 0.00, -0.00, -1.00, 442.0, 312.0)">2</text><text xml:space="preserve" font-family="Helvetica-Light" font-size="17.3" fill="#000000" transform="matrix(1.00, 0.00, -0.00, -1.00, 451.6, 312.0)">2</text><text xml:space="preserve" font-family="Helvetica-Light" font-size="17.3" fill="#000000" transform="matrix(1.00, 0.00, -0.00, -1.00, 461.2, 312.0)"> </text><text xml:space="preserve" font-family="Helvetica-Light" font-size="17.3" fill="#000000" transform="matrix(1.00, 0.00, -0.00, -1.00, 466.0, 312.0)">F</text><text xml:space="preserve" font-family="Helvetica-Light" font-size="17.3" fill="#000000" transform="matrix(1.00, 0.00, -0.00, -1.00, 475.6, 312.0)">e</text><text xml:space="preserve" font-family="Helvetica-Light" font-size="17.3" fill="#000000" transform="matrix(1.00, 0.00, -0.00, -1.00, 485.2, 312.0)">b</text><text xml:space="preserve" font-family="Helvetica-Light" font-size="17.3" fill="#000000" transform="matrix(1.00, 0.00, -0.00, -1.00, 495.8, 312.0)">r</text><text xml:space="preserve" font-family="Helvetica-Light" font-size="17.3" fill="#000000" transform="matrix(1.00, 0.00, -0.00, -1.00, 501.5, 312.0)">u</text><text xml:space="preserve" font-family="Helvetica-Light" font-size="17.3" fill="#000000" transform="matrix(1.00, 0.00, -0.00, -1.00, 511.2, 312.0)">a</text><text xml:space="preserve" font-family="Helvetica-Light" font-size="17.3" fill="#000000" transform="matrix(1.00, 0.00, -0.00, -1.00, 520.8, 312.0)">r</text><text xml:space="preserve" font-family="Helvetica-Light" font-size="17.3" fill="#000000" transform="matrix(1.00, 0.00, -0.00, -1.00, 526.8, 312.0)">y</text><text xml:space="preserve" font-family="Helvetica-Light" font-size="17.3" fill="#000000" transform="matrix(1.00, 0.00, -0.00, -1.00, 533.9, 312.0)">,</text><text xml:space="preserve" font-family="Helvetica-Light" font-size="17.3" fill="#000000" transform="matrix(1.00, 0.00, -0.00, -1.00, 538.7, 312.0)"> </text><text xml:space="preserve" font-family="Helvetica-Light" font-size="17.3" fill="#000000" transform="matrix(1.00, 0.00, -0.00, -1.00, 543.5, 312.0)">2</text><text xml:space="preserve" font-family="Helvetica-Light" font-size="17.3" fill="#000000" transform="matrix(1.00, 0.00, -0.00, -1.00, 553.1, 312.0)">0</text><text xml:space="preserve" font-family="Helvetica-Light" font-size="17.3" fill="#000000" transform="matrix(1.00, 0.00, -0.00, -1.00, 562.7, 312.0)">1</text><text xml:space="preserve" font-family="Helvetica-Light" font-size="17.3" fill="#000000" transform="matrix(1.00, 0.00, -0.00, -1.00, 572.3, 312.0)">7</text><text xml:space="preserve" font-family="Helvetica-Light" font-size="17.3" fill="#000000" transform="matrix(1.00, 0.00, -0.00, -1.00, 581.9, 312.0)"> </text><text xml:space="preserve" font-family="Helvetica-Light" font-size="17.3" fill="#000000" transform="matrix(1.00, 0.00, -0.00, -1.00, 405.0, 292.0)">(</text><text xml:space="preserve" font-family="Helvetica-Light" font-size="17.3" fill="#000000" transform="matrix(1.00, 0.00, -0.00, -1.00, 410.8, 292.0)">R</text><text xml:space="preserve" font-family="Helvetica-Light" font-size="17.3" fill="#000000" transform="matrix(1.00, 0.00, -0.00, -1.00, 422.3, 292.0)">e</text><text xml:space="preserve" font-family="Helvetica-Light" font-size="17.3" fill="#000000" transform="matrix(1.00, 0.00, -0.00, -1.00, 431.9, 292.0)">v</text><text xml:space="preserve" font-family="Helvetica-Light" font-size="17.3" fill="#000000" transform="matrix(1.00, 0.00, -0.00, -1.00, 440.5, 292.0)">i</text><text xml:space="preserve" font-family="Helvetica-Light" font-size="17.3" fill="#000000" transform="matrix(1.00, 0.00, -0.00, -1.00, 444.4, 292.0)">s</text><text xml:space="preserve" font-family="Helvetica-Light" font-size="17.3" fill="#000000" transform="matrix(1.00, 0.00, -0.00, -1.00, 453.0, 292.0)">e</text><text xml:space="preserve" font-family="Helvetica-Light" font-size="17.3" fill="#000000" transform="matrix(1.00, 0.00, -0.00, -1.00, 462.6, 292.0)">d</text><text xml:space="preserve" font-family="Helvetica-Light" font-size="17.3" fill="#000000" transform="matrix(1.00, 0.00, -0.00, -1.00, 473.2, 292.0)"> </text><text xml:space="preserve" font-family="Helvetica-Light" font-size="17.3" fill="#000000" transform="matrix(1.00, 0.00, -0.00, -1.00, 478.0, 292.0)">1</text><text xml:space="preserve" font-family="Helvetica-Light" font-size="17.3" fill="#000000" transform="matrix(1.00, 0.00, -0.00, -1.00, 487.6, 292.0)">4</text><text xml:space="preserve" font-family="Helvetica-Light" font-size="17.3" fill="#000000" transform="matrix(1.00, 0.00, -0.00, -1.00, 497.2, 292.0)">t</text><text xml:space="preserve" font-family="Helvetica-Light" font-size="17.3" fill="#000000" transform="matrix(1.00, 0.00, -0.00, -1.00, 502.0, 292.0)">h</text><text xml:space="preserve" font-family="Helvetica-Light" font-size="17.3" fill="#000000" transform="matrix(1.00, 0.00, -0.00, -1.00, 511.6, 292.0)"> </text><text xml:space="preserve" font-family="Helvetica-Light" font-size="17.3" fill="#000000" transform="matrix(1.00, 0.00, -0.00, -1.00, 516.4, 292.0)">M</text><text xml:space="preserve" font-family="Helvetica-Light" font-size="17.3" fill="#000000" transform="matrix(1.00, 0.00, -0.00, -1.00, 530.8, 292.0)">a</text><text xml:space="preserve" font-family="Helvetica-Light" font-size="17.3" fill="#000000" transform="matrix(1.00, 0.00, -0.00, -1.00, 540.4, 292.0)">r</text><text xml:space="preserve" font-family="Helvetica-Light" font-size="17.3" fill="#000000" transform="matrix(1.00, 0.00, -0.00, -1.00, 545.8, 292.0)">c</text><text xml:space="preserve" font-family="Helvetica-Light" font-size="17.3" fill="#000000" transform="matrix(1.00, 0.00, -0.00, -1.00, 555.5, 292.0)">h</text><text xml:space="preserve" font-family="Helvetica-Light" font-size="17.3" fill="#000000" transform="matrix(1.00, 0.00, -0.00, -1.00, 565.1, 292.0)">,</text><text xml:space="preserve" font-family="Helvetica-Light" font-size="17.3" fill="#000000" transform="matrix(1.00, 0.00, -0.00, -1.00, 569.9, 292.0)"> </text><text xml:space="preserve" font-family="Helvetica-Light" font-size="17.3" fill="#000000" transform="matrix(1.00, 0.00, -0.00, -1.00, 574.7, 292.0)">2</text><text xml:space="preserve" font-family="Helvetica-Light" font-size="17.3" fill="#000000" transform="matrix(1.00, 0.00, -0.00, -1.00, 584.3, 292.0)">0</text><text xml:space="preserve" font-family="Helvetica-Light" font-size="17.3" fill="#000000" transform="matrix(1.00, 0.00, -0.00, -1.00, 593.9, 292.0)">1</text><text xml:space="preserve" font-family="Helvetica-Light" font-size="17.3" fill="#000000" transform="matrix(1.00, 0.00, -0.00, -1.00, 603.5, 292.0)">7</text><text xml:space="preserve" font-family="Helvetica-Light" font-size="17.3" fill="#000000" transform="matrix(1.00, 0.00, -0.00, -1.00, 613.1, 292.0)">)</text><text xml:space="preserve" font-family="Helvetica-Light" font-size="18.0" fill="#000000" transform="matrix(1.00, 0.00, -0.00, -1.00, 506.0, 18.0)">1</text></g></svg>