<?xml version="1.0" encoding="UTF-8" standalone="no"?><svg xmlns="http://www.w3.org/2000/svg" xmlns:xlink="http://www.w3.org/1999/xlink" clip-rule="evenodd" stroke-miterlimit="4.00" viewBox="0 0 1024 768"><desc>SVG generated by Keynote</desc><defs></defs><g transform="matrix(1.00, 0.00, -0.00, -1.00, 0.0, 768.0)"><path d="M 0.0 768.0 L 1024.0 768.0 L 1024.0 0.0 L 0.0 0.0 Z M 0.0 768.0 " fill="#FEFFFF"></path><text xml:space="preserve" font-family="Helvetica-Light" font-size="80.0" fill="#000000" transform="matrix(1.00, 0.00, -0.00, -1.00, 141.0, 618.0)">M</text><text xml:space="preserve" font-family="Helvetica-Light" font-size="80.0" fill="#000000" transform="matrix(1.00, 0.00, -0.00, -1.00, 207.6, 618.0)">a</text><text xml:space="preserve" font-family="Helvetica-Light" font-size="80.0" fill="#000000" transform="matrix(1.00, 0.00, -0.00, -1.00, 252.1, 618.0)">g</text><text xml:space="preserve" font-family="Helvetica-Light" font-size="80.0" fill="#000000" transform="matrix(1.00, 0.00, -0.00, -1.00, 301.0, 618.0)">n</text><text xml:space="preserve" font-family="Helvetica-Light" font-size="80.0" fill="#000000" transform="matrix(1.00, 0.00, -0.00, -1.00, 345.5, 618.0)">i</text><text xml:space="preserve" font-family="Helvetica-Light" font-size="80.0" fill="#000000" transform="matrix(1.00, 0.00, -0.00, -1.00, 363.2, 618.0)">f</text><text xml:space="preserve" font-family="Helvetica-Light" font-size="80.0" fill="#000000" transform="matrix(1.00, 0.00, -0.00, -1.00, 385.5, 618.0)">y</text><text xml:space="preserve" font-family="Helvetica-Light" font-size="80.0" fill="#000000" transform="matrix(1.00, 0.00, -0.00, -1.00, 425.5, 618.0)">i</text><text xml:space="preserve" font-family="Helvetica-Light" font-size="80.0" fill="#000000" transform="matrix(1.00, 0.00, -0.00, -1.00, 443.2, 618.0)">n</text><text xml:space="preserve" font-family="Helvetica-Light" font-size="80.0" fill="#000000" transform="matrix(1.00, 0.00, -0.00, -1.00, 487.7, 618.0)">g</text><text xml:space="preserve" font-family="Helvetica-Light" font-size="80.0" fill="#000000" transform="matrix(1.00, 0.00, -0.00, -1.00, 536.6, 618.0)"> </text><text xml:space="preserve" font-family="Helvetica-Light" font-size="80.0" fill="#000000" transform="matrix(1.00, 0.00, -0.00, -1.00, 558.8, 618.0)">W</text><text xml:space="preserve" font-family="Helvetica-Light" font-size="80.0" fill="#000000" transform="matrix(1.00, 0.00, -0.00, -1.00, 630.0, 618.0)">i</text><text xml:space="preserve" font-family="Helvetica-Light" font-size="80.0" fill="#000000" transform="matrix(1.00, 0.00, -0.00, -1.00, 647.7, 618.0)">n</text><text xml:space="preserve" font-family="Helvetica-Light" font-size="80.0" fill="#000000" transform="matrix(1.00, 0.00, -0.00, -1.00, 692.2, 618.0)">d</text><text xml:space="preserve" font-family="Helvetica-Light" font-size="80.0" fill="#000000" transform="matrix(1.00, 0.00, -0.00, -1.00, 741.1, 618.0)">o</text><text xml:space="preserve" font-family="Helvetica-Light" font-size="80.0" fill="#000000" transform="matrix(1.00, 0.00, -0.00, -1.00, 785.6, 618.0)">w</text><text xml:space="preserve" font-family="Helvetica-Light" font-size="80.0" fill="#000000" transform="matrix(1.00, 0.00, -0.00, -1.00, 843.3, 618.0)">s</text><text xml:space="preserve" font-family="Monaco" font-size="28.2" fill="#000000" transform="matrix(1.00, 0.00, -0.00, -1.00, 115.0, 531.0)">d</text><text xml:space="preserve" font-family="Monaco" font-size="28.2" fill="#000000" transform="matrix(1.00, 0.00, -0.00, -1.00, 131.9, 531.0)">a</text><text xml:space="preserve" font-family="Monaco" font-size="28.2" fill="#000000" transform="matrix(1.00, 0.00, -0.00, -1.00, 148.8, 531.0)">t</text><text xml:space="preserve" font-family="Monaco" font-size="28.2" fill="#000000" transform="matrix(1.00, 0.00, -0.00, -1.00, 165.7, 531.0)">a</text><text xml:space="preserve" font-family="Monaco" font-size="28.2" fill="#000000" transform="matrix(1.00, 0.00, -0.00, -1.00, 182.6, 531.0)"> </text><text xml:space="preserve" font-family="Monaco" font-size="28.2" fill="#B26AE1" transform="matrix(1.00, 0.00, -0.00, -1.00, 199.5, 531.0)">T</text><text xml:space="preserve" font-family="Monaco" font-size="28.2" fill="#B26AE1" transform="matrix(1.00, 0.00, -0.00, -1.00, 216.4, 531.0)">o</text><text xml:space="preserve" font-family="Monaco" font-size="28.2" fill="#B26AE1" transform="matrix(1.00, 0.00, -0.00, -1.00, 233.3, 531.0)">d</text><text xml:space="preserve" font-family="Monaco" font-size="28.2" fill="#B26AE1" transform="matrix(1.00, 0.00, -0.00, -1.00, 250.2, 531.0)">o</text><text xml:space="preserve" font-family="Monaco" font-size="28.2" fill="#B26AE1" transform="matrix(1.00, 0.00, -0.00, -1.00, 267.1, 531.0)">M</text><text xml:space="preserve" font-family="Monaco" font-size="28.2" fill="#B26AE1" transform="matrix(1.00, 0.00, -0.00, -1.00, 284.0, 531.0)">o</text><text xml:space="preserve" font-family="Monaco" font-size="28.2" fill="#B26AE1" transform="matrix(1.00, 0.00, -0.00, -1.00, 300.9, 531.0)">d</text><text xml:space="preserve" font-family="Monaco" font-size="28.2" fill="#B26AE1" transform="matrix(1.00, 0.00, -0.00, -1.00, 317.8, 531.0)">e</text><text xml:space="preserve" font-family="Monaco" font-size="28.2" fill="#B26AE1" transform="matrix(1.00, 0.00, -0.00, -1.00, 334.7, 531.0)">l</text><text xml:space="preserve" font-family="Monaco" font-size="28.2" fill="#000000" transform="matrix(1.00, 0.00, -0.00, -1.00, 351.6, 531.0)"> </text><text xml:space="preserve" font-family="Monaco" font-size="28.2" fill="#000000" transform="matrix(1.00, 0.00, -0.00, -1.00, 368.5, 531.0)">=</text><text xml:space="preserve" font-family="Monaco" font-size="28.2" fill="#000000" transform="matrix(1.00, 0.00, -0.00, -1.00, 385.4, 531.0)"> </text><text xml:space="preserve" font-family="Monaco" font-size="28.2" fill="#000000" transform="matrix(1.00, 0.00, -0.00, -1.00, 402.3, 531.0)">…</text><text xml:space="preserve" font-family="Monaco" font-size="28.2" fill="#000000" transform="matrix(1.00, 0.00, -0.00, -1.00, 115.0, 481.0)">d</text><text xml:space="preserve" font-family="Monaco" font-size="28.2" fill="#000000" transform="matrix(1.00, 0.00, -0.00, -1.00, 131.9, 481.0)">a</text><text xml:space="preserve" font-family="Monaco" font-size="28.2" fill="#000000" transform="matrix(1.00, 0.00, -0.00, -1.00, 148.8, 481.0)">t</text><text xml:space="preserve" font-family="Monaco" font-size="28.2" fill="#000000" transform="matrix(1.00, 0.00, -0.00, -1.00, 165.7, 481.0)">a</text><text xml:space="preserve" font-family="Monaco" font-size="28.2" fill="#000000" transform="matrix(1.00, 0.00, -0.00, -1.00, 182.6, 481.0)"> </text><text xml:space="preserve" font-family="Monaco" font-size="28.2" fill="#C82505" transform="matrix(1.00, 0.00, -0.00, -1.00, 199.5, 481.0)">A</text><text xml:space="preserve" font-family="Monaco" font-size="28.2" fill="#C82505" transform="matrix(1.00, 0.00, -0.00, -1.00, 216.4, 481.0)">p</text><text xml:space="preserve" font-family="Monaco" font-size="28.2" fill="#C82505" transform="matrix(1.00, 0.00, -0.00, -1.00, 233.3, 481.0)">p</text><text xml:space="preserve" font-family="Monaco" font-size="28.2" fill="#C82505" transform="matrix(1.00, 0.00, -0.00, -1.00, 250.2, 481.0)">M</text><text xml:space="preserve" font-family="Monaco" font-size="28.2" fill="#C82505" transform="matrix(1.00, 0.00, -0.00, -1.00, 267.1, 481.0)">o</text><text xml:space="preserve" font-family="Monaco" font-size="28.2" fill="#C82505" transform="matrix(1.00, 0.00, -0.00, -1.00, 284.0, 481.0)">d</text><text xml:space="preserve" font-family="Monaco" font-size="28.2" fill="#C82505" transform="matrix(1.00, 0.00, -0.00, -1.00, 300.9, 481.0)">e</text><text xml:space="preserve" font-family="Monaco" font-size="28.2" fill="#C82505" transform="matrix(1.00, 0.00, -0.00, -1.00, 317.8, 481.0)">l</text><text xml:space="preserve" font-family="Monaco" font-size="28.2" fill="#000000" transform="matrix(1.00, 0.00, -0.00, -1.00, 334.7, 481.0)"> </text><text xml:space="preserve" font-family="Monaco" font-size="28.2" fill="#000000" transform="matrix(1.00, 0.00, -0.00, -1.00, 351.6, 481.0)">=</text><text xml:space="preserve" font-family="Monaco" font-size="28.2" fill="#000000" transform="matrix(1.00, 0.00, -0.00, -1.00, 368.5, 481.0)"> </text><text xml:space="preserve" font-family="Monaco" font-size="28.2" fill="#000000" transform="matrix(1.00, 0.00, -0.00, -1.00, 385.4, 481.0)">A</text><text xml:space="preserve" font-family="Monaco" font-size="28.2" fill="#000000" transform="matrix(1.00, 0.00, -0.00, -1.00, 402.3, 481.0)">p</text><text xml:space="preserve" font-family="Monaco" font-size="28.2" fill="#000000" transform="matrix(1.00, 0.00, -0.00, -1.00, 419.2, 481.0)">p</text><text xml:space="preserve" font-family="Monaco" font-size="28.2" fill="#000000" transform="matrix(1.00, 0.00, -0.00, -1.00, 436.1, 481.0)">M</text><text xml:space="preserve" font-family="Monaco" font-size="28.2" fill="#000000" transform="matrix(1.00, 0.00, -0.00, -1.00, 453.0, 481.0)">o</text><text xml:space="preserve" font-family="Monaco" font-size="28.2" fill="#000000" transform="matrix(1.00, 0.00, -0.00, -1.00, 469.9, 481.0)">d</text><text xml:space="preserve" font-family="Monaco" font-size="28.2" fill="#000000" transform="matrix(1.00, 0.00, -0.00, -1.00, 486.8, 481.0)">e</text><text xml:space="preserve" font-family="Monaco" font-size="28.2" fill="#000000" transform="matrix(1.00, 0.00, -0.00, -1.00, 503.7, 481.0)">l</text><text xml:space="preserve" font-family="Monaco" font-size="28.2" fill="#000000" transform="matrix(1.00, 0.00, -0.00, -1.00, 520.6, 481.0)"> </text><text xml:space="preserve" font-family="Monaco" font-size="28.2" fill="#000000" transform="matrix(1.00, 0.00, -0.00, -1.00, 537.5, 481.0)">{</text><text xml:space="preserve" font-family="Monaco" font-size="28.2" fill="#000000" transform="matrix(1.00, 0.00, -0.00, -1.00, 554.4, 481.0)"> </text><text xml:space="preserve" font-family="Monaco" font-size="28.2" fill="#000000" transform="matrix(1.00, 0.00, -0.00, -1.00, 571.3, 481.0)">_</text><text xml:space="preserve" font-family="Monaco" font-size="28.2" fill="#000000" transform="matrix(1.00, 0.00, -0.00, -1.00, 588.2, 481.0)">t</text><text xml:space="preserve" font-family="Monaco" font-size="28.2" fill="#000000" transform="matrix(1.00, 0.00, -0.00, -1.00, 605.1, 481.0)">i</text><text xml:space="preserve" font-family="Monaco" font-size="28.2" fill="#000000" transform="matrix(1.00, 0.00, -0.00, -1.00, 622.0, 481.0)">t</text><text xml:space="preserve" font-family="Monaco" font-size="28.2" fill="#000000" transform="matrix(1.00, 0.00, -0.00, -1.00, 638.9, 481.0)">l</text><text xml:space="preserve" font-family="Monaco" font-size="28.2" fill="#000000" transform="matrix(1.00, 0.00, -0.00, -1.00, 655.8, 481.0)">e</text><text xml:space="preserve" font-family="Monaco" font-size="28.2" fill="#000000" transform="matrix(1.00, 0.00, -0.00, -1.00, 672.7, 481.0)"> </text><text xml:space="preserve" font-family="Monaco" font-size="28.2" fill="#000000" transform="matrix(1.00, 0.00, -0.00, -1.00, 689.6, 481.0)">:</text><text xml:space="preserve" font-family="Monaco" font-size="28.2" fill="#000000" transform="matrix(1.00, 0.00, -0.00, -1.00, 706.5, 481.0)">:</text><text xml:space="preserve" font-family="Monaco" font-size="28.2" fill="#000000" transform="matrix(1.00, 0.00, -0.00, -1.00, 723.4, 481.0)"> </text><text xml:space="preserve" font-family="Monaco" font-size="28.2" fill="#000000" transform="matrix(1.00, 0.00, -0.00, -1.00, 740.3, 481.0)">T</text><text xml:space="preserve" font-family="Monaco" font-size="28.2" fill="#000000" transform="matrix(1.00, 0.00, -0.00, -1.00, 757.2, 481.0)">e</text><text xml:space="preserve" font-family="Monaco" font-size="28.2" fill="#000000" transform="matrix(1.00, 0.00, -0.00, -1.00, 774.1, 481.0)">x</text><text xml:space="preserve" font-family="Monaco" font-size="28.2" fill="#000000" transform="matrix(1.00, 0.00, -0.00, -1.00, 791.0, 481.0)">t</text><text xml:space="preserve" font-family="Monaco" font-size="28.2" fill="#000000" transform="matrix(1.00, 0.00, -0.00, -1.00, 115.0, 430.0)"> </text><text xml:space="preserve" font-family="Monaco" font-size="28.2" fill="#000000" transform="matrix(1.00, 0.00, -0.00, -1.00, 131.9, 430.0)"> </text><text xml:space="preserve" font-family="Monaco" font-size="28.2" fill="#000000" transform="matrix(1.00, 0.00, -0.00, -1.00, 148.8, 430.0)"> </text><text xml:space="preserve" font-family="Monaco" font-size="28.2" fill="#000000" transform="matrix(1.00, 0.00, -0.00, -1.00, 165.7, 430.0)"> </text><text xml:space="preserve" font-family="Monaco" font-size="28.2" fill="#000000" transform="matrix(1.00, 0.00, -0.00, -1.00, 182.6, 430.0)"> </text><text xml:space="preserve" font-family="Monaco" font-size="28.2" fill="#000000" transform="matrix(1.00, 0.00, -0.00, -1.00, 199.5, 430.0)"> </text><text xml:space="preserve" font-family="Monaco" font-size="28.2" fill="#000000" transform="matrix(1.00, 0.00, -0.00, -1.00, 216.4, 430.0)"> </text><text xml:space="preserve" font-family="Monaco" font-size="28.2" fill="#000000" transform="matrix(1.00, 0.00, -0.00, -1.00, 233.3, 430.0)"> </text><text xml:space="preserve" font-family="Monaco" font-size="28.2" fill="#000000" transform="matrix(1.00, 0.00, -0.00, -1.00, 250.2, 430.0)"> </text><text xml:space="preserve" font-family="Monaco" font-size="28.2" fill="#000000" transform="matrix(1.00, 0.00, -0.00, -1.00, 267.1, 430.0)"> </text><text xml:space="preserve" font-family="Monaco" font-size="28.2" fill="#000000" transform="matrix(1.00, 0.00, -0.00, -1.00, 284.0, 430.0)"> </text><text xml:space="preserve" font-family="Monaco" font-size="28.2" fill="#000000" transform="matrix(1.00, 0.00, -0.00, -1.00, 300.9, 430.0)"> </text><text xml:space="preserve" font-family="Monaco" font-size="28.2" fill="#000000" transform="matrix(1.00, 0.00, -0.00, -1.00, 317.8, 430.0)"> </text><text xml:space="preserve" font-family="Monaco" font-size="28.2" fill="#000000" transform="matrix(1.00, 0.00, -0.00, -1.00, 334.7, 430.0)"> </text><text xml:space="preserve" font-family="Monaco" font-size="28.2" fill="#000000" transform="matrix(1.00, 0.00, -0.00, -1.00, 351.6, 430.0)"> </text><text xml:space="preserve" font-family="Monaco" font-size="28.2" fill="#000000" transform="matrix(1.00, 0.00, -0.00, -1.00, 368.5, 430.0)"> </text><text xml:space="preserve" font-family="Monaco" font-size="28.2" fill="#000000" transform="matrix(1.00, 0.00, -0.00, -1.00, 385.4, 430.0)"> </text><text xml:space="preserve" font-family="Monaco" font-size="28.2" fill="#000000" transform="matrix(1.00, 0.00, -0.00, -1.00, 402.3, 430.0)"> </text><text xml:space="preserve" font-family="Monaco" font-size="28.2" fill="#000000" transform="matrix(1.00, 0.00, -0.00, -1.00, 419.2, 430.0)"> </text><text xml:space="preserve" font-family="Monaco" font-size="28.2" fill="#000000" transform="matrix(1.00, 0.00, -0.00, -1.00, 436.1, 430.0)"> </text><text xml:space="preserve" font-family="Monaco" font-size="28.2" fill="#000000" transform="matrix(1.00, 0.00, -0.00, -1.00, 453.0, 430.0)"> </text><text xml:space="preserve" font-family="Monaco" font-size="28.2" fill="#000000" transform="matrix(1.00, 0.00, -0.00, -1.00, 469.9, 430.0)"> </text><text xml:space="preserve" font-family="Monaco" font-size="28.2" fill="#000000" transform="matrix(1.00, 0.00, -0.00, -1.00, 486.8, 430.0)"> </text><text xml:space="preserve" font-family="Monaco" font-size="28.2" fill="#000000" transform="matrix(1.00, 0.00, -0.00, -1.00, 503.7, 430.0)"> </text><text xml:space="preserve" font-family="Monaco" font-size="28.2" fill="#000000" transform="matrix(1.00, 0.00, -0.00, -1.00, 520.6, 430.0)"> </text><text xml:space="preserve" font-family="Monaco" font-size="28.2" fill="#000000" transform="matrix(1.00, 0.00, -0.00, -1.00, 537.5, 430.0)">,</text><text xml:space="preserve" font-family="Monaco" font-size="28.2" fill="#000000" transform="matrix(1.00, 0.00, -0.00, -1.00, 554.4, 430.0)"> </text><text xml:space="preserve" font-family="Monaco" font-size="28.2" fill="#00872A" transform="matrix(1.00, 0.00, -0.00, -1.00, 571.3, 430.0)">_</text><text xml:space="preserve" font-family="Monaco" font-size="28.2" fill="#00872A" transform="matrix(1.00, 0.00, -0.00, -1.00, 588.2, 430.0)">t</text><text xml:space="preserve" font-family="Monaco" font-size="28.2" fill="#00872A" transform="matrix(1.00, 0.00, -0.00, -1.00, 605.1, 430.0)">o</text><text xml:space="preserve" font-family="Monaco" font-size="28.2" fill="#00872A" transform="matrix(1.00, 0.00, -0.00, -1.00, 622.0, 430.0)">d</text><text xml:space="preserve" font-family="Monaco" font-size="28.2" fill="#00872A" transform="matrix(1.00, 0.00, -0.00, -1.00, 638.9, 430.0)">o</text><text xml:space="preserve" font-family="Monaco" font-size="28.2" fill="#000000" transform="matrix(1.00, 0.00, -0.00, -1.00, 655.8, 430.0)"> </text><text xml:space="preserve" font-family="Monaco" font-size="28.2" fill="#000000" transform="matrix(1.00, 0.00, -0.00, -1.00, 672.7, 430.0)">:</text><text xml:space="preserve" font-family="Monaco" font-size="28.2" fill="#000000" transform="matrix(1.00, 0.00, -0.00, -1.00, 689.6, 430.0)">:</text><text xml:space="preserve" font-family="Monaco" font-size="28.2" fill="#000000" transform="matrix(1.00, 0.00, -0.00, -1.00, 706.5, 430.0)"> </text><text xml:space="preserve" font-family="Monaco" font-size="28.2" fill="#B26AE1" transform="matrix(1.00, 0.00, -0.00, -1.00, 723.4, 430.0)">T</text><text xml:space="preserve" font-family="Monaco" font-size="28.2" fill="#B26AE1" transform="matrix(1.00, 0.00, -0.00, -1.00, 740.3, 430.0)">o</text><text xml:space="preserve" font-family="Monaco" font-size="28.2" fill="#B26AE1" transform="matrix(1.00, 0.00, -0.00, -1.00, 757.2, 430.0)">d</text><text xml:space="preserve" font-family="Monaco" font-size="28.2" fill="#B26AE1" transform="matrix(1.00, 0.00, -0.00, -1.00, 774.1, 430.0)">o</text><text xml:space="preserve" font-family="Monaco" font-size="28.2" fill="#B26AE1" transform="matrix(1.00, 0.00, -0.00, -1.00, 791.0, 430.0)">M</text><text xml:space="preserve" font-family="Monaco" font-size="28.2" fill="#B26AE1" transform="matrix(1.00, 0.00, -0.00, -1.00, 807.9, 430.0)">o</text><text xml:space="preserve" font-family="Monaco" font-size="28.2" fill="#B26AE1" transform="matrix(1.00, 0.00, -0.00, -1.00, 824.8, 430.0)">d</text><text xml:space="preserve" font-family="Monaco" font-size="28.2" fill="#B26AE1" transform="matrix(1.00, 0.00, -0.00, -1.00, 841.7, 430.0)">e</text><text xml:space="preserve" font-family="Monaco" font-size="28.2" fill="#B26AE1" transform="matrix(1.00, 0.00, -0.00, -1.00, 858.6, 430.0)">l</text><text xml:space="preserve" font-family="Monaco" font-size="28.2" fill="#000000" transform="matrix(1.00, 0.00, -0.00, -1.00, 875.4, 430.0)"> </text><text xml:space="preserve" font-family="Monaco" font-size="28.2" fill="#000000" transform="matrix(1.00, 0.00, -0.00, -1.00, 892.3, 430.0)">}</text><text xml:space="preserve" font-family="Monaco" font-size="28.2" fill="#000000" transform="matrix(1.00, 0.00, -0.00, -1.00, 115.0, 380.0)">m</text><text xml:space="preserve" font-family="Monaco" font-size="28.2" fill="#000000" transform="matrix(1.00, 0.00, -0.00, -1.00, 131.9, 380.0)">a</text><text xml:space="preserve" font-family="Monaco" font-size="28.2" fill="#000000" transform="matrix(1.00, 0.00, -0.00, -1.00, 148.8, 380.0)">k</text><text xml:space="preserve" font-family="Monaco" font-size="28.2" fill="#000000" transform="matrix(1.00, 0.00, -0.00, -1.00, 165.7, 380.0)">e</text><text xml:space="preserve" font-family="Monaco" font-size="28.2" fill="#000000" transform="matrix(1.00, 0.00, -0.00, -1.00, 182.6, 380.0)">C</text><text xml:space="preserve" font-family="Monaco" font-size="28.2" fill="#000000" transform="matrix(1.00, 0.00, -0.00, -1.00, 199.5, 380.0)">l</text><text xml:space="preserve" font-family="Monaco" font-size="28.2" fill="#000000" transform="matrix(1.00, 0.00, -0.00, -1.00, 216.4, 380.0)">a</text><text xml:space="preserve" font-family="Monaco" font-size="28.2" fill="#000000" transform="matrix(1.00, 0.00, -0.00, -1.00, 233.3, 380.0)">s</text><text xml:space="preserve" font-family="Monaco" font-size="28.2" fill="#000000" transform="matrix(1.00, 0.00, -0.00, -1.00, 250.2, 380.0)">s</text><text xml:space="preserve" font-family="Monaco" font-size="28.2" fill="#000000" transform="matrix(1.00, 0.00, -0.00, -1.00, 267.1, 380.0)">y</text><text xml:space="preserve" font-family="Monaco" font-size="28.2" fill="#000000" transform="matrix(1.00, 0.00, -0.00, -1.00, 284.0, 380.0)"> </text><text xml:space="preserve" font-family="Monaco" font-size="28.2" fill="#000000" transform="matrix(1.00, 0.00, -0.00, -1.00, 300.9, 380.0)">‘</text><text xml:space="preserve" font-family="Monaco" font-size="28.2" fill="#000000" transform="matrix(1.00, 0.00, -0.00, -1.00, 317.8, 380.0)">‘</text><text xml:space="preserve" font-family="Monaco" font-size="28.2" fill="#000000" transform="matrix(1.00, 0.00, -0.00, -1.00, 334.7, 380.0)">A</text><text xml:space="preserve" font-family="Monaco" font-size="28.2" fill="#000000" transform="matrix(1.00, 0.00, -0.00, -1.00, 351.6, 380.0)">p</text><text xml:space="preserve" font-family="Monaco" font-size="28.2" fill="#000000" transform="matrix(1.00, 0.00, -0.00, -1.00, 368.5, 380.0)">p</text><text xml:space="preserve" font-family="Monaco" font-size="28.2" fill="#000000" transform="matrix(1.00, 0.00, -0.00, -1.00, 385.4, 380.0)">M</text><text xml:space="preserve" font-family="Monaco" font-size="28.2" fill="#000000" transform="matrix(1.00, 0.00, -0.00, -1.00, 402.3, 380.0)">o</text><text xml:space="preserve" font-family="Monaco" font-size="28.2" fill="#000000" transform="matrix(1.00, 0.00, -0.00, -1.00, 419.2, 380.0)">d</text><text xml:space="preserve" font-family="Monaco" font-size="28.2" fill="#000000" transform="matrix(1.00, 0.00, -0.00, -1.00, 436.1, 380.0)">e</text><text xml:space="preserve" font-family="Monaco" font-size="28.2" fill="#000000" transform="matrix(1.00, 0.00, -0.00, -1.00, 453.0, 380.0)">l</text><text xml:space="preserve" font-family="Monaco" font-size="28.2" fill="#00872A" transform="matrix(1.00, 0.00, -0.00, -1.00, 115.0, 330.0)">t</text><text xml:space="preserve" font-family="Monaco" font-size="28.2" fill="#00872A" transform="matrix(1.00, 0.00, -0.00, -1.00, 131.9, 330.0)">o</text><text xml:space="preserve" font-family="Monaco" font-size="28.2" fill="#00872A" transform="matrix(1.00, 0.00, -0.00, -1.00, 148.8, 330.0)">d</text><text xml:space="preserve" font-family="Monaco" font-size="28.2" fill="#00872A" transform="matrix(1.00, 0.00, -0.00, -1.00, 165.7, 330.0)">o</text><text xml:space="preserve" font-family="Monaco" font-size="28.2" fill="#000000" transform="matrix(1.00, 0.00, -0.00, -1.00, 182.6, 330.0)"> </text><text xml:space="preserve" font-family="Monaco" font-size="28.2" fill="#000000" transform="matrix(1.00, 0.00, -0.00, -1.00, 199.5, 330.0)">:</text><text xml:space="preserve" font-family="Monaco" font-size="28.2" fill="#000000" transform="matrix(1.00, 0.00, -0.00, -1.00, 216.4, 330.0)">:</text><text xml:space="preserve" font-family="Monaco" font-size="28.2" fill="#000000" transform="matrix(1.00, 0.00, -0.00, -1.00, 233.3, 330.0)"> </text><text xml:space="preserve" font-family="Monaco" font-size="28.2" fill="#000000" transform="matrix(1.00, 0.00, -0.00, -1.00, 250.2, 330.0)">L</text><text xml:space="preserve" font-family="Monaco" font-size="28.2" fill="#000000" transform="matrix(1.00, 0.00, -0.00, -1.00, 267.1, 330.0)">e</text><text xml:space="preserve" font-family="Monaco" font-size="28.2" fill="#000000" transform="matrix(1.00, 0.00, -0.00, -1.00, 284.0, 330.0)">n</text><text xml:space="preserve" font-family="Monaco" font-size="28.2" fill="#000000" transform="matrix(1.00, 0.00, -0.00, -1.00, 300.9, 330.0)">s</text><text xml:space="preserve" font-family="Monaco" font-size="28.2" fill="#000000" transform="matrix(1.00, 0.00, -0.00, -1.00, 317.8, 330.0)"> </text><text xml:space="preserve" font-family="Monaco" font-size="28.2" fill="#000000" transform="matrix(1.00, 0.00, -0.00, -1.00, 334.7, 330.0)">A</text><text xml:space="preserve" font-family="Monaco" font-size="28.2" fill="#000000" transform="matrix(1.00, 0.00, -0.00, -1.00, 351.6, 330.0)">p</text><text xml:space="preserve" font-family="Monaco" font-size="28.2" fill="#000000" transform="matrix(1.00, 0.00, -0.00, -1.00, 368.5, 330.0)">p</text><text xml:space="preserve" font-family="Monaco" font-size="28.2" fill="#000000" transform="matrix(1.00, 0.00, -0.00, -1.00, 385.4, 330.0)">M</text><text xml:space="preserve" font-family="Monaco" font-size="28.2" fill="#000000" transform="matrix(1.00, 0.00, -0.00, -1.00, 402.3, 330.0)">o</text><text xml:space="preserve" font-family="Monaco" font-size="28.2" fill="#000000" transform="matrix(1.00, 0.00, -0.00, -1.00, 419.2, 330.0)">d</text><text xml:space="preserve" font-family="Monaco" font-size="28.2" fill="#000000" transform="matrix(1.00, 0.00, -0.00, -1.00, 436.1, 330.0)">e</text><text xml:space="preserve" font-family="Monaco" font-size="28.2" fill="#000000" transform="matrix(1.00, 0.00, -0.00, -1.00, 453.0, 330.0)">l</text><text xml:space="preserve" font-family="Monaco" font-size="28.2" fill="#000000" transform="matrix(1.00, 0.00, -0.00, -1.00, 469.9, 330.0)"> </text><text xml:space="preserve" font-family="Monaco" font-size="28.2" fill="#000000" transform="matrix(1.00, 0.00, -0.00, -1.00, 486.8, 330.0)">T</text><text xml:space="preserve" font-family="Monaco" font-size="28.2" fill="#000000" transform="matrix(1.00, 0.00, -0.00, -1.00, 503.7, 330.0)">o</text><text xml:space="preserve" font-family="Monaco" font-size="28.2" fill="#000000" transform="matrix(1.00, 0.00, -0.00, -1.00, 520.6, 330.0)">d</text><text xml:space="preserve" font-family="Monaco" font-size="28.2" fill="#000000" transform="matrix(1.00, 0.00, -0.00, -1.00, 537.5, 330.0)">o</text><text xml:space="preserve" font-family="Monaco" font-size="28.2" fill="#000000" transform="matrix(1.00, 0.00, -0.00, -1.00, 554.4, 330.0)">M</text><text xml:space="preserve" font-family="Monaco" font-size="28.2" fill="#000000" transform="matrix(1.00, 0.00, -0.00, -1.00, 571.3, 330.0)">o</text><text xml:space="preserve" font-family="Monaco" font-size="28.2" fill="#000000" transform="matrix(1.00, 0.00, -0.00, -1.00, 588.2, 330.0)">d</text><text xml:space="preserve" font-family="Monaco" font-size="28.2" fill="#000000" transform="matrix(1.00, 0.00, -0.00, -1.00, 605.1, 330.0)">e</text><text xml:space="preserve" font-family="Monaco" font-size="28.2" fill="#000000" transform="matrix(1.00, 0.00, -0.00, -1.00, 622.0, 330.0)">l</text><text xml:space="preserve" font-family="Monaco" font-size="28.2" fill="#DE6A10" transform="matrix(1.00, 0.00, -0.00, -1.00, 115.0, 230.0)">t</text><text xml:space="preserve" font-family="Monaco" font-size="28.2" fill="#DE6A10" transform="matrix(1.00, 0.00, -0.00, -1.00, 131.9, 230.0)">o</text><text xml:space="preserve" font-family="Monaco" font-size="28.2" fill="#DE6A10" transform="matrix(1.00, 0.00, -0.00, -1.00, 148.8, 230.0)">d</text><text xml:space="preserve" font-family="Monaco" font-size="28.2" fill="#DE6A10" transform="matrix(1.00, 0.00, -0.00, -1.00, 165.7, 230.0)">o</text><text xml:space="preserve" font-family="Monaco" font-size="28.2" fill="#DE6A10" transform="matrix(1.00, 0.00, -0.00, -1.00, 182.6, 230.0)">W</text><text xml:space="preserve" font-family="Monaco" font-size="28.2" fill="#DE6A10" transform="matrix(1.00, 0.00, -0.00, -1.00, 199.5, 230.0)">i</text><text xml:space="preserve" font-family="Monaco" font-size="28.2" fill="#DE6A10" transform="matrix(1.00, 0.00, -0.00, -1.00, 216.4, 230.0)">n</text><text xml:space="preserve" font-family="Monaco" font-size="28.2" fill="#DE6A10" transform="matrix(1.00, 0.00, -0.00, -1.00, 233.3, 230.0)">d</text><text xml:space="preserve" font-family="Monaco" font-size="28.2" fill="#DE6A10" transform="matrix(1.00, 0.00, -0.00, -1.00, 250.2, 230.0)">o</text><text xml:space="preserve" font-family="Monaco" font-size="28.2" fill="#DE6A10" transform="matrix(1.00, 0.00, -0.00, -1.00, 267.1, 230.0)">w</text><text xml:space="preserve" font-family="Monaco" font-size="28.2" fill="#000000" transform="matrix(1.00, 0.00, -0.00, -1.00, 284.0, 230.0)"> </text><text xml:space="preserve" font-family="Monaco" font-size="28.2" fill="#000000" transform="matrix(1.00, 0.00, -0.00, -1.00, 300.9, 230.0)">:</text><text xml:space="preserve" font-family="Monaco" font-size="28.2" fill="#000000" transform="matrix(1.00, 0.00, -0.00, -1.00, 317.8, 230.0)">:</text><text xml:space="preserve" font-family="Monaco" font-size="28.2" fill="#000000" transform="matrix(1.00, 0.00, -0.00, -1.00, 334.7, 230.0)"> </text><text xml:space="preserve" font-family="Monaco" font-size="28.2" fill="#000000" transform="matrix(1.00, 0.00, -0.00, -1.00, 351.6, 230.0)">R</text><text xml:space="preserve" font-family="Monaco" font-size="28.2" fill="#000000" transform="matrix(1.00, 0.00, -0.00, -1.00, 368.5, 230.0)">e</text><text xml:space="preserve" font-family="Monaco" font-size="28.2" fill="#000000" transform="matrix(1.00, 0.00, -0.00, -1.00, 385.4, 230.0)">a</text><text xml:space="preserve" font-family="Monaco" font-size="28.2" fill="#000000" transform="matrix(1.00, 0.00, -0.00, -1.00, 402.3, 230.0)">d</text><text xml:space="preserve" font-family="Monaco" font-size="28.2" fill="#000000" transform="matrix(1.00, 0.00, -0.00, -1.00, 419.2, 230.0)">e</text><text xml:space="preserve" font-family="Monaco" font-size="28.2" fill="#000000" transform="matrix(1.00, 0.00, -0.00, -1.00, 436.1, 230.0)">r</text><text xml:space="preserve" font-family="Monaco" font-size="28.2" fill="#000000" transform="matrix(1.00, 0.00, -0.00, -1.00, 453.0, 230.0)">T</text><text xml:space="preserve" font-family="Monaco" font-size="28.2" fill="#000000" transform="matrix(1.00, 0.00, -0.00, -1.00, 469.9, 230.0)"> </text><text xml:space="preserve" font-family="Monaco" font-size="28.2" fill="#B26AE1" transform="matrix(1.00, 0.00, -0.00, -1.00, 486.8, 230.0)">T</text><text xml:space="preserve" font-family="Monaco" font-size="28.2" fill="#B26AE1" transform="matrix(1.00, 0.00, -0.00, -1.00, 503.7, 230.0)">o</text><text xml:space="preserve" font-family="Monaco" font-size="28.2" fill="#B26AE1" transform="matrix(1.00, 0.00, -0.00, -1.00, 520.6, 230.0)">d</text><text xml:space="preserve" font-family="Monaco" font-size="28.2" fill="#B26AE1" transform="matrix(1.00, 0.00, -0.00, -1.00, 537.5, 230.0)">o</text><text xml:space="preserve" font-family="Monaco" font-size="28.2" fill="#B26AE1" transform="matrix(1.00, 0.00, -0.00, -1.00, 554.4, 230.0)">M</text><text xml:space="preserve" font-family="Monaco" font-size="28.2" fill="#B26AE1" transform="matrix(1.00, 0.00, -0.00, -1.00, 571.3, 230.0)">o</text><text xml:space="preserve" font-family="Monaco" font-size="28.2" fill="#B26AE1" transform="matrix(1.00, 0.00, -0.00, -1.00, 588.2, 230.0)">d</text><text xml:space="preserve" font-family="Monaco" font-size="28.2" fill="#B26AE1" transform="matrix(1.00, 0.00, -0.00, -1.00, 605.1, 230.0)">e</text><text xml:space="preserve" font-family="Monaco" font-size="28.2" fill="#B26AE1" transform="matrix(1.00, 0.00, -0.00, -1.00, 622.0, 230.0)">l</text><text xml:space="preserve" font-family="Monaco" font-size="28.2" fill="#000000" transform="matrix(1.00, 0.00, -0.00, -1.00, 638.9, 230.0)"> </text><text xml:space="preserve" font-family="Monaco" font-size="28.2" fill="#000000" transform="matrix(1.00, 0.00, -0.00, -1.00, 655.8, 230.0)">m</text><text xml:space="preserve" font-family="Monaco" font-size="28.2" fill="#000000" transform="matrix(1.00, 0.00, -0.00, -1.00, 672.7, 230.0)"> </text><text xml:space="preserve" font-family="Monaco" font-size="28.2" fill="#000000" transform="matrix(1.00, 0.00, -0.00, -1.00, 689.6, 230.0)">r</text><text xml:space="preserve" font-family="Monaco" font-size="28.2" fill="#000000" transform="matrix(1.00, 0.00, -0.00, -1.00, 115.0, 129.0)">t</text><text xml:space="preserve" font-family="Monaco" font-size="28.2" fill="#000000" transform="matrix(1.00, 0.00, -0.00, -1.00, 131.9, 129.0)">o</text><text xml:space="preserve" font-family="Monaco" font-size="28.2" fill="#000000" transform="matrix(1.00, 0.00, -0.00, -1.00, 148.8, 129.0)">d</text><text xml:space="preserve" font-family="Monaco" font-size="28.2" fill="#000000" transform="matrix(1.00, 0.00, -0.00, -1.00, 165.7, 129.0)">o</text><text xml:space="preserve" font-family="Monaco" font-size="28.2" fill="#000000" transform="matrix(1.00, 0.00, -0.00, -1.00, 182.6, 129.0)">T</text><text xml:space="preserve" font-family="Monaco" font-size="28.2" fill="#000000" transform="matrix(1.00, 0.00, -0.00, -1.00, 199.5, 129.0)">o</text><text xml:space="preserve" font-family="Monaco" font-size="28.2" fill="#000000" transform="matrix(1.00, 0.00, -0.00, -1.00, 216.4, 129.0)">A</text><text xml:space="preserve" font-family="Monaco" font-size="28.2" fill="#000000" transform="matrix(1.00, 0.00, -0.00, -1.00, 233.3, 129.0)">p</text><text xml:space="preserve" font-family="Monaco" font-size="28.2" fill="#000000" transform="matrix(1.00, 0.00, -0.00, -1.00, 250.2, 129.0)">p</text><text xml:space="preserve" font-family="Monaco" font-size="28.2" fill="#000000" transform="matrix(1.00, 0.00, -0.00, -1.00, 267.1, 129.0)">W</text><text xml:space="preserve" font-family="Monaco" font-size="28.2" fill="#000000" transform="matrix(1.00, 0.00, -0.00, -1.00, 284.0, 129.0)">i</text><text xml:space="preserve" font-family="Monaco" font-size="28.2" fill="#000000" transform="matrix(1.00, 0.00, -0.00, -1.00, 300.9, 129.0)">n</text><text xml:space="preserve" font-family="Monaco" font-size="28.2" fill="#000000" transform="matrix(1.00, 0.00, -0.00, -1.00, 317.8, 129.0)">d</text><text xml:space="preserve" font-family="Monaco" font-size="28.2" fill="#000000" transform="matrix(1.00, 0.00, -0.00, -1.00, 334.7, 129.0)">o</text><text xml:space="preserve" font-family="Monaco" font-size="28.2" fill="#000000" transform="matrix(1.00, 0.00, -0.00, -1.00, 351.6, 129.0)">w</text><text xml:space="preserve" font-family="Monaco" font-size="28.2" fill="#000000" transform="matrix(1.00, 0.00, -0.00, -1.00, 368.5, 129.0)"> </text><text xml:space="preserve" font-family="Monaco" font-size="28.2" fill="#000000" transform="matrix(1.00, 0.00, -0.00, -1.00, 385.4, 129.0)">:</text><text xml:space="preserve" font-family="Monaco" font-size="28.2" fill="#000000" transform="matrix(1.00, 0.00, -0.00, -1.00, 402.3, 129.0)">:</text><text xml:space="preserve" font-family="Monaco" font-size="28.2" fill="#000000" transform="matrix(1.00, 0.00, -0.00, -1.00, 419.2, 129.0)"> </text><text xml:space="preserve" font-family="Monaco" font-size="28.2" fill="#000000" transform="matrix(1.00, 0.00, -0.00, -1.00, 436.1, 129.0)">R</text><text xml:space="preserve" font-family="Monaco" font-size="28.2" fill="#000000" transform="matrix(1.00, 0.00, -0.00, -1.00, 453.0, 129.0)">e</text><text xml:space="preserve" font-family="Monaco" font-size="28.2" fill="#000000" transform="matrix(1.00, 0.00, -0.00, -1.00, 469.9, 129.0)">a</text><text xml:space="preserve" font-family="Monaco" font-size="28.2" fill="#000000" transform="matrix(1.00, 0.00, -0.00, -1.00, 486.8, 129.0)">d</text><text xml:space="preserve" font-family="Monaco" font-size="28.2" fill="#000000" transform="matrix(1.00, 0.00, -0.00, -1.00, 503.7, 129.0)">e</text><text xml:space="preserve" font-family="Monaco" font-size="28.2" fill="#000000" transform="matrix(1.00, 0.00, -0.00, -1.00, 520.6, 129.0)">r</text><text xml:space="preserve" font-family="Monaco" font-size="28.2" fill="#000000" transform="matrix(1.00, 0.00, -0.00, -1.00, 537.5, 129.0)">T</text><text xml:space="preserve" font-family="Monaco" font-size="28.2" fill="#000000" transform="matrix(1.00, 0.00, -0.00, -1.00, 554.4, 129.0)"> </text><text xml:space="preserve" font-family="Monaco" font-size="28.2" fill="#C82505" transform="matrix(1.00, 0.00, -0.00, -1.00, 571.3, 129.0)">A</text><text xml:space="preserve" font-family="Monaco" font-size="28.2" fill="#C82505" transform="matrix(1.00, 0.00, -0.00, -1.00, 588.2, 129.0)">p</text><text xml:space="preserve" font-family="Monaco" font-size="28.2" fill="#C82505" transform="matrix(1.00, 0.00, -0.00, -1.00, 605.1, 129.0)">p</text><text xml:space="preserve" font-family="Monaco" font-size="28.2" fill="#C82505" transform="matrix(1.00, 0.00, -0.00, -1.00, 622.0, 129.0)">M</text><text xml:space="preserve" font-family="Monaco" font-size="28.2" fill="#C82505" transform="matrix(1.00, 0.00, -0.00, -1.00, 638.9, 129.0)">o</text><text xml:space="preserve" font-family="Monaco" font-size="28.2" fill="#C82505" transform="matrix(1.00, 0.00, -0.00, -1.00, 655.8, 129.0)">d</text><text xml:space="preserve" font-family="Monaco" font-size="28.2" fill="#C82505" transform="matrix(1.00, 0.00, -0.00, -1.00, 672.7, 129.0)">e</text><text xml:space="preserve" font-family="Monaco" font-size="28.2" fill="#C82505" transform="matrix(1.00, 0.00, -0.00, -1.00, 689.6, 129.0)">l</text><text xml:space="preserve" font-family="Monaco" font-size="28.2" fill="#000000" transform="matrix(1.00, 0.00, -0.00, -1.00, 706.5, 129.0)"> </text><text xml:space="preserve" font-family="Monaco" font-size="28.2" fill="#000000" transform="matrix(1.00, 0.00, -0.00, -1.00, 723.4, 129.0)">m</text><text xml:space="preserve" font-family="Monaco" font-size="28.2" fill="#000000" transform="matrix(1.00, 0.00, -0.00, -1.00, 740.3, 129.0)"> </text><text xml:space="preserve" font-family="Monaco" font-size="28.2" fill="#000000" transform="matrix(1.00, 0.00, -0.00, -1.00, 757.2, 129.0)">r</text><text xml:space="preserve" font-family="Monaco" font-size="28.2" fill="#000000" transform="matrix(1.00, 0.00, -0.00, -1.00, 115.0, 79.0)">t</text><text xml:space="preserve" font-family="Monaco" font-size="28.2" fill="#000000" transform="matrix(1.00, 0.00, -0.00, -1.00, 131.9, 79.0)">o</text><text xml:space="preserve" font-family="Monaco" font-size="28.2" fill="#000000" transform="matrix(1.00, 0.00, -0.00, -1.00, 148.8, 79.0)">d</text><text xml:space="preserve" font-family="Monaco" font-size="28.2" fill="#000000" transform="matrix(1.00, 0.00, -0.00, -1.00, 165.7, 79.0)">o</text><text xml:space="preserve" font-family="Monaco" font-size="28.2" fill="#000000" transform="matrix(1.00, 0.00, -0.00, -1.00, 182.6, 79.0)">T</text><text xml:space="preserve" font-family="Monaco" font-size="28.2" fill="#000000" transform="matrix(1.00, 0.00, -0.00, -1.00, 199.5, 79.0)">o</text><text xml:space="preserve" font-family="Monaco" font-size="28.2" fill="#000000" transform="matrix(1.00, 0.00, -0.00, -1.00, 216.4, 79.0)">A</text><text xml:space="preserve" font-family="Monaco" font-size="28.2" fill="#000000" transform="matrix(1.00, 0.00, -0.00, -1.00, 233.3, 79.0)">p</text><text xml:space="preserve" font-family="Monaco" font-size="28.2" fill="#000000" transform="matrix(1.00, 0.00, -0.00, -1.00, 250.2, 79.0)">p</text><text xml:space="preserve" font-family="Monaco" font-size="28.2" fill="#000000" transform="matrix(1.00, 0.00, -0.00, -1.00, 267.1, 79.0)">W</text><text xml:space="preserve" font-family="Monaco" font-size="28.2" fill="#000000" transform="matrix(1.00, 0.00, -0.00, -1.00, 284.0, 79.0)">i</text><text xml:space="preserve" font-family="Monaco" font-size="28.2" fill="#000000" transform="matrix(1.00, 0.00, -0.00, -1.00, 300.9, 79.0)">n</text><text xml:space="preserve" font-family="Monaco" font-size="28.2" fill="#000000" transform="matrix(1.00, 0.00, -0.00, -1.00, 317.8, 79.0)">d</text><text xml:space="preserve" font-family="Monaco" font-size="28.2" fill="#000000" transform="matrix(1.00, 0.00, -0.00, -1.00, 334.7, 79.0)">o</text><text xml:space="preserve" font-family="Monaco" font-size="28.2" fill="#000000" transform="matrix(1.00, 0.00, -0.00, -1.00, 351.6, 79.0)">w</text><text xml:space="preserve" font-family="Monaco" font-size="28.2" fill="#000000" transform="matrix(1.00, 0.00, -0.00, -1.00, 368.5, 79.0)"> </text><text xml:space="preserve" font-family="Monaco" font-size="28.2" fill="#000000" transform="matrix(1.00, 0.00, -0.00, -1.00, 385.4, 79.0)">=</text><text xml:space="preserve" font-family="Monaco" font-size="28.2" fill="#000000" transform="matrix(1.00, 0.00, -0.00, -1.00, 402.3, 79.0)"> </text><text xml:space="preserve" font-family="Monaco" font-size="28.2" fill="#000000" transform="matrix(1.00, 0.00, -0.00, -1.00, 419.2, 79.0)">m</text><text xml:space="preserve" font-family="Monaco" font-size="28.2" fill="#000000" transform="matrix(1.00, 0.00, -0.00, -1.00, 436.1, 79.0)">a</text><text xml:space="preserve" font-family="Monaco" font-size="28.2" fill="#000000" transform="matrix(1.00, 0.00, -0.00, -1.00, 453.0, 79.0)">g</text><text xml:space="preserve" font-family="Monaco" font-size="28.2" fill="#000000" transform="matrix(1.00, 0.00, -0.00, -1.00, 469.9, 79.0)">n</text><text xml:space="preserve" font-family="Monaco" font-size="28.2" fill="#000000" transform="matrix(1.00, 0.00, -0.00, -1.00, 486.8, 79.0)">i</text><text xml:space="preserve" font-family="Monaco" font-size="28.2" fill="#000000" transform="matrix(1.00, 0.00, -0.00, -1.00, 503.7, 79.0)">f</text><text xml:space="preserve" font-family="Monaco" font-size="28.2" fill="#000000" transform="matrix(1.00, 0.00, -0.00, -1.00, 520.6, 79.0)">y</text><text xml:space="preserve" font-family="Monaco" font-size="28.2" fill="#000000" transform="matrix(1.00, 0.00, -0.00, -1.00, 537.5, 79.0)"> </text><text xml:space="preserve" font-family="Monaco" font-size="28.2" fill="#00872A" transform="matrix(1.00, 0.00, -0.00, -1.00, 554.4, 79.0)">t</text><text xml:space="preserve" font-family="Monaco" font-size="28.2" fill="#00872A" transform="matrix(1.00, 0.00, -0.00, -1.00, 571.3, 79.0)">o</text><text xml:space="preserve" font-family="Monaco" font-size="28.2" fill="#00872A" transform="matrix(1.00, 0.00, -0.00, -1.00, 588.2, 79.0)">d</text><text xml:space="preserve" font-family="Monaco" font-size="28.2" fill="#00872A" transform="matrix(1.00, 0.00, -0.00, -1.00, 605.1, 79.0)">o</text><text xml:space="preserve" font-family="Monaco" font-size="28.2" fill="#000000" transform="matrix(1.00, 0.00, -0.00, -1.00, 622.0, 79.0)"> </text><text xml:space="preserve" font-family="Monaco" font-size="28.2" fill="#DE6A10" transform="matrix(1.00, 0.00, -0.00, -1.00, 638.9, 79.0)">t</text><text xml:space="preserve" font-family="Monaco" font-size="28.2" fill="#DE6A10" transform="matrix(1.00, 0.00, -0.00, -1.00, 655.8, 79.0)">o</text><text xml:space="preserve" font-family="Monaco" font-size="28.2" fill="#DE6A10" transform="matrix(1.00, 0.00, -0.00, -1.00, 672.7, 79.0)">d</text><text xml:space="preserve" font-family="Monaco" font-size="28.2" fill="#DE6A10" transform="matrix(1.00, 0.00, -0.00, -1.00, 689.6, 79.0)">o</text><text xml:space="preserve" font-family="Monaco" font-size="28.2" fill="#DE6A10" transform="matrix(1.00, 0.00, -0.00, -1.00, 706.5, 79.0)">W</text><text xml:space="preserve" font-family="Monaco" font-size="28.2" fill="#DE6A10" transform="matrix(1.00, 0.00, -0.00, -1.00, 723.4, 79.0)">i</text><text xml:space="preserve" font-family="Monaco" font-size="28.2" fill="#DE6A10" transform="matrix(1.00, 0.00, -0.00, -1.00, 740.3, 79.0)">n</text><text xml:space="preserve" font-family="Monaco" font-size="28.2" fill="#DE6A10" transform="matrix(1.00, 0.00, -0.00, -1.00, 757.2, 79.0)">d</text><text xml:space="preserve" font-family="Monaco" font-size="28.2" fill="#DE6A10" transform="matrix(1.00, 0.00, -0.00, -1.00, 774.1, 79.0)">o</text><text xml:space="preserve" font-family="Monaco" font-size="28.2" fill="#DE6A10" transform="matrix(1.00, 0.00, -0.00, -1.00, 791.0, 79.0)">w</text><text xml:space="preserve" font-family="Helvetica-Light" font-size="18.0" fill="#000000" transform="matrix(1.00, 0.00, -0.00, -1.00, 501.0, 18.0)">1</text><text xml:space="preserve" font-family="Helvetica-Light" font-size="18.0" fill="#000000" transform="matrix(1.00, 0.00, -0.00, -1.00, 511.0, 18.0)">0</text></g></svg>