<?xml version="1.0" encoding="UTF-8" standalone="no"?><svg xmlns="http://www.w3.org/2000/svg" xmlns:xlink="http://www.w3.org/1999/xlink" clip-rule="evenodd" stroke-miterlimit="4.00" viewBox="0 0 1024 768"><desc>SVG generated by Keynote</desc><defs></defs><g transform="matrix(1.00, 0.00, -0.00, -1.00, 0.0, 768.0)"><path d="M 0.0 768.0 L 1024.0 768.0 L 1024.0 0.0 L 0.0 0.0 Z M 0.0 768.0 " fill="#FEFFFF"></path><text xml:space="preserve" font-family="Helvetica-Light" font-size="80.0" fill="#000000" transform="matrix(1.00, 0.00, -0.00, -1.00, 177.0, 618.0)">W</text><text xml:space="preserve" font-family="Helvetica-Light" font-size="80.0" fill="#000000" transform="matrix(1.00, 0.00, -0.00, -1.00, 248.1, 618.0)">h</text><text xml:space="preserve" font-family="Helvetica-Light" font-size="80.0" fill="#000000" transform="matrix(1.00, 0.00, -0.00, -1.00, 292.6, 618.0)">a</text><text xml:space="preserve" font-family="Helvetica-Light" font-size="80.0" fill="#000000" transform="matrix(1.00, 0.00, -0.00, -1.00, 337.1, 618.0)">t</text><text xml:space="preserve" font-family="Helvetica-Light" font-size="80.0" fill="#000000" transform="matrix(1.00, 0.00, -0.00, -1.00, 359.3, 618.0)"> </text><text xml:space="preserve" font-family="Helvetica-Light" font-size="80.0" fill="#000000" transform="matrix(1.00, 0.00, -0.00, -1.00, 381.6, 618.0)">i</text><text xml:space="preserve" font-family="Helvetica-Light" font-size="80.0" fill="#000000" transform="matrix(1.00, 0.00, -0.00, -1.00, 399.3, 618.0)">s</text><text xml:space="preserve" font-family="Helvetica-Light" font-size="80.0" fill="#000000" transform="matrix(1.00, 0.00, -0.00, -1.00, 439.3, 618.0)"> </text><text xml:space="preserve" font-family="Helvetica-Light" font-size="80.0" fill="#000000" transform="matrix(1.00, 0.00, -0.00, -1.00, 461.6, 618.0)">r</text><text xml:space="preserve" font-family="Helvetica-Light" font-size="80.0" fill="#000000" transform="matrix(1.00, 0.00, -0.00, -1.00, 486.8, 618.0)">e</text><text xml:space="preserve" font-family="Helvetica-Light" font-size="80.0" fill="#000000" transform="matrix(1.00, 0.00, -0.00, -1.00, 531.2, 618.0)">n</text><text xml:space="preserve" font-family="Helvetica-Light" font-size="80.0" fill="#000000" transform="matrix(1.00, 0.00, -0.00, -1.00, 575.7, 618.0)">d</text><text xml:space="preserve" font-family="Helvetica-Light" font-size="80.0" fill="#000000" transform="matrix(1.00, 0.00, -0.00, -1.00, 624.6, 618.0)">e</text><text xml:space="preserve" font-family="Helvetica-Light" font-size="80.0" fill="#000000" transform="matrix(1.00, 0.00, -0.00, -1.00, 669.1, 618.0)">r</text><text xml:space="preserve" font-family="Helvetica-Light" font-size="80.0" fill="#000000" transform="matrix(1.00, 0.00, -0.00, -1.00, 695.7, 618.0)">i</text><text xml:space="preserve" font-family="Helvetica-Light" font-size="80.0" fill="#000000" transform="matrix(1.00, 0.00, -0.00, -1.00, 713.5, 618.0)">n</text><text xml:space="preserve" font-family="Helvetica-Light" font-size="80.0" fill="#000000" transform="matrix(1.00, 0.00, -0.00, -1.00, 758.0, 618.0)">g</text><text xml:space="preserve" font-family="Helvetica-Light" font-size="80.0" fill="#000000" transform="matrix(1.00, 0.00, -0.00, -1.00, 806.8, 618.0)">?</text><text xml:space="preserve" font-family="Monaco" font-size="25.0" fill="#000000" transform="matrix(1.00, 0.00, -0.00, -1.00, 63.0, 531.0)">v</text><text xml:space="preserve" font-family="Monaco" font-size="25.0" fill="#000000" transform="matrix(1.00, 0.00, -0.00, -1.00, 78.0, 531.0)">i</text><text xml:space="preserve" font-family="Monaco" font-size="25.0" fill="#000000" transform="matrix(1.00, 0.00, -0.00, -1.00, 93.0, 531.0)">e</text><text xml:space="preserve" font-family="Monaco" font-size="25.0" fill="#000000" transform="matrix(1.00, 0.00, -0.00, -1.00, 107.9, 531.0)">w</text><text xml:space="preserve" font-family="Monaco" font-size="25.0" fill="#000000" transform="matrix(1.00, 0.00, -0.00, -1.00, 122.9, 531.0)"> </text><text xml:space="preserve" font-family="Monaco" font-size="25.0" fill="#000000" transform="matrix(1.00, 0.00, -0.00, -1.00, 137.9, 531.0)">:</text><text xml:space="preserve" font-family="Monaco" font-size="25.0" fill="#000000" transform="matrix(1.00, 0.00, -0.00, -1.00, 152.9, 531.0)">:</text><text xml:space="preserve" font-family="Monaco" font-size="25.0" fill="#000000" transform="matrix(1.00, 0.00, -0.00, -1.00, 167.9, 531.0)"> </text><text xml:space="preserve" font-family="Monaco" font-size="25.0" fill="#000000" transform="matrix(1.00, 0.00, -0.00, -1.00, 182.8, 531.0)"> </text><text xml:space="preserve" font-family="Monaco" font-size="25.0" fill="#000000" transform="matrix(1.00, 0.00, -0.00, -1.00, 197.8, 531.0)"> </text><text xml:space="preserve" font-family="Monaco" font-size="25.0" fill="#000000" transform="matrix(1.00, 0.00, -0.00, -1.00, 212.8, 531.0)"> </text><text xml:space="preserve" font-family="Monaco" font-size="25.0" fill="#000000" transform="matrix(1.00, 0.00, -0.00, -1.00, 227.8, 531.0)"> </text><text xml:space="preserve" font-family="Monaco" font-size="25.0" fill="#000000" transform="matrix(1.00, 0.00, -0.00, -1.00, 242.8, 531.0)"> </text><text xml:space="preserve" font-family="Monaco" font-size="25.0" fill="#000000" transform="matrix(1.00, 0.00, -0.00, -1.00, 257.8, 531.0)"> </text><text xml:space="preserve" font-family="Monaco" font-size="25.0" fill="#000000" transform="matrix(1.00, 0.00, -0.00, -1.00, 272.7, 531.0)"> </text><text xml:space="preserve" font-family="Monaco" font-size="25.0" fill="#000000" transform="matrix(1.00, 0.00, -0.00, -1.00, 287.7, 531.0)"> </text><text xml:space="preserve" font-family="Monaco" font-size="25.0" fill="#000000" transform="matrix(1.00, 0.00, -0.00, -1.00, 302.7, 531.0)"> </text><text xml:space="preserve" font-family="Monaco" font-size="25.0" fill="#000000" transform="matrix(1.00, 0.00, -0.00, -1.00, 317.7, 531.0)"> </text><text xml:space="preserve" font-family="Monaco" font-size="25.0" fill="#000000" transform="matrix(1.00, 0.00, -0.00, -1.00, 332.7, 531.0)"> </text><text xml:space="preserve" font-family="Monaco" font-size="25.0" fill="#000000" transform="matrix(1.00, 0.00, -0.00, -1.00, 347.6, 531.0)">M</text><text xml:space="preserve" font-family="Monaco" font-size="25.0" fill="#000000" transform="matrix(1.00, 0.00, -0.00, -1.00, 362.6, 531.0)">o</text><text xml:space="preserve" font-family="Monaco" font-size="25.0" fill="#000000" transform="matrix(1.00, 0.00, -0.00, -1.00, 377.6, 531.0)">d</text><text xml:space="preserve" font-family="Monaco" font-size="25.0" fill="#000000" transform="matrix(1.00, 0.00, -0.00, -1.00, 392.6, 531.0)">e</text><text xml:space="preserve" font-family="Monaco" font-size="25.0" fill="#000000" transform="matrix(1.00, 0.00, -0.00, -1.00, 407.6, 531.0)">l</text><text xml:space="preserve" font-family="Monaco" font-size="25.0" fill="#000000" transform="matrix(1.00, 0.00, -0.00, -1.00, 422.5, 531.0)"> </text><text xml:space="preserve" font-family="Monaco" font-size="25.0" fill="#000000" transform="matrix(1.00, 0.00, -0.00, -1.00, 437.5, 531.0)">-</text><text xml:space="preserve" font-family="Monaco" font-size="25.0" fill="#000000" transform="matrix(1.00, 0.00, -0.00, -1.00, 452.5, 531.0)">&gt;</text><text xml:space="preserve" font-family="Monaco" font-size="25.0" fill="#000000" transform="matrix(1.00, 0.00, -0.00, -1.00, 467.5, 531.0)"> </text><text xml:space="preserve" font-family="Monaco" font-size="25.0" fill="#000000" transform="matrix(1.00, 0.00, -0.00, -1.00, 482.5, 531.0)">H</text><text xml:space="preserve" font-family="Monaco" font-size="25.0" fill="#000000" transform="matrix(1.00, 0.00, -0.00, -1.00, 497.4, 531.0)">t</text><text xml:space="preserve" font-family="Monaco" font-size="25.0" fill="#000000" transform="matrix(1.00, 0.00, -0.00, -1.00, 512.4, 531.0)">m</text><text xml:space="preserve" font-family="Monaco" font-size="25.0" fill="#000000" transform="matrix(1.00, 0.00, -0.00, -1.00, 527.4, 531.0)">l</text><text xml:space="preserve" font-family="Helvetica-Light" font-size="18.0" fill="#000000" transform="matrix(1.00, 0.00, -0.00, -1.00, 506.0, 18.0)">7</text></g></svg>