<?xml version="1.0" encoding="UTF-8" standalone="no"?><svg xmlns="http://www.w3.org/2000/svg" xmlns:xlink="http://www.w3.org/1999/xlink" clip-rule="evenodd" stroke-miterlimit="4.00" viewBox="0 0 275 28"><desc>SVG generated by Keynote</desc><defs></defs><g transform="matrix(1.00, 0.00, -0.00, -1.00, 0.0, 28.0)"><text xml:space="preserve" font-family="Helvetica-Light" font-size="19.9" fill="#000000" transform="matrix(1.00, 0.00, -0.00, -1.00, 0.0, 9.3)">•</text><text xml:space="preserve" font-family="Helvetica-Light" font-size="26.5" fill="#000000" transform="matrix(1.00, 0.00, -0.00, -1.00, 26.0, 7.0)">C</text><text xml:space="preserve" font-family="Helvetica-Light" font-size="26.5" fill="#000000" transform="matrix(1.00, 0.00, -0.00, -1.00, 45.1, 7.0)">o</text><text xml:space="preserve" font-family="Helvetica-Light" font-size="26.5" fill="#000000" transform="matrix(1.00, 0.00, -0.00, -1.00, 59.9, 7.0)">m</text><text xml:space="preserve" font-family="Helvetica-Light" font-size="26.5" fill="#000000" transform="matrix(1.00, 0.00, -0.00, -1.00, 82.0, 7.0)">p</text><text xml:space="preserve" font-family="Helvetica-Light" font-size="26.5" fill="#000000" transform="matrix(1.00, 0.00, -0.00, -1.00, 98.2, 7.0)">i</text><text xml:space="preserve" font-family="Helvetica-Light" font-size="26.5" fill="#000000" transform="matrix(1.00, 0.00, -0.00, -1.00, 104.1, 7.0)">l</text><text xml:space="preserve" font-family="Helvetica-Light" font-size="26.5" fill="#000000" transform="matrix(1.00, 0.00, -0.00, -1.00, 110.0, 7.0)">e</text><text xml:space="preserve" font-family="Helvetica-Light" font-size="26.5" fill="#000000" transform="matrix(1.00, 0.00, -0.00, -1.00, 124.7, 7.0)"> </text><text xml:space="preserve" font-family="Helvetica-Light" font-size="26.5" fill="#000000" transform="matrix(1.00, 0.00, -0.00, -1.00, 132.1, 7.0)">t</text><text xml:space="preserve" font-family="Helvetica-Light" font-size="26.5" fill="#000000" transform="matrix(1.00, 0.00, -0.00, -1.00, 139.5, 7.0)">i</text><text xml:space="preserve" font-family="Helvetica-Light" font-size="26.5" fill="#000000" transform="matrix(1.00, 0.00, -0.00, -1.00, 145.3, 7.0)">m</text><text xml:space="preserve" font-family="Helvetica-Light" font-size="26.5" fill="#000000" transform="matrix(1.00, 0.00, -0.00, -1.00, 167.4, 7.0)">e</text><text xml:space="preserve" font-family="Helvetica-Light" font-size="26.5" fill="#000000" transform="matrix(1.00, 0.00, -0.00, -1.00, 182.2, 7.0)"> </text><text xml:space="preserve" font-family="Helvetica-Light" font-size="26.5" fill="#000000" transform="matrix(1.00, 0.00, -0.00, -1.00, 189.5, 7.0)">c</text><text xml:space="preserve" font-family="Helvetica-Light" font-size="26.5" fill="#000000" transform="matrix(1.00, 0.00, -0.00, -1.00, 204.3, 7.0)">h</text><text xml:space="preserve" font-family="Helvetica-Light" font-size="26.5" fill="#000000" transform="matrix(1.00, 0.00, -0.00, -1.00, 219.0, 7.0)">e</text><text xml:space="preserve" font-family="Helvetica-Light" font-size="26.5" fill="#000000" transform="matrix(1.00, 0.00, -0.00, -1.00, 233.8, 7.0)">c</text><text xml:space="preserve" font-family="Helvetica-Light" font-size="26.5" fill="#000000" transform="matrix(1.00, 0.00, -0.00, -1.00, 248.5, 7.0)">k</text><text xml:space="preserve" font-family="Helvetica-Light" font-size="26.5" fill="#000000" transform="matrix(1.00, 0.00, -0.00, -1.00, 261.8, 7.0)">s</text></g></svg>