<?xml version="1.0" encoding="UTF-8" standalone="no"?><svg xmlns="http://www.w3.org/2000/svg" xmlns:xlink="http://www.w3.org/1999/xlink" clip-rule="evenodd" stroke-miterlimit="4.00" viewBox="0 0 1024 768"><desc>SVG generated by Keynote</desc><defs></defs><g transform="matrix(1.00, 0.00, -0.00, -1.00, 0.0, 768.0)"><path d="M 0.0 768.0 L 1024.0 768.0 L 1024.0 0.0 L 0.0 0.0 Z M 0.0 768.0 " fill="#FEFFFF"></path><text xml:space="preserve" font-family="Helvetica-Light" font-size="80.0" fill="#000000" transform="matrix(1.00, 0.00, -0.00, -1.00, 304.0, 618.0)">F</text><text xml:space="preserve" font-family="Helvetica-Light" font-size="80.0" fill="#000000" transform="matrix(1.00, 0.00, -0.00, -1.00, 348.5, 618.0)">u</text><text xml:space="preserve" font-family="Helvetica-Light" font-size="80.0" fill="#000000" transform="matrix(1.00, 0.00, -0.00, -1.00, 393.0, 618.0)">t</text><text xml:space="preserve" font-family="Helvetica-Light" font-size="80.0" fill="#000000" transform="matrix(1.00, 0.00, -0.00, -1.00, 415.2, 618.0)">u</text><text xml:space="preserve" font-family="Helvetica-Light" font-size="80.0" fill="#000000" transform="matrix(1.00, 0.00, -0.00, -1.00, 459.7, 618.0)">r</text><text xml:space="preserve" font-family="Helvetica-Light" font-size="80.0" fill="#000000" transform="matrix(1.00, 0.00, -0.00, -1.00, 484.9, 618.0)">e</text><text xml:space="preserve" font-family="Helvetica-Light" font-size="80.0" fill="#000000" transform="matrix(1.00, 0.00, -0.00, -1.00, 529.4, 618.0)"> </text><text xml:space="preserve" font-family="Helvetica-Light" font-size="80.0" fill="#000000" transform="matrix(1.00, 0.00, -0.00, -1.00, 551.6, 618.0)">w</text><text xml:space="preserve" font-family="Helvetica-Light" font-size="80.0" fill="#000000" transform="matrix(1.00, 0.00, -0.00, -1.00, 609.4, 618.0)">o</text><text xml:space="preserve" font-family="Helvetica-Light" font-size="80.0" fill="#000000" transform="matrix(1.00, 0.00, -0.00, -1.00, 653.8, 618.0)">r</text><text xml:space="preserve" font-family="Helvetica-Light" font-size="80.0" fill="#000000" transform="matrix(1.00, 0.00, -0.00, -1.00, 680.5, 618.0)">k</text><text xml:space="preserve" font-family="Helvetica-Light" font-size="25.0" fill="#000000" transform="matrix(1.00, 0.00, -0.00, -1.00, 79.0, 510.7)">•</text><text xml:space="preserve" font-family="Helvetica-Light" font-size="33.3" fill="#000000" transform="matrix(1.00, 0.00, -0.00, -1.00, 111.0, 507.0)">F</text><text xml:space="preserve" font-family="Helvetica-Light" font-size="33.3" fill="#000000" transform="matrix(1.00, 0.00, -0.00, -1.00, 129.5, 507.0)">i</text><text xml:space="preserve" font-family="Helvetica-Light" font-size="33.3" fill="#000000" transform="matrix(1.00, 0.00, -0.00, -1.00, 136.9, 507.0)">n</text><text xml:space="preserve" font-family="Helvetica-Light" font-size="33.3" fill="#000000" transform="matrix(1.00, 0.00, -0.00, -1.00, 155.4, 507.0)">i</text><text xml:space="preserve" font-family="Helvetica-Light" font-size="33.3" fill="#000000" transform="matrix(1.00, 0.00, -0.00, -1.00, 162.8, 507.0)">s</text><text xml:space="preserve" font-family="Helvetica-Light" font-size="33.3" fill="#000000" transform="matrix(1.00, 0.00, -0.00, -1.00, 179.5, 507.0)">h</text><text xml:space="preserve" font-family="Helvetica-Light" font-size="33.3" fill="#000000" transform="matrix(1.00, 0.00, -0.00, -1.00, 198.0, 507.0)"> </text><text xml:space="preserve" font-family="Helvetica-Light" font-size="33.3" fill="#000000" transform="matrix(1.00, 0.00, -0.00, -1.00, 207.3, 507.0)">T</text><text xml:space="preserve" font-family="Helvetica-Light" font-size="33.3" fill="#000000" transform="matrix(1.00, 0.00, -0.00, -1.00, 222.1, 507.0)">o</text><text xml:space="preserve" font-family="Helvetica-Light" font-size="33.3" fill="#000000" transform="matrix(1.00, 0.00, -0.00, -1.00, 240.6, 507.0)">d</text><text xml:space="preserve" font-family="Helvetica-Light" font-size="33.3" fill="#000000" transform="matrix(1.00, 0.00, -0.00, -1.00, 261.0, 507.0)">o</text><text xml:space="preserve" font-family="Helvetica-Light" font-size="33.3" fill="#000000" transform="matrix(1.00, 0.00, -0.00, -1.00, 279.5, 507.0)">M</text><text xml:space="preserve" font-family="Helvetica-Light" font-size="33.3" fill="#000000" transform="matrix(1.00, 0.00, -0.00, -1.00, 307.3, 507.0)">V</text><text xml:space="preserve" font-family="Helvetica-Light" font-size="33.3" fill="#000000" transform="matrix(1.00, 0.00, -0.00, -1.00, 327.6, 507.0)">C</text><text xml:space="preserve" font-family="Helvetica-Light" font-size="33.3" fill="#000000" transform="matrix(1.00, 0.00, -0.00, -1.00, 351.7, 507.0)"> </text><text xml:space="preserve" font-family="Helvetica-Light" font-size="33.3" fill="#000000" transform="matrix(1.00, 0.00, -0.00, -1.00, 361.0, 507.0)">(</text><text xml:space="preserve" font-family="Helvetica-Light" font-size="33.3" fill="#000000" transform="matrix(1.00, 0.00, -0.00, -1.00, 372.1, 507.0)">i</text><text xml:space="preserve" font-family="Helvetica-Light" font-size="33.3" fill="#000000" transform="matrix(1.00, 0.00, -0.00, -1.00, 379.5, 507.0)">n</text><text xml:space="preserve" font-family="Helvetica-Light" font-size="33.3" fill="#000000" transform="matrix(1.00, 0.00, -0.00, -1.00, 398.0, 507.0)">c</text><text xml:space="preserve" font-family="Helvetica-Light" font-size="33.3" fill="#000000" transform="matrix(1.00, 0.00, -0.00, -1.00, 416.5, 507.0)">l</text><text xml:space="preserve" font-family="Helvetica-Light" font-size="33.3" fill="#000000" transform="matrix(1.00, 0.00, -0.00, -1.00, 423.9, 507.0)">u</text><text xml:space="preserve" font-family="Helvetica-Light" font-size="33.3" fill="#000000" transform="matrix(1.00, 0.00, -0.00, -1.00, 442.4, 507.0)">d</text><text xml:space="preserve" font-family="Helvetica-Light" font-size="33.3" fill="#000000" transform="matrix(1.00, 0.00, -0.00, -1.00, 462.8, 507.0)">i</text><text xml:space="preserve" font-family="Helvetica-Light" font-size="33.3" fill="#000000" transform="matrix(1.00, 0.00, -0.00, -1.00, 470.2, 507.0)">n</text><text xml:space="preserve" font-family="Helvetica-Light" font-size="33.3" fill="#000000" transform="matrix(1.00, 0.00, -0.00, -1.00, 488.7, 507.0)">g</text><text xml:space="preserve" font-family="Helvetica-Light" font-size="33.3" fill="#000000" transform="matrix(1.00, 0.00, -0.00, -1.00, 509.1, 507.0)"> </text><text xml:space="preserve" font-family="Helvetica-Light" font-size="33.3" fill="#000000" transform="matrix(1.00, 0.00, -0.00, -1.00, 518.3, 507.0)">f</text><text xml:space="preserve" font-family="Helvetica-Light" font-size="33.3" fill="#000000" transform="matrix(1.00, 0.00, -0.00, -1.00, 527.6, 507.0)">o</text><text xml:space="preserve" font-family="Helvetica-Light" font-size="33.3" fill="#000000" transform="matrix(1.00, 0.00, -0.00, -1.00, 546.1, 507.0)">o</text><text xml:space="preserve" font-family="Helvetica-Light" font-size="33.3" fill="#000000" transform="matrix(1.00, 0.00, -0.00, -1.00, 564.7, 507.0)">t</text><text xml:space="preserve" font-family="Helvetica-Light" font-size="33.3" fill="#000000" transform="matrix(1.00, 0.00, -0.00, -1.00, 573.9, 507.0)">e</text><text xml:space="preserve" font-family="Helvetica-Light" font-size="33.3" fill="#000000" transform="matrix(1.00, 0.00, -0.00, -1.00, 592.4, 507.0)">r</text><text xml:space="preserve" font-family="Helvetica-Light" font-size="33.3" fill="#000000" transform="matrix(1.00, 0.00, -0.00, -1.00, 603.5, 507.0)">)</text><text xml:space="preserve" font-family="Helvetica-Light" font-size="33.3" fill="#000000" transform="matrix(1.00, 0.00, -0.00, -1.00, 614.6, 507.0)"> </text><text xml:space="preserve" font-family="Helvetica-Light" font-size="25.0" fill="#000000" transform="matrix(1.00, 0.00, -0.00, -1.00, 79.0, 428.6)">•</text><text xml:space="preserve" font-family="Helvetica-Light" font-size="33.3" fill="#000000" transform="matrix(1.00, 0.00, -0.00, -1.00, 111.0, 425.0)">R</text><text xml:space="preserve" font-family="Helvetica-Light" font-size="33.3" fill="#000000" transform="matrix(1.00, 0.00, -0.00, -1.00, 133.2, 425.0)">e</text><text xml:space="preserve" font-family="Helvetica-Light" font-size="33.3" fill="#000000" transform="matrix(1.00, 0.00, -0.00, -1.00, 151.8, 425.0)">d</text><text xml:space="preserve" font-family="Helvetica-Light" font-size="33.3" fill="#000000" transform="matrix(1.00, 0.00, -0.00, -1.00, 172.1, 425.0)">u</text><text xml:space="preserve" font-family="Helvetica-Light" font-size="33.3" fill="#000000" transform="matrix(1.00, 0.00, -0.00, -1.00, 190.6, 425.0)">c</text><text xml:space="preserve" font-family="Helvetica-Light" font-size="33.3" fill="#000000" transform="matrix(1.00, 0.00, -0.00, -1.00, 209.2, 425.0)">e</text><text xml:space="preserve" font-family="Helvetica-Light" font-size="33.3" fill="#000000" transform="matrix(1.00, 0.00, -0.00, -1.00, 227.7, 425.0)"> </text><text xml:space="preserve" font-family="Helvetica-Light" font-size="33.3" fill="#000000" transform="matrix(1.00, 0.00, -0.00, -1.00, 236.9, 425.0)">c</text><text xml:space="preserve" font-family="Helvetica-Light" font-size="33.3" fill="#000000" transform="matrix(1.00, 0.00, -0.00, -1.00, 255.5, 425.0)">a</text><text xml:space="preserve" font-family="Helvetica-Light" font-size="33.3" fill="#000000" transform="matrix(1.00, 0.00, -0.00, -1.00, 274.0, 425.0)">l</text><text xml:space="preserve" font-family="Helvetica-Light" font-size="33.3" fill="#000000" transform="matrix(1.00, 0.00, -0.00, -1.00, 281.4, 425.0)">l</text><text xml:space="preserve" font-family="Helvetica-Light" font-size="33.3" fill="#000000" transform="matrix(1.00, 0.00, -0.00, -1.00, 288.8, 425.0)">b</text><text xml:space="preserve" font-family="Helvetica-Light" font-size="33.3" fill="#000000" transform="matrix(1.00, 0.00, -0.00, -1.00, 309.2, 425.0)">a</text><text xml:space="preserve" font-family="Helvetica-Light" font-size="33.3" fill="#000000" transform="matrix(1.00, 0.00, -0.00, -1.00, 327.7, 425.0)">c</text><text xml:space="preserve" font-family="Helvetica-Light" font-size="33.3" fill="#000000" transform="matrix(1.00, 0.00, -0.00, -1.00, 346.2, 425.0)">k</text><text xml:space="preserve" font-family="Helvetica-Light" font-size="33.3" fill="#000000" transform="matrix(1.00, 0.00, -0.00, -1.00, 362.9, 425.0)"> </text><text xml:space="preserve" font-family="Helvetica-Light" font-size="33.3" fill="#000000" transform="matrix(1.00, 0.00, -0.00, -1.00, 372.1, 425.0)">b</text><text xml:space="preserve" font-family="Helvetica-Light" font-size="33.3" fill="#000000" transform="matrix(1.00, 0.00, -0.00, -1.00, 392.5, 425.0)">o</text><text xml:space="preserve" font-family="Helvetica-Light" font-size="33.3" fill="#000000" transform="matrix(1.00, 0.00, -0.00, -1.00, 411.0, 425.0)">i</text><text xml:space="preserve" font-family="Helvetica-Light" font-size="33.3" fill="#000000" transform="matrix(1.00, 0.00, -0.00, -1.00, 418.4, 425.0)">l</text><text xml:space="preserve" font-family="Helvetica-Light" font-size="33.3" fill="#000000" transform="matrix(1.00, 0.00, -0.00, -1.00, 425.8, 425.0)">e</text><text xml:space="preserve" font-family="Helvetica-Light" font-size="33.3" fill="#000000" transform="matrix(1.00, 0.00, -0.00, -1.00, 444.3, 425.0)">r</text><text xml:space="preserve" font-family="Helvetica-Light" font-size="33.3" fill="#000000" transform="matrix(1.00, 0.00, -0.00, -1.00, 455.4, 425.0)">p</text><text xml:space="preserve" font-family="Helvetica-Light" font-size="33.3" fill="#000000" transform="matrix(1.00, 0.00, -0.00, -1.00, 475.8, 425.0)">l</text><text xml:space="preserve" font-family="Helvetica-Light" font-size="33.3" fill="#000000" transform="matrix(1.00, 0.00, -0.00, -1.00, 483.2, 425.0)">a</text><text xml:space="preserve" font-family="Helvetica-Light" font-size="33.3" fill="#000000" transform="matrix(1.00, 0.00, -0.00, -1.00, 501.7, 425.0)">t</text><text xml:space="preserve" font-family="Helvetica-Light" font-size="33.3" fill="#000000" transform="matrix(1.00, 0.00, -0.00, -1.00, 511.0, 425.0)">e</text><text xml:space="preserve" font-family="Helvetica-Light" font-size="33.3" fill="#000000" transform="matrix(1.00, 0.00, -0.00, -1.00, 529.5, 425.0)"> </text><text xml:space="preserve" font-family="Helvetica-Light" font-size="25.0" fill="#000000" transform="matrix(1.00, 0.00, -0.00, -1.00, 79.0, 346.4)">•</text><text xml:space="preserve" font-family="Helvetica-Light" font-size="33.3" fill="#000000" transform="matrix(1.00, 0.00, -0.00, -1.00, 111.0, 343.0)">E</text><text xml:space="preserve" font-family="Helvetica-Light" font-size="33.3" fill="#000000" transform="matrix(1.00, 0.00, -0.00, -1.00, 131.4, 343.0)">f</text><text xml:space="preserve" font-family="Helvetica-Light" font-size="33.3" fill="#000000" transform="matrix(1.00, 0.00, -0.00, -1.00, 140.0, 343.0)">ﬁ</text><text xml:space="preserve" font-family="Helvetica-Light" font-size="33.3" fill="#000000" transform="matrix(1.00, 0.00, -0.00, -1.00, 156.7, 343.0)">c</text><text xml:space="preserve" font-family="Helvetica-Light" font-size="33.3" fill="#000000" transform="matrix(1.00, 0.00, -0.00, -1.00, 175.2, 343.0)">i</text><text xml:space="preserve" font-family="Helvetica-Light" font-size="33.3" fill="#000000" transform="matrix(1.00, 0.00, -0.00, -1.00, 182.6, 343.0)">e</text><text xml:space="preserve" font-family="Helvetica-Light" font-size="33.3" fill="#000000" transform="matrix(1.00, 0.00, -0.00, -1.00, 201.1, 343.0)">n</text><text xml:space="preserve" font-family="Helvetica-Light" font-size="33.3" fill="#000000" transform="matrix(1.00, 0.00, -0.00, -1.00, 219.7, 343.0)">t</text><text xml:space="preserve" font-family="Helvetica-Light" font-size="33.3" fill="#000000" transform="matrix(1.00, 0.00, -0.00, -1.00, 228.9, 343.0)"> </text><text xml:space="preserve" font-family="Helvetica-Light" font-size="33.3" fill="#000000" transform="matrix(1.00, 0.00, -0.00, -1.00, 238.2, 343.0)">r</text><text xml:space="preserve" font-family="Helvetica-Light" font-size="33.3" fill="#000000" transform="matrix(1.00, 0.00, -0.00, -1.00, 248.7, 343.0)">e</text><text xml:space="preserve" font-family="Helvetica-Light" font-size="33.3" fill="#000000" transform="matrix(1.00, 0.00, -0.00, -1.00, 267.2, 343.0)">a</text><text xml:space="preserve" font-family="Helvetica-Light" font-size="33.3" fill="#000000" transform="matrix(1.00, 0.00, -0.00, -1.00, 285.7, 343.0)">c</text><text xml:space="preserve" font-family="Helvetica-Light" font-size="33.3" fill="#000000" transform="matrix(1.00, 0.00, -0.00, -1.00, 304.3, 343.0)">t</text><text xml:space="preserve" font-family="Helvetica-Light" font-size="33.3" fill="#000000" transform="matrix(1.00, 0.00, -0.00, -1.00, 313.5, 343.0)"> </text><text xml:space="preserve" font-family="Helvetica-Light" font-size="33.3" fill="#000000" transform="matrix(1.00, 0.00, -0.00, -1.00, 322.8, 343.0)">s</text><text xml:space="preserve" font-family="Helvetica-Light" font-size="33.3" fill="#000000" transform="matrix(1.00, 0.00, -0.00, -1.00, 339.4, 343.0)">u</text><text xml:space="preserve" font-family="Helvetica-Light" font-size="33.3" fill="#000000" transform="matrix(1.00, 0.00, -0.00, -1.00, 358.0, 343.0)">b</text><text xml:space="preserve" font-family="Helvetica-Light" font-size="33.3" fill="#000000" transform="matrix(1.00, 0.00, -0.00, -1.00, 378.3, 343.0)">c</text><text xml:space="preserve" font-family="Helvetica-Light" font-size="33.3" fill="#000000" transform="matrix(1.00, 0.00, -0.00, -1.00, 396.9, 343.0)">o</text><text xml:space="preserve" font-family="Helvetica-Light" font-size="33.3" fill="#000000" transform="matrix(1.00, 0.00, -0.00, -1.00, 415.4, 343.0)">m</text><text xml:space="preserve" font-family="Helvetica-Light" font-size="33.3" fill="#000000" transform="matrix(1.00, 0.00, -0.00, -1.00, 443.1, 343.0)">p</text><text xml:space="preserve" font-family="Helvetica-Light" font-size="33.3" fill="#000000" transform="matrix(1.00, 0.00, -0.00, -1.00, 463.5, 343.0)">o</text><text xml:space="preserve" font-family="Helvetica-Light" font-size="33.3" fill="#000000" transform="matrix(1.00, 0.00, -0.00, -1.00, 482.0, 343.0)">n</text><text xml:space="preserve" font-family="Helvetica-Light" font-size="33.3" fill="#000000" transform="matrix(1.00, 0.00, -0.00, -1.00, 500.5, 343.0)">e</text><text xml:space="preserve" font-family="Helvetica-Light" font-size="33.3" fill="#000000" transform="matrix(1.00, 0.00, -0.00, -1.00, 519.1, 343.0)">n</text><text xml:space="preserve" font-family="Helvetica-Light" font-size="33.3" fill="#000000" transform="matrix(1.00, 0.00, -0.00, -1.00, 537.6, 343.0)">t</text><text xml:space="preserve" font-family="Helvetica-Light" font-size="33.3" fill="#000000" transform="matrix(1.00, 0.00, -0.00, -1.00, 546.9, 343.0)"> </text><text xml:space="preserve" font-family="Helvetica-Light" font-size="33.3" fill="#000000" transform="matrix(1.00, 0.00, -0.00, -1.00, 556.1, 343.0)">r</text><text xml:space="preserve" font-family="Helvetica-Light" font-size="33.3" fill="#000000" transform="matrix(1.00, 0.00, -0.00, -1.00, 566.6, 343.0)">e</text><text xml:space="preserve" font-family="Helvetica-Light" font-size="33.3" fill="#000000" transform="matrix(1.00, 0.00, -0.00, -1.00, 585.1, 343.0)">n</text><text xml:space="preserve" font-family="Helvetica-Light" font-size="33.3" fill="#000000" transform="matrix(1.00, 0.00, -0.00, -1.00, 603.7, 343.0)">d</text><text xml:space="preserve" font-family="Helvetica-Light" font-size="33.3" fill="#000000" transform="matrix(1.00, 0.00, -0.00, -1.00, 624.0, 343.0)">e</text><text xml:space="preserve" font-family="Helvetica-Light" font-size="33.3" fill="#000000" transform="matrix(1.00, 0.00, -0.00, -1.00, 642.6, 343.0)">r</text><text xml:space="preserve" font-family="Helvetica-Light" font-size="33.3" fill="#000000" transform="matrix(1.00, 0.00, -0.00, -1.00, 653.6, 343.0)">i</text><text xml:space="preserve" font-family="Helvetica-Light" font-size="33.3" fill="#000000" transform="matrix(1.00, 0.00, -0.00, -1.00, 661.0, 343.0)">n</text><text xml:space="preserve" font-family="Helvetica-Light" font-size="33.3" fill="#000000" transform="matrix(1.00, 0.00, -0.00, -1.00, 679.6, 343.0)">g</text><text xml:space="preserve" font-family="Helvetica-Light" font-size="33.3" fill="#000000" transform="matrix(1.00, 0.00, -0.00, -1.00, 699.9, 343.0)"> </text><text xml:space="preserve" font-family="Helvetica-Light" font-size="25.0" fill="#000000" transform="matrix(1.00, 0.00, -0.00, -1.00, 79.0, 264.3)">•</text><text xml:space="preserve" font-family="Helvetica-Light" font-size="33.3" fill="#000000" transform="matrix(1.00, 0.00, -0.00, -1.00, 111.0, 261.0)">h</text><text xml:space="preserve" font-family="Helvetica-Light" font-size="33.3" fill="#000000" transform="matrix(1.00, 0.00, -0.00, -1.00, 129.5, 261.0)">t</text><text xml:space="preserve" font-family="Helvetica-Light" font-size="33.3" fill="#000000" transform="matrix(1.00, 0.00, -0.00, -1.00, 138.8, 261.0)">t</text><text xml:space="preserve" font-family="Helvetica-Light" font-size="33.3" fill="#000000" transform="matrix(1.00, 0.00, -0.00, -1.00, 148.1, 261.0)">p</text><text xml:space="preserve" font-family="Helvetica-Light" font-size="33.3" fill="#000000" transform="matrix(1.00, 0.00, -0.00, -1.00, 168.4, 261.0)">s</text><text xml:space="preserve" font-family="Helvetica-Light" font-size="33.3" fill="#000000" transform="matrix(1.00, 0.00, -0.00, -1.00, 185.1, 261.0)">:</text><text xml:space="preserve" font-family="Helvetica-Light" font-size="33.3" fill="#000000" transform="matrix(1.00, 0.00, -0.00, -1.00, 194.3, 261.0)">/</text><text xml:space="preserve" font-family="Helvetica-Light" font-size="33.3" fill="#000000" transform="matrix(1.00, 0.00, -0.00, -1.00, 203.6, 261.0)">/</text><text xml:space="preserve" font-family="Helvetica-Light" font-size="33.3" fill="#000000" transform="matrix(1.00, 0.00, -0.00, -1.00, 212.9, 261.0)">g</text><text xml:space="preserve" font-family="Helvetica-Light" font-size="33.3" fill="#000000" transform="matrix(1.00, 0.00, -0.00, -1.00, 233.2, 261.0)">i</text><text xml:space="preserve" font-family="Helvetica-Light" font-size="33.3" fill="#000000" transform="matrix(1.00, 0.00, -0.00, -1.00, 240.6, 261.0)">t</text><text xml:space="preserve" font-family="Helvetica-Light" font-size="33.3" fill="#000000" transform="matrix(1.00, 0.00, -0.00, -1.00, 249.9, 261.0)">h</text><text xml:space="preserve" font-family="Helvetica-Light" font-size="33.3" fill="#000000" transform="matrix(1.00, 0.00, -0.00, -1.00, 268.4, 261.0)">u</text><text xml:space="preserve" font-family="Helvetica-Light" font-size="33.3" fill="#000000" transform="matrix(1.00, 0.00, -0.00, -1.00, 286.9, 261.0)">b</text><text xml:space="preserve" font-family="Helvetica-Light" font-size="33.3" fill="#000000" transform="matrix(1.00, 0.00, -0.00, -1.00, 307.3, 261.0)">.</text><text xml:space="preserve" font-family="Helvetica-Light" font-size="33.3" fill="#000000" transform="matrix(1.00, 0.00, -0.00, -1.00, 316.6, 261.0)">c</text><text xml:space="preserve" font-family="Helvetica-Light" font-size="33.3" fill="#000000" transform="matrix(1.00, 0.00, -0.00, -1.00, 335.1, 261.0)">o</text><text xml:space="preserve" font-family="Helvetica-Light" font-size="33.3" fill="#000000" transform="matrix(1.00, 0.00, -0.00, -1.00, 353.6, 261.0)">m</text><text xml:space="preserve" font-family="Helvetica-Light" font-size="33.3" fill="#000000" transform="matrix(1.00, 0.00, -0.00, -1.00, 381.4, 261.0)">/</text><text xml:space="preserve" font-family="Helvetica-Light" font-size="33.3" fill="#000000" transform="matrix(1.00, 0.00, -0.00, -1.00, 390.6, 261.0)">l</text><text xml:space="preserve" font-family="Helvetica-Light" font-size="33.3" fill="#000000" transform="matrix(1.00, 0.00, -0.00, -1.00, 398.0, 261.0)">o</text><text xml:space="preserve" font-family="Helvetica-Light" font-size="33.3" fill="#000000" transform="matrix(1.00, 0.00, -0.00, -1.00, 416.5, 261.0)">u</text><text xml:space="preserve" font-family="Helvetica-Light" font-size="33.3" fill="#000000" transform="matrix(1.00, 0.00, -0.00, -1.00, 435.1, 261.0)">i</text><text xml:space="preserve" font-family="Helvetica-Light" font-size="33.3" fill="#000000" transform="matrix(1.00, 0.00, -0.00, -1.00, 442.5, 261.0)">s</text><text xml:space="preserve" font-family="Helvetica-Light" font-size="33.3" fill="#000000" transform="matrix(1.00, 0.00, -0.00, -1.00, 459.1, 261.0)">p</text><text xml:space="preserve" font-family="Helvetica-Light" font-size="33.3" fill="#000000" transform="matrix(1.00, 0.00, -0.00, -1.00, 479.5, 261.0)">a</text><text xml:space="preserve" font-family="Helvetica-Light" font-size="33.3" fill="#000000" transform="matrix(1.00, 0.00, -0.00, -1.00, 498.0, 261.0)">n</text><text xml:space="preserve" font-family="Helvetica-Light" font-size="33.3" fill="#000000" transform="matrix(1.00, 0.00, -0.00, -1.00, 516.5, 261.0)">/</text><text xml:space="preserve" font-family="Helvetica-Light" font-size="33.3" fill="#000000" transform="matrix(1.00, 0.00, -0.00, -1.00, 525.8, 261.0)">g</text><text xml:space="preserve" font-family="Helvetica-Light" font-size="33.3" fill="#000000" transform="matrix(1.00, 0.00, -0.00, -1.00, 546.2, 261.0)">l</text><text xml:space="preserve" font-family="Helvetica-Light" font-size="33.3" fill="#000000" transform="matrix(1.00, 0.00, -0.00, -1.00, 553.6, 261.0)">a</text><text xml:space="preserve" font-family="Helvetica-Light" font-size="33.3" fill="#000000" transform="matrix(1.00, 0.00, -0.00, -1.00, 572.1, 261.0)">z</text><text xml:space="preserve" font-family="Helvetica-Light" font-size="33.3" fill="#000000" transform="matrix(1.00, 0.00, -0.00, -1.00, 588.7, 261.0)">i</text><text xml:space="preserve" font-family="Helvetica-Light" font-size="33.3" fill="#000000" transform="matrix(1.00, 0.00, -0.00, -1.00, 596.1, 261.0)">e</text><text xml:space="preserve" font-family="Helvetica-Light" font-size="33.3" fill="#000000" transform="matrix(1.00, 0.00, -0.00, -1.00, 614.7, 261.0)">r</text><text xml:space="preserve" font-family="Helvetica-Light" font-size="33.3" fill="#000000" transform="matrix(1.00, 0.00, -0.00, -1.00, 623.9, 261.0)">-</text><text xml:space="preserve" font-family="Helvetica-Light" font-size="33.3" fill="#000000" transform="matrix(1.00, 0.00, -0.00, -1.00, 635.0, 261.0)">r</text><text xml:space="preserve" font-family="Helvetica-Light" font-size="33.3" fill="#000000" transform="matrix(1.00, 0.00, -0.00, -1.00, 645.5, 261.0)">e</text><text xml:space="preserve" font-family="Helvetica-Light" font-size="33.3" fill="#000000" transform="matrix(1.00, 0.00, -0.00, -1.00, 664.0, 261.0)">a</text><text xml:space="preserve" font-family="Helvetica-Light" font-size="33.3" fill="#000000" transform="matrix(1.00, 0.00, -0.00, -1.00, 682.6, 261.0)">c</text><text xml:space="preserve" font-family="Helvetica-Light" font-size="33.3" fill="#000000" transform="matrix(1.00, 0.00, -0.00, -1.00, 701.1, 261.0)">t</text><text xml:space="preserve" font-family="Helvetica-Light" font-size="33.3" fill="#000000" transform="matrix(1.00, 0.00, -0.00, -1.00, 710.4, 261.0)"> </text><g><clipPath id="clip-58"><path d="M 110.4 256.4 L 710.8 256.4 L 710.8 260.0 L 110.4 260.0 Z M 110.4 256.4 "></path></clipPath><g clip-path="url(#clip-58)"><path d="M 36.4 304.3 L 635.8 304.3 " fill="none" stroke="#000000" stroke-width="1.67" stroke-miterlimit="0.00" transform="matrix(1.00, 0.00, 0.00, -1.00, 75.0, 562.5)"></path></g></g><text xml:space="preserve" font-family="Helvetica-Light" font-size="25.0" fill="#000000" transform="matrix(1.00, 0.00, -0.00, -1.00, 114.0, 182.1)">•</text><text xml:space="preserve" font-family="Helvetica-Light" font-size="33.3" fill="#000000" transform="matrix(1.00, 0.00, -0.00, -1.00, 146.0, 179.0)">C</text><text xml:space="preserve" font-family="Helvetica-Light" font-size="33.3" fill="#000000" transform="matrix(1.00, 0.00, -0.00, -1.00, 170.1, 179.0)">a</text><text xml:space="preserve" font-family="Helvetica-Light" font-size="33.3" fill="#000000" transform="matrix(1.00, 0.00, -0.00, -1.00, 188.6, 179.0)">v</text><text xml:space="preserve" font-family="Helvetica-Light" font-size="33.3" fill="#000000" transform="matrix(1.00, 0.00, -0.00, -1.00, 205.2, 179.0)">e</text><text xml:space="preserve" font-family="Helvetica-Light" font-size="33.3" fill="#000000" transform="matrix(1.00, 0.00, -0.00, -1.00, 223.8, 179.0)">a</text><text xml:space="preserve" font-family="Helvetica-Light" font-size="33.3" fill="#000000" transform="matrix(1.00, 0.00, -0.00, -1.00, 242.3, 179.0)">t</text><text xml:space="preserve" font-family="Helvetica-Light" font-size="33.3" fill="#000000" transform="matrix(1.00, 0.00, -0.00, -1.00, 251.6, 179.0)">:</text><text xml:space="preserve" font-family="Helvetica-Light" font-size="33.3" fill="#000000" transform="matrix(1.00, 0.00, -0.00, -1.00, 260.8, 179.0)"> </text><text xml:space="preserve" font-family="Helvetica-Light" font-size="33.3" fill="#000000" transform="matrix(1.00, 0.00, -0.00, -1.00, 270.1, 179.0)">A</text><text xml:space="preserve" font-family="Helvetica-Light" font-size="33.3" fill="#000000" transform="matrix(1.00, 0.00, -0.00, -1.00, 292.3, 179.0)">P</text><text xml:space="preserve" font-family="Helvetica-Light" font-size="33.3" fill="#000000" transform="matrix(1.00, 0.00, -0.00, -1.00, 312.7, 179.0)">I</text><text xml:space="preserve" font-family="Helvetica-Light" font-size="33.3" fill="#000000" transform="matrix(1.00, 0.00, -0.00, -1.00, 321.9, 179.0)"> </text><text xml:space="preserve" font-family="Helvetica-Light" font-size="33.3" fill="#000000" transform="matrix(1.00, 0.00, -0.00, -1.00, 331.2, 179.0)">n</text><text xml:space="preserve" font-family="Helvetica-Light" font-size="33.3" fill="#000000" transform="matrix(1.00, 0.00, -0.00, -1.00, 349.7, 179.0)">o</text><text xml:space="preserve" font-family="Helvetica-Light" font-size="33.3" fill="#000000" transform="matrix(1.00, 0.00, -0.00, -1.00, 368.2, 179.0)">t</text><text xml:space="preserve" font-family="Helvetica-Light" font-size="33.3" fill="#000000" transform="matrix(1.00, 0.00, -0.00, -1.00, 377.5, 179.0)"> </text><text xml:space="preserve" font-family="Helvetica-Light" font-size="33.3" fill="#000000" transform="matrix(1.00, 0.00, -0.00, -1.00, 386.8, 179.0)">y</text><text xml:space="preserve" font-family="Helvetica-Light" font-size="33.3" fill="#000000" transform="matrix(1.00, 0.00, -0.00, -1.00, 403.4, 179.0)">e</text><text xml:space="preserve" font-family="Helvetica-Light" font-size="33.3" fill="#000000" transform="matrix(1.00, 0.00, -0.00, -1.00, 422.0, 179.0)">t</text><text xml:space="preserve" font-family="Helvetica-Light" font-size="33.3" fill="#000000" transform="matrix(1.00, 0.00, -0.00, -1.00, 431.2, 179.0)"> </text><text xml:space="preserve" font-family="Helvetica-Light" font-size="33.3" fill="#000000" transform="matrix(1.00, 0.00, -0.00, -1.00, 440.5, 179.0)">s</text><text xml:space="preserve" font-family="Helvetica-Light" font-size="33.3" fill="#000000" transform="matrix(1.00, 0.00, -0.00, -1.00, 457.1, 179.0)">t</text><text xml:space="preserve" font-family="Helvetica-Light" font-size="33.3" fill="#000000" transform="matrix(1.00, 0.00, -0.00, -1.00, 466.4, 179.0)">a</text><text xml:space="preserve" font-family="Helvetica-Light" font-size="33.3" fill="#000000" transform="matrix(1.00, 0.00, -0.00, -1.00, 484.9, 179.0)">b</text><text xml:space="preserve" font-family="Helvetica-Light" font-size="33.3" fill="#000000" transform="matrix(1.00, 0.00, -0.00, -1.00, 505.3, 179.0)">l</text><text xml:space="preserve" font-family="Helvetica-Light" font-size="33.3" fill="#000000" transform="matrix(1.00, 0.00, -0.00, -1.00, 512.7, 179.0)">e</text><text xml:space="preserve" font-family="Helvetica-Light" font-size="33.3" fill="#000000" transform="matrix(1.00, 0.00, -0.00, -1.00, 531.2, 179.0)">!</text><text xml:space="preserve" font-family="Helvetica-Light" font-size="33.3" fill="#000000" transform="matrix(1.00, 0.00, -0.00, -1.00, 542.3, 179.0)"> </text><text xml:space="preserve" font-family="Helvetica-Light" font-size="25.0" fill="#000000" transform="matrix(1.00, 0.00, -0.00, -1.00, 79.0, 99.9)">•</text><text xml:space="preserve" font-family="Helvetica-Light" font-size="33.3" fill="#000000" transform="matrix(1.00, 0.00, -0.00, -1.00, 111.0, 96.0)">U</text><text xml:space="preserve" font-family="Helvetica-Light" font-size="33.3" fill="#000000" transform="matrix(1.00, 0.00, -0.00, -1.00, 135.1, 96.0)">p</text><text xml:space="preserve" font-family="Helvetica-Light" font-size="33.3" fill="#000000" transform="matrix(1.00, 0.00, -0.00, -1.00, 155.4, 96.0)">d</text><text xml:space="preserve" font-family="Helvetica-Light" font-size="33.3" fill="#000000" transform="matrix(1.00, 0.00, -0.00, -1.00, 175.8, 96.0)">a</text><text xml:space="preserve" font-family="Helvetica-Light" font-size="33.3" fill="#000000" transform="matrix(1.00, 0.00, -0.00, -1.00, 194.3, 96.0)">t</text><text xml:space="preserve" font-family="Helvetica-Light" font-size="33.3" fill="#000000" transform="matrix(1.00, 0.00, -0.00, -1.00, 203.6, 96.0)">e</text><text xml:space="preserve" font-family="Helvetica-Light" font-size="33.3" fill="#000000" transform="matrix(1.00, 0.00, -0.00, -1.00, 222.1, 96.0)">:</text><text xml:space="preserve" font-family="Helvetica-Light" font-size="33.3" fill="#000000" transform="matrix(1.00, 0.00, -0.00, -1.00, 231.4, 96.0)"> </text><text xml:space="preserve" font-family="Helvetica-Light" font-size="33.3" fill="#000000" transform="matrix(1.00, 0.00, -0.00, -1.00, 240.6, 96.0)">A</text><text xml:space="preserve" font-family="Helvetica-Light" font-size="33.3" fill="#000000" transform="matrix(1.00, 0.00, -0.00, -1.00, 262.8, 96.0)">b</text><text xml:space="preserve" font-family="Helvetica-Light" font-size="33.3" fill="#000000" transform="matrix(1.00, 0.00, -0.00, -1.00, 283.2, 96.0)">o</text><text xml:space="preserve" font-family="Helvetica-Light" font-size="33.3" fill="#000000" transform="matrix(1.00, 0.00, -0.00, -1.00, 301.7, 96.0)">v</text><text xml:space="preserve" font-family="Helvetica-Light" font-size="33.3" fill="#000000" transform="matrix(1.00, 0.00, -0.00, -1.00, 318.4, 96.0)">e</text><text xml:space="preserve" font-family="Helvetica-Light" font-size="33.3" fill="#000000" transform="matrix(1.00, 0.00, -0.00, -1.00, 336.9, 96.0)"> </text><text xml:space="preserve" font-family="Helvetica-Light" font-size="33.3" fill="#000000" transform="matrix(1.00, 0.00, -0.00, -1.00, 346.2, 96.0)">g</text><text xml:space="preserve" font-family="Helvetica-Light" font-size="33.3" fill="#000000" transform="matrix(1.00, 0.00, -0.00, -1.00, 366.5, 96.0)">o</text><text xml:space="preserve" font-family="Helvetica-Light" font-size="33.3" fill="#000000" transform="matrix(1.00, 0.00, -0.00, -1.00, 385.1, 96.0)">a</text><text xml:space="preserve" font-family="Helvetica-Light" font-size="33.3" fill="#000000" transform="matrix(1.00, 0.00, -0.00, -1.00, 403.6, 96.0)">l</text><text xml:space="preserve" font-family="Helvetica-Light" font-size="33.3" fill="#000000" transform="matrix(1.00, 0.00, -0.00, -1.00, 411.0, 96.0)">s</text><text xml:space="preserve" font-family="Helvetica-Light" font-size="33.3" fill="#000000" transform="matrix(1.00, 0.00, -0.00, -1.00, 427.6, 96.0)"> </text><text xml:space="preserve" font-family="Helvetica-Light" font-size="33.3" fill="#000000" transform="matrix(1.00, 0.00, -0.00, -1.00, 436.9, 96.0)">c</text><text xml:space="preserve" font-family="Helvetica-Light" font-size="33.3" fill="#000000" transform="matrix(1.00, 0.00, -0.00, -1.00, 455.4, 96.0)">o</text><text xml:space="preserve" font-family="Helvetica-Light" font-size="33.3" fill="#000000" transform="matrix(1.00, 0.00, -0.00, -1.00, 474.0, 96.0)">m</text><text xml:space="preserve" font-family="Helvetica-Light" font-size="33.3" fill="#000000" transform="matrix(1.00, 0.00, -0.00, -1.00, 501.7, 96.0)">p</text><text xml:space="preserve" font-family="Helvetica-Light" font-size="33.3" fill="#000000" transform="matrix(1.00, 0.00, -0.00, -1.00, 522.1, 96.0)">l</text><text xml:space="preserve" font-family="Helvetica-Light" font-size="33.3" fill="#000000" transform="matrix(1.00, 0.00, -0.00, -1.00, 529.5, 96.0)">e</text><text xml:space="preserve" font-family="Helvetica-Light" font-size="33.3" fill="#000000" transform="matrix(1.00, 0.00, -0.00, -1.00, 548.0, 96.0)">t</text><text xml:space="preserve" font-family="Helvetica-Light" font-size="33.3" fill="#000000" transform="matrix(1.00, 0.00, -0.00, -1.00, 557.3, 96.0)">e</text><text xml:space="preserve" font-family="Helvetica-Light" font-size="33.3" fill="#000000" transform="matrix(1.00, 0.00, -0.00, -1.00, 575.8, 96.0)">d</text><text xml:space="preserve" font-family="Helvetica-Light" font-size="33.3" fill="#000000" transform="matrix(1.00, 0.00, -0.00, -1.00, 596.1, 96.0)"> </text><text xml:space="preserve" font-family="Helvetica-Light" font-size="33.3" fill="#000000" transform="matrix(1.00, 0.00, -0.00, -1.00, 605.4, 96.0)">a</text><text xml:space="preserve" font-family="Helvetica-Light" font-size="33.3" fill="#000000" transform="matrix(1.00, 0.00, -0.00, -1.00, 623.9, 96.0)">s</text><text xml:space="preserve" font-family="Helvetica-Light" font-size="33.3" fill="#000000" transform="matrix(1.00, 0.00, -0.00, -1.00, 640.6, 96.0)"> </text><text xml:space="preserve" font-family="Helvetica-Light" font-size="33.3" fill="#000000" transform="matrix(1.00, 0.00, -0.00, -1.00, 649.9, 96.0)">o</text><text xml:space="preserve" font-family="Helvetica-Light" font-size="33.3" fill="#000000" transform="matrix(1.00, 0.00, -0.00, -1.00, 668.4, 96.0)">f</text><text xml:space="preserve" font-family="Helvetica-Light" font-size="33.3" fill="#000000" transform="matrix(1.00, 0.00, -0.00, -1.00, 677.6, 96.0)"> </text><text xml:space="preserve" font-family="Helvetica-Light" font-size="33.3" fill="#000000" transform="matrix(1.00, 0.00, -0.00, -1.00, 686.9, 96.0)">1</text><text xml:space="preserve" font-family="Helvetica-Light" font-size="33.3" fill="#000000" transform="matrix(1.00, 0.00, -0.00, -1.00, 705.4, 96.0)">4</text><text xml:space="preserve" font-family="Helvetica-Light" font-size="33.3" fill="#000000" transform="matrix(1.00, 0.00, -0.00, -1.00, 724.0, 96.0)">t</text><text xml:space="preserve" font-family="Helvetica-Light" font-size="33.3" fill="#000000" transform="matrix(1.00, 0.00, -0.00, -1.00, 733.2, 96.0)">h</text><text xml:space="preserve" font-family="Helvetica-Light" font-size="33.3" fill="#000000" transform="matrix(1.00, 0.00, -0.00, -1.00, 751.7, 96.0)"> </text><text xml:space="preserve" font-family="Helvetica-Light" font-size="33.3" fill="#000000" transform="matrix(1.00, 0.00, -0.00, -1.00, 761.0, 96.0)">M</text><text xml:space="preserve" font-family="Helvetica-Light" font-size="33.3" fill="#000000" transform="matrix(1.00, 0.00, -0.00, -1.00, 788.8, 96.0)">a</text><text xml:space="preserve" font-family="Helvetica-Light" font-size="33.3" fill="#000000" transform="matrix(1.00, 0.00, -0.00, -1.00, 807.3, 96.0)">r</text><text xml:space="preserve" font-family="Helvetica-Light" font-size="33.3" fill="#000000" transform="matrix(1.00, 0.00, -0.00, -1.00, 817.8, 96.0)">c</text><text xml:space="preserve" font-family="Helvetica-Light" font-size="33.3" fill="#000000" transform="matrix(1.00, 0.00, -0.00, -1.00, 836.3, 96.0)">h</text><text xml:space="preserve" font-family="Helvetica-Light" font-size="33.3" fill="#000000" transform="matrix(1.00, 0.00, -0.00, -1.00, 854.8, 96.0)"> </text><text xml:space="preserve" font-family="Helvetica-Light" font-size="33.3" fill="#000000" transform="matrix(1.00, 0.00, -0.00, -1.00, 864.1, 96.0)">2</text><text xml:space="preserve" font-family="Helvetica-Light" font-size="33.3" fill="#000000" transform="matrix(1.00, 0.00, -0.00, -1.00, 882.6, 96.0)">0</text><text xml:space="preserve" font-family="Helvetica-Light" font-size="33.3" fill="#000000" transform="matrix(1.00, 0.00, -0.00, -1.00, 901.2, 96.0)">1</text><text xml:space="preserve" font-family="Helvetica-Light" font-size="33.3" fill="#000000" transform="matrix(1.00, 0.00, -0.00, -1.00, 919.7, 96.0)">7</text><text xml:space="preserve" font-family="Helvetica-Light" font-size="18.0" fill="#000000" transform="matrix(1.00, 0.00, -0.00, -1.00, 501.0, 18.0)">3</text><text xml:space="preserve" font-family="Helvetica-Light" font-size="18.0" fill="#000000" transform="matrix(1.00, 0.00, -0.00, -1.00, 511.0, 18.0)">0</text></g></svg>