<?xml version="1.0" encoding="UTF-8" standalone="no"?><svg xmlns="http://www.w3.org/2000/svg" xmlns:xlink="http://www.w3.org/1999/xlink" clip-rule="evenodd" stroke-miterlimit="4.00" viewBox="0 0 449 25"><desc>SVG generated by Keynote</desc><defs></defs><g transform="matrix(1.00, 0.00, -0.00, -1.00, 0.0, 25.0)"><text xml:space="preserve" font-family="Helvetica-Light" font-size="19.9" fill="#000000" transform="matrix(1.00, 0.00, -0.00, -1.00, 0.0, 6.0)">•</text><text xml:space="preserve" font-family="Helvetica-Light" font-size="26.5" fill="#000000" transform="matrix(1.00, 0.00, -0.00, -1.00, 26.0, 4.0)">P</text><text xml:space="preserve" font-family="Helvetica-Light" font-size="26.5" fill="#000000" transform="matrix(1.00, 0.00, -0.00, -1.00, 42.2, 4.0)">o</text><text xml:space="preserve" font-family="Helvetica-Light" font-size="26.5" fill="#000000" transform="matrix(1.00, 0.00, -0.00, -1.00, 56.9, 4.0)">s</text><text xml:space="preserve" font-family="Helvetica-Light" font-size="26.5" fill="#000000" transform="matrix(1.00, 0.00, -0.00, -1.00, 70.2, 4.0)">s</text><text xml:space="preserve" font-family="Helvetica-Light" font-size="26.5" fill="#000000" transform="matrix(1.00, 0.00, -0.00, -1.00, 83.5, 4.0)">i</text><text xml:space="preserve" font-family="Helvetica-Light" font-size="26.5" fill="#000000" transform="matrix(1.00, 0.00, -0.00, -1.00, 89.4, 4.0)">b</text><text xml:space="preserve" font-family="Helvetica-Light" font-size="26.5" fill="#000000" transform="matrix(1.00, 0.00, -0.00, -1.00, 105.6, 4.0)">l</text><text xml:space="preserve" font-family="Helvetica-Light" font-size="26.5" fill="#000000" transform="matrix(1.00, 0.00, -0.00, -1.00, 111.4, 4.0)">e</text><text xml:space="preserve" font-family="Helvetica-Light" font-size="26.5" fill="#000000" transform="matrix(1.00, 0.00, -0.00, -1.00, 126.2, 4.0)"> </text><text xml:space="preserve" font-family="Helvetica-Light" font-size="26.5" fill="#000000" transform="matrix(1.00, 0.00, -0.00, -1.00, 133.6, 4.0)">t</text><text xml:space="preserve" font-family="Helvetica-Light" font-size="26.5" fill="#000000" transform="matrix(1.00, 0.00, -0.00, -1.00, 140.9, 4.0)">o</text><text xml:space="preserve" font-family="Helvetica-Light" font-size="26.5" fill="#000000" transform="matrix(1.00, 0.00, -0.00, -1.00, 155.7, 4.0)"> </text><text xml:space="preserve" font-family="Helvetica-Light" font-size="26.5" fill="#000000" transform="matrix(1.00, 0.00, -0.00, -1.00, 163.1, 4.0)">s</text><text xml:space="preserve" font-family="Helvetica-Light" font-size="26.5" fill="#000000" transform="matrix(1.00, 0.00, -0.00, -1.00, 176.3, 4.0)">h</text><text xml:space="preserve" font-family="Helvetica-Light" font-size="26.5" fill="#000000" transform="matrix(1.00, 0.00, -0.00, -1.00, 191.1, 4.0)">a</text><text xml:space="preserve" font-family="Helvetica-Light" font-size="26.5" fill="#000000" transform="matrix(1.00, 0.00, -0.00, -1.00, 205.8, 4.0)">r</text><text xml:space="preserve" font-family="Helvetica-Light" font-size="26.5" fill="#000000" transform="matrix(1.00, 0.00, -0.00, -1.00, 214.2, 4.0)">e</text><text xml:space="preserve" font-family="Helvetica-Light" font-size="26.5" fill="#000000" transform="matrix(1.00, 0.00, -0.00, -1.00, 228.9, 4.0)"> </text><text xml:space="preserve" font-family="Helvetica-Light" font-size="26.5" fill="#000000" transform="matrix(1.00, 0.00, -0.00, -1.00, 236.3, 4.0)">c</text><text xml:space="preserve" font-family="Helvetica-Light" font-size="26.5" fill="#000000" transform="matrix(1.00, 0.00, -0.00, -1.00, 251.0, 4.0)">l</text><text xml:space="preserve" font-family="Helvetica-Light" font-size="26.5" fill="#000000" transform="matrix(1.00, 0.00, -0.00, -1.00, 256.9, 4.0)">i</text><text xml:space="preserve" font-family="Helvetica-Light" font-size="26.5" fill="#000000" transform="matrix(1.00, 0.00, -0.00, -1.00, 262.8, 4.0)">e</text><text xml:space="preserve" font-family="Helvetica-Light" font-size="26.5" fill="#000000" transform="matrix(1.00, 0.00, -0.00, -1.00, 277.5, 4.0)">n</text><text xml:space="preserve" font-family="Helvetica-Light" font-size="26.5" fill="#000000" transform="matrix(1.00, 0.00, -0.00, -1.00, 292.3, 4.0)">t</text><text xml:space="preserve" font-family="Helvetica-Light" font-size="26.5" fill="#000000" transform="matrix(1.00, 0.00, -0.00, -1.00, 299.7, 4.0)">/</text><text xml:space="preserve" font-family="Helvetica-Light" font-size="26.5" fill="#000000" transform="matrix(1.00, 0.00, -0.00, -1.00, 307.0, 4.0)">s</text><text xml:space="preserve" font-family="Helvetica-Light" font-size="26.5" fill="#000000" transform="matrix(1.00, 0.00, -0.00, -1.00, 320.3, 4.0)">e</text><text xml:space="preserve" font-family="Helvetica-Light" font-size="26.5" fill="#000000" transform="matrix(1.00, 0.00, -0.00, -1.00, 335.0, 4.0)">r</text><text xml:space="preserve" font-family="Helvetica-Light" font-size="26.5" fill="#000000" transform="matrix(1.00, 0.00, -0.00, -1.00, 343.9, 4.0)">v</text><text xml:space="preserve" font-family="Helvetica-Light" font-size="26.5" fill="#000000" transform="matrix(1.00, 0.00, -0.00, -1.00, 357.1, 4.0)">e</text><text xml:space="preserve" font-family="Helvetica-Light" font-size="26.5" fill="#000000" transform="matrix(1.00, 0.00, -0.00, -1.00, 371.9, 4.0)">r</text><text xml:space="preserve" font-family="Helvetica-Light" font-size="26.5" fill="#000000" transform="matrix(1.00, 0.00, -0.00, -1.00, 380.7, 4.0)"> </text><text xml:space="preserve" font-family="Helvetica-Light" font-size="26.5" fill="#000000" transform="matrix(1.00, 0.00, -0.00, -1.00, 388.1, 4.0)">c</text><text xml:space="preserve" font-family="Helvetica-Light" font-size="26.5" fill="#000000" transform="matrix(1.00, 0.00, -0.00, -1.00, 402.8, 4.0)">o</text><text xml:space="preserve" font-family="Helvetica-Light" font-size="26.5" fill="#000000" transform="matrix(1.00, 0.00, -0.00, -1.00, 417.6, 4.0)">d</text><text xml:space="preserve" font-family="Helvetica-Light" font-size="26.5" fill="#000000" transform="matrix(1.00, 0.00, -0.00, -1.00, 433.8, 4.0)">e</text></g></svg>