<?xml version="1.0" encoding="UTF-8" standalone="no"?><svg xmlns="http://www.w3.org/2000/svg" xmlns:xlink="http://www.w3.org/1999/xlink" clip-rule="evenodd" stroke-miterlimit="4.00" viewBox="0 0 845 256"><desc>SVG generated by Keynote</desc><defs></defs><g transform="matrix(1.00, 0.00, -0.00, -1.00, 0.0, 256.0)"><text xml:space="preserve" font-family="Helvetica-Light" font-size="25.5" fill="#000000" transform="matrix(1.00, 0.00, -0.00, -1.00, 0.0, 232.4)">•</text><text xml:space="preserve" font-family="Helvetica-Light" font-size="34.0" fill="#000000" transform="matrix(1.00, 0.00, -0.00, -1.00, 33.0, 229.0)">A</text><text xml:space="preserve" font-family="Helvetica-Light" font-size="34.0" fill="#000000" transform="matrix(1.00, 0.00, -0.00, -1.00, 55.7, 229.0)">p</text><text xml:space="preserve" font-family="Helvetica-Light" font-size="34.0" fill="#000000" transform="matrix(1.00, 0.00, -0.00, -1.00, 76.5, 229.0)">p</text><text xml:space="preserve" font-family="Helvetica-Light" font-size="34.0" fill="#000000" transform="matrix(1.00, 0.00, -0.00, -1.00, 97.2, 229.0)">l</text><text xml:space="preserve" font-family="Helvetica-Light" font-size="34.0" fill="#000000" transform="matrix(1.00, 0.00, -0.00, -1.00, 104.8, 229.0)">i</text><text xml:space="preserve" font-family="Helvetica-Light" font-size="34.0" fill="#000000" transform="matrix(1.00, 0.00, -0.00, -1.00, 112.3, 229.0)">c</text><text xml:space="preserve" font-family="Helvetica-Light" font-size="34.0" fill="#000000" transform="matrix(1.00, 0.00, -0.00, -1.00, 131.2, 229.0)">a</text><text xml:space="preserve" font-family="Helvetica-Light" font-size="34.0" fill="#000000" transform="matrix(1.00, 0.00, -0.00, -1.00, 150.1, 229.0)">t</text><text xml:space="preserve" font-family="Helvetica-Light" font-size="34.0" fill="#000000" transform="matrix(1.00, 0.00, -0.00, -1.00, 159.6, 229.0)">i</text><text xml:space="preserve" font-family="Helvetica-Light" font-size="34.0" fill="#000000" transform="matrix(1.00, 0.00, -0.00, -1.00, 167.1, 229.0)">v</text><text xml:space="preserve" font-family="Helvetica-Light" font-size="34.0" fill="#000000" transform="matrix(1.00, 0.00, -0.00, -1.00, 184.1, 229.0)">e</text><text xml:space="preserve" font-family="Helvetica-Light" font-size="34.0" fill="#000000" transform="matrix(1.00, 0.00, -0.00, -1.00, 203.0, 229.0)">/</text><text xml:space="preserve" font-family="Helvetica-Light" font-size="34.0" fill="#000000" transform="matrix(1.00, 0.00, -0.00, -1.00, 212.5, 229.0)">M</text><text xml:space="preserve" font-family="Helvetica-Light" font-size="34.0" fill="#000000" transform="matrix(1.00, 0.00, -0.00, -1.00, 240.8, 229.0)">o</text><text xml:space="preserve" font-family="Helvetica-Light" font-size="34.0" fill="#000000" transform="matrix(1.00, 0.00, -0.00, -1.00, 259.7, 229.0)">n</text><text xml:space="preserve" font-family="Helvetica-Light" font-size="34.0" fill="#000000" transform="matrix(1.00, 0.00, -0.00, -1.00, 278.6, 229.0)">a</text><text xml:space="preserve" font-family="Helvetica-Light" font-size="34.0" fill="#000000" transform="matrix(1.00, 0.00, -0.00, -1.00, 297.5, 229.0)">d</text><text xml:space="preserve" font-family="Helvetica-Light" font-size="34.0" fill="#000000" transform="matrix(1.00, 0.00, -0.00, -1.00, 318.3, 229.0)"> </text><text xml:space="preserve" font-family="Monaco" font-size="30.0" fill="#000000" transform="matrix(1.00, 0.00, -0.00, -1.00, 36.0, 176.0)">b</text><text xml:space="preserve" font-family="Monaco" font-size="30.0" fill="#000000" transform="matrix(1.00, 0.00, -0.00, -1.00, 54.0, 176.0)">h</text><text xml:space="preserve" font-family="Monaco" font-size="30.0" fill="#000000" transform="matrix(1.00, 0.00, -0.00, -1.00, 72.0, 176.0)"> </text><text xml:space="preserve" font-family="Monaco" font-size="30.0" fill="#000000" transform="matrix(1.00, 0.00, -0.00, -1.00, 90.0, 176.0)">“</text><text xml:space="preserve" font-family="Monaco" font-size="30.0" fill="#000000" transform="matrix(1.00, 0.00, -0.00, -1.00, 108.0, 176.0)">d</text><text xml:space="preserve" font-family="Monaco" font-size="30.0" fill="#000000" transform="matrix(1.00, 0.00, -0.00, -1.00, 126.0, 176.0)">i</text><text xml:space="preserve" font-family="Monaco" font-size="30.0" fill="#000000" transform="matrix(1.00, 0.00, -0.00, -1.00, 144.0, 176.0)">v</text><text xml:space="preserve" font-family="Monaco" font-size="30.0" fill="#000000" transform="matrix(1.00, 0.00, -0.00, -1.00, 162.0, 176.0)">”</text><text xml:space="preserve" font-family="Monaco" font-size="30.0" fill="#000000" transform="matrix(1.00, 0.00, -0.00, -1.00, 180.0, 176.0)"> </text><text xml:space="preserve" font-family="Monaco" font-size="30.0" fill="#000000" transform="matrix(1.00, 0.00, -0.00, -1.00, 198.1, 176.0)">[</text><text xml:space="preserve" font-family="Monaco" font-size="30.0" fill="#000000" transform="matrix(1.00, 0.00, -0.00, -1.00, 216.1, 176.0)">]</text><text xml:space="preserve" font-family="Monaco" font-size="30.0" fill="#000000" transform="matrix(1.00, 0.00, -0.00, -1.00, 234.1, 176.0)"> </text><text xml:space="preserve" font-family="Monaco" font-size="30.0" fill="#000000" transform="matrix(1.00, 0.00, -0.00, -1.00, 252.1, 176.0)">$</text><text xml:space="preserve" font-family="Monaco" font-size="30.0" fill="#000000" transform="matrix(1.00, 0.00, -0.00, -1.00, 270.1, 176.0)"> </text><text xml:space="preserve" font-family="Monaco" font-size="30.0" fill="#000000" transform="matrix(1.00, 0.00, -0.00, -1.00, 288.1, 176.0)">d</text><text xml:space="preserve" font-family="Monaco" font-size="30.0" fill="#000000" transform="matrix(1.00, 0.00, -0.00, -1.00, 306.1, 176.0)">o</text><text xml:space="preserve" font-family="Monaco" font-size="30.0" fill="#000000" transform="matrix(1.00, 0.00, -0.00, -1.00, 36.0, 120.0)"> </text><text xml:space="preserve" font-family="Monaco" font-size="30.0" fill="#000000" transform="matrix(1.00, 0.00, -0.00, -1.00, 54.0, 120.0)"> </text><text xml:space="preserve" font-family="Monaco" font-size="30.0" fill="#000000" transform="matrix(1.00, 0.00, -0.00, -1.00, 72.0, 120.0)"> </text><text xml:space="preserve" font-family="Monaco" font-size="30.0" fill="#000000" transform="matrix(1.00, 0.00, -0.00, -1.00, 90.0, 120.0)">b</text><text xml:space="preserve" font-family="Monaco" font-size="30.0" fill="#000000" transform="matrix(1.00, 0.00, -0.00, -1.00, 108.0, 120.0)">h</text><text xml:space="preserve" font-family="Monaco" font-size="30.0" fill="#000000" transform="matrix(1.00, 0.00, -0.00, -1.00, 126.0, 120.0)"> </text><text xml:space="preserve" font-family="Monaco" font-size="30.0" fill="#000000" transform="matrix(1.00, 0.00, -0.00, -1.00, 144.0, 120.0)">“</text><text xml:space="preserve" font-family="Monaco" font-size="30.0" fill="#000000" transform="matrix(1.00, 0.00, -0.00, -1.00, 162.0, 120.0)">l</text><text xml:space="preserve" font-family="Monaco" font-size="30.0" fill="#000000" transform="matrix(1.00, 0.00, -0.00, -1.00, 180.0, 120.0)">a</text><text xml:space="preserve" font-family="Monaco" font-size="30.0" fill="#000000" transform="matrix(1.00, 0.00, -0.00, -1.00, 198.1, 120.0)">b</text><text xml:space="preserve" font-family="Monaco" font-size="30.0" fill="#000000" transform="matrix(1.00, 0.00, -0.00, -1.00, 216.1, 120.0)">e</text><text xml:space="preserve" font-family="Monaco" font-size="30.0" fill="#000000" transform="matrix(1.00, 0.00, -0.00, -1.00, 234.1, 120.0)">l</text><text xml:space="preserve" font-family="Monaco" font-size="30.0" fill="#000000" transform="matrix(1.00, 0.00, -0.00, -1.00, 252.1, 120.0)">”</text><text xml:space="preserve" font-family="Monaco" font-size="30.0" fill="#000000" transform="matrix(1.00, 0.00, -0.00, -1.00, 270.1, 120.0)"> </text><text xml:space="preserve" font-family="Monaco" font-size="30.0" fill="#000000" transform="matrix(1.00, 0.00, -0.00, -1.00, 288.1, 120.0)">[</text><text xml:space="preserve" font-family="Monaco" font-size="30.0" fill="#000000" transform="matrix(1.00, 0.00, -0.00, -1.00, 306.1, 120.0)">]</text><text xml:space="preserve" font-family="Monaco" font-size="30.0" fill="#000000" transform="matrix(1.00, 0.00, -0.00, -1.00, 324.1, 120.0)"> </text><text xml:space="preserve" font-family="Monaco" font-size="30.0" fill="#000000" transform="matrix(1.00, 0.00, -0.00, -1.00, 342.1, 120.0)">“</text><text xml:space="preserve" font-family="Monaco" font-size="30.0" fill="#000000" transform="matrix(1.00, 0.00, -0.00, -1.00, 360.1, 120.0)">h</text><text xml:space="preserve" font-family="Monaco" font-size="30.0" fill="#000000" transform="matrix(1.00, 0.00, -0.00, -1.00, 378.1, 120.0)">e</text><text xml:space="preserve" font-family="Monaco" font-size="30.0" fill="#000000" transform="matrix(1.00, 0.00, -0.00, -1.00, 396.1, 120.0)">l</text><text xml:space="preserve" font-family="Monaco" font-size="30.0" fill="#000000" transform="matrix(1.00, 0.00, -0.00, -1.00, 414.1, 120.0)">l</text><text xml:space="preserve" font-family="Monaco" font-size="30.0" fill="#000000" transform="matrix(1.00, 0.00, -0.00, -1.00, 432.1, 120.0)">o</text><text xml:space="preserve" font-family="Monaco" font-size="30.0" fill="#000000" transform="matrix(1.00, 0.00, -0.00, -1.00, 450.1, 120.0)">”</text><text xml:space="preserve" font-family="Monaco" font-size="30.0" fill="#000000" transform="matrix(1.00, 0.00, -0.00, -1.00, 36.0, 64.0)"> </text><text xml:space="preserve" font-family="Monaco" font-size="30.0" fill="#000000" transform="matrix(1.00, 0.00, -0.00, -1.00, 54.0, 64.0)"> </text><text xml:space="preserve" font-family="Monaco" font-size="30.0" fill="#000000" transform="matrix(1.00, 0.00, -0.00, -1.00, 72.0, 64.0)"> </text><text xml:space="preserve" font-family="Monaco" font-size="30.0" fill="#000000" transform="matrix(1.00, 0.00, -0.00, -1.00, 90.0, 64.0)">l</text><text xml:space="preserve" font-family="Monaco" font-size="30.0" fill="#000000" transform="matrix(1.00, 0.00, -0.00, -1.00, 108.0, 64.0)">f</text><text xml:space="preserve" font-family="Monaco" font-size="30.0" fill="#000000" transform="matrix(1.00, 0.00, -0.00, -1.00, 126.0, 64.0)"> </text><text xml:space="preserve" font-family="Monaco" font-size="30.0" fill="#000000" transform="matrix(1.00, 0.00, -0.00, -1.00, 144.0, 64.0)">“</text><text xml:space="preserve" font-family="Monaco" font-size="30.0" fill="#000000" transform="matrix(1.00, 0.00, -0.00, -1.00, 162.0, 64.0)">i</text><text xml:space="preserve" font-family="Monaco" font-size="30.0" fill="#000000" transform="matrix(1.00, 0.00, -0.00, -1.00, 180.0, 64.0)">n</text><text xml:space="preserve" font-family="Monaco" font-size="30.0" fill="#000000" transform="matrix(1.00, 0.00, -0.00, -1.00, 198.1, 64.0)">p</text><text xml:space="preserve" font-family="Monaco" font-size="30.0" fill="#000000" transform="matrix(1.00, 0.00, -0.00, -1.00, 216.1, 64.0)">u</text><text xml:space="preserve" font-family="Monaco" font-size="30.0" fill="#000000" transform="matrix(1.00, 0.00, -0.00, -1.00, 234.1, 64.0)">t</text><text xml:space="preserve" font-family="Monaco" font-size="30.0" fill="#000000" transform="matrix(1.00, 0.00, -0.00, -1.00, 252.1, 64.0)">”</text><text xml:space="preserve" font-family="Monaco" font-size="30.0" fill="#000000" transform="matrix(1.00, 0.00, -0.00, -1.00, 270.1, 64.0)"> </text><text xml:space="preserve" font-family="Monaco" font-size="30.0" fill="#000000" transform="matrix(1.00, 0.00, -0.00, -1.00, 288.1, 64.0)">[</text><text xml:space="preserve" font-family="Monaco" font-size="30.0" fill="#000000" transform="matrix(1.00, 0.00, -0.00, -1.00, 306.1, 64.0)">…</text><text xml:space="preserve" font-family="Monaco" font-size="30.0" fill="#000000" transform="matrix(1.00, 0.00, -0.00, -1.00, 324.1, 64.0)">]</text><text xml:space="preserve" font-family="Monaco" font-size="30.0" fill="#000000" transform="matrix(1.00, 0.00, -0.00, -1.00, 36.0, 8.0)"> </text><text xml:space="preserve" font-family="Monaco" font-size="30.0" fill="#000000" transform="matrix(1.00, 0.00, -0.00, -1.00, 54.0, 8.0)"> </text><text xml:space="preserve" font-family="Monaco" font-size="30.0" fill="#000000" transform="matrix(1.00, 0.00, -0.00, -1.00, 72.0, 8.0)"> </text><text xml:space="preserve" font-family="Monaco" font-size="30.0" fill="#000000" transform="matrix(1.00, 0.00, -0.00, -1.00, 90.0, 8.0)">t</text><text xml:space="preserve" font-family="Monaco" font-size="30.0" fill="#000000" transform="matrix(1.00, 0.00, -0.00, -1.00, 108.0, 8.0)">r</text><text xml:space="preserve" font-family="Monaco" font-size="30.0" fill="#000000" transform="matrix(1.00, 0.00, -0.00, -1.00, 126.0, 8.0)">a</text><text xml:space="preserve" font-family="Monaco" font-size="30.0" fill="#000000" transform="matrix(1.00, 0.00, -0.00, -1.00, 144.0, 8.0)">v</text><text xml:space="preserve" font-family="Monaco" font-size="30.0" fill="#000000" transform="matrix(1.00, 0.00, -0.00, -1.00, 162.0, 8.0)">e</text><text xml:space="preserve" font-family="Monaco" font-size="30.0" fill="#000000" transform="matrix(1.00, 0.00, -0.00, -1.00, 180.0, 8.0)">r</text><text xml:space="preserve" font-family="Monaco" font-size="30.0" fill="#000000" transform="matrix(1.00, 0.00, -0.00, -1.00, 198.1, 8.0)">s</text><text xml:space="preserve" font-family="Monaco" font-size="30.0" fill="#000000" transform="matrix(1.00, 0.00, -0.00, -1.00, 216.1, 8.0)">e</text><text xml:space="preserve" font-family="Monaco" font-size="30.0" fill="#000000" transform="matrix(1.00, 0.00, -0.00, -1.00, 234.1, 8.0)">_</text><text xml:space="preserve" font-family="Monaco" font-size="30.0" fill="#000000" transform="matrix(1.00, 0.00, -0.00, -1.00, 252.1, 8.0)"> </text><text xml:space="preserve" font-family="Monaco" font-size="30.0" fill="#000000" transform="matrix(1.00, 0.00, -0.00, -1.00, 270.1, 8.0)">(</text><text xml:space="preserve" font-family="Monaco" font-size="30.0" fill="#000000" transform="matrix(1.00, 0.00, -0.00, -1.00, 288.1, 8.0)">v</text><text xml:space="preserve" font-family="Monaco" font-size="30.0" fill="#000000" transform="matrix(1.00, 0.00, -0.00, -1.00, 306.1, 8.0)">i</text><text xml:space="preserve" font-family="Monaco" font-size="30.0" fill="#000000" transform="matrix(1.00, 0.00, -0.00, -1.00, 324.1, 8.0)">e</text><text xml:space="preserve" font-family="Monaco" font-size="30.0" fill="#000000" transform="matrix(1.00, 0.00, -0.00, -1.00, 342.1, 8.0)">w</text><text xml:space="preserve" font-family="Monaco" font-size="30.0" fill="#000000" transform="matrix(1.00, 0.00, -0.00, -1.00, 360.1, 8.0)"> </text><text xml:space="preserve" font-family="Monaco" font-size="30.0" fill="#000000" transform="matrix(1.00, 0.00, -0.00, -1.00, 378.1, 8.0)">_</text><text xml:space="preserve" font-family="Monaco" font-size="30.0" fill="#000000" transform="matrix(1.00, 0.00, -0.00, -1.00, 396.1, 8.0)">W</text><text xml:space="preserve" font-family="Monaco" font-size="30.0" fill="#000000" transform="matrix(1.00, 0.00, -0.00, -1.00, 414.1, 8.0)">i</text><text xml:space="preserve" font-family="Monaco" font-size="30.0" fill="#000000" transform="matrix(1.00, 0.00, -0.00, -1.00, 432.1, 8.0)">n</text><text xml:space="preserve" font-family="Monaco" font-size="30.0" fill="#000000" transform="matrix(1.00, 0.00, -0.00, -1.00, 450.1, 8.0)">d</text><text xml:space="preserve" font-family="Monaco" font-size="30.0" fill="#000000" transform="matrix(1.00, 0.00, -0.00, -1.00, 468.1, 8.0)">o</text><text xml:space="preserve" font-family="Monaco" font-size="30.0" fill="#000000" transform="matrix(1.00, 0.00, -0.00, -1.00, 486.1, 8.0)">w</text><text xml:space="preserve" font-family="Monaco" font-size="30.0" fill="#000000" transform="matrix(1.00, 0.00, -0.00, -1.00, 504.2, 8.0)">T</text><text xml:space="preserve" font-family="Monaco" font-size="30.0" fill="#000000" transform="matrix(1.00, 0.00, -0.00, -1.00, 522.2, 8.0)"> </text><text xml:space="preserve" font-family="Monaco" font-size="30.0" fill="#000000" transform="matrix(1.00, 0.00, -0.00, -1.00, 540.2, 8.0)">t</text><text xml:space="preserve" font-family="Monaco" font-size="30.0" fill="#000000" transform="matrix(1.00, 0.00, -0.00, -1.00, 558.2, 8.0)">o</text><text xml:space="preserve" font-family="Monaco" font-size="30.0" fill="#000000" transform="matrix(1.00, 0.00, -0.00, -1.00, 576.2, 8.0)">d</text><text xml:space="preserve" font-family="Monaco" font-size="30.0" fill="#000000" transform="matrix(1.00, 0.00, -0.00, -1.00, 594.2, 8.0)">o</text><text xml:space="preserve" font-family="Monaco" font-size="30.0" fill="#000000" transform="matrix(1.00, 0.00, -0.00, -1.00, 612.2, 8.0)">W</text><text xml:space="preserve" font-family="Monaco" font-size="30.0" fill="#000000" transform="matrix(1.00, 0.00, -0.00, -1.00, 630.1, 8.0)">i</text><text xml:space="preserve" font-family="Monaco" font-size="30.0" fill="#000000" transform="matrix(1.00, 0.00, -0.00, -1.00, 648.1, 8.0)">n</text><text xml:space="preserve" font-family="Monaco" font-size="30.0" fill="#000000" transform="matrix(1.00, 0.00, -0.00, -1.00, 666.1, 8.0)">d</text><text xml:space="preserve" font-family="Monaco" font-size="30.0" fill="#000000" transform="matrix(1.00, 0.00, -0.00, -1.00, 684.1, 8.0)">o</text><text xml:space="preserve" font-family="Monaco" font-size="30.0" fill="#000000" transform="matrix(1.00, 0.00, -0.00, -1.00, 702.1, 8.0)">w</text><text xml:space="preserve" font-family="Monaco" font-size="30.0" fill="#000000" transform="matrix(1.00, 0.00, -0.00, -1.00, 720.1, 8.0)">)</text><text xml:space="preserve" font-family="Monaco" font-size="30.0" fill="#000000" transform="matrix(1.00, 0.00, -0.00, -1.00, 738.1, 8.0)"> </text><text xml:space="preserve" font-family="Monaco" font-size="30.0" fill="#000000" transform="matrix(1.00, 0.00, -0.00, -1.00, 756.1, 8.0)">t</text><text xml:space="preserve" font-family="Monaco" font-size="30.0" fill="#000000" transform="matrix(1.00, 0.00, -0.00, -1.00, 774.1, 8.0)">o</text><text xml:space="preserve" font-family="Monaco" font-size="30.0" fill="#000000" transform="matrix(1.00, 0.00, -0.00, -1.00, 792.2, 8.0)">d</text><text xml:space="preserve" font-family="Monaco" font-size="30.0" fill="#000000" transform="matrix(1.00, 0.00, -0.00, -1.00, 810.2, 8.0)">o</text><text xml:space="preserve" font-family="Monaco" font-size="30.0" fill="#000000" transform="matrix(1.00, 0.00, -0.00, -1.00, 828.2, 8.0)">s</text></g></svg>