<?xml version="1.0" encoding="UTF-8" standalone="no"?><svg xmlns="http://www.w3.org/2000/svg" xmlns:xlink="http://www.w3.org/1999/xlink" clip-rule="evenodd" stroke-miterlimit="4.00" viewBox="0 0 1024 768"><desc>SVG generated by Keynote</desc><defs></defs><g transform="matrix(1.00, 0.00, -0.00, -1.00, 0.0, 768.0)"><path d="M 0.0 768.0 L 1024.0 768.0 L 1024.0 0.0 L 0.0 0.0 Z M 0.0 768.0 " fill="#FEFFFF"></path><text xml:space="preserve" font-family="Helvetica-Light" font-size="80.0" fill="#000000" transform="matrix(1.00, 0.00, -0.00, -1.00, 132.0, 618.0)">C</text><text xml:space="preserve" font-family="Helvetica-Light" font-size="80.0" fill="#000000" transform="matrix(1.00, 0.00, -0.00, -1.00, 189.8, 618.0)">o</text><text xml:space="preserve" font-family="Helvetica-Light" font-size="80.0" fill="#000000" transform="matrix(1.00, 0.00, -0.00, -1.00, 234.2, 618.0)">m</text><text xml:space="preserve" font-family="Helvetica-Light" font-size="80.0" fill="#000000" transform="matrix(1.00, 0.00, -0.00, -1.00, 300.9, 618.0)">p</text><text xml:space="preserve" font-family="Helvetica-Light" font-size="80.0" fill="#000000" transform="matrix(1.00, 0.00, -0.00, -1.00, 349.8, 618.0)">o</text><text xml:space="preserve" font-family="Helvetica-Light" font-size="80.0" fill="#000000" transform="matrix(1.00, 0.00, -0.00, -1.00, 394.2, 618.0)">s</text><text xml:space="preserve" font-family="Helvetica-Light" font-size="80.0" fill="#000000" transform="matrix(1.00, 0.00, -0.00, -1.00, 434.2, 618.0)">i</text><text xml:space="preserve" font-family="Helvetica-Light" font-size="80.0" fill="#000000" transform="matrix(1.00, 0.00, -0.00, -1.00, 452.0, 618.0)">n</text><text xml:space="preserve" font-family="Helvetica-Light" font-size="80.0" fill="#000000" transform="matrix(1.00, 0.00, -0.00, -1.00, 496.5, 618.0)">g</text><text xml:space="preserve" font-family="Helvetica-Light" font-size="80.0" fill="#000000" transform="matrix(1.00, 0.00, -0.00, -1.00, 545.4, 618.0)"> </text><text xml:space="preserve" font-family="Helvetica-Light" font-size="80.0" fill="#000000" transform="matrix(1.00, 0.00, -0.00, -1.00, 567.6, 618.0)">W</text><text xml:space="preserve" font-family="Helvetica-Light" font-size="80.0" fill="#000000" transform="matrix(1.00, 0.00, -0.00, -1.00, 638.7, 618.0)">i</text><text xml:space="preserve" font-family="Helvetica-Light" font-size="80.0" fill="#000000" transform="matrix(1.00, 0.00, -0.00, -1.00, 656.5, 618.0)">n</text><text xml:space="preserve" font-family="Helvetica-Light" font-size="80.0" fill="#000000" transform="matrix(1.00, 0.00, -0.00, -1.00, 701.0, 618.0)">d</text><text xml:space="preserve" font-family="Helvetica-Light" font-size="80.0" fill="#000000" transform="matrix(1.00, 0.00, -0.00, -1.00, 749.8, 618.0)">o</text><text xml:space="preserve" font-family="Helvetica-Light" font-size="80.0" fill="#000000" transform="matrix(1.00, 0.00, -0.00, -1.00, 794.3, 618.0)">w</text><text xml:space="preserve" font-family="Helvetica-Light" font-size="80.0" fill="#000000" transform="matrix(1.00, 0.00, -0.00, -1.00, 852.1, 618.0)">s</text><text xml:space="preserve" font-family="Helvetica-Light" font-size="25.5" fill="#000000" transform="matrix(1.00, 0.00, -0.00, -1.00, 79.0, 486.4)">•</text><text xml:space="preserve" font-family="Helvetica-Light" font-size="34.0" fill="#000000" transform="matrix(1.00, 0.00, -0.00, -1.00, 112.0, 483.0)">M</text><text xml:space="preserve" font-family="Helvetica-Light" font-size="34.0" fill="#000000" transform="matrix(1.00, 0.00, -0.00, -1.00, 140.3, 483.0)">o</text><text xml:space="preserve" font-family="Helvetica-Light" font-size="34.0" fill="#000000" transform="matrix(1.00, 0.00, -0.00, -1.00, 159.2, 483.0)">n</text><text xml:space="preserve" font-family="Helvetica-Light" font-size="34.0" fill="#000000" transform="matrix(1.00, 0.00, -0.00, -1.00, 178.1, 483.0)">o</text><text xml:space="preserve" font-family="Helvetica-Light" font-size="34.0" fill="#000000" transform="matrix(1.00, 0.00, -0.00, -1.00, 197.0, 483.0)">i</text><text xml:space="preserve" font-family="Helvetica-Light" font-size="34.0" fill="#000000" transform="matrix(1.00, 0.00, -0.00, -1.00, 204.6, 483.0)">d</text><text xml:space="preserve" font-family="Helvetica-Light" font-size="34.0" fill="#000000" transform="matrix(1.00, 0.00, -0.00, -1.00, 225.4, 483.0)"> </text><text xml:space="preserve" font-family="Helvetica-Light" font-size="34.0" fill="#000000" transform="matrix(1.00, 0.00, -0.00, -1.00, 234.8, 483.0)">(</text><text xml:space="preserve" font-family="Helvetica-Light" font-size="34.0" fill="#000000" transform="matrix(1.00, 0.00, -0.00, -1.00, 246.1, 483.0)">d</text><text xml:space="preserve" font-family="Helvetica-Light" font-size="34.0" fill="#000000" transform="matrix(1.00, 0.00, -0.00, -1.00, 266.9, 483.0)">i</text><text xml:space="preserve" font-family="Helvetica-Light" font-size="34.0" fill="#000000" transform="matrix(1.00, 0.00, -0.00, -1.00, 274.5, 483.0)">a</text><text xml:space="preserve" font-family="Helvetica-Light" font-size="34.0" fill="#000000" transform="matrix(1.00, 0.00, -0.00, -1.00, 293.4, 483.0)">g</text><text xml:space="preserve" font-family="Helvetica-Light" font-size="34.0" fill="#000000" transform="matrix(1.00, 0.00, -0.00, -1.00, 314.1, 483.0)">r</text><text xml:space="preserve" font-family="Helvetica-Light" font-size="34.0" fill="#000000" transform="matrix(1.00, 0.00, -0.00, -1.00, 325.5, 483.0)">a</text><text xml:space="preserve" font-family="Helvetica-Light" font-size="34.0" fill="#000000" transform="matrix(1.00, 0.00, -0.00, -1.00, 344.4, 483.0)">m</text><text xml:space="preserve" font-family="Helvetica-Light" font-size="34.0" fill="#000000" transform="matrix(1.00, 0.00, -0.00, -1.00, 372.7, 483.0)">s</text><text xml:space="preserve" font-family="Helvetica-Light" font-size="34.0" fill="#000000" transform="matrix(1.00, 0.00, -0.00, -1.00, 389.7, 483.0)"> </text><text xml:space="preserve" font-family="Helvetica-Light" font-size="34.0" fill="#000000" transform="matrix(1.00, 0.00, -0.00, -1.00, 399.1, 483.0)">s</text><text xml:space="preserve" font-family="Helvetica-Light" font-size="34.0" fill="#000000" transform="matrix(1.00, 0.00, -0.00, -1.00, 416.1, 483.0)">t</text><text xml:space="preserve" font-family="Helvetica-Light" font-size="34.0" fill="#000000" transform="matrix(1.00, 0.00, -0.00, -1.00, 425.6, 483.0)">y</text><text xml:space="preserve" font-family="Helvetica-Light" font-size="34.0" fill="#000000" transform="matrix(1.00, 0.00, -0.00, -1.00, 442.6, 483.0)">l</text><text xml:space="preserve" font-family="Helvetica-Light" font-size="34.0" fill="#000000" transform="matrix(1.00, 0.00, -0.00, -1.00, 450.1, 483.0)">e</text><text xml:space="preserve" font-family="Helvetica-Light" font-size="34.0" fill="#000000" transform="matrix(1.00, 0.00, -0.00, -1.00, 469.0, 483.0)">)</text><text xml:space="preserve" font-family="Helvetica-Light" font-size="34.0" fill="#000000" transform="matrix(1.00, 0.00, -0.00, -1.00, 480.4, 483.0)"> </text><text xml:space="preserve" font-family="Monaco" font-size="32.0" fill="#000000" transform="matrix(1.00, 0.00, -0.00, -1.00, 115.0, 428.0)">l</text><text xml:space="preserve" font-family="Monaco" font-size="32.0" fill="#000000" transform="matrix(1.00, 0.00, -0.00, -1.00, 134.2, 428.0)">a</text><text xml:space="preserve" font-family="Monaco" font-size="32.0" fill="#000000" transform="matrix(1.00, 0.00, -0.00, -1.00, 153.4, 428.0)">b</text><text xml:space="preserve" font-family="Monaco" font-size="32.0" fill="#000000" transform="matrix(1.00, 0.00, -0.00, -1.00, 172.6, 428.0)">e</text><text xml:space="preserve" font-family="Monaco" font-size="32.0" fill="#000000" transform="matrix(1.00, 0.00, -0.00, -1.00, 191.8, 428.0)">l</text><text xml:space="preserve" font-family="Monaco" font-size="32.0" fill="#000000" transform="matrix(1.00, 0.00, -0.00, -1.00, 211.0, 428.0)">W</text><text xml:space="preserve" font-family="Monaco" font-size="32.0" fill="#000000" transform="matrix(1.00, 0.00, -0.00, -1.00, 230.2, 428.0)">i</text><text xml:space="preserve" font-family="Monaco" font-size="32.0" fill="#000000" transform="matrix(1.00, 0.00, -0.00, -1.00, 249.4, 428.0)">n</text><text xml:space="preserve" font-family="Monaco" font-size="32.0" fill="#000000" transform="matrix(1.00, 0.00, -0.00, -1.00, 268.7, 428.0)">d</text><text xml:space="preserve" font-family="Monaco" font-size="32.0" fill="#000000" transform="matrix(1.00, 0.00, -0.00, -1.00, 287.9, 428.0)">o</text><text xml:space="preserve" font-family="Monaco" font-size="32.0" fill="#000000" transform="matrix(1.00, 0.00, -0.00, -1.00, 307.1, 428.0)">w</text><text xml:space="preserve" font-family="Monaco" font-size="32.0" fill="#000000" transform="matrix(1.00, 0.00, -0.00, -1.00, 326.3, 428.0)"> </text><text xml:space="preserve" font-family="Monaco" font-size="32.0" fill="#000000" transform="matrix(1.00, 0.00, -0.00, -1.00, 345.5, 428.0)">&lt;</text><text xml:space="preserve" font-family="Monaco" font-size="32.0" fill="#000000" transform="matrix(1.00, 0.00, -0.00, -1.00, 364.7, 428.0)">&gt;</text><text xml:space="preserve" font-family="Monaco" font-size="32.0" fill="#000000" transform="matrix(1.00, 0.00, -0.00, -1.00, 383.9, 428.0)"> </text><text xml:space="preserve" font-family="Monaco" font-size="32.0" fill="#000000" transform="matrix(1.00, 0.00, -0.00, -1.00, 403.1, 428.0)">t</text><text xml:space="preserve" font-family="Monaco" font-size="32.0" fill="#000000" transform="matrix(1.00, 0.00, -0.00, -1.00, 422.3, 428.0)">e</text><text xml:space="preserve" font-family="Monaco" font-size="32.0" fill="#000000" transform="matrix(1.00, 0.00, -0.00, -1.00, 441.5, 428.0)">x</text><text xml:space="preserve" font-family="Monaco" font-size="32.0" fill="#000000" transform="matrix(1.00, 0.00, -0.00, -1.00, 460.7, 428.0)">t</text><text xml:space="preserve" font-family="Monaco" font-size="32.0" fill="#000000" transform="matrix(1.00, 0.00, -0.00, -1.00, 479.9, 428.0)">I</text><text xml:space="preserve" font-family="Monaco" font-size="32.0" fill="#000000" transform="matrix(1.00, 0.00, -0.00, -1.00, 499.1, 428.0)">n</text><text xml:space="preserve" font-family="Monaco" font-size="32.0" fill="#000000" transform="matrix(1.00, 0.00, -0.00, -1.00, 518.3, 428.0)">p</text><text xml:space="preserve" font-family="Monaco" font-size="32.0" fill="#000000" transform="matrix(1.00, 0.00, -0.00, -1.00, 537.5, 428.0)">u</text><text xml:space="preserve" font-family="Monaco" font-size="32.0" fill="#000000" transform="matrix(1.00, 0.00, -0.00, -1.00, 556.7, 428.0)">t</text><text xml:space="preserve" font-family="Monaco" font-size="32.0" fill="#000000" transform="matrix(1.00, 0.00, -0.00, -1.00, 576.0, 428.0)">W</text><text xml:space="preserve" font-family="Monaco" font-size="32.0" fill="#000000" transform="matrix(1.00, 0.00, -0.00, -1.00, 595.2, 428.0)">i</text><text xml:space="preserve" font-family="Monaco" font-size="32.0" fill="#000000" transform="matrix(1.00, 0.00, -0.00, -1.00, 614.4, 428.0)">n</text><text xml:space="preserve" font-family="Monaco" font-size="32.0" fill="#000000" transform="matrix(1.00, 0.00, -0.00, -1.00, 633.6, 428.0)">d</text><text xml:space="preserve" font-family="Monaco" font-size="32.0" fill="#000000" transform="matrix(1.00, 0.00, -0.00, -1.00, 652.8, 428.0)">o</text><text xml:space="preserve" font-family="Monaco" font-size="32.0" fill="#000000" transform="matrix(1.00, 0.00, -0.00, -1.00, 672.0, 428.0)">w</text><text xml:space="preserve" font-family="Helvetica-Light" font-size="25.5" fill="#000000" transform="matrix(1.00, 0.00, -0.00, -1.00, 79.0, 345.4)">•</text><text xml:space="preserve" font-family="Helvetica-Light" font-size="34.0" fill="#000000" transform="matrix(1.00, 0.00, -0.00, -1.00, 112.0, 342.0)">A</text><text xml:space="preserve" font-family="Helvetica-Light" font-size="34.0" fill="#000000" transform="matrix(1.00, 0.00, -0.00, -1.00, 134.7, 342.0)">p</text><text xml:space="preserve" font-family="Helvetica-Light" font-size="34.0" fill="#000000" transform="matrix(1.00, 0.00, -0.00, -1.00, 155.5, 342.0)">p</text><text xml:space="preserve" font-family="Helvetica-Light" font-size="34.0" fill="#000000" transform="matrix(1.00, 0.00, -0.00, -1.00, 176.2, 342.0)">l</text><text xml:space="preserve" font-family="Helvetica-Light" font-size="34.0" fill="#000000" transform="matrix(1.00, 0.00, -0.00, -1.00, 183.8, 342.0)">i</text><text xml:space="preserve" font-family="Helvetica-Light" font-size="34.0" fill="#000000" transform="matrix(1.00, 0.00, -0.00, -1.00, 191.3, 342.0)">c</text><text xml:space="preserve" font-family="Helvetica-Light" font-size="34.0" fill="#000000" transform="matrix(1.00, 0.00, -0.00, -1.00, 210.2, 342.0)">a</text><text xml:space="preserve" font-family="Helvetica-Light" font-size="34.0" fill="#000000" transform="matrix(1.00, 0.00, -0.00, -1.00, 229.1, 342.0)">t</text><text xml:space="preserve" font-family="Helvetica-Light" font-size="34.0" fill="#000000" transform="matrix(1.00, 0.00, -0.00, -1.00, 238.6, 342.0)">i</text><text xml:space="preserve" font-family="Helvetica-Light" font-size="34.0" fill="#000000" transform="matrix(1.00, 0.00, -0.00, -1.00, 246.1, 342.0)">v</text><text xml:space="preserve" font-family="Helvetica-Light" font-size="34.0" fill="#000000" transform="matrix(1.00, 0.00, -0.00, -1.00, 263.1, 342.0)">e</text><text xml:space="preserve" font-family="Helvetica-Light" font-size="34.0" fill="#000000" transform="matrix(1.00, 0.00, -0.00, -1.00, 282.0, 342.0)">/</text><text xml:space="preserve" font-family="Helvetica-Light" font-size="34.0" fill="#000000" transform="matrix(1.00, 0.00, -0.00, -1.00, 291.5, 342.0)">M</text><text xml:space="preserve" font-family="Helvetica-Light" font-size="34.0" fill="#000000" transform="matrix(1.00, 0.00, -0.00, -1.00, 319.8, 342.0)">o</text><text xml:space="preserve" font-family="Helvetica-Light" font-size="34.0" fill="#000000" transform="matrix(1.00, 0.00, -0.00, -1.00, 338.7, 342.0)">n</text><text xml:space="preserve" font-family="Helvetica-Light" font-size="34.0" fill="#000000" transform="matrix(1.00, 0.00, -0.00, -1.00, 357.6, 342.0)">a</text><text xml:space="preserve" font-family="Helvetica-Light" font-size="34.0" fill="#000000" transform="matrix(1.00, 0.00, -0.00, -1.00, 376.5, 342.0)">d</text><text xml:space="preserve" font-family="Helvetica-Light" font-size="34.0" fill="#000000" transform="matrix(1.00, 0.00, -0.00, -1.00, 397.3, 342.0)"> </text><text xml:space="preserve" font-family="Monaco" font-size="30.0" fill="#000000" transform="matrix(1.00, 0.00, -0.00, -1.00, 115.0, 289.0)">b</text><text xml:space="preserve" font-family="Monaco" font-size="30.0" fill="#000000" transform="matrix(1.00, 0.00, -0.00, -1.00, 133.0, 289.0)">h</text><text xml:space="preserve" font-family="Monaco" font-size="30.0" fill="#000000" transform="matrix(1.00, 0.00, -0.00, -1.00, 151.0, 289.0)"> </text><text xml:space="preserve" font-family="Monaco" font-size="30.0" fill="#000000" transform="matrix(1.00, 0.00, -0.00, -1.00, 169.0, 289.0)">“</text><text xml:space="preserve" font-family="Monaco" font-size="30.0" fill="#000000" transform="matrix(1.00, 0.00, -0.00, -1.00, 187.0, 289.0)">d</text><text xml:space="preserve" font-family="Monaco" font-size="30.0" fill="#000000" transform="matrix(1.00, 0.00, -0.00, -1.00, 205.0, 289.0)">i</text><text xml:space="preserve" font-family="Monaco" font-size="30.0" fill="#000000" transform="matrix(1.00, 0.00, -0.00, -1.00, 223.0, 289.0)">v</text><text xml:space="preserve" font-family="Monaco" font-size="30.0" fill="#000000" transform="matrix(1.00, 0.00, -0.00, -1.00, 241.0, 289.0)">”</text><text xml:space="preserve" font-family="Monaco" font-size="30.0" fill="#000000" transform="matrix(1.00, 0.00, -0.00, -1.00, 259.0, 289.0)"> </text><text xml:space="preserve" font-family="Monaco" font-size="30.0" fill="#000000" transform="matrix(1.00, 0.00, -0.00, -1.00, 277.1, 289.0)">[</text><text xml:space="preserve" font-family="Monaco" font-size="30.0" fill="#000000" transform="matrix(1.00, 0.00, -0.00, -1.00, 295.1, 289.0)">]</text><text xml:space="preserve" font-family="Monaco" font-size="30.0" fill="#000000" transform="matrix(1.00, 0.00, -0.00, -1.00, 313.1, 289.0)"> </text><text xml:space="preserve" font-family="Monaco" font-size="30.0" fill="#000000" transform="matrix(1.00, 0.00, -0.00, -1.00, 331.1, 289.0)">$</text><text xml:space="preserve" font-family="Monaco" font-size="30.0" fill="#000000" transform="matrix(1.00, 0.00, -0.00, -1.00, 349.1, 289.0)"> </text><text xml:space="preserve" font-family="Monaco" font-size="30.0" fill="#000000" transform="matrix(1.00, 0.00, -0.00, -1.00, 367.1, 289.0)">d</text><text xml:space="preserve" font-family="Monaco" font-size="30.0" fill="#000000" transform="matrix(1.00, 0.00, -0.00, -1.00, 385.1, 289.0)">o</text><text xml:space="preserve" font-family="Monaco" font-size="30.0" fill="#000000" transform="matrix(1.00, 0.00, -0.00, -1.00, 115.0, 233.0)"> </text><text xml:space="preserve" font-family="Monaco" font-size="30.0" fill="#000000" transform="matrix(1.00, 0.00, -0.00, -1.00, 133.0, 233.0)"> </text><text xml:space="preserve" font-family="Monaco" font-size="30.0" fill="#000000" transform="matrix(1.00, 0.00, -0.00, -1.00, 151.0, 233.0)"> </text><text xml:space="preserve" font-family="Monaco" font-size="30.0" fill="#000000" transform="matrix(1.00, 0.00, -0.00, -1.00, 169.0, 233.0)">b</text><text xml:space="preserve" font-family="Monaco" font-size="30.0" fill="#000000" transform="matrix(1.00, 0.00, -0.00, -1.00, 187.0, 233.0)">h</text><text xml:space="preserve" font-family="Monaco" font-size="30.0" fill="#000000" transform="matrix(1.00, 0.00, -0.00, -1.00, 205.0, 233.0)"> </text><text xml:space="preserve" font-family="Monaco" font-size="30.0" fill="#000000" transform="matrix(1.00, 0.00, -0.00, -1.00, 223.0, 233.0)">“</text><text xml:space="preserve" font-family="Monaco" font-size="30.0" fill="#000000" transform="matrix(1.00, 0.00, -0.00, -1.00, 241.0, 233.0)">l</text><text xml:space="preserve" font-family="Monaco" font-size="30.0" fill="#000000" transform="matrix(1.00, 0.00, -0.00, -1.00, 259.0, 233.0)">a</text><text xml:space="preserve" font-family="Monaco" font-size="30.0" fill="#000000" transform="matrix(1.00, 0.00, -0.00, -1.00, 277.1, 233.0)">b</text><text xml:space="preserve" font-family="Monaco" font-size="30.0" fill="#000000" transform="matrix(1.00, 0.00, -0.00, -1.00, 295.1, 233.0)">e</text><text xml:space="preserve" font-family="Monaco" font-size="30.0" fill="#000000" transform="matrix(1.00, 0.00, -0.00, -1.00, 313.1, 233.0)">l</text><text xml:space="preserve" font-family="Monaco" font-size="30.0" fill="#000000" transform="matrix(1.00, 0.00, -0.00, -1.00, 331.1, 233.0)">”</text><text xml:space="preserve" font-family="Monaco" font-size="30.0" fill="#000000" transform="matrix(1.00, 0.00, -0.00, -1.00, 349.1, 233.0)"> </text><text xml:space="preserve" font-family="Monaco" font-size="30.0" fill="#000000" transform="matrix(1.00, 0.00, -0.00, -1.00, 367.1, 233.0)">[</text><text xml:space="preserve" font-family="Monaco" font-size="30.0" fill="#000000" transform="matrix(1.00, 0.00, -0.00, -1.00, 385.1, 233.0)">]</text><text xml:space="preserve" font-family="Monaco" font-size="30.0" fill="#000000" transform="matrix(1.00, 0.00, -0.00, -1.00, 403.1, 233.0)"> </text><text xml:space="preserve" font-family="Monaco" font-size="30.0" fill="#000000" transform="matrix(1.00, 0.00, -0.00, -1.00, 421.1, 233.0)">“</text><text xml:space="preserve" font-family="Monaco" font-size="30.0" fill="#000000" transform="matrix(1.00, 0.00, -0.00, -1.00, 439.1, 233.0)">h</text><text xml:space="preserve" font-family="Monaco" font-size="30.0" fill="#000000" transform="matrix(1.00, 0.00, -0.00, -1.00, 457.1, 233.0)">e</text><text xml:space="preserve" font-family="Monaco" font-size="30.0" fill="#000000" transform="matrix(1.00, 0.00, -0.00, -1.00, 475.1, 233.0)">l</text><text xml:space="preserve" font-family="Monaco" font-size="30.0" fill="#000000" transform="matrix(1.00, 0.00, -0.00, -1.00, 493.1, 233.0)">l</text><text xml:space="preserve" font-family="Monaco" font-size="30.0" fill="#000000" transform="matrix(1.00, 0.00, -0.00, -1.00, 511.1, 233.0)">o</text><text xml:space="preserve" font-family="Monaco" font-size="30.0" fill="#000000" transform="matrix(1.00, 0.00, -0.00, -1.00, 529.1, 233.0)">”</text><text xml:space="preserve" font-family="Monaco" font-size="30.0" fill="#000000" transform="matrix(1.00, 0.00, -0.00, -1.00, 115.0, 177.0)"> </text><text xml:space="preserve" font-family="Monaco" font-size="30.0" fill="#000000" transform="matrix(1.00, 0.00, -0.00, -1.00, 133.0, 177.0)"> </text><text xml:space="preserve" font-family="Monaco" font-size="30.0" fill="#000000" transform="matrix(1.00, 0.00, -0.00, -1.00, 151.0, 177.0)"> </text><text xml:space="preserve" font-family="Monaco" font-size="30.0" fill="#000000" transform="matrix(1.00, 0.00, -0.00, -1.00, 169.0, 177.0)">l</text><text xml:space="preserve" font-family="Monaco" font-size="30.0" fill="#000000" transform="matrix(1.00, 0.00, -0.00, -1.00, 187.0, 177.0)">f</text><text xml:space="preserve" font-family="Monaco" font-size="30.0" fill="#000000" transform="matrix(1.00, 0.00, -0.00, -1.00, 205.0, 177.0)"> </text><text xml:space="preserve" font-family="Monaco" font-size="30.0" fill="#000000" transform="matrix(1.00, 0.00, -0.00, -1.00, 223.0, 177.0)">“</text><text xml:space="preserve" font-family="Monaco" font-size="30.0" fill="#000000" transform="matrix(1.00, 0.00, -0.00, -1.00, 241.0, 177.0)">i</text><text xml:space="preserve" font-family="Monaco" font-size="30.0" fill="#000000" transform="matrix(1.00, 0.00, -0.00, -1.00, 259.0, 177.0)">n</text><text xml:space="preserve" font-family="Monaco" font-size="30.0" fill="#000000" transform="matrix(1.00, 0.00, -0.00, -1.00, 277.1, 177.0)">p</text><text xml:space="preserve" font-family="Monaco" font-size="30.0" fill="#000000" transform="matrix(1.00, 0.00, -0.00, -1.00, 295.1, 177.0)">u</text><text xml:space="preserve" font-family="Monaco" font-size="30.0" fill="#000000" transform="matrix(1.00, 0.00, -0.00, -1.00, 313.1, 177.0)">t</text><text xml:space="preserve" font-family="Monaco" font-size="30.0" fill="#000000" transform="matrix(1.00, 0.00, -0.00, -1.00, 331.1, 177.0)">”</text><text xml:space="preserve" font-family="Monaco" font-size="30.0" fill="#000000" transform="matrix(1.00, 0.00, -0.00, -1.00, 349.1, 177.0)"> </text><text xml:space="preserve" font-family="Monaco" font-size="30.0" fill="#000000" transform="matrix(1.00, 0.00, -0.00, -1.00, 367.1, 177.0)">[</text><text xml:space="preserve" font-family="Monaco" font-size="30.0" fill="#000000" transform="matrix(1.00, 0.00, -0.00, -1.00, 385.1, 177.0)">…</text><text xml:space="preserve" font-family="Monaco" font-size="30.0" fill="#000000" transform="matrix(1.00, 0.00, -0.00, -1.00, 403.1, 177.0)">]</text><text xml:space="preserve" font-family="Monaco" font-size="30.0" fill="#000000" transform="matrix(1.00, 0.00, -0.00, -1.00, 115.0, 121.0)"> </text><text xml:space="preserve" font-family="Monaco" font-size="30.0" fill="#000000" transform="matrix(1.00, 0.00, -0.00, -1.00, 133.0, 121.0)"> </text><text xml:space="preserve" font-family="Monaco" font-size="30.0" fill="#000000" transform="matrix(1.00, 0.00, -0.00, -1.00, 151.0, 121.0)"> </text><text xml:space="preserve" font-family="Monaco" font-size="30.0" fill="#000000" transform="matrix(1.00, 0.00, -0.00, -1.00, 169.0, 121.0)">t</text><text xml:space="preserve" font-family="Monaco" font-size="30.0" fill="#000000" transform="matrix(1.00, 0.00, -0.00, -1.00, 187.0, 121.0)">r</text><text xml:space="preserve" font-family="Monaco" font-size="30.0" fill="#000000" transform="matrix(1.00, 0.00, -0.00, -1.00, 205.0, 121.0)">a</text><text xml:space="preserve" font-family="Monaco" font-size="30.0" fill="#000000" transform="matrix(1.00, 0.00, -0.00, -1.00, 223.0, 121.0)">v</text><text xml:space="preserve" font-family="Monaco" font-size="30.0" fill="#000000" transform="matrix(1.00, 0.00, -0.00, -1.00, 241.0, 121.0)">e</text><text xml:space="preserve" font-family="Monaco" font-size="30.0" fill="#000000" transform="matrix(1.00, 0.00, -0.00, -1.00, 259.0, 121.0)">r</text><text xml:space="preserve" font-family="Monaco" font-size="30.0" fill="#000000" transform="matrix(1.00, 0.00, -0.00, -1.00, 277.1, 121.0)">s</text><text xml:space="preserve" font-family="Monaco" font-size="30.0" fill="#000000" transform="matrix(1.00, 0.00, -0.00, -1.00, 295.1, 121.0)">e</text><text xml:space="preserve" font-family="Monaco" font-size="30.0" fill="#000000" transform="matrix(1.00, 0.00, -0.00, -1.00, 313.1, 121.0)">_</text><text xml:space="preserve" font-family="Monaco" font-size="30.0" fill="#000000" transform="matrix(1.00, 0.00, -0.00, -1.00, 331.1, 121.0)"> </text><text xml:space="preserve" font-family="Monaco" font-size="30.0" fill="#000000" transform="matrix(1.00, 0.00, -0.00, -1.00, 349.1, 121.0)">(</text><text xml:space="preserve" font-family="Monaco" font-size="30.0" fill="#000000" transform="matrix(1.00, 0.00, -0.00, -1.00, 367.1, 121.0)">v</text><text xml:space="preserve" font-family="Monaco" font-size="30.0" fill="#000000" transform="matrix(1.00, 0.00, -0.00, -1.00, 385.1, 121.0)">i</text><text xml:space="preserve" font-family="Monaco" font-size="30.0" fill="#000000" transform="matrix(1.00, 0.00, -0.00, -1.00, 403.1, 121.0)">e</text><text xml:space="preserve" font-family="Monaco" font-size="30.0" fill="#000000" transform="matrix(1.00, 0.00, -0.00, -1.00, 421.1, 121.0)">w</text><text xml:space="preserve" font-family="Monaco" font-size="30.0" fill="#000000" transform="matrix(1.00, 0.00, -0.00, -1.00, 439.1, 121.0)"> </text><text xml:space="preserve" font-family="Monaco" font-size="30.0" fill="#000000" transform="matrix(1.00, 0.00, -0.00, -1.00, 457.1, 121.0)">_</text><text xml:space="preserve" font-family="Monaco" font-size="30.0" fill="#000000" transform="matrix(1.00, 0.00, -0.00, -1.00, 475.1, 121.0)">W</text><text xml:space="preserve" font-family="Monaco" font-size="30.0" fill="#000000" transform="matrix(1.00, 0.00, -0.00, -1.00, 493.1, 121.0)">i</text><text xml:space="preserve" font-family="Monaco" font-size="30.0" fill="#000000" transform="matrix(1.00, 0.00, -0.00, -1.00, 511.1, 121.0)">n</text><text xml:space="preserve" font-family="Monaco" font-size="30.0" fill="#000000" transform="matrix(1.00, 0.00, -0.00, -1.00, 529.1, 121.0)">d</text><text xml:space="preserve" font-family="Monaco" font-size="30.0" fill="#000000" transform="matrix(1.00, 0.00, -0.00, -1.00, 547.1, 121.0)">o</text><text xml:space="preserve" font-family="Monaco" font-size="30.0" fill="#000000" transform="matrix(1.00, 0.00, -0.00, -1.00, 565.1, 121.0)">w</text><text xml:space="preserve" font-family="Monaco" font-size="30.0" fill="#000000" transform="matrix(1.00, 0.00, -0.00, -1.00, 583.2, 121.0)">T</text><text xml:space="preserve" font-family="Monaco" font-size="30.0" fill="#000000" transform="matrix(1.00, 0.00, -0.00, -1.00, 601.2, 121.0)"> </text><text xml:space="preserve" font-family="Monaco" font-size="30.0" fill="#000000" transform="matrix(1.00, 0.00, -0.00, -1.00, 619.2, 121.0)">t</text><text xml:space="preserve" font-family="Monaco" font-size="30.0" fill="#000000" transform="matrix(1.00, 0.00, -0.00, -1.00, 637.2, 121.0)">o</text><text xml:space="preserve" font-family="Monaco" font-size="30.0" fill="#000000" transform="matrix(1.00, 0.00, -0.00, -1.00, 655.2, 121.0)">d</text><text xml:space="preserve" font-family="Monaco" font-size="30.0" fill="#000000" transform="matrix(1.00, 0.00, -0.00, -1.00, 673.2, 121.0)">o</text><text xml:space="preserve" font-family="Monaco" font-size="30.0" fill="#000000" transform="matrix(1.00, 0.00, -0.00, -1.00, 691.2, 121.0)">W</text><text xml:space="preserve" font-family="Monaco" font-size="30.0" fill="#000000" transform="matrix(1.00, 0.00, -0.00, -1.00, 709.1, 121.0)">i</text><text xml:space="preserve" font-family="Monaco" font-size="30.0" fill="#000000" transform="matrix(1.00, 0.00, -0.00, -1.00, 727.1, 121.0)">n</text><text xml:space="preserve" font-family="Monaco" font-size="30.0" fill="#000000" transform="matrix(1.00, 0.00, -0.00, -1.00, 745.1, 121.0)">d</text><text xml:space="preserve" font-family="Monaco" font-size="30.0" fill="#000000" transform="matrix(1.00, 0.00, -0.00, -1.00, 763.1, 121.0)">o</text><text xml:space="preserve" font-family="Monaco" font-size="30.0" fill="#000000" transform="matrix(1.00, 0.00, -0.00, -1.00, 781.1, 121.0)">w</text><text xml:space="preserve" font-family="Monaco" font-size="30.0" fill="#000000" transform="matrix(1.00, 0.00, -0.00, -1.00, 799.1, 121.0)">)</text><text xml:space="preserve" font-family="Monaco" font-size="30.0" fill="#000000" transform="matrix(1.00, 0.00, -0.00, -1.00, 817.1, 121.0)"> </text><text xml:space="preserve" font-family="Monaco" font-size="30.0" fill="#000000" transform="matrix(1.00, 0.00, -0.00, -1.00, 835.1, 121.0)">t</text><text xml:space="preserve" font-family="Monaco" font-size="30.0" fill="#000000" transform="matrix(1.00, 0.00, -0.00, -1.00, 853.1, 121.0)">o</text><text xml:space="preserve" font-family="Monaco" font-size="30.0" fill="#000000" transform="matrix(1.00, 0.00, -0.00, -1.00, 871.2, 121.0)">d</text><text xml:space="preserve" font-family="Monaco" font-size="30.0" fill="#000000" transform="matrix(1.00, 0.00, -0.00, -1.00, 889.2, 121.0)">o</text><text xml:space="preserve" font-family="Monaco" font-size="30.0" fill="#000000" transform="matrix(1.00, 0.00, -0.00, -1.00, 907.2, 121.0)">s</text><text xml:space="preserve" font-family="Helvetica-Light" font-size="18.0" fill="#000000" transform="matrix(1.00, 0.00, -0.00, -1.00, 506.0, 18.0)">8</text></g></svg>