<?xml version="1.0" encoding="UTF-8" standalone="no"?><svg xmlns="http://www.w3.org/2000/svg" xmlns:xlink="http://www.w3.org/1999/xlink" clip-rule="evenodd" stroke-miterlimit="4.00" viewBox="0 0 613 91"><desc>SVG generated by Keynote</desc><defs></defs><g transform="matrix(1.00, 0.00, -0.00, -1.00, 0.0, 91.0)"><text xml:space="preserve" font-family="Helvetica-Light" font-size="25.5" fill="#000000" transform="matrix(1.00, 0.00, -0.00, -1.00, 0.0, 67.4)">•</text><text xml:space="preserve" font-family="Helvetica-Light" font-size="34.0" fill="#000000" transform="matrix(1.00, 0.00, -0.00, -1.00, 33.0, 64.0)">M</text><text xml:space="preserve" font-family="Helvetica-Light" font-size="34.0" fill="#000000" transform="matrix(1.00, 0.00, -0.00, -1.00, 61.3, 64.0)">o</text><text xml:space="preserve" font-family="Helvetica-Light" font-size="34.0" fill="#000000" transform="matrix(1.00, 0.00, -0.00, -1.00, 80.2, 64.0)">n</text><text xml:space="preserve" font-family="Helvetica-Light" font-size="34.0" fill="#000000" transform="matrix(1.00, 0.00, -0.00, -1.00, 99.1, 64.0)">o</text><text xml:space="preserve" font-family="Helvetica-Light" font-size="34.0" fill="#000000" transform="matrix(1.00, 0.00, -0.00, -1.00, 118.0, 64.0)">i</text><text xml:space="preserve" font-family="Helvetica-Light" font-size="34.0" fill="#000000" transform="matrix(1.00, 0.00, -0.00, -1.00, 125.6, 64.0)">d</text><text xml:space="preserve" font-family="Helvetica-Light" font-size="34.0" fill="#000000" transform="matrix(1.00, 0.00, -0.00, -1.00, 146.4, 64.0)"> </text><text xml:space="preserve" font-family="Helvetica-Light" font-size="34.0" fill="#000000" transform="matrix(1.00, 0.00, -0.00, -1.00, 155.8, 64.0)">(</text><text xml:space="preserve" font-family="Helvetica-Light" font-size="34.0" fill="#000000" transform="matrix(1.00, 0.00, -0.00, -1.00, 167.1, 64.0)">d</text><text xml:space="preserve" font-family="Helvetica-Light" font-size="34.0" fill="#000000" transform="matrix(1.00, 0.00, -0.00, -1.00, 187.9, 64.0)">i</text><text xml:space="preserve" font-family="Helvetica-Light" font-size="34.0" fill="#000000" transform="matrix(1.00, 0.00, -0.00, -1.00, 195.5, 64.0)">a</text><text xml:space="preserve" font-family="Helvetica-Light" font-size="34.0" fill="#000000" transform="matrix(1.00, 0.00, -0.00, -1.00, 214.4, 64.0)">g</text><text xml:space="preserve" font-family="Helvetica-Light" font-size="34.0" fill="#000000" transform="matrix(1.00, 0.00, -0.00, -1.00, 235.1, 64.0)">r</text><text xml:space="preserve" font-family="Helvetica-Light" font-size="34.0" fill="#000000" transform="matrix(1.00, 0.00, -0.00, -1.00, 246.5, 64.0)">a</text><text xml:space="preserve" font-family="Helvetica-Light" font-size="34.0" fill="#000000" transform="matrix(1.00, 0.00, -0.00, -1.00, 265.4, 64.0)">m</text><text xml:space="preserve" font-family="Helvetica-Light" font-size="34.0" fill="#000000" transform="matrix(1.00, 0.00, -0.00, -1.00, 293.7, 64.0)">s</text><text xml:space="preserve" font-family="Helvetica-Light" font-size="34.0" fill="#000000" transform="matrix(1.00, 0.00, -0.00, -1.00, 310.7, 64.0)"> </text><text xml:space="preserve" font-family="Helvetica-Light" font-size="34.0" fill="#000000" transform="matrix(1.00, 0.00, -0.00, -1.00, 320.1, 64.0)">s</text><text xml:space="preserve" font-family="Helvetica-Light" font-size="34.0" fill="#000000" transform="matrix(1.00, 0.00, -0.00, -1.00, 337.1, 64.0)">t</text><text xml:space="preserve" font-family="Helvetica-Light" font-size="34.0" fill="#000000" transform="matrix(1.00, 0.00, -0.00, -1.00, 346.6, 64.0)">y</text><text xml:space="preserve" font-family="Helvetica-Light" font-size="34.0" fill="#000000" transform="matrix(1.00, 0.00, -0.00, -1.00, 363.6, 64.0)">l</text><text xml:space="preserve" font-family="Helvetica-Light" font-size="34.0" fill="#000000" transform="matrix(1.00, 0.00, -0.00, -1.00, 371.1, 64.0)">e</text><text xml:space="preserve" font-family="Helvetica-Light" font-size="34.0" fill="#000000" transform="matrix(1.00, 0.00, -0.00, -1.00, 390.0, 64.0)">)</text><text xml:space="preserve" font-family="Helvetica-Light" font-size="34.0" fill="#000000" transform="matrix(1.00, 0.00, -0.00, -1.00, 401.4, 64.0)"> </text><text xml:space="preserve" font-family="Monaco" font-size="32.0" fill="#000000" transform="matrix(1.00, 0.00, -0.00, -1.00, 36.0, 9.0)">l</text><text xml:space="preserve" font-family="Monaco" font-size="32.0" fill="#000000" transform="matrix(1.00, 0.00, -0.00, -1.00, 55.2, 9.0)">a</text><text xml:space="preserve" font-family="Monaco" font-size="32.0" fill="#000000" transform="matrix(1.00, 0.00, -0.00, -1.00, 74.4, 9.0)">b</text><text xml:space="preserve" font-family="Monaco" font-size="32.0" fill="#000000" transform="matrix(1.00, 0.00, -0.00, -1.00, 93.6, 9.0)">e</text><text xml:space="preserve" font-family="Monaco" font-size="32.0" fill="#000000" transform="matrix(1.00, 0.00, -0.00, -1.00, 112.8, 9.0)">l</text><text xml:space="preserve" font-family="Monaco" font-size="32.0" fill="#000000" transform="matrix(1.00, 0.00, -0.00, -1.00, 132.0, 9.0)">W</text><text xml:space="preserve" font-family="Monaco" font-size="32.0" fill="#000000" transform="matrix(1.00, 0.00, -0.00, -1.00, 151.2, 9.0)">i</text><text xml:space="preserve" font-family="Monaco" font-size="32.0" fill="#000000" transform="matrix(1.00, 0.00, -0.00, -1.00, 170.4, 9.0)">n</text><text xml:space="preserve" font-family="Monaco" font-size="32.0" fill="#000000" transform="matrix(1.00, 0.00, -0.00, -1.00, 189.7, 9.0)">d</text><text xml:space="preserve" font-family="Monaco" font-size="32.0" fill="#000000" transform="matrix(1.00, 0.00, -0.00, -1.00, 208.9, 9.0)">o</text><text xml:space="preserve" font-family="Monaco" font-size="32.0" fill="#000000" transform="matrix(1.00, 0.00, -0.00, -1.00, 228.1, 9.0)">w</text><text xml:space="preserve" font-family="Monaco" font-size="32.0" fill="#000000" transform="matrix(1.00, 0.00, -0.00, -1.00, 247.3, 9.0)"> </text><text xml:space="preserve" font-family="Monaco" font-size="32.0" fill="#000000" transform="matrix(1.00, 0.00, -0.00, -1.00, 266.5, 9.0)">&lt;</text><text xml:space="preserve" font-family="Monaco" font-size="32.0" fill="#000000" transform="matrix(1.00, 0.00, -0.00, -1.00, 285.7, 9.0)">&gt;</text><text xml:space="preserve" font-family="Monaco" font-size="32.0" fill="#000000" transform="matrix(1.00, 0.00, -0.00, -1.00, 304.9, 9.0)"> </text><text xml:space="preserve" font-family="Monaco" font-size="32.0" fill="#000000" transform="matrix(1.00, 0.00, -0.00, -1.00, 324.1, 9.0)">t</text><text xml:space="preserve" font-family="Monaco" font-size="32.0" fill="#000000" transform="matrix(1.00, 0.00, -0.00, -1.00, 343.3, 9.0)">e</text><text xml:space="preserve" font-family="Monaco" font-size="32.0" fill="#000000" transform="matrix(1.00, 0.00, -0.00, -1.00, 362.5, 9.0)">x</text><text xml:space="preserve" font-family="Monaco" font-size="32.0" fill="#000000" transform="matrix(1.00, 0.00, -0.00, -1.00, 381.7, 9.0)">t</text><text xml:space="preserve" font-family="Monaco" font-size="32.0" fill="#000000" transform="matrix(1.00, 0.00, -0.00, -1.00, 400.9, 9.0)">I</text><text xml:space="preserve" font-family="Monaco" font-size="32.0" fill="#000000" transform="matrix(1.00, 0.00, -0.00, -1.00, 420.1, 9.0)">n</text><text xml:space="preserve" font-family="Monaco" font-size="32.0" fill="#000000" transform="matrix(1.00, 0.00, -0.00, -1.00, 439.3, 9.0)">p</text><text xml:space="preserve" font-family="Monaco" font-size="32.0" fill="#000000" transform="matrix(1.00, 0.00, -0.00, -1.00, 458.5, 9.0)">u</text><text xml:space="preserve" font-family="Monaco" font-size="32.0" fill="#000000" transform="matrix(1.00, 0.00, -0.00, -1.00, 477.7, 9.0)">t</text><text xml:space="preserve" font-family="Monaco" font-size="32.0" fill="#000000" transform="matrix(1.00, 0.00, -0.00, -1.00, 497.0, 9.0)">W</text><text xml:space="preserve" font-family="Monaco" font-size="32.0" fill="#000000" transform="matrix(1.00, 0.00, -0.00, -1.00, 516.2, 9.0)">i</text><text xml:space="preserve" font-family="Monaco" font-size="32.0" fill="#000000" transform="matrix(1.00, 0.00, -0.00, -1.00, 535.4, 9.0)">n</text><text xml:space="preserve" font-family="Monaco" font-size="32.0" fill="#000000" transform="matrix(1.00, 0.00, -0.00, -1.00, 554.6, 9.0)">d</text><text xml:space="preserve" font-family="Monaco" font-size="32.0" fill="#000000" transform="matrix(1.00, 0.00, -0.00, -1.00, 573.8, 9.0)">o</text><text xml:space="preserve" font-family="Monaco" font-size="32.0" fill="#000000" transform="matrix(1.00, 0.00, -0.00, -1.00, 593.0, 9.0)">w</text></g></svg>