<?xml version="1.0" encoding="UTF-8" standalone="no"?><svg xmlns="http://www.w3.org/2000/svg" xmlns:xlink="http://www.w3.org/1999/xlink" clip-rule="evenodd" stroke-miterlimit="4.00" viewBox="0 0 618 28"><desc>SVG generated by Keynote</desc><defs></defs><g transform="matrix(1.00, 0.00, -0.00, -1.00, 0.0, 28.0)"><text xml:space="preserve" font-family="Helvetica-Light" font-size="19.9" fill="#000000" transform="matrix(1.00, 0.00, -0.00, -1.00, 0.9, 9.2)">•</text><text xml:space="preserve" font-family="Helvetica-Light" font-size="26.5" fill="#000000" transform="matrix(1.00, 0.00, -0.00, -1.00, 27.0, 7.0)">G</text><text xml:space="preserve" font-family="Helvetica-Light" font-size="26.5" fill="#000000" transform="matrix(1.00, 0.00, -0.00, -1.00, 47.6, 7.0)">l</text><text xml:space="preserve" font-family="Helvetica-Light" font-size="26.5" fill="#000000" transform="matrix(1.00, 0.00, -0.00, -1.00, 53.5, 7.0)">a</text><text xml:space="preserve" font-family="Helvetica-Light" font-size="26.5" fill="#000000" transform="matrix(1.00, 0.00, -0.00, -1.00, 68.3, 7.0)">z</text><text xml:space="preserve" font-family="Helvetica-Light" font-size="26.5" fill="#000000" transform="matrix(1.00, 0.00, -0.00, -1.00, 81.5, 7.0)">i</text><text xml:space="preserve" font-family="Helvetica-Light" font-size="26.5" fill="#000000" transform="matrix(1.00, 0.00, -0.00, -1.00, 87.4, 7.0)">e</text><text xml:space="preserve" font-family="Helvetica-Light" font-size="26.5" fill="#000000" transform="matrix(1.00, 0.00, -0.00, -1.00, 102.2, 7.0)">r</text><text xml:space="preserve" font-family="Helvetica-Light" font-size="26.5" fill="#000000" transform="matrix(1.00, 0.00, -0.00, -1.00, 111.0, 7.0)"> </text><text xml:space="preserve" font-family="Helvetica-Light" font-size="26.5" fill="#000000" transform="matrix(1.00, 0.00, -0.00, -1.00, 118.4, 7.0)">W</text><text xml:space="preserve" font-family="Helvetica-Light" font-size="26.5" fill="#000000" transform="matrix(1.00, 0.00, -0.00, -1.00, 141.9, 7.0)">i</text><text xml:space="preserve" font-family="Helvetica-Light" font-size="26.5" fill="#000000" transform="matrix(1.00, 0.00, -0.00, -1.00, 147.8, 7.0)">n</text><text xml:space="preserve" font-family="Helvetica-Light" font-size="26.5" fill="#000000" transform="matrix(1.00, 0.00, -0.00, -1.00, 162.6, 7.0)">d</text><text xml:space="preserve" font-family="Helvetica-Light" font-size="26.5" fill="#000000" transform="matrix(1.00, 0.00, -0.00, -1.00, 178.8, 7.0)">o</text><text xml:space="preserve" font-family="Helvetica-Light" font-size="26.5" fill="#000000" transform="matrix(1.00, 0.00, -0.00, -1.00, 193.5, 7.0)">w</text><text xml:space="preserve" font-family="Helvetica-Light" font-size="26.5" fill="#000000" transform="matrix(1.00, 0.00, -0.00, -1.00, 212.7, 7.0)"> </text><text xml:space="preserve" font-family="Helvetica-Light" font-size="26.5" fill="#000000" transform="matrix(1.00, 0.00, -0.00, -1.00, 220.0, 7.0)">i</text><text xml:space="preserve" font-family="Helvetica-Light" font-size="26.5" fill="#000000" transform="matrix(1.00, 0.00, -0.00, -1.00, 225.9, 7.0)">s</text><text xml:space="preserve" font-family="Helvetica-Light" font-size="26.5" fill="#000000" transform="matrix(1.00, 0.00, -0.00, -1.00, 239.2, 7.0)"> </text><text xml:space="preserve" font-family="Helvetica-Light" font-size="26.5" fill="#000000" transform="matrix(1.00, 0.00, -0.00, -1.00, 246.6, 7.0)">j</text><text xml:space="preserve" font-family="Helvetica-Light" font-size="26.5" fill="#000000" transform="matrix(1.00, 0.00, -0.00, -1.00, 252.4, 7.0)">u</text><text xml:space="preserve" font-family="Helvetica-Light" font-size="26.5" fill="#000000" transform="matrix(1.00, 0.00, -0.00, -1.00, 267.2, 7.0)">s</text><text xml:space="preserve" font-family="Helvetica-Light" font-size="26.5" fill="#000000" transform="matrix(1.00, 0.00, -0.00, -1.00, 280.5, 7.0)">t</text><text xml:space="preserve" font-family="Helvetica-Light" font-size="26.5" fill="#000000" transform="matrix(1.00, 0.00, -0.00, -1.00, 287.8, 7.0)"> </text><text xml:space="preserve" font-family="Helvetica-Light" font-size="26.5" fill="#000000" transform="matrix(1.00, 0.00, -0.00, -1.00, 295.2, 7.0)">a</text><text xml:space="preserve" font-family="Helvetica-Light" font-size="26.5" fill="#000000" transform="matrix(1.00, 0.00, -0.00, -1.00, 309.9, 7.0)"> </text><text xml:space="preserve" font-family="Helvetica-Light" font-size="26.5" fill="#000000" transform="matrix(1.00, 0.00, -0.00, -1.00, 317.3, 7.0)">n</text><text xml:space="preserve" font-family="Helvetica-Light" font-size="26.5" fill="#000000" transform="matrix(1.00, 0.00, -0.00, -1.00, 332.1, 7.0)">e</text><text xml:space="preserve" font-family="Helvetica-Light" font-size="26.5" fill="#000000" transform="matrix(1.00, 0.00, -0.00, -1.00, 346.8, 7.0)">w</text><text xml:space="preserve" font-family="Helvetica-Light" font-size="26.5" fill="#000000" transform="matrix(1.00, 0.00, -0.00, -1.00, 366.0, 7.0)">t</text><text xml:space="preserve" font-family="Helvetica-Light" font-size="26.5" fill="#000000" transform="matrix(1.00, 0.00, -0.00, -1.00, 373.3, 7.0)">y</text><text xml:space="preserve" font-family="Helvetica-Light" font-size="26.5" fill="#000000" transform="matrix(1.00, 0.00, -0.00, -1.00, 386.6, 7.0)">p</text><text xml:space="preserve" font-family="Helvetica-Light" font-size="26.5" fill="#000000" transform="matrix(1.00, 0.00, -0.00, -1.00, 402.8, 7.0)">e</text><text xml:space="preserve" font-family="Helvetica-Light" font-size="26.5" fill="#000000" transform="matrix(1.00, 0.00, -0.00, -1.00, 417.5, 7.0)"> </text><text xml:space="preserve" font-family="Helvetica-Light" font-size="26.5" fill="#000000" transform="matrix(1.00, 0.00, -0.00, -1.00, 424.9, 7.0)">a</text><text xml:space="preserve" font-family="Helvetica-Light" font-size="26.5" fill="#000000" transform="matrix(1.00, 0.00, -0.00, -1.00, 439.7, 7.0)">r</text><text xml:space="preserve" font-family="Helvetica-Light" font-size="26.5" fill="#000000" transform="matrix(1.00, 0.00, -0.00, -1.00, 448.0, 7.0)">o</text><text xml:space="preserve" font-family="Helvetica-Light" font-size="26.5" fill="#000000" transform="matrix(1.00, 0.00, -0.00, -1.00, 462.8, 7.0)">u</text><text xml:space="preserve" font-family="Helvetica-Light" font-size="26.5" fill="#000000" transform="matrix(1.00, 0.00, -0.00, -1.00, 477.5, 7.0)">n</text><text xml:space="preserve" font-family="Helvetica-Light" font-size="26.5" fill="#000000" transform="matrix(1.00, 0.00, -0.00, -1.00, 492.2, 7.0)">d</text><text xml:space="preserve" font-family="Helvetica-Light" font-size="26.5" fill="#000000" transform="matrix(1.00, 0.00, -0.00, -1.00, 508.4, 7.0)"> </text><text xml:space="preserve" font-family="Helvetica-Light" font-size="26.5" fill="#000000" transform="matrix(1.00, 0.00, -0.00, -1.00, 515.8, 7.0)">R</text><text xml:space="preserve" font-family="Helvetica-Light" font-size="26.5" fill="#000000" transform="matrix(1.00, 0.00, -0.00, -1.00, 533.5, 7.0)">e</text><text xml:space="preserve" font-family="Helvetica-Light" font-size="26.5" fill="#000000" transform="matrix(1.00, 0.00, -0.00, -1.00, 548.3, 7.0)">a</text><text xml:space="preserve" font-family="Helvetica-Light" font-size="26.5" fill="#000000" transform="matrix(1.00, 0.00, -0.00, -1.00, 563.0, 7.0)">d</text><text xml:space="preserve" font-family="Helvetica-Light" font-size="26.5" fill="#000000" transform="matrix(1.00, 0.00, -0.00, -1.00, 579.2, 7.0)">e</text><text xml:space="preserve" font-family="Helvetica-Light" font-size="26.5" fill="#000000" transform="matrix(1.00, 0.00, -0.00, -1.00, 593.9, 7.0)">r</text><text xml:space="preserve" font-family="Helvetica-Light" font-size="26.5" fill="#000000" transform="matrix(1.00, 0.00, -0.00, -1.00, 602.8, 7.0)">T</text></g></svg>