<?xml version="1.0" encoding="UTF-8" standalone="no"?><svg xmlns="http://www.w3.org/2000/svg" xmlns:xlink="http://www.w3.org/1999/xlink" clip-rule="evenodd" stroke-miterlimit="4.00" viewBox="0 0 465 23"><desc>SVG generated by Keynote</desc><defs></defs><g transform="matrix(1.00, 0.00, -0.00, -1.00, 0.0, 23.0)"><text xml:space="preserve" font-family="Monaco" font-size="25.0" fill="#000000" transform="matrix(1.00, 0.00, -0.00, -1.00, 2.0, 2.0)">v</text><text xml:space="preserve" font-family="Monaco" font-size="25.0" fill="#000000" transform="matrix(1.00, 0.00, -0.00, -1.00, 17.0, 2.0)">i</text><text xml:space="preserve" font-family="Monaco" font-size="25.0" fill="#000000" transform="matrix(1.00, 0.00, -0.00, -1.00, 32.0, 2.0)">e</text><text xml:space="preserve" font-family="Monaco" font-size="25.0" fill="#000000" transform="matrix(1.00, 0.00, -0.00, -1.00, 46.9, 2.0)">w</text><text xml:space="preserve" font-family="Monaco" font-size="25.0" fill="#000000" transform="matrix(1.00, 0.00, -0.00, -1.00, 61.9, 2.0)"> </text><text xml:space="preserve" font-family="Monaco" font-size="25.0" fill="#000000" transform="matrix(1.00, 0.00, -0.00, -1.00, 76.9, 2.0)">:</text><text xml:space="preserve" font-family="Monaco" font-size="25.0" fill="#000000" transform="matrix(1.00, 0.00, -0.00, -1.00, 91.9, 2.0)">:</text><text xml:space="preserve" font-family="Monaco" font-size="25.0" fill="#000000" transform="matrix(1.00, 0.00, -0.00, -1.00, 106.9, 2.0)"> </text><text xml:space="preserve" font-family="Monaco" font-size="25.0" fill="#000000" transform="matrix(1.00, 0.00, -0.00, -1.00, 121.8, 2.0)"> </text><text xml:space="preserve" font-family="Monaco" font-size="25.0" fill="#000000" transform="matrix(1.00, 0.00, -0.00, -1.00, 136.8, 2.0)"> </text><text xml:space="preserve" font-family="Monaco" font-size="25.0" fill="#000000" transform="matrix(1.00, 0.00, -0.00, -1.00, 151.8, 2.0)"> </text><text xml:space="preserve" font-family="Monaco" font-size="25.0" fill="#000000" transform="matrix(1.00, 0.00, -0.00, -1.00, 166.8, 2.0)">R</text><text xml:space="preserve" font-family="Monaco" font-size="25.0" fill="#000000" transform="matrix(1.00, 0.00, -0.00, -1.00, 181.8, 2.0)">e</text><text xml:space="preserve" font-family="Monaco" font-size="25.0" fill="#000000" transform="matrix(1.00, 0.00, -0.00, -1.00, 196.7, 2.0)">a</text><text xml:space="preserve" font-family="Monaco" font-size="25.0" fill="#000000" transform="matrix(1.00, 0.00, -0.00, -1.00, 211.7, 2.0)">d</text><text xml:space="preserve" font-family="Monaco" font-size="25.0" fill="#000000" transform="matrix(1.00, 0.00, -0.00, -1.00, 226.7, 2.0)">e</text><text xml:space="preserve" font-family="Monaco" font-size="25.0" fill="#000000" transform="matrix(1.00, 0.00, -0.00, -1.00, 241.7, 2.0)">r</text><text xml:space="preserve" font-family="Monaco" font-size="25.0" fill="#000000" transform="matrix(1.00, 0.00, -0.00, -1.00, 256.7, 2.0)">T</text><text xml:space="preserve" font-family="Monaco" font-size="25.0" fill="#000000" transform="matrix(1.00, 0.00, -0.00, -1.00, 271.6, 2.0)"> </text><text xml:space="preserve" font-family="Monaco" font-size="25.0" fill="#000000" transform="matrix(1.00, 0.00, -0.00, -1.00, 286.6, 2.0)">M</text><text xml:space="preserve" font-family="Monaco" font-size="25.0" fill="#000000" transform="matrix(1.00, 0.00, -0.00, -1.00, 301.6, 2.0)">o</text><text xml:space="preserve" font-family="Monaco" font-size="25.0" fill="#000000" transform="matrix(1.00, 0.00, -0.00, -1.00, 316.6, 2.0)">d</text><text xml:space="preserve" font-family="Monaco" font-size="25.0" fill="#000000" transform="matrix(1.00, 0.00, -0.00, -1.00, 331.6, 2.0)">e</text><text xml:space="preserve" font-family="Monaco" font-size="25.0" fill="#000000" transform="matrix(1.00, 0.00, -0.00, -1.00, 346.6, 2.0)">l</text><text xml:space="preserve" font-family="Monaco" font-size="25.0" fill="#000000" transform="matrix(1.00, 0.00, -0.00, -1.00, 361.5, 2.0)"> </text><text xml:space="preserve" font-family="Monaco" font-size="25.0" fill="#000000" transform="matrix(1.00, 0.00, -0.00, -1.00, 376.5, 2.0)">m</text><text xml:space="preserve" font-family="Monaco" font-size="25.0" fill="#000000" transform="matrix(1.00, 0.00, -0.00, -1.00, 391.5, 2.0)"> </text><text xml:space="preserve" font-family="Monaco" font-size="25.0" fill="#000000" transform="matrix(1.00, 0.00, -0.00, -1.00, 406.5, 2.0)">H</text><text xml:space="preserve" font-family="Monaco" font-size="25.0" fill="#000000" transform="matrix(1.00, 0.00, -0.00, -1.00, 421.5, 2.0)">t</text><text xml:space="preserve" font-family="Monaco" font-size="25.0" fill="#000000" transform="matrix(1.00, 0.00, -0.00, -1.00, 436.4, 2.0)">m</text><text xml:space="preserve" font-family="Monaco" font-size="25.0" fill="#000000" transform="matrix(1.00, 0.00, -0.00, -1.00, 451.4, 2.0)">l</text></g></svg>