<?xml version="1.0" encoding="UTF-8" standalone="no"?><svg xmlns="http://www.w3.org/2000/svg" xmlns:xlink="http://www.w3.org/1999/xlink" clip-rule="evenodd" stroke-miterlimit="4.00" viewBox="0 0 1024 768"><desc>SVG generated by Keynote</desc><defs></defs><g transform="matrix(1.00, 0.00, -0.00, -1.00, 0.0, 768.0)"><path d="M 0.0 768.0 L 1024.0 768.0 L 1024.0 0.0 L 0.0 0.0 Z M 0.0 768.0 " fill="#FEFFFE"></path><text xml:space="preserve" font-family="Helvetica-Light" font-size="76.0" fill="#000000" transform="matrix(1.00, 0.00, -0.00, -1.00, 81.0, 619.0)">E</text><text xml:space="preserve" font-family="Helvetica-Light" font-size="76.0" fill="#000000" transform="matrix(1.00, 0.00, -0.00, -1.00, 127.4, 619.0)">l</text><text xml:space="preserve" font-family="Helvetica-Light" font-size="76.0" fill="#000000" transform="matrix(1.00, 0.00, -0.00, -1.00, 144.3, 619.0)">m</text><text xml:space="preserve" font-family="Helvetica-Light" font-size="76.0" fill="#000000" transform="matrix(1.00, 0.00, -0.00, -1.00, 207.6, 619.0)">,</text><text xml:space="preserve" font-family="Helvetica-Light" font-size="76.0" fill="#000000" transform="matrix(1.00, 0.00, -0.00, -1.00, 228.7, 619.0)"> </text><text xml:space="preserve" font-family="Helvetica-Light" font-size="76.0" fill="#000000" transform="matrix(1.00, 0.00, -0.00, -1.00, 249.9, 619.0)">R</text><text xml:space="preserve" font-family="Helvetica-Light" font-size="76.0" fill="#000000" transform="matrix(1.00, 0.00, -0.00, -1.00, 300.6, 619.0)">e</text><text xml:space="preserve" font-family="Helvetica-Light" font-size="76.0" fill="#000000" transform="matrix(1.00, 0.00, -0.00, -1.00, 342.8, 619.0)">a</text><text xml:space="preserve" font-family="Helvetica-Light" font-size="76.0" fill="#000000" transform="matrix(1.00, 0.00, -0.00, -1.00, 385.1, 619.0)">c</text><text xml:space="preserve" font-family="Helvetica-Light" font-size="76.0" fill="#000000" transform="matrix(1.00, 0.00, -0.00, -1.00, 427.3, 619.0)">t</text><text xml:space="preserve" font-family="Helvetica-Light" font-size="76.0" fill="#000000" transform="matrix(1.00, 0.00, -0.00, -1.00, 448.5, 619.0)">,</text><text xml:space="preserve" font-family="Helvetica-Light" font-size="76.0" fill="#000000" transform="matrix(1.00, 0.00, -0.00, -1.00, 469.6, 619.0)"> </text><text xml:space="preserve" font-family="Helvetica-Light" font-size="76.0" fill="#000000" transform="matrix(1.00, 0.00, -0.00, -1.00, 490.7, 619.0)">O</text><text xml:space="preserve" font-family="Helvetica-Light" font-size="76.0" fill="#000000" transform="matrix(1.00, 0.00, -0.00, -1.00, 549.8, 619.0)">m</text><text xml:space="preserve" font-family="Helvetica-Light" font-size="76.0" fill="#000000" transform="matrix(1.00, 0.00, -0.00, -1.00, 613.2, 619.0)">,</text><text xml:space="preserve" font-family="Helvetica-Light" font-size="76.0" fill="#000000" transform="matrix(1.00, 0.00, -0.00, -1.00, 634.3, 619.0)"> </text><text xml:space="preserve" font-family="Helvetica-Light" font-size="76.0" fill="#000000" transform="matrix(1.00, 0.00, -0.00, -1.00, 655.4, 619.0)">F</text><text xml:space="preserve" font-family="Helvetica-Light" font-size="76.0" fill="#000000" transform="matrix(1.00, 0.00, -0.00, -1.00, 697.7, 619.0)">l</text><text xml:space="preserve" font-family="Helvetica-Light" font-size="76.0" fill="#000000" transform="matrix(1.00, 0.00, -0.00, -1.00, 714.5, 619.0)">u</text><text xml:space="preserve" font-family="Helvetica-Light" font-size="76.0" fill="#000000" transform="matrix(1.00, 0.00, -0.00, -1.00, 756.8, 619.0)">x</text><text xml:space="preserve" font-family="Helvetica-Light" font-size="76.0" fill="#000000" transform="matrix(1.00, 0.00, -0.00, -1.00, 794.8, 619.0)">,</text><text xml:space="preserve" font-family="Helvetica-Light" font-size="76.0" fill="#000000" transform="matrix(1.00, 0.00, -0.00, -1.00, 815.9, 619.0)"> </text><text xml:space="preserve" font-family="Helvetica-Light" font-size="76.0" fill="#000000" transform="matrix(1.00, 0.00, -0.00, -1.00, 837.0, 619.0)">e</text><text xml:space="preserve" font-family="Helvetica-Light" font-size="76.0" fill="#000000" transform="matrix(1.00, 0.00, -0.00, -1.00, 879.3, 619.0)">t</text><text xml:space="preserve" font-family="Helvetica-Light" font-size="76.0" fill="#000000" transform="matrix(1.00, 0.00, -0.00, -1.00, 900.4, 619.0)">c</text><text xml:space="preserve" font-family="Helvetica-Light" font-size="18.0" fill="#000000" transform="matrix(1.00, 0.00, -0.00, -1.00, 506.0, 18.0)">3</text><text xml:space="preserve" font-family="Monaco" font-size="32.0" fill="#000000" transform="matrix(1.00, 0.00, -0.00, -1.00, 71.0, 477.0)">d</text><text xml:space="preserve" font-family="Monaco" font-size="32.0" fill="#000000" transform="matrix(1.00, 0.00, -0.00, -1.00, 90.2, 477.0)">a</text><text xml:space="preserve" font-family="Monaco" font-size="32.0" fill="#000000" transform="matrix(1.00, 0.00, -0.00, -1.00, 109.4, 477.0)">t</text><text xml:space="preserve" font-family="Monaco" font-size="32.0" fill="#000000" transform="matrix(1.00, 0.00, -0.00, -1.00, 128.6, 477.0)">a</text><text xml:space="preserve" font-family="Monaco" font-size="32.0" fill="#000000" transform="matrix(1.00, 0.00, -0.00, -1.00, 147.8, 477.0)"> </text><text xml:space="preserve" font-family="Monaco" font-size="32.0" fill="#000000" transform="matrix(1.00, 0.00, -0.00, -1.00, 167.0, 477.0)">M</text><text xml:space="preserve" font-family="Monaco" font-size="32.0" fill="#000000" transform="matrix(1.00, 0.00, -0.00, -1.00, 186.2, 477.0)">o</text><text xml:space="preserve" font-family="Monaco" font-size="32.0" fill="#000000" transform="matrix(1.00, 0.00, -0.00, -1.00, 205.4, 477.0)">d</text><text xml:space="preserve" font-family="Monaco" font-size="32.0" fill="#000000" transform="matrix(1.00, 0.00, -0.00, -1.00, 224.7, 477.0)">e</text><text xml:space="preserve" font-family="Monaco" font-size="32.0" fill="#000000" transform="matrix(1.00, 0.00, -0.00, -1.00, 243.9, 477.0)">l</text><text xml:space="preserve" font-family="Monaco" font-size="32.0" fill="#000000" transform="matrix(1.00, 0.00, -0.00, -1.00, 263.1, 477.0)"> </text><text xml:space="preserve" font-family="Monaco" font-size="32.0" fill="#000000" transform="matrix(1.00, 0.00, -0.00, -1.00, 282.3, 477.0)">=</text><text xml:space="preserve" font-family="Monaco" font-size="32.0" fill="#000000" transform="matrix(1.00, 0.00, -0.00, -1.00, 301.5, 477.0)"> </text><text xml:space="preserve" font-family="Monaco" font-size="32.0" fill="#000000" transform="matrix(1.00, 0.00, -0.00, -1.00, 320.7, 477.0)">M</text><text xml:space="preserve" font-family="Monaco" font-size="32.0" fill="#000000" transform="matrix(1.00, 0.00, -0.00, -1.00, 339.9, 477.0)">o</text><text xml:space="preserve" font-family="Monaco" font-size="32.0" fill="#000000" transform="matrix(1.00, 0.00, -0.00, -1.00, 359.1, 477.0)">d</text><text xml:space="preserve" font-family="Monaco" font-size="32.0" fill="#000000" transform="matrix(1.00, 0.00, -0.00, -1.00, 378.3, 477.0)">e</text><text xml:space="preserve" font-family="Monaco" font-size="32.0" fill="#000000" transform="matrix(1.00, 0.00, -0.00, -1.00, 397.5, 477.0)">l</text><text xml:space="preserve" font-family="Monaco" font-size="32.0" fill="#000000" transform="matrix(1.00, 0.00, -0.00, -1.00, 416.7, 477.0)"> </text><text xml:space="preserve" font-family="Monaco" font-size="32.0" fill="#000000" transform="matrix(1.00, 0.00, -0.00, -1.00, 435.9, 477.0)">I</text><text xml:space="preserve" font-family="Monaco" font-size="32.0" fill="#000000" transform="matrix(1.00, 0.00, -0.00, -1.00, 455.1, 477.0)">n</text><text xml:space="preserve" font-family="Monaco" font-size="32.0" fill="#000000" transform="matrix(1.00, 0.00, -0.00, -1.00, 474.3, 477.0)">t</text><text xml:space="preserve" font-family="Monaco" font-size="32.0" fill="#C82505" transform="matrix(1.00, 0.00, -0.00, -1.00, 493.5, 477.0)"> </text><text xml:space="preserve" font-family="Monaco" font-size="32.0" fill="#000000" transform="matrix(1.00, 0.00, -0.00, -1.00, 71.0, 376.0)">d</text><text xml:space="preserve" font-family="Monaco" font-size="32.0" fill="#000000" transform="matrix(1.00, 0.00, -0.00, -1.00, 90.2, 376.0)">a</text><text xml:space="preserve" font-family="Monaco" font-size="32.0" fill="#000000" transform="matrix(1.00, 0.00, -0.00, -1.00, 109.4, 376.0)">t</text><text xml:space="preserve" font-family="Monaco" font-size="32.0" fill="#000000" transform="matrix(1.00, 0.00, -0.00, -1.00, 128.6, 376.0)">a</text><text xml:space="preserve" font-family="Monaco" font-size="32.0" fill="#000000" transform="matrix(1.00, 0.00, -0.00, -1.00, 147.8, 376.0)"> </text><text xml:space="preserve" font-family="Monaco" font-size="32.0" fill="#000000" transform="matrix(1.00, 0.00, -0.00, -1.00, 167.0, 376.0)">A</text><text xml:space="preserve" font-family="Monaco" font-size="32.0" fill="#000000" transform="matrix(1.00, 0.00, -0.00, -1.00, 186.2, 376.0)">c</text><text xml:space="preserve" font-family="Monaco" font-size="32.0" fill="#000000" transform="matrix(1.00, 0.00, -0.00, -1.00, 205.4, 376.0)">t</text><text xml:space="preserve" font-family="Monaco" font-size="32.0" fill="#000000" transform="matrix(1.00, 0.00, -0.00, -1.00, 224.7, 376.0)">i</text><text xml:space="preserve" font-family="Monaco" font-size="32.0" fill="#000000" transform="matrix(1.00, 0.00, -0.00, -1.00, 243.9, 376.0)">o</text><text xml:space="preserve" font-family="Monaco" font-size="32.0" fill="#000000" transform="matrix(1.00, 0.00, -0.00, -1.00, 263.1, 376.0)">n</text><text xml:space="preserve" font-family="Monaco" font-size="32.0" fill="#000000" transform="matrix(1.00, 0.00, -0.00, -1.00, 282.3, 376.0)"> </text><text xml:space="preserve" font-family="Monaco" font-size="32.0" fill="#000000" transform="matrix(1.00, 0.00, -0.00, -1.00, 301.5, 376.0)">=</text><text xml:space="preserve" font-family="Monaco" font-size="32.0" fill="#000000" transform="matrix(1.00, 0.00, -0.00, -1.00, 320.7, 376.0)"> </text><text xml:space="preserve" font-family="Monaco" font-size="32.0" fill="#000000" transform="matrix(1.00, 0.00, -0.00, -1.00, 339.9, 376.0)">R</text><text xml:space="preserve" font-family="Monaco" font-size="32.0" fill="#000000" transform="matrix(1.00, 0.00, -0.00, -1.00, 359.1, 376.0)">e</text><text xml:space="preserve" font-family="Monaco" font-size="32.0" fill="#000000" transform="matrix(1.00, 0.00, -0.00, -1.00, 378.3, 376.0)">s</text><text xml:space="preserve" font-family="Monaco" font-size="32.0" fill="#000000" transform="matrix(1.00, 0.00, -0.00, -1.00, 397.5, 376.0)">e</text><text xml:space="preserve" font-family="Monaco" font-size="32.0" fill="#000000" transform="matrix(1.00, 0.00, -0.00, -1.00, 416.7, 376.0)">t</text><text xml:space="preserve" font-family="Monaco" font-size="32.0" fill="#000000" transform="matrix(1.00, 0.00, -0.00, -1.00, 435.9, 376.0)"> </text><text xml:space="preserve" font-family="Monaco" font-size="32.0" fill="#000000" transform="matrix(1.00, 0.00, -0.00, -1.00, 455.1, 376.0)">|</text><text xml:space="preserve" font-family="Monaco" font-size="32.0" fill="#000000" transform="matrix(1.00, 0.00, -0.00, -1.00, 474.3, 376.0)"> </text><text xml:space="preserve" font-family="Monaco" font-size="32.0" fill="#000000" transform="matrix(1.00, 0.00, -0.00, -1.00, 493.5, 376.0)">S</text><text xml:space="preserve" font-family="Monaco" font-size="32.0" fill="#000000" transform="matrix(1.00, 0.00, -0.00, -1.00, 512.7, 376.0)">e</text><text xml:space="preserve" font-family="Monaco" font-size="32.0" fill="#000000" transform="matrix(1.00, 0.00, -0.00, -1.00, 532.0, 376.0)">t</text><text xml:space="preserve" font-family="Monaco" font-size="32.0" fill="#000000" transform="matrix(1.00, 0.00, -0.00, -1.00, 551.2, 376.0)">C</text><text xml:space="preserve" font-family="Monaco" font-size="32.0" fill="#000000" transform="matrix(1.00, 0.00, -0.00, -1.00, 570.4, 376.0)">o</text><text xml:space="preserve" font-family="Monaco" font-size="32.0" fill="#000000" transform="matrix(1.00, 0.00, -0.00, -1.00, 589.6, 376.0)">u</text><text xml:space="preserve" font-family="Monaco" font-size="32.0" fill="#000000" transform="matrix(1.00, 0.00, -0.00, -1.00, 608.8, 376.0)">n</text><text xml:space="preserve" font-family="Monaco" font-size="32.0" fill="#000000" transform="matrix(1.00, 0.00, -0.00, -1.00, 628.0, 376.0)">t</text><text xml:space="preserve" font-family="Monaco" font-size="32.0" fill="#000000" transform="matrix(1.00, 0.00, -0.00, -1.00, 647.2, 376.0)"> </text><text xml:space="preserve" font-family="Monaco" font-size="32.0" fill="#000000" transform="matrix(1.00, 0.00, -0.00, -1.00, 666.4, 376.0)">I</text><text xml:space="preserve" font-family="Monaco" font-size="32.0" fill="#000000" transform="matrix(1.00, 0.00, -0.00, -1.00, 685.6, 376.0)">n</text><text xml:space="preserve" font-family="Monaco" font-size="32.0" fill="#000000" transform="matrix(1.00, 0.00, -0.00, -1.00, 704.8, 376.0)">t</text><text xml:space="preserve" font-family="Monaco" font-size="32.0" fill="#000000" transform="matrix(1.00, 0.00, -0.00, -1.00, 724.0, 376.0)"> </text><text xml:space="preserve" font-family="Monaco" font-size="32.0" fill="#000000" transform="matrix(1.00, 0.00, -0.00, -1.00, 743.2, 376.0)"> </text><text xml:space="preserve" font-family="Monaco" font-size="32.0" fill="#C82505" transform="matrix(1.00, 0.00, -0.00, -1.00, 71.0, 333.0)"> </text><text xml:space="preserve" font-family="Monaco" font-size="32.0" fill="#000000" transform="matrix(1.00, 0.00, -0.00, -1.00, 71.0, 232.0)">v</text><text xml:space="preserve" font-family="Monaco" font-size="32.0" fill="#000000" transform="matrix(1.00, 0.00, -0.00, -1.00, 90.2, 232.0)">i</text><text xml:space="preserve" font-family="Monaco" font-size="32.0" fill="#000000" transform="matrix(1.00, 0.00, -0.00, -1.00, 109.4, 232.0)">e</text><text xml:space="preserve" font-family="Monaco" font-size="32.0" fill="#000000" transform="matrix(1.00, 0.00, -0.00, -1.00, 128.6, 232.0)">w</text><text xml:space="preserve" font-family="Monaco" font-size="32.0" fill="#000000" transform="matrix(1.00, 0.00, -0.00, -1.00, 147.8, 232.0)"> </text><text xml:space="preserve" font-family="Monaco" font-size="32.0" fill="#000000" transform="matrix(1.00, 0.00, -0.00, -1.00, 167.0, 232.0)">:</text><text xml:space="preserve" font-family="Monaco" font-size="32.0" fill="#000000" transform="matrix(1.00, 0.00, -0.00, -1.00, 186.2, 232.0)">:</text><text xml:space="preserve" font-family="Monaco" font-size="32.0" fill="#000000" transform="matrix(1.00, 0.00, -0.00, -1.00, 205.4, 232.0)"> </text><text xml:space="preserve" font-family="Monaco" font-size="32.0" fill="#000000" transform="matrix(1.00, 0.00, -0.00, -1.00, 224.7, 232.0)">M</text><text xml:space="preserve" font-family="Monaco" font-size="32.0" fill="#000000" transform="matrix(1.00, 0.00, -0.00, -1.00, 243.9, 232.0)">o</text><text xml:space="preserve" font-family="Monaco" font-size="32.0" fill="#000000" transform="matrix(1.00, 0.00, -0.00, -1.00, 263.1, 232.0)">d</text><text xml:space="preserve" font-family="Monaco" font-size="32.0" fill="#000000" transform="matrix(1.00, 0.00, -0.00, -1.00, 282.3, 232.0)">e</text><text xml:space="preserve" font-family="Monaco" font-size="32.0" fill="#000000" transform="matrix(1.00, 0.00, -0.00, -1.00, 301.5, 232.0)">l</text><text xml:space="preserve" font-family="Monaco" font-size="32.0" fill="#000000" transform="matrix(1.00, 0.00, -0.00, -1.00, 320.7, 232.0)"> </text><text xml:space="preserve" font-family="Monaco" font-size="32.0" fill="#000000" transform="matrix(1.00, 0.00, -0.00, -1.00, 339.9, 232.0)">-</text><text xml:space="preserve" font-family="Monaco" font-size="32.0" fill="#000000" transform="matrix(1.00, 0.00, -0.00, -1.00, 359.1, 232.0)">&gt;</text><text xml:space="preserve" font-family="Monaco" font-size="32.0" fill="#000000" transform="matrix(1.00, 0.00, -0.00, -1.00, 378.3, 232.0)"> </text><text xml:space="preserve" font-family="Monaco" font-size="32.0" fill="#000000" transform="matrix(1.00, 0.00, -0.00, -1.00, 397.5, 232.0)">H</text><text xml:space="preserve" font-family="Monaco" font-size="32.0" fill="#000000" transform="matrix(1.00, 0.00, -0.00, -1.00, 416.7, 232.0)">t</text><text xml:space="preserve" font-family="Monaco" font-size="32.0" fill="#000000" transform="matrix(1.00, 0.00, -0.00, -1.00, 435.9, 232.0)">m</text><text xml:space="preserve" font-family="Monaco" font-size="32.0" fill="#000000" transform="matrix(1.00, 0.00, -0.00, -1.00, 455.1, 232.0)">l</text><text xml:space="preserve" font-family="Monaco" font-size="32.0" fill="#000000" transform="matrix(1.00, 0.00, -0.00, -1.00, 474.3, 232.0)"> </text><text xml:space="preserve" font-family="Monaco" font-size="32.0" fill="#000000" transform="matrix(1.00, 0.00, -0.00, -1.00, 71.0, 131.0)">u</text><text xml:space="preserve" font-family="Monaco" font-size="32.0" fill="#000000" transform="matrix(1.00, 0.00, -0.00, -1.00, 90.2, 131.0)">p</text><text xml:space="preserve" font-family="Monaco" font-size="32.0" fill="#000000" transform="matrix(1.00, 0.00, -0.00, -1.00, 109.4, 131.0)">d</text><text xml:space="preserve" font-family="Monaco" font-size="32.0" fill="#000000" transform="matrix(1.00, 0.00, -0.00, -1.00, 128.6, 131.0)">a</text><text xml:space="preserve" font-family="Monaco" font-size="32.0" fill="#000000" transform="matrix(1.00, 0.00, -0.00, -1.00, 147.8, 131.0)">t</text><text xml:space="preserve" font-family="Monaco" font-size="32.0" fill="#000000" transform="matrix(1.00, 0.00, -0.00, -1.00, 167.0, 131.0)">e</text><text xml:space="preserve" font-family="Monaco" font-size="32.0" fill="#000000" transform="matrix(1.00, 0.00, -0.00, -1.00, 186.2, 131.0)"> </text><text xml:space="preserve" font-family="Monaco" font-size="32.0" fill="#000000" transform="matrix(1.00, 0.00, -0.00, -1.00, 205.4, 131.0)">:</text><text xml:space="preserve" font-family="Monaco" font-size="32.0" fill="#000000" transform="matrix(1.00, 0.00, -0.00, -1.00, 224.7, 131.0)">:</text><text xml:space="preserve" font-family="Monaco" font-size="32.0" fill="#000000" transform="matrix(1.00, 0.00, -0.00, -1.00, 243.9, 131.0)"> </text><text xml:space="preserve" font-family="Monaco" font-size="32.0" fill="#000000" transform="matrix(1.00, 0.00, -0.00, -1.00, 263.1, 131.0)">A</text><text xml:space="preserve" font-family="Monaco" font-size="32.0" fill="#000000" transform="matrix(1.00, 0.00, -0.00, -1.00, 282.3, 131.0)">c</text><text xml:space="preserve" font-family="Monaco" font-size="32.0" fill="#000000" transform="matrix(1.00, 0.00, -0.00, -1.00, 301.5, 131.0)">t</text><text xml:space="preserve" font-family="Monaco" font-size="32.0" fill="#000000" transform="matrix(1.00, 0.00, -0.00, -1.00, 320.7, 131.0)">i</text><text xml:space="preserve" font-family="Monaco" font-size="32.0" fill="#000000" transform="matrix(1.00, 0.00, -0.00, -1.00, 339.9, 131.0)">o</text><text xml:space="preserve" font-family="Monaco" font-size="32.0" fill="#000000" transform="matrix(1.00, 0.00, -0.00, -1.00, 359.1, 131.0)">n</text><text xml:space="preserve" font-family="Monaco" font-size="32.0" fill="#000000" transform="matrix(1.00, 0.00, -0.00, -1.00, 378.3, 131.0)"> </text><text xml:space="preserve" font-family="Monaco" font-size="32.0" fill="#000000" transform="matrix(1.00, 0.00, -0.00, -1.00, 397.5, 131.0)">-</text><text xml:space="preserve" font-family="Monaco" font-size="32.0" fill="#000000" transform="matrix(1.00, 0.00, -0.00, -1.00, 416.7, 131.0)">&gt;</text><text xml:space="preserve" font-family="Monaco" font-size="32.0" fill="#000000" transform="matrix(1.00, 0.00, -0.00, -1.00, 435.9, 131.0)"> </text><text xml:space="preserve" font-family="Monaco" font-size="32.0" fill="#000000" transform="matrix(1.00, 0.00, -0.00, -1.00, 455.1, 131.0)">M</text><text xml:space="preserve" font-family="Monaco" font-size="32.0" fill="#000000" transform="matrix(1.00, 0.00, -0.00, -1.00, 474.3, 131.0)">o</text><text xml:space="preserve" font-family="Monaco" font-size="32.0" fill="#000000" transform="matrix(1.00, 0.00, -0.00, -1.00, 493.5, 131.0)">d</text><text xml:space="preserve" font-family="Monaco" font-size="32.0" fill="#000000" transform="matrix(1.00, 0.00, -0.00, -1.00, 512.7, 131.0)">e</text><text xml:space="preserve" font-family="Monaco" font-size="32.0" fill="#000000" transform="matrix(1.00, 0.00, -0.00, -1.00, 532.0, 131.0)">l</text><text xml:space="preserve" font-family="Monaco" font-size="32.0" fill="#000000" transform="matrix(1.00, 0.00, -0.00, -1.00, 551.2, 131.0)"> </text><text xml:space="preserve" font-family="Monaco" font-size="32.0" fill="#000000" transform="matrix(1.00, 0.00, -0.00, -1.00, 570.4, 131.0)">-</text><text xml:space="preserve" font-family="Monaco" font-size="32.0" fill="#000000" transform="matrix(1.00, 0.00, -0.00, -1.00, 589.6, 131.0)">&gt;</text><text xml:space="preserve" font-family="Monaco" font-size="32.0" fill="#000000" transform="matrix(1.00, 0.00, -0.00, -1.00, 608.7, 131.0)"> </text><text xml:space="preserve" font-family="Monaco" font-size="32.0" fill="#000000" transform="matrix(1.00, 0.00, -0.00, -1.00, 627.9, 131.0)">M</text><text xml:space="preserve" font-family="Monaco" font-size="32.0" fill="#000000" transform="matrix(1.00, 0.00, -0.00, -1.00, 647.1, 131.0)">o</text><text xml:space="preserve" font-family="Monaco" font-size="32.0" fill="#000000" transform="matrix(1.00, 0.00, -0.00, -1.00, 666.3, 131.0)">d</text><text xml:space="preserve" font-family="Monaco" font-size="32.0" fill="#000000" transform="matrix(1.00, 0.00, -0.00, -1.00, 685.5, 131.0)">e</text><text xml:space="preserve" font-family="Monaco" font-size="32.0" fill="#000000" transform="matrix(1.00, 0.00, -0.00, -1.00, 704.7, 131.0)">l</text></g></svg>