<?xml version="1.0" encoding="UTF-8" standalone="no"?><svg xmlns="http://www.w3.org/2000/svg" xmlns:xlink="http://www.w3.org/1999/xlink" clip-rule="evenodd" stroke-miterlimit="4.00" viewBox="0 0 855 69"><desc>SVG generated by Keynote</desc><defs></defs><g transform="matrix(1.00, 0.00, -0.00, -1.00, 0.0, 69.0)"><text xml:space="preserve" font-family="Helvetica-Light" font-size="76.0" fill="#000000" transform="matrix(1.00, 0.00, -0.00, -1.00, -5.0, 11.0)">E</text><text xml:space="preserve" font-family="Helvetica-Light" font-size="76.0" fill="#000000" transform="matrix(1.00, 0.00, -0.00, -1.00, 41.4, 11.0)">l</text><text xml:space="preserve" font-family="Helvetica-Light" font-size="76.0" fill="#000000" transform="matrix(1.00, 0.00, -0.00, -1.00, 58.3, 11.0)">m</text><text xml:space="preserve" font-family="Helvetica-Light" font-size="76.0" fill="#000000" transform="matrix(1.00, 0.00, -0.00, -1.00, 121.6, 11.0)">,</text><text xml:space="preserve" font-family="Helvetica-Light" font-size="76.0" fill="#000000" transform="matrix(1.00, 0.00, -0.00, -1.00, 142.7, 11.0)"> </text><text xml:space="preserve" font-family="Helvetica-Light" font-size="76.0" fill="#000000" transform="matrix(1.00, 0.00, -0.00, -1.00, 163.9, 11.0)">R</text><text xml:space="preserve" font-family="Helvetica-Light" font-size="76.0" fill="#000000" transform="matrix(1.00, 0.00, -0.00, -1.00, 214.6, 11.0)">e</text><text xml:space="preserve" font-family="Helvetica-Light" font-size="76.0" fill="#000000" transform="matrix(1.00, 0.00, -0.00, -1.00, 256.8, 11.0)">a</text><text xml:space="preserve" font-family="Helvetica-Light" font-size="76.0" fill="#000000" transform="matrix(1.00, 0.00, -0.00, -1.00, 299.1, 11.0)">c</text><text xml:space="preserve" font-family="Helvetica-Light" font-size="76.0" fill="#000000" transform="matrix(1.00, 0.00, -0.00, -1.00, 341.3, 11.0)">t</text><text xml:space="preserve" font-family="Helvetica-Light" font-size="76.0" fill="#000000" transform="matrix(1.00, 0.00, -0.00, -1.00, 362.5, 11.0)">,</text><text xml:space="preserve" font-family="Helvetica-Light" font-size="76.0" fill="#000000" transform="matrix(1.00, 0.00, -0.00, -1.00, 383.6, 11.0)"> </text><text xml:space="preserve" font-family="Helvetica-Light" font-size="76.0" fill="#000000" transform="matrix(1.00, 0.00, -0.00, -1.00, 404.7, 11.0)">O</text><text xml:space="preserve" font-family="Helvetica-Light" font-size="76.0" fill="#000000" transform="matrix(1.00, 0.00, -0.00, -1.00, 463.8, 11.0)">m</text><text xml:space="preserve" font-family="Helvetica-Light" font-size="76.0" fill="#000000" transform="matrix(1.00, 0.00, -0.00, -1.00, 527.2, 11.0)">,</text><text xml:space="preserve" font-family="Helvetica-Light" font-size="76.0" fill="#000000" transform="matrix(1.00, 0.00, -0.00, -1.00, 548.3, 11.0)"> </text><text xml:space="preserve" font-family="Helvetica-Light" font-size="76.0" fill="#000000" transform="matrix(1.00, 0.00, -0.00, -1.00, 569.4, 11.0)">F</text><text xml:space="preserve" font-family="Helvetica-Light" font-size="76.0" fill="#000000" transform="matrix(1.00, 0.00, -0.00, -1.00, 611.7, 11.0)">l</text><text xml:space="preserve" font-family="Helvetica-Light" font-size="76.0" fill="#000000" transform="matrix(1.00, 0.00, -0.00, -1.00, 628.5, 11.0)">u</text><text xml:space="preserve" font-family="Helvetica-Light" font-size="76.0" fill="#000000" transform="matrix(1.00, 0.00, -0.00, -1.00, 670.8, 11.0)">x</text><text xml:space="preserve" font-family="Helvetica-Light" font-size="76.0" fill="#000000" transform="matrix(1.00, 0.00, -0.00, -1.00, 708.8, 11.0)">,</text><text xml:space="preserve" font-family="Helvetica-Light" font-size="76.0" fill="#000000" transform="matrix(1.00, 0.00, -0.00, -1.00, 729.9, 11.0)"> </text><text xml:space="preserve" font-family="Helvetica-Light" font-size="76.0" fill="#000000" transform="matrix(1.00, 0.00, -0.00, -1.00, 751.0, 11.0)">e</text><text xml:space="preserve" font-family="Helvetica-Light" font-size="76.0" fill="#000000" transform="matrix(1.00, 0.00, -0.00, -1.00, 793.3, 11.0)">t</text><text xml:space="preserve" font-family="Helvetica-Light" font-size="76.0" fill="#000000" transform="matrix(1.00, 0.00, -0.00, -1.00, 814.4, 11.0)">c</text></g></svg>