<?xml version="1.0" encoding="UTF-8" standalone="no"?><svg xmlns="http://www.w3.org/2000/svg" xmlns:xlink="http://www.w3.org/1999/xlink" clip-rule="evenodd" stroke-miterlimit="4.00" viewBox="0 0 424 29"><desc>SVG generated by Keynote</desc><defs></defs><g transform="matrix(1.00, 0.00, -0.00, -1.00, 0.0, 29.0)"><text xml:space="preserve" font-family="Monaco" font-size="32.0" fill="#000000" transform="matrix(1.00, 0.00, -0.00, -1.00, 1.0, 2.0)">d</text><text xml:space="preserve" font-family="Monaco" font-size="32.0" fill="#000000" transform="matrix(1.00, 0.00, -0.00, -1.00, 20.2, 2.0)">a</text><text xml:space="preserve" font-family="Monaco" font-size="32.0" fill="#000000" transform="matrix(1.00, 0.00, -0.00, -1.00, 39.4, 2.0)">t</text><text xml:space="preserve" font-family="Monaco" font-size="32.0" fill="#000000" transform="matrix(1.00, 0.00, -0.00, -1.00, 58.6, 2.0)">a</text><text xml:space="preserve" font-family="Monaco" font-size="32.0" fill="#000000" transform="matrix(1.00, 0.00, -0.00, -1.00, 77.8, 2.0)"> </text><text xml:space="preserve" font-family="Monaco" font-size="32.0" fill="#000000" transform="matrix(1.00, 0.00, -0.00, -1.00, 97.0, 2.0)">M</text><text xml:space="preserve" font-family="Monaco" font-size="32.0" fill="#000000" transform="matrix(1.00, 0.00, -0.00, -1.00, 116.2, 2.0)">o</text><text xml:space="preserve" font-family="Monaco" font-size="32.0" fill="#000000" transform="matrix(1.00, 0.00, -0.00, -1.00, 135.4, 2.0)">d</text><text xml:space="preserve" font-family="Monaco" font-size="32.0" fill="#000000" transform="matrix(1.00, 0.00, -0.00, -1.00, 154.7, 2.0)">e</text><text xml:space="preserve" font-family="Monaco" font-size="32.0" fill="#000000" transform="matrix(1.00, 0.00, -0.00, -1.00, 173.9, 2.0)">l</text><text xml:space="preserve" font-family="Monaco" font-size="32.0" fill="#000000" transform="matrix(1.00, 0.00, -0.00, -1.00, 193.1, 2.0)"> </text><text xml:space="preserve" font-family="Monaco" font-size="32.0" fill="#000000" transform="matrix(1.00, 0.00, -0.00, -1.00, 212.3, 2.0)">=</text><text xml:space="preserve" font-family="Monaco" font-size="32.0" fill="#000000" transform="matrix(1.00, 0.00, -0.00, -1.00, 231.5, 2.0)"> </text><text xml:space="preserve" font-family="Monaco" font-size="32.0" fill="#000000" transform="matrix(1.00, 0.00, -0.00, -1.00, 250.7, 2.0)">M</text><text xml:space="preserve" font-family="Monaco" font-size="32.0" fill="#000000" transform="matrix(1.00, 0.00, -0.00, -1.00, 269.9, 2.0)">o</text><text xml:space="preserve" font-family="Monaco" font-size="32.0" fill="#000000" transform="matrix(1.00, 0.00, -0.00, -1.00, 289.1, 2.0)">d</text><text xml:space="preserve" font-family="Monaco" font-size="32.0" fill="#000000" transform="matrix(1.00, 0.00, -0.00, -1.00, 308.3, 2.0)">e</text><text xml:space="preserve" font-family="Monaco" font-size="32.0" fill="#000000" transform="matrix(1.00, 0.00, -0.00, -1.00, 327.5, 2.0)">l</text><text xml:space="preserve" font-family="Monaco" font-size="32.0" fill="#000000" transform="matrix(1.00, 0.00, -0.00, -1.00, 346.7, 2.0)"> </text><text xml:space="preserve" font-family="Monaco" font-size="32.0" fill="#000000" transform="matrix(1.00, 0.00, -0.00, -1.00, 365.9, 2.0)">I</text><text xml:space="preserve" font-family="Monaco" font-size="32.0" fill="#000000" transform="matrix(1.00, 0.00, -0.00, -1.00, 385.1, 2.0)">n</text><text xml:space="preserve" font-family="Monaco" font-size="32.0" fill="#000000" transform="matrix(1.00, 0.00, -0.00, -1.00, 404.3, 2.0)">t</text><text xml:space="preserve" font-family="Monaco" font-size="32.0" fill="#C82505" transform="matrix(1.00, 0.00, -0.00, -1.00, 423.5, 2.0)"> </text></g></svg>