<?xml version="1.0" encoding="UTF-8" standalone="no"?><svg xmlns="http://www.w3.org/2000/svg" xmlns:xlink="http://www.w3.org/1999/xlink" clip-rule="evenodd" stroke-miterlimit="4.00" viewBox="0 0 651 37"><desc>SVG generated by Keynote</desc><defs></defs><g transform="matrix(1.00, 0.00, -0.00, -1.00, 0.0, 37.0)"><text xml:space="preserve" font-family="Monaco" font-size="32.0" fill="#000000" transform="matrix(1.00, 0.00, -0.00, -1.00, 0.0, 9.0)">u</text><text xml:space="preserve" font-family="Monaco" font-size="32.0" fill="#000000" transform="matrix(1.00, 0.00, -0.00, -1.00, 19.2, 9.0)">p</text><text xml:space="preserve" font-family="Monaco" font-size="32.0" fill="#000000" transform="matrix(1.00, 0.00, -0.00, -1.00, 38.4, 9.0)">d</text><text xml:space="preserve" font-family="Monaco" font-size="32.0" fill="#000000" transform="matrix(1.00, 0.00, -0.00, -1.00, 57.6, 9.0)">a</text><text xml:space="preserve" font-family="Monaco" font-size="32.0" fill="#000000" transform="matrix(1.00, 0.00, -0.00, -1.00, 76.8, 9.0)">t</text><text xml:space="preserve" font-family="Monaco" font-size="32.0" fill="#000000" transform="matrix(1.00, 0.00, -0.00, -1.00, 96.0, 9.0)">e</text><text xml:space="preserve" font-family="Monaco" font-size="32.0" fill="#000000" transform="matrix(1.00, 0.00, -0.00, -1.00, 115.2, 9.0)"> </text><text xml:space="preserve" font-family="Monaco" font-size="32.0" fill="#000000" transform="matrix(1.00, 0.00, -0.00, -1.00, 134.4, 9.0)">:</text><text xml:space="preserve" font-family="Monaco" font-size="32.0" fill="#000000" transform="matrix(1.00, 0.00, -0.00, -1.00, 153.7, 9.0)">:</text><text xml:space="preserve" font-family="Monaco" font-size="32.0" fill="#000000" transform="matrix(1.00, 0.00, -0.00, -1.00, 172.9, 9.0)"> </text><text xml:space="preserve" font-family="Monaco" font-size="32.0" fill="#000000" transform="matrix(1.00, 0.00, -0.00, -1.00, 192.1, 9.0)">A</text><text xml:space="preserve" font-family="Monaco" font-size="32.0" fill="#000000" transform="matrix(1.00, 0.00, -0.00, -1.00, 211.3, 9.0)">c</text><text xml:space="preserve" font-family="Monaco" font-size="32.0" fill="#000000" transform="matrix(1.00, 0.00, -0.00, -1.00, 230.5, 9.0)">t</text><text xml:space="preserve" font-family="Monaco" font-size="32.0" fill="#000000" transform="matrix(1.00, 0.00, -0.00, -1.00, 249.7, 9.0)">i</text><text xml:space="preserve" font-family="Monaco" font-size="32.0" fill="#000000" transform="matrix(1.00, 0.00, -0.00, -1.00, 268.9, 9.0)">o</text><text xml:space="preserve" font-family="Monaco" font-size="32.0" fill="#000000" transform="matrix(1.00, 0.00, -0.00, -1.00, 288.1, 9.0)">n</text><text xml:space="preserve" font-family="Monaco" font-size="32.0" fill="#000000" transform="matrix(1.00, 0.00, -0.00, -1.00, 307.3, 9.0)"> </text><text xml:space="preserve" font-family="Monaco" font-size="32.0" fill="#000000" transform="matrix(1.00, 0.00, -0.00, -1.00, 326.5, 9.0)">-</text><text xml:space="preserve" font-family="Monaco" font-size="32.0" fill="#000000" transform="matrix(1.00, 0.00, -0.00, -1.00, 345.7, 9.0)">&gt;</text><text xml:space="preserve" font-family="Monaco" font-size="32.0" fill="#000000" transform="matrix(1.00, 0.00, -0.00, -1.00, 364.9, 9.0)"> </text><text xml:space="preserve" font-family="Monaco" font-size="32.0" fill="#000000" transform="matrix(1.00, 0.00, -0.00, -1.00, 384.1, 9.0)">M</text><text xml:space="preserve" font-family="Monaco" font-size="32.0" fill="#000000" transform="matrix(1.00, 0.00, -0.00, -1.00, 403.3, 9.0)">o</text><text xml:space="preserve" font-family="Monaco" font-size="32.0" fill="#000000" transform="matrix(1.00, 0.00, -0.00, -1.00, 422.5, 9.0)">d</text><text xml:space="preserve" font-family="Monaco" font-size="32.0" fill="#000000" transform="matrix(1.00, 0.00, -0.00, -1.00, 441.7, 9.0)">e</text><text xml:space="preserve" font-family="Monaco" font-size="32.0" fill="#000000" transform="matrix(1.00, 0.00, -0.00, -1.00, 461.0, 9.0)">l</text><text xml:space="preserve" font-family="Monaco" font-size="32.0" fill="#000000" transform="matrix(1.00, 0.00, -0.00, -1.00, 480.2, 9.0)"> </text><text xml:space="preserve" font-family="Monaco" font-size="32.0" fill="#000000" transform="matrix(1.00, 0.00, -0.00, -1.00, 499.4, 9.0)">-</text><text xml:space="preserve" font-family="Monaco" font-size="32.0" fill="#000000" transform="matrix(1.00, 0.00, -0.00, -1.00, 518.6, 9.0)">&gt;</text><text xml:space="preserve" font-family="Monaco" font-size="32.0" fill="#000000" transform="matrix(1.00, 0.00, -0.00, -1.00, 537.7, 9.0)"> </text><text xml:space="preserve" font-family="Monaco" font-size="32.0" fill="#000000" transform="matrix(1.00, 0.00, -0.00, -1.00, 556.9, 9.0)">M</text><text xml:space="preserve" font-family="Monaco" font-size="32.0" fill="#000000" transform="matrix(1.00, 0.00, -0.00, -1.00, 576.1, 9.0)">o</text><text xml:space="preserve" font-family="Monaco" font-size="32.0" fill="#000000" transform="matrix(1.00, 0.00, -0.00, -1.00, 595.3, 9.0)">d</text><text xml:space="preserve" font-family="Monaco" font-size="32.0" fill="#000000" transform="matrix(1.00, 0.00, -0.00, -1.00, 614.5, 9.0)">e</text><text xml:space="preserve" font-family="Monaco" font-size="32.0" fill="#000000" transform="matrix(1.00, 0.00, -0.00, -1.00, 633.7, 9.0)">l</text></g></svg>