<?xml version="1.0" encoding="UTF-8" standalone="no"?><svg xmlns="http://www.w3.org/2000/svg" xmlns:xlink="http://www.w3.org/1999/xlink" clip-rule="evenodd" stroke-miterlimit="4.00" viewBox="0 0 535 24"><desc>SVG generated by Keynote</desc><defs></defs><g transform="matrix(1.00, 0.00, -0.00, -1.00, 0.0, 24.0)"><text xml:space="preserve" font-family="Helvetica-Light" font-size="16.8" fill="#000000" transform="matrix(1.00, 0.00, -0.00, -1.00, 0.9, 7.9)">•</text><text xml:space="preserve" font-family="Helvetica-Light" font-size="22.4" fill="#000000" transform="matrix(1.00, 0.00, -0.00, -1.00, 23.0, 6.0)">R</text><text xml:space="preserve" font-family="Helvetica-Light" font-size="22.4" fill="#000000" transform="matrix(1.00, 0.00, -0.00, -1.00, 38.0, 6.0)">e</text><text xml:space="preserve" font-family="Helvetica-Light" font-size="22.4" fill="#000000" transform="matrix(1.00, 0.00, -0.00, -1.00, 50.4, 6.0)">a</text><text xml:space="preserve" font-family="Helvetica-Light" font-size="22.4" fill="#000000" transform="matrix(1.00, 0.00, -0.00, -1.00, 62.9, 6.0)">d</text><text xml:space="preserve" font-family="Helvetica-Light" font-size="22.4" fill="#000000" transform="matrix(1.00, 0.00, -0.00, -1.00, 76.6, 6.0)">e</text><text xml:space="preserve" font-family="Helvetica-Light" font-size="22.4" fill="#000000" transform="matrix(1.00, 0.00, -0.00, -1.00, 89.1, 6.0)">r</text><text xml:space="preserve" font-family="Helvetica-Light" font-size="22.4" fill="#000000" transform="matrix(1.00, 0.00, -0.00, -1.00, 96.6, 6.0)">T</text><text xml:space="preserve" font-family="Helvetica-Light" font-size="22.4" fill="#000000" transform="matrix(1.00, 0.00, -0.00, -1.00, 109.1, 6.0)"> </text><text xml:space="preserve" font-family="Helvetica-Light" font-size="22.4" fill="#000000" transform="matrix(1.00, 0.00, -0.00, -1.00, 115.3, 6.0)">&amp;</text><text xml:space="preserve" font-family="Helvetica-Light" font-size="22.4" fill="#000000" transform="matrix(1.00, 0.00, -0.00, -1.00, 130.3, 6.0)"> </text><text xml:space="preserve" font-family="Helvetica-Light" font-size="22.4" fill="#000000" transform="matrix(1.00, 0.00, -0.00, -1.00, 136.5, 6.0)">S</text><text xml:space="preserve" font-family="Helvetica-Light" font-size="22.4" fill="#000000" transform="matrix(1.00, 0.00, -0.00, -1.00, 150.2, 6.0)">t</text><text xml:space="preserve" font-family="Helvetica-Light" font-size="22.4" fill="#000000" transform="matrix(1.00, 0.00, -0.00, -1.00, 156.5, 6.0)">a</text><text xml:space="preserve" font-family="Helvetica-Light" font-size="22.4" fill="#000000" transform="matrix(1.00, 0.00, -0.00, -1.00, 168.9, 6.0)">t</text><text xml:space="preserve" font-family="Helvetica-Light" font-size="22.4" fill="#000000" transform="matrix(1.00, 0.00, -0.00, -1.00, 175.2, 6.0)">e</text><text xml:space="preserve" font-family="Helvetica-Light" font-size="22.4" fill="#000000" transform="matrix(1.00, 0.00, -0.00, -1.00, 187.6, 6.0)">T</text><text xml:space="preserve" font-family="Helvetica-Light" font-size="22.4" fill="#000000" transform="matrix(1.00, 0.00, -0.00, -1.00, 200.1, 6.0)"> </text><text xml:space="preserve" font-family="Helvetica-Light" font-size="22.4" fill="#000000" transform="matrix(1.00, 0.00, -0.00, -1.00, 206.4, 6.0)">a</text><text xml:space="preserve" font-family="Helvetica-Light" font-size="22.4" fill="#000000" transform="matrix(1.00, 0.00, -0.00, -1.00, 218.8, 6.0)">r</text><text xml:space="preserve" font-family="Helvetica-Light" font-size="22.4" fill="#000000" transform="matrix(1.00, 0.00, -0.00, -1.00, 225.9, 6.0)">e</text><text xml:space="preserve" font-family="Helvetica-Light" font-size="22.4" fill="#000000" transform="matrix(1.00, 0.00, -0.00, -1.00, 238.4, 6.0)"> </text><text xml:space="preserve" font-family="Helvetica-Light" font-size="22.4" fill="#000000" transform="matrix(1.00, 0.00, -0.00, -1.00, 244.6, 6.0)">w</text><text xml:space="preserve" font-family="Helvetica-Light" font-size="22.4" fill="#000000" transform="matrix(1.00, 0.00, -0.00, -1.00, 260.8, 6.0)">e</text><text xml:space="preserve" font-family="Helvetica-Light" font-size="22.4" fill="#000000" transform="matrix(1.00, 0.00, -0.00, -1.00, 273.3, 6.0)">l</text><text xml:space="preserve" font-family="Helvetica-Light" font-size="22.4" fill="#000000" transform="matrix(1.00, 0.00, -0.00, -1.00, 278.3, 6.0)">l</text><text xml:space="preserve" font-family="Helvetica-Light" font-size="22.4" fill="#000000" transform="matrix(1.00, 0.00, -0.00, -1.00, 283.3, 6.0)"> </text><text xml:space="preserve" font-family="Helvetica-Light" font-size="22.4" fill="#000000" transform="matrix(1.00, 0.00, -0.00, -1.00, 289.5, 6.0)">u</text><text xml:space="preserve" font-family="Helvetica-Light" font-size="22.4" fill="#000000" transform="matrix(1.00, 0.00, -0.00, -1.00, 302.0, 6.0)">n</text><text xml:space="preserve" font-family="Helvetica-Light" font-size="22.4" fill="#000000" transform="matrix(1.00, 0.00, -0.00, -1.00, 314.5, 6.0)">d</text><text xml:space="preserve" font-family="Helvetica-Light" font-size="22.4" fill="#000000" transform="matrix(1.00, 0.00, -0.00, -1.00, 328.2, 6.0)">e</text><text xml:space="preserve" font-family="Helvetica-Light" font-size="22.4" fill="#000000" transform="matrix(1.00, 0.00, -0.00, -1.00, 340.6, 6.0)">r</text><text xml:space="preserve" font-family="Helvetica-Light" font-size="22.4" fill="#000000" transform="matrix(1.00, 0.00, -0.00, -1.00, 348.1, 6.0)">s</text><text xml:space="preserve" font-family="Helvetica-Light" font-size="22.4" fill="#000000" transform="matrix(1.00, 0.00, -0.00, -1.00, 359.3, 6.0)">t</text><text xml:space="preserve" font-family="Helvetica-Light" font-size="22.4" fill="#000000" transform="matrix(1.00, 0.00, -0.00, -1.00, 365.6, 6.0)">o</text><text xml:space="preserve" font-family="Helvetica-Light" font-size="22.4" fill="#000000" transform="matrix(1.00, 0.00, -0.00, -1.00, 378.0, 6.0)">o</text><text xml:space="preserve" font-family="Helvetica-Light" font-size="22.4" fill="#000000" transform="matrix(1.00, 0.00, -0.00, -1.00, 390.5, 6.0)">d</text><text xml:space="preserve" font-family="Helvetica-Light" font-size="22.4" fill="#000000" transform="matrix(1.00, 0.00, -0.00, -1.00, 404.2, 6.0)"> </text><text xml:space="preserve" font-family="Helvetica-Light" font-size="22.4" fill="#000000" transform="matrix(1.00, 0.00, -0.00, -1.00, 410.5, 6.0)">(</text><text xml:space="preserve" font-family="Helvetica-Light" font-size="22.4" fill="#000000" transform="matrix(1.00, 0.00, -0.00, -1.00, 417.9, 6.0)">a</text><text xml:space="preserve" font-family="Helvetica-Light" font-size="22.4" fill="#000000" transform="matrix(1.00, 0.00, -0.00, -1.00, 430.4, 6.0)">n</text><text xml:space="preserve" font-family="Helvetica-Light" font-size="22.4" fill="#000000" transform="matrix(1.00, 0.00, -0.00, -1.00, 442.9, 6.0)">d</text><text xml:space="preserve" font-family="Helvetica-Light" font-size="22.4" fill="#000000" transform="matrix(1.00, 0.00, -0.00, -1.00, 456.6, 6.0)"> </text><text xml:space="preserve" font-family="Helvetica-Light" font-size="22.4" fill="#000000" transform="matrix(1.00, 0.00, -0.00, -1.00, 462.8, 6.0)">l</text><text xml:space="preserve" font-family="Helvetica-Light" font-size="22.4" fill="#000000" transform="matrix(1.00, 0.00, -0.00, -1.00, 467.8, 6.0)">a</text><text xml:space="preserve" font-family="Helvetica-Light" font-size="22.4" fill="#000000" transform="matrix(1.00, 0.00, -0.00, -1.00, 480.3, 6.0)">w</text><text xml:space="preserve" font-family="Helvetica-Light" font-size="22.4" fill="#000000" transform="matrix(1.00, 0.00, -0.00, -1.00, 496.5, 6.0)">f</text><text xml:space="preserve" font-family="Helvetica-Light" font-size="22.4" fill="#000000" transform="matrix(1.00, 0.00, -0.00, -1.00, 502.7, 6.0)">u</text><text xml:space="preserve" font-family="Helvetica-Light" font-size="22.4" fill="#000000" transform="matrix(1.00, 0.00, -0.00, -1.00, 515.2, 6.0)">l</text><text xml:space="preserve" font-family="Helvetica-Light" font-size="22.4" fill="#000000" transform="matrix(1.00, 0.00, -0.00, -1.00, 520.2, 6.0)">!</text><text xml:space="preserve" font-family="Helvetica-Light" font-size="22.4" fill="#000000" transform="matrix(1.00, 0.00, -0.00, -1.00, 527.7, 6.0)">)</text></g></svg>